<svg xmlns="http://www.w3.org/2000/svg" width="50" height="34.087" viewBox="0 0 50 34.087">
  <path id="delivery-truck" d="M40.878,643.434a4.617,4.617,0,0,0-3.258,1.344,4.524,4.524,0,0,0,0,6.475,4.635,4.635,0,0,0,3.258,1.344,4.582,4.582,0,0,0,0-9.163Zm0,7.127a2.546,2.546,0,1,1,0-5.091,2.546,2.546,0,0,1,0,5.091Zm1.181-22.389a.989.989,0,0,0-.682-.265H36.154a1.021,1.021,0,0,0-1.018,1.018v8.349a1.021,1.021,0,0,0,1.018,1.018h8.288a1.021,1.021,0,0,0,1.018-1.018v-5.59a1.018,1.018,0,0,0-.336-.753Zm1.364,8.084H37.172v-6.323h3.808l2.443,2.2Zm-27.408,7.178a4.617,4.617,0,0,0-3.258,1.344,4.524,4.524,0,0,0,0,6.475,4.635,4.635,0,0,0,3.258,1.344,4.582,4.582,0,0,0,0-9.163Zm0,7.127a2.546,2.546,0,1,1,0-5.091,2.546,2.546,0,0,1,0,5.091Zm-6.791-5.875H7.178v-2.708a1.018,1.018,0,1,0-2.036,0V645.7a1.021,1.021,0,0,0,1.018,1.018H9.224a1.018,1.018,0,0,0,0-2.036Zm5.162-5.549a1.021,1.021,0,0,0-1.018-1.018H1.018a1.018,1.018,0,0,0,0,2.036h12.35A1.015,1.015,0,0,0,14.386,639.137Zm-11.3-3.676,12.35.071a1.028,1.028,0,0,0,1.028-1.008,1.008,1.008,0,0,0-1.008-1.028l-12.35-.071H3.1a1.018,1.018,0,0,0-.01,2.036Zm2.077-4.622h12.35a1.018,1.018,0,0,0,0-2.036H5.162a1.018,1.018,0,0,0,0,2.036Zm44.461-1.375h0l-7.29-6.038a1,1,0,0,0-.652-.234H33.109v-3.665a1.021,1.021,0,0,0-1.018-1.018H6.16a1.021,1.021,0,0,0-1.018,1.018v7.453a1.018,1.018,0,1,0,2.036,0v-6.435H31.083v24.14H22.735a1.018,1.018,0,0,0,0,2.036H35.166a1.018,1.018,0,1,0,0-2.036H33.12V625.23h8.206l6.638,5.5-.071,13.938H46.834a1.018,1.018,0,1,0,0,2.036H48.9a1.012,1.012,0,0,0,1.018-1.008L50,630.259A1.075,1.075,0,0,0,49.623,629.465Z" transform="translate(0 -618.51)"/>
</svg>
