<svg xmlns="http://www.w3.org/2000/svg" width="20" height="20.002" viewBox="0 0 20 20.002">
  <path id="pencil-create" d="M12.3,7.945,4.7,15.55A2.071,2.071,0,0,0,4,16.868V20l3.064,0a2.076,2.076,0,0,0,1.431-.743L16.057,11.7Zm1.414-1.414,3.754,3.754,2.394-2.394a.462.462,0,0,0,0-.653l-3.1-3.1a.456.456,0,0,0-.648,0ZM16.437,2a2.454,2.454,0,0,1,1.741.723l3.1,3.1a2.462,2.462,0,0,1,0,3.482L9.958,20.624A4.049,4.049,0,0,1,7.135,22H2V21l0-4.215a4.047,4.047,0,0,1,1.323-2.694L14.7,2.725A2.456,2.456,0,0,1,16.437,2Z" transform="translate(-2 -2)" fill-rule="evenodd"/>
</svg>
