<svg xmlns="http://www.w3.org/2000/svg" width="44" height="38.609" viewBox="0 0 44 38.609">
  <g id="gift_1_" data-name="gift (1)" transform="translate(0 -0.101)">
    <path id="Path_5968" data-name="Path 5968" d="M43.9,27.674a2.915,2.915,0,0,0-2.379-2.111V8.843h1.457a.729.729,0,0,0,.728-.728V.83A.728.728,0,0,0,42.979.1H10.927A.728.728,0,0,0,10.2.83V8.115a.729.729,0,0,0,.728.728h1.457V23.412h-.728a9.381,9.381,0,0,0-5.1,1.493V21.227a.728.728,0,0,0-.728-.728H.728A.728.728,0,0,0,0,21.227V37.982a.729.729,0,0,0,.728.728h5.1a.729.729,0,0,0,.728-.728V34.3a9.39,9.39,0,0,0,5.1,1.492H23.617a9.593,9.593,0,0,0,2.454-.324l15.772-4.225A2.925,2.925,0,0,0,43.9,27.674ZM11.655,1.558h30.6V7.386h-30.6Zm2.185,7.285H40.066V25.688l-8.455,2.267a2.928,2.928,0,0,0-1.927-1.692l-9.815-2.633a6.621,6.621,0,0,0-1.693-.218H13.841ZM5.1,37.253H1.457v-15.3H5.1ZM41.465,29.84,25.7,34.065a8.108,8.108,0,0,1-2.079.274H11.655a7.958,7.958,0,0,1-4.808-1.6l-.291-.218V26.69l.291-.219a7.953,7.953,0,0,1,4.808-1.6h6.52a5.149,5.149,0,0,1,1.319.171l9.812,2.63a1.469,1.469,0,0,1,1.07,1.255.712.712,0,0,0,.029.088.718.718,0,0,0-.019.1,1.241,1.241,0,0,1-.048.35,1.457,1.457,0,0,1-1.4,1.077,1.437,1.437,0,0,1-.38-.048l-6.192-1.66a.729.729,0,1,0-.377,1.407L28.178,31.9a2.963,2.963,0,0,0,.758.1,2.909,2.909,0,0,0,2.8-2.14,2.61,2.61,0,0,0,.083-.446L40.7,27.025c.063-.016.132-.032.2-.043a1.457,1.457,0,0,1,1.595,1.071,1.423,1.423,0,0,1,.048.377,1.457,1.457,0,0,1-1.077,1.409Zm0,0"/>
    <path id="Path_5969" data-name="Path 5969" d="M248.728,113.559h7.285a.728.728,0,0,0,0-1.457h-7.285a.728.728,0,1,0,0,1.457Zm0,0" transform="translate(-225.418 -101.802)"/>
  </g>
</svg>
