<svg xmlns="http://www.w3.org/2000/svg" width="18" height="22.328" viewBox="0 0 18 22.328">
  <path id="pin.1" d="M12.658,22.753,12,23.328l-.658-.574C5.811,17.924,3,13.707,3,10a8.867,8.867,0,0,1,9-9,9.111,9.111,0,0,1,7.367,3.733A8.786,8.786,0,0,1,21,10C21,13.707,18.189,17.924,12.658,22.753ZM5,10c0,2.849,2.307,6.434,7,10.663,4.693-4.23,7-7.814,7-10.663a6.871,6.871,0,0,0-7-7A6.871,6.871,0,0,0,5,10Zm7-5a5,5,0,1,1-5,5A5,5,0,0,1,12,5Zm0,2a3,3,0,1,0,3,3A3,3,0,0,0,12,7Z" transform="translate(-3 -1)" fill-rule="evenodd"/>
</svg>
