<svg xmlns="http://www.w3.org/2000/svg" width="51.58" height="40" viewBox="0 0 51.58 40">
  <g id="pizza-slice" transform="translate(0 40) rotate(-90)">
    <g id="Group_1743" data-name="Group 1743" transform="translate(22.901 31.306)">
      <g id="Group_1742" data-name="Group 1742" transform="translate(0 0)">
        <path id="Path_5457" data-name="Path 5457" d="M287.513,152.772a2.715,2.715,0,1,1,2.715-2.715A2.718,2.718,0,0,1,287.513,152.772Z" transform="translate(-284.798 -147.342)"/>
      </g>
    </g>
    <g id="Group_1745" data-name="Group 1745" transform="translate(2.43 0)">
      <g id="Group_1744" data-name="Group 1744">
        <path id="Path_5458" data-name="Path 5458" d="M116.731,124.979a25.9,25.9,0,0,1-3.756,1.666,41.122,41.122,0,0,1-13.813,2.22c-9.495,0-15.417-2.694-17.57-3.884l2.8-7.181a5.74,5.74,0,1,0,2.8-7.2l8.74-22.452a3.471,3.471,0,0,1,6.465,0l3.547,9.113a5.734,5.734,0,1,0,1.326,3.664c0-.092,0-.184-.007-.275Zm-11.953-10.752a5.737,5.737,0,1,0,5.737,5.737A5.744,5.744,0,0,0,104.778,114.228Z" transform="translate(-81.592 -85.944)"/>
      </g>
    </g>
    <g id="Group_1747" data-name="Group 1747" transform="translate(0 41.877)">
      <g id="Group_1746" data-name="Group 1746">
        <path id="Path_5459" data-name="Path 5459" d="M96.837,4.916c-.274.2-6.854,4.786-19.366,4.786S58.379,5.112,58.1,4.916a1.511,1.511,0,0,1-.531-1.778L58.8,0c2.735,1.45,9.01,4.067,18.675,4.067S93.411,1.45,96.146,0l1.222,3.138A1.511,1.511,0,0,1,96.837,4.916Z" transform="translate(-57.471)"/>
      </g>
    </g>
    <g id="Group_1749" data-name="Group 1749" transform="translate(19.654 12.267)">
      <g id="Group_1748" data-name="Group 1748" transform="translate(0 0)">
        <path id="Path_5460" data-name="Path 5460" d="M255.278,341.756a2.715,2.715,0,1,1,2.715-2.715A2.718,2.718,0,0,1,255.278,341.756Z" transform="translate(-252.563 -336.326)"/>
      </g>
    </g>
    <g id="Group_1751" data-name="Group 1751" transform="translate(7.863 27.08)">
      <g id="Group_1750" data-name="Group 1750" transform="translate(0 0)">
        <path id="Path_5461" data-name="Path 5461" d="M138.241,194.723a2.715,2.715,0,1,1,2.715-2.715A2.718,2.718,0,0,1,138.241,194.723Z" transform="translate(-135.526 -189.293)"/>
      </g>
    </g>
  </g>
</svg>
