<svg xmlns="http://www.w3.org/2000/svg" width="20.164" height="26" viewBox="0 0 20.164 26">
  <g id="pizza-slice" transform="translate(77.635 26) rotate(180)">
    <g id="Group_1847" data-name="Group 1847" transform="translate(69.015 7.482)">
      <g id="Group_1846" data-name="Group 1846">
        <path id="Path_5936" data-name="Path 5936" d="M286.167,147.342a1.369,1.369,0,1,0,1.369,1.369A1.37,1.37,0,0,0,286.167,147.342Z" transform="translate(-284.798 -147.342)"/>
      </g>
    </g>
    <g id="Group_1849" data-name="Group 1849" transform="translate(58.696 4.364)">
      <g id="Group_1848" data-name="Group 1848">
        <path id="Path_5937" data-name="Path 5937" d="M99.3,87.9a13.056,13.056,0,0,0-1.893-.84,20.729,20.729,0,0,0-6.963-1.119A18.469,18.469,0,0,0,81.592,87.9L83,91.522a2.893,2.893,0,1,1,1.412,3.628l4.406,11.318a1.75,1.75,0,0,0,3.259,0l1.788-4.593a2.89,2.89,0,1,1,.668-1.847c0,.047,0,.093,0,.139Zm-6.025,5.42a2.892,2.892,0,1,1,2.892-2.892A2.9,2.9,0,0,1,93.28,93.322Z" transform="translate(-81.592 -85.944)"/>
      </g>
    </g>
    <g id="Group_1851" data-name="Group 1851" transform="translate(57.471)">
      <g id="Group_1850" data-name="Group 1850">
        <path id="Path_5938" data-name="Path 5938" d="M77.315,2.412C77.177,2.314,73.86,0,67.553,0s-9.624,2.314-9.762,2.412a.762.762,0,0,0-.268.9l.616,1.582a20.177,20.177,0,0,1,9.414-2.05,20.177,20.177,0,0,1,9.414,2.05l.616-1.582A.762.762,0,0,0,77.315,2.412Z" transform="translate(-57.471)"/>
      </g>
    </g>
    <g id="Group_1853" data-name="Group 1853" transform="translate(67.378 17.079)">
      <g id="Group_1852" data-name="Group 1852">
        <path id="Path_5939" data-name="Path 5939" d="M253.932,336.326a1.369,1.369,0,1,0,1.369,1.369A1.37,1.37,0,0,0,253.932,336.326Z" transform="translate(-252.563 -336.326)"/>
      </g>
    </g>
    <g id="Group_1855" data-name="Group 1855" transform="translate(61.435 9.613)">
      <g id="Group_1854" data-name="Group 1854">
        <path id="Path_5940" data-name="Path 5940" d="M136.895,189.293a1.369,1.369,0,1,0,1.369,1.369A1.37,1.37,0,0,0,136.895,189.293Z" transform="translate(-135.526 -189.293)"/>
      </g>
    </g>
  </g>
</svg>
