<svg xmlns="http://www.w3.org/2000/svg" width="51.58" height="40" viewBox="0 0 51.58 40">
  <g id="pizza-slice" transform="translate(0 40) rotate(-90)">
    <g id="Group_1743" data-name="Group 1743" transform="translate(22.901 14.843)">
      <g id="Group_1742" data-name="Group 1742">
        <path id="Path_5457" data-name="Path 5457" d="M2.715,0A2.715,2.715,0,1,0,5.43,2.715,2.718,2.718,0,0,0,2.715,0Z"/>
      </g>
    </g>
    <g id="Group_1745" data-name="Group 1745" transform="translate(2.43 8.658)">
      <g id="Group_1744" data-name="Group 1744">
        <path id="Path_5458" data-name="Path 5458" d="M35.139,3.886A25.9,25.9,0,0,0,31.383,2.22,41.122,41.122,0,0,0,17.57,0C8.075,0,2.153,2.694,0,3.884l2.8,7.181a5.74,5.74,0,1,1,2.8,7.2l8.74,22.452a3.471,3.471,0,0,0,6.465,0L24.35,31.6a5.734,5.734,0,1,1,1.326-3.664c0,.092,0,.184-.007.275ZM23.186,14.638A5.737,5.737,0,1,1,28.923,8.9,5.744,5.744,0,0,1,23.186,14.638Z"/>
      </g>
    </g>
    <g id="Group_1747" data-name="Group 1747" transform="translate(0 0)">
      <g id="Group_1746" data-name="Group 1746">
        <path id="Path_5459" data-name="Path 5459" d="M39.366,4.786C39.092,4.59,32.512,0,20,0S.908,4.59.634,4.786A1.511,1.511,0,0,0,.1,6.564L1.325,9.7C4.06,8.253,10.335,5.636,20,5.636S35.94,8.253,38.675,9.7L39.9,6.564A1.511,1.511,0,0,0,39.366,4.786Z"/>
      </g>
    </g>
    <g id="Group_1749" data-name="Group 1749" transform="translate(19.654 33.882)">
      <g id="Group_1748" data-name="Group 1748" transform="translate(0 0)">
        <path id="Path_5460" data-name="Path 5460" d="M2.715,0A2.715,2.715,0,1,0,5.43,2.715,2.718,2.718,0,0,0,2.715,0Z"/>
      </g>
    </g>
    <g id="Group_1751" data-name="Group 1751" transform="translate(7.863 19.069)">
      <g id="Group_1750" data-name="Group 1750" transform="translate(0 0)">
        <path id="Path_5461" data-name="Path 5461" d="M2.715,0A2.715,2.715,0,1,0,5.43,2.715,2.718,2.718,0,0,0,2.715,0Z"/>
      </g>
    </g>
  </g>
</svg>
