<svg id="search" xmlns="http://www.w3.org/2000/svg" width="30" height="30" viewBox="0 0 30 30">
  <g id="Group_1437" data-name="Group 1437">
    <g id="Group_1436" data-name="Group 1436">
      <path id="Path_1209" data-name="Path 1209" d="M12.5,25A12.5,12.5,0,1,1,25,12.5,12.448,12.448,0,0,1,12.5,25Zm0-22.222A9.722,9.722,0,1,0,22.222,12.5,9.662,9.662,0,0,0,12.5,2.778Z"/>
    </g>
  </g>
  <g id="Group_1439" data-name="Group 1439" transform="translate(19.444 19.444)">
    <g id="Group_1438" data-name="Group 1438">
      <path id="Path_1210" data-name="Path 1210" d="M23.167,24.556a1.261,1.261,0,0,1-.972-.417l-7.778-7.778a1.375,1.375,0,0,1,1.944-1.944l7.778,7.778a1.343,1.343,0,0,1,0,1.944A1.261,1.261,0,0,1,23.167,24.556Z" transform="translate(-14 -14)"/>
    </g>
  </g>
</svg>
