<svg xmlns="http://www.w3.org/2000/svg" width="48" height="48" viewBox="0 0 48 48">
  <path id="VK_black" d="M24,0A24,24,0,1,0,48,24,24,24,0,0,0,24,0Zm1.954,31.576a1.311,1.311,0,0,1-.7.3h-1.53a8.876,8.876,0,0,1-6.349-2.839c-3.243-3.315-6.106-9.892-6.106-9.892s-.165-.431.014-.639c.2-.235.751-.249.751-.249l3.657-.023a1.593,1.593,0,0,1,.591.233,1.126,1.126,0,0,1,.318.422,23.9,23.9,0,0,0,1.374,2.795c1.529,2.592,2.24,3.159,2.758,2.881.756-.4.53-3.664.53-3.664a3.589,3.589,0,0,0-.381-1.71,1.739,1.739,0,0,0-1.136-.56c-.207-.027.132-.5.57-.707A8.467,8.467,0,0,1,23.51,17.6a6.693,6.693,0,0,1,1.8.176c.971.23.94.967.875,2.557-.02.476-.042,1.027-.042,1.665,0,.143,0,.3-.009.453-.023.815-.049,1.748.5,2.095.281.177.965.026,2.68-2.831a21.662,21.662,0,0,0,1.421-2.946,1.068,1.068,0,0,1,.341-.406.89.89,0,0,1,.5-.086l3.849-.023s1.157-.136,1.344.377c.2.537-.432,1.793-2,3.851-1.492,1.952-2.218,2.671-2.151,3.307.049.465.521.885,1.426,1.709a11.78,11.78,0,0,1,2.519,2.847l.023.04c.848,1.38-.94,1.488-.94,1.488l-3.419.047a2.458,2.458,0,0,1-1.7-.509,8.758,8.758,0,0,1-1.472-1.428c-.72-.81-1.385-1.558-1.952-1.382-.953.3-.924,2.312-.924,2.312A1.084,1.084,0,0,1,25.954,31.576Z" fill-rule="evenodd"/>
</svg>
