<svg xmlns="http://www.w3.org/2000/svg" width="48" height="48" viewBox="0 0 48 48">
  <path id="Twitter_black" d="M24,0A24,24,0,1,0,48,24,24,24,0,0,0,24,0Zm-.668,20.338-.05-.83a4.852,4.852,0,0,1,3.274-4.881,5.734,5.734,0,0,1,2.938-.068,6.831,6.831,0,0,1,1.427.746l.823.559.907-.288A9.364,9.364,0,0,0,34.126,15c.285-.153.537-.237.537-.186a4.93,4.93,0,0,1-1.142,1.813c-.705.763-.5.83.923.322.856-.288.873-.288.705.034a11.072,11.072,0,0,1-1.175,1.305c-.94.932-.99,1.034-.99,1.813a17.481,17.481,0,0,1-1.142,5.084,14.738,14.738,0,0,1-5.59,6.576A14.18,14.18,0,0,1,15.24,33.015,12.776,12.776,0,0,1,12,31.524a4.966,4.966,0,0,1,1.377-.136,9.452,9.452,0,0,0,4.5-1.254l.907-.542-1.041-.356a5.075,5.075,0,0,1-3.139-2.78c-.1-.356-.067-.373.873-.373l.974-.017-.823-.39a5.421,5.421,0,0,1-2.3-2.169,6.072,6.072,0,0,1-.6-2.271,1.98,1.98,0,0,1,.789.186c1.158.424,1.309.322.638-.39a4.891,4.891,0,0,1-1.041-5.017l.285-.813L14.5,16.3a13.654,13.654,0,0,0,7.991,3.932Z" fill-rule="evenodd"/>
</svg>
