<svg xmlns="http://www.w3.org/2000/svg" width="22" height="22" viewBox="0 0 22 22">
  <path id="user" d="M6.035,18.74a9,9,0,0,0,11.929,0C17.672,17.687,15.569,17,12,17S6.328,17.687,6.035,18.74ZM4.6,17.125C5.726,15.638,8.371,15,12,15s6.274.638,7.4,2.125a9,9,0,1,0-14.8,0ZM12,23A11,11,0,1,1,23,12,11,11,0,0,1,12,23ZM8,10a3.851,3.851,0,0,1,4-4,4,4,0,0,1,4,4.2c0,3.28-1.782,4.8-4,4.8C9.761,15,8,13.427,8,10Zm2,0c0,2.269.818,3,2,3s2-.7,2-2.8A2.019,2.019,0,0,0,12,8,1.864,1.864,0,0,0,10,10Z" transform="translate(-1 -1)" fill-rule="evenodd"/>
</svg>
