<svg xmlns="http://www.w3.org/2000/svg" width="49.992" height="50" viewBox="0 0 49.992 50">
  <g id="carrot" transform="translate(-0.031)">
    <path id="Path_5431" data-name="Path 5431" d="M44.37,132.129a8.949,8.949,0,0,1-1.818,1.559l-29.6,18.036a2.718,2.718,0,0,1-4.286-1.918,2.866,2.866,0,0,1,.484-1.884l18.044-29.6a8.915,8.915,0,0,1,8.08-4.078c.2.017.409.033.609.067.033.008.075.008.108.017a7.868,7.868,0,0,1,4.386,2.226l.142.142,3.619,3.619.05.05.142.142a7.819,7.819,0,0,1,2.226,4.378A8.853,8.853,0,0,1,44.37,132.129Z" transform="translate(-7.779 -103.069)" fill="#f57c00"/>
    <path id="Path_5432" data-name="Path 5432" d="M44.489,175.506a8.95,8.95,0,0,1-1.818,1.559L13.07,195.1a2.718,2.718,0,0,1-4.286-1.918l16.327-26.792a8.915,8.915,0,0,1,8.08-4.078c.2.017.409.033.617.067.033.008.067.008.108.017a7.843,7.843,0,0,1,4.378,2.226l.15.142,3.611,3.619.05.05.15.142a7.819,7.819,0,0,1,2.226,4.378A8.471,8.471,0,0,1,44.489,175.506Z" transform="translate(-7.899 -146.447)" fill="#ff9801"/>
    <path id="Path_5433" data-name="Path 5433" d="M3.579,145.367a3.565,3.565,0,0,1-2.908-5.6L18.7,110.184a9.727,9.727,0,0,1,8.854-4.474c.229.018.461.038.684.076a1.427,1.427,0,0,1,.168.028,8.623,8.623,0,0,1,4.778,2.447l3.952,3.952a8.639,8.639,0,0,1,2.461,4.84,9.732,9.732,0,0,1-4.37,9.631l-.022.014L5.6,144.735A3.673,3.673,0,0,1,3.579,145.367ZM26.852,107.35a8.09,8.09,0,0,0-6.741,3.723L2.081,140.654a1.895,1.895,0,0,0,2.633,2.671L34.328,125.28a8.063,8.063,0,0,0,3.624-7.968,6.987,6.987,0,0,0-1.99-3.917l-3.954-3.955a7.04,7.04,0,0,0-3.925-1.992,1.586,1.586,0,0,1-.178-.03c-.118-.017-.3-.032-.479-.046C27.234,107.357,27.043,107.35,26.852,107.35Z" transform="translate(0 -95.367)"/>
    <path id="Path_5434" data-name="Path 5434" d="M246.391,160.458a.832.832,0,0,1-.59-.244l-4.128-4.128a.834.834,0,0,1,1.179-1.179l4.128,4.128a.834.834,0,0,1-.59,1.423Z" transform="translate(-217.826 -139.56)"/>
    <path id="Path_5435" data-name="Path 5435" d="M282.612,244.982a.832.832,0,0,1-.59-.244l-4.128-4.128a.834.834,0,0,1,1.179-1.179l4.128,4.128a.834.834,0,0,1-.59,1.423Z" transform="translate(-250.509 -215.829)"/>
    <path id="Path_5436" data-name="Path 5436" d="M202.946,225.693a.832.832,0,0,1-.59-.244l-2.948-2.948a.834.834,0,1,1,1.179-1.179l2.948,2.948a.834.834,0,0,1-.59,1.423Z" transform="translate(-179.687 -199.488)"/>
    <path id="Path_5437" data-name="Path 5437" d="M164.955,356.749a.832.832,0,0,1-.59-.244l-1.179-1.179a.834.834,0,0,1,1.179-1.179l1.179,1.179a.834.834,0,0,1-.59,1.423Z" transform="translate(-147.003 -319.342)"/>
    <path id="Path_5438" data-name="Path 5438" d="M166.717,286.067a.832.832,0,0,1-.59-.244l-2.948-2.948a.834.834,0,0,1,1.179-1.179l2.948,2.948a.834.834,0,0,1-.59,1.423Z" transform="translate(-146.996 -253.967)"/>
    <path id="Path_5439" data-name="Path 5439" d="M106.869,371.121a.832.832,0,0,1-.59-.244l-2.359-2.358a.834.834,0,0,1,1.179-1.179l2.359,2.358a.834.834,0,0,1-.59,1.423Z" transform="translate(-93.524 -331.246)"/>
    <g id="Group_1738" data-name="Group 1738" transform="translate(27.493 0.834)">
      <path id="Path_5440" data-name="Path 5440" d="M345.63,67.711s-1.568,6.329-3.786,8.555a.106.106,0,0,0-.033.033,8.671,8.671,0,0,1-2.16,1.593,6.161,6.161,0,0,1-1.009.434.123.123,0,0,0-.067.017l-3.619-3.619c.025,0,.042-.008.067-.008a5.959,5.959,0,0,1,.392-.942,8.486,8.486,0,0,1,1.626-2.235l.033-.033C339.3,69.279,345.63,67.711,345.63,67.711Z" transform="translate(-329.712 -61.932)" fill="#4caf50"/>
      <path id="Path_5441" data-name="Path 5441" d="M288.638,17.192c-.008.325-.025.642-.058.951a8.062,8.062,0,0,0-2.018,3.177c-.025,0-.042.008-.067.008l-.142-.142c-.133-.133-.275-.267-.417-.392a7.856,7.856,0,0,0-3.969-1.834c-.033-.008-.075-.008-.108-.017-.2-.033-.409-.05-.609-.067l.709-.1a9.188,9.188,0,0,1-.125-1.543,14.1,14.1,0,0,1,1.559-5.137,38.66,38.66,0,0,1,1.9-3.561S288.655,14.066,288.638,17.192Z" transform="translate(-281.25 -8.537)" fill="#4caf50"/>
      <path id="Path_5442" data-name="Path 5442" d="M385.3,158.481a37.579,37.579,0,0,1-3.561,1.893,13.949,13.949,0,0,1-5.137,1.568,9.79,9.79,0,0,1-1.659-.142l-.058.008a7.748,7.748,0,0,0-1.843-3.961c-.117-.142-.25-.283-.384-.417l-.142-.142a.1.1,0,0,1,.017-.067,8.218,8.218,0,0,0,3.169-2.026c.3-.033.625-.042.942-.05C379.775,155.121,385.3,158.481,385.3,158.481Z" transform="translate(-363.607 -140.828)" fill="#4caf50"/>
    </g>
    <g id="Group_1739" data-name="Group 1739" transform="translate(27.493 4.394)">
      <path id="Path_5443" data-name="Path 5443" d="M341.66,109.42a29.857,29.857,0,0,1-2.016,5.141,6.158,6.158,0,0,1-1.009.434.123.123,0,0,0-.067.017l-3.619-3.619c.025,0,.042-.008.067-.008a5.959,5.959,0,0,1,.392-.942,29.59,29.59,0,0,1,5.216-2.058.831.831,0,0,1,1.036.556A.819.819,0,0,1,341.66,109.42Z" transform="translate(-329.705 -102.161)" fill="#2e7d32"/>
      <path id="Path_5444" data-name="Path 5444" d="M286.135,52.594c-.008.325-.025.642-.058.951-.05.05-.1.1-.142.15a7.856,7.856,0,0,0-3.969-1.834c-.033-.008-.075-.008-.108-.017-.2-.033-.409-.05-.609-.067l.709-.1a9.191,9.191,0,0,1-.125-1.543A14.1,14.1,0,0,1,283.392,45C284.368,46.757,286.144,50.318,286.135,52.594Z" transform="translate(-281.249 -44.998)" fill="#2e7d32"/>
      <path id="Path_5445" data-name="Path 5445" d="M386.6,183.488a13.948,13.948,0,0,1-5.137,1.568,9.79,9.79,0,0,1-1.659-.142l-.058.008a7.749,7.749,0,0,0-1.843-3.961c.05-.05.108-.1.158-.15.3-.033.625-.042.942-.05C381.292,180.744,384.845,182.529,386.6,183.488Z" transform="translate(-368.468 -167.503)" fill="#2e7d32"/>
    </g>
    <path id="Path_5446" data-name="Path 5446" d="M330.862,71.461a.838.838,0,0,1-.59-.243L326.653,67.6a.834.834,0,0,1-.042-1.135,9.116,9.116,0,0,1,2.126-3.23c2.4-2.4,8.71-3.981,8.978-4.047a.835.835,0,0,1,1.011,1.011c-.066.268-1.65,6.581-4,8.945l-.018.017-.017.017a9.117,9.117,0,0,1-3.5,2.23.683.683,0,0,1-.1.025A.852.852,0,0,1,330.862,71.461Zm-2.608-4.62,2.826,2.827A7.725,7.725,0,0,0,333.508,68h0c.01-.011.021-.021.033-.032h0c1.336-1.341,2.532-4.62,3.179-6.768-2.149.648-5.429,1.846-6.768,3.185a7.68,7.68,0,0,0-1.7,2.46Z" transform="translate(-294.505 -53.384)"/>
    <path id="Path_5447" data-name="Path 5447" d="M327.765,132.991a.834.834,0,0,1-.834-.833h0a1.065,1.065,0,0,1,.113-.437.838.838,0,1,1,.721,1.271Z" transform="translate(-294.977 -118.491)"/>
    <path id="Path_5448" data-name="Path 5448" d="M278.787,14.459a.832.832,0,0,1-.59-.244l-.142-.142a7.04,7.04,0,0,0-3.925-1.992,1.586,1.586,0,0,1-.178-.03c-.118-.017-.3-.032-.479-.046a.834.834,0,0,1-.15-1.637c-.022-.274-.033-.554-.033-.838.027-3.328,3.44-8.9,3.585-9.135a.835.835,0,0,1,.71-.4h0a.834.834,0,0,1,.71.4c.142.233,3.483,5.769,3.465,9.092V9.51c-.008.349-.027.689-.062,1.019a.839.839,0,0,1-.239.5,7.261,7.261,0,0,0-1.812,2.838.835.835,0,0,1-.717.58A1.212,1.212,0,0,1,278.787,14.459Zm-3.769-3.906a8.6,8.6,0,0,1,3.5,1.7,9.5,9.5,0,0,1,1.549-2.18c.014-.194.023-.393.028-.594.006-1.881-1.461-5.015-2.516-6.968-1.085,1.97-2.606,5.142-2.621,7.029a8.8,8.8,0,0,0,.059,1.016Z" transform="translate(-246.049)"/>
    <path id="Path_5449" data-name="Path 5449" d="M280.8,106.627a.809.809,0,0,1-.8-.646l.816-.168-.819.157a1.313,1.313,0,0,1-.032-.274.834.834,0,0,1,1.666-.052.84.84,0,0,1-.829.982Z" transform="translate(-252.594 -94.622)"/>
    <path id="Path_5450" data-name="Path 5450" d="M368.915,155.072a10.564,10.564,0,0,1-1.762-.146.872.872,0,0,1-.787-.694,6.983,6.983,0,0,0-1.99-3.913l-.143-.144a.832.832,0,0,1-.244-.59,1.088,1.088,0,0,1,.155-.527.839.839,0,0,1,.437-.333,7.419,7.419,0,0,0,2.838-1.823.83.83,0,0,1,.5-.239c.322-.036.672-.047,1.013-.055h.041c3.345,0,8.836,3.315,9.069,3.457a.834.834,0,0,1,0,1.423C377.808,151.632,372.237,155.045,368.915,155.072Zm-1.022-1.725a8.607,8.607,0,0,0,1.016.058c1.882-.016,5.052-1.536,7.023-2.621-1.946-1.051-5.062-2.508-6.945-2.508h-.029c-.188,0-.387.01-.581.022a9.631,9.631,0,0,1-2.178,1.552A8.638,8.638,0,0,1,367.893,153.346Z" transform="translate(-328.416 -132.291)"/>
  </g>
</svg>
