<svg xmlns="http://www.w3.org/2000/svg" width="44.486" height="55" viewBox="0 0 44.486 55">
  <g id="chef" transform="translate(-48.941)">
    <g id="Group_1734" data-name="Group 1734" transform="translate(57.847 27.5)">
      <path id="Path_5393" data-name="Path 5393" d="M137.907,269.632l-.046.119h-3.1a10.123,10.123,0,0,0-2.924.431c3.181-3.8,2.337-4.877,2.337-7.892A14.519,14.519,0,0,1,136.01,256a2.1,2.1,0,0,0,.018.238,3.789,3.789,0,0,0,.11.632,2.1,2.1,0,0,0,.092.321,1.678,1.678,0,0,0,.1.275,1.35,1.35,0,0,0,.11.266,1.381,1.381,0,0,0,.119.266,5.948,5.948,0,0,0,.284.532q.151.261.33.522c.083.128.174.266.266.394.165.22.339.44.513.66a30.2,30.2,0,0,1,.541,3.163C138.751,265.424,138.806,268.037,137.907,269.632Z" transform="translate(-131.839 -256.001)" fill="#f57c00"/>
      <path id="Path_5394" data-name="Path 5394" d="M323.5,270.18a10.124,10.124,0,0,0-2.924-.431h-3.1l-.046-.119c-.9-1.6-.843-4.207-.587-6.362a30.213,30.213,0,0,1,.541-3.162A7.228,7.228,0,0,0,319.327,256a14.517,14.517,0,0,1,1.833,6.288C321.161,265.3,320.317,266.385,323.5,270.18Z" transform="translate(-296.823 -255.999)" fill="#f57c00"/>
    </g>
    <path id="Path_5395" data-name="Path 5395" d="M182.3,102.844a8.037,8.037,0,0,1-.275,2.053c0,.009-.009.028-.009.037a21.979,21.979,0,0,0-.66,7.883c.018.22.028.449.028.678a4.436,4.436,0,0,1-.413,1.778,10.546,10.546,0,0,1-1.531,2.4,26.4,26.4,0,0,1-3.8,3.658,5.237,5.237,0,0,1-1.393.816,4.176,4.176,0,0,1-.568.2,5.607,5.607,0,0,1-2.172.156l-.312-.055a2.5,2.5,0,0,1-.357-.082,3.748,3.748,0,0,1-.486-.147h-.009c-.119-.046-.229-.092-.339-.137-.009-.009-.009-.009-.018-.009a.183.183,0,0,1-.073-.037,1.336,1.336,0,0,1-.257-.128,1.168,1.168,0,0,1-.247-.147,2.013,2.013,0,0,1-.293-.193,3.724,3.724,0,0,1-.33-.238c-.321-.257-.642-.532-.972-.816l-.495-.44c-.11-.092-.22-.192-.321-.293a20.667,20.667,0,0,1-2.008-2.108c-.11-.138-.22-.266-.321-.4a1.046,1.046,0,0,0-.092-.119c-.018-.028-.037-.046-.055-.073-.11-.156-.211-.3-.312-.458q-.179-.261-.33-.522a.19.19,0,0,0-.028-.046c-.092-.165-.183-.321-.257-.486a1.4,1.4,0,0,1-.119-.266,1.364,1.364,0,0,1-.11-.266.1.1,0,0,1-.028-.073,1.756,1.756,0,0,1-.073-.2,3.913,3.913,0,0,1-.22-1.265c0-.229.009-.458.028-.678a21.983,21.983,0,0,0-.669-7.92,8.037,8.037,0,0,1-.275-2.053,6.409,6.409,0,0,1,.1-1.192,8.437,8.437,0,0,1,3.08-5.225h13.8A8.29,8.29,0,0,1,182.3,102.844Z" transform="translate(-101.031 -86.069)" fill="#fec108"/>
    <path id="Path_5396" data-name="Path 5396" d="M179.549,102.844a8.039,8.039,0,0,1-.275,2.053c0,.009-.009.028-.009.037a21.979,21.979,0,0,0-.66,7.883c.018.22.027.449.027.678,0,2.64-3.135,5.729-5.738,7.837a5.185,5.185,0,0,1-2.053,1.036,4.229,4.229,0,0,1-.486-.147h-.009c-.119-.046-.229-.092-.339-.138-.009-.009-.009-.009-.018-.009a.183.183,0,0,1-.073-.037,1.339,1.339,0,0,1-.257-.128,1.168,1.168,0,0,1-.247-.147,2.013,2.013,0,0,1-.293-.193,3.723,3.723,0,0,1-.33-.238c-.321-.257-.642-.532-.972-.816l-.495-.44-.321-.293a20.668,20.668,0,0,1-2.008-2.108c-.11-.137-.22-.266-.321-.4a1.045,1.045,0,0,0-.092-.119c-.018-.028-.037-.046-.055-.073-.11-.156-.211-.3-.312-.458q-.179-.261-.33-.522a.192.192,0,0,0-.028-.046c-.092-.165-.183-.321-.257-.486a1.4,1.4,0,0,1-.119-.266,1.368,1.368,0,0,1-.11-.266.1.1,0,0,1-.028-.073,1.751,1.751,0,0,1-.073-.2,3.913,3.913,0,0,1-.22-1.265c0-.229.009-.458.028-.678a21.983,21.983,0,0,0-.669-7.92,8.037,8.037,0,0,1-.275-2.053,6.411,6.411,0,0,1,.1-1.192,8.437,8.437,0,0,1,3.08-5.225h11.055A8.29,8.29,0,0,1,179.549,102.844Z" transform="translate(-101.031 -86.069)" fill="#ffecb3"/>
    <path id="Path_5397" data-name="Path 5397" d="M202.865,303.751a1.556,1.556,0,0,0-.183.073,5.76,5.76,0,0,0-1.4.953c-.11.092-.229.193-.339.3-.055.046-.092.082-.147.128l-.009.009h-.009a18.8,18.8,0,0,1-3.327,2.695c-.009.009-.009.009-.018.009-.1.055-.2.11-.3.156-.119.055-.248.11-.367.156a3.452,3.452,0,0,1-.779.193,2.722,2.722,0,0,1-.385.027c-2.081,0-4.024-2.264-5.683-3.676a6.368,6.368,0,0,0-1.3-.908,1.889,1.889,0,0,0-.284-.119,8.549,8.549,0,0,0,.743-4.217c0-.11,0-.22-.009-.339v-.037a.569.569,0,0,0-.009-.119v-.018c0-.128-.009-.257-.018-.385l-.055-.633a1.755,1.755,0,0,1-.018-.22c-.018-.138-.027-.266-.046-.394a30.207,30.207,0,0,0-.541-3.163,26.393,26.393,0,0,0,3.795,3.658,1,1,0,0,0,.156.119.009.009,0,0,0,.009.009h0a1.735,1.735,0,0,0,.165.11.209.209,0,0,0,.092.064.386.386,0,0,0,.128.083,2.294,2.294,0,0,0,.321.192c.037.018.064.037.1.055a.811.811,0,0,0,.156.073,4.845,4.845,0,0,0,.862.312.067.067,0,0,0,.055.018,2.381,2.381,0,0,0,.367.083,2.119,2.119,0,0,0,.257.046c.1.018.211.027.312.037.147.009.284.018.431.018h.046c.128,0,.266-.009.394-.018.11-.009.229-.018.339-.037s.229-.037.339-.064a3.984,3.984,0,0,0,.651-.174,1.523,1.523,0,0,0,.284-.11h.009a.92.92,0,0,0,.137-.064,1.222,1.222,0,0,0,.165-.064c.027-.018.055-.027.083-.046a3.827,3.827,0,0,0,.495-.284,4.594,4.594,0,0,0,.5-.358c.183-.156.376-.312.568-.467.046-.037.092-.083.138-.119.339-.293.688-.6,1.027-.917.183-.165.367-.33.541-.513a19.713,19.713,0,0,0,1.522-1.641,30.205,30.205,0,0,0-.541,3.162C202.022,299.544,201.967,302.156,202.865,303.751Z" transform="translate(-124.412 -262.621)" fill="#fec108"/>
    <path id="Path_5398" data-name="Path 5398" d="M200.969,316.725c-.064.018-.11.046-.174.064l-.009.009h-.009a6.006,6.006,0,0,0-1.393.953c-.614.522-1.256,1.146-1.934,1.742-.009.009-.009.009-.018.009-.1.055-.2.11-.3.156-.119.055-.247.11-.367.156a3.451,3.451,0,0,1-.779.193,2.718,2.718,0,0,1-.385.027c-2.081,0-4.024-2.264-5.683-3.676a6.367,6.367,0,0,0-1.3-.908,1.885,1.885,0,0,0-.284-.119,8.155,8.155,0,0,0,.752-3.868c0-.119,0-.229-.009-.348-.009-.412-.028-.834-.064-1.247a.37.37,0,0,1-.009-.1q.151.151.3.275c.33.284.651.559.972.816a3.741,3.741,0,0,0,.33.238,2.04,2.04,0,0,0,.293.192,1.168,1.168,0,0,0,.248.147,1.355,1.355,0,0,0,.257.128.183.183,0,0,0,.073.037c.009,0,.009,0,.018.009.11.046.22.092.339.138h.009a3.805,3.805,0,0,0,.486.147,2.509,2.509,0,0,0,.357.082l.312.055a5.607,5.607,0,0,0,2.173-.156,4.194,4.194,0,0,0,.568-.2,5.236,5.236,0,0,0,1.393-.816c.284-.229.577-.468.871-.733.009-.009.018-.009.027-.018a24.084,24.084,0,0,0,2.9-2.906c-.046.2-.1.458-.165.761v.009c-.119.633-.266,1.458-.376,2.393-.257,2.126-.312,4.7.559,6.3A.506.506,0,0,0,200.969,316.725Z" transform="translate(-124.413 -274.201)" fill="#ffecb3"/>
    <g id="Group_1735" data-name="Group 1735" transform="translate(59.268 18.792)">
      <path id="Path_5399" data-name="Path 5399" d="M147.126,175.392s-2.062-1.833-2.062,1.833.687,7.333,2.75,4.583" transform="translate(-145.064 -174.934)" fill="#fec108"/>
      <path id="Path_5400" data-name="Path 5400" d="M342.018,175.392s2.063-1.833,2.063,1.833-.688,7.333-2.75,4.583" transform="translate(-320.248 -174.934)" fill="#fec108"/>
    </g>
    <path id="Path_5401" data-name="Path 5401" d="M156.982,8.533q-.921,0-1.815.083h-.037c-5.7.513-10.065,3.364-10.065,6.792a4.1,4.1,0,0,0,.257,1.412l.092.367,1.512,6.169.1.413v.009l.321,1.338c.064-.046.128-.1.2-.147a15.13,15.13,0,0,1,7.6-2.6c.6-.055,1.21-.083,1.833-.083a18.6,18.6,0,0,1,6.417,1.082,12.169,12.169,0,0,1,3.034,1.623c.073.046.138.1.2.147l.312-1.283v-.009l1.678-6.857.009-.046.11-.422a.055.055,0,0,0,.009-.037l.027-.119.055-.22V16.1a3.491,3.491,0,0,0,.064-.688C168.9,11.613,163.563,8.533,156.982,8.533Z" transform="translate(-85.797 -7.616)" fill="#607d8b"/>
    <path id="Path_5402" data-name="Path 5402" d="M165.235,16.094a3.508,3.508,0,0,1-.064.687v.046l-.055.22-.028.119a.056.056,0,0,1-.009.037l-.11.422-.009.046L163.4,24.05a18.6,18.6,0,0,0-6.417-1.082c-.623,0-1.238.028-1.833.083a15.128,15.128,0,0,0-7.6,2.6c-.073.046-.137.1-.2.147l-.321-1.338v-.009l-.1-.413-1.513-6.169-.092-.367a4.1,4.1,0,0,1-.257-1.412c0-3.428,4.363-6.279,10.065-6.792h.037C160.872,9.814,165.235,12.665,165.235,16.094Z" transform="translate(-85.801 -8.302)" fill="#cfd8dc"/>
    <path id="Path_5403" data-name="Path 5403" d="M100.036,363.975l-1.21-3.777a10.3,10.3,0,0,0-2.356-3.658,25.656,25.656,0,0,0-2.283-1.714,9.174,9.174,0,0,0-1.045-.513,10.444,10.444,0,0,0-3.932-.779h-.33l-3.667-3.667-3.1,2.649L78.8,355.368l-.889-.761-5.527-4.739-3.667,3.667h-.33a9.775,9.775,0,0,0-1.943.192,10.559,10.559,0,0,0-1.989.587,9.207,9.207,0,0,0-1.045.513c-.431.312-.779.568-1.054.77a12.245,12.245,0,0,0-1.228.944,10.3,10.3,0,0,0-2.356,3.658l-1.21,3.776a1.836,1.836,0,0,0,1.751,2.393H98.285a1.836,1.836,0,0,0,1.751-2.393Z" transform="translate(-7.612 -312.284)" fill="#607d8b"/>
    <path id="Path_5404" data-name="Path 5404" d="M96.217,366.368h-36.9a1.836,1.836,0,0,1-1.751-2.392l1.21-3.777a10.3,10.3,0,0,1,2.356-3.658,12.284,12.284,0,0,1,1.228-.944c.275-.2.623-.458,1.054-.77a9.175,9.175,0,0,1,1.045-.513,10.568,10.568,0,0,1,1.989-.587,9.771,9.771,0,0,1,1.943-.193h.33l3.667-3.667,5.527,4.739.889.761,3.318-2.851,2.851,2.851h.33a10.447,10.447,0,0,1,3.932.779,9.192,9.192,0,0,1,1.045.513,25.63,25.63,0,0,1,2.283,1.714,10.3,10.3,0,0,1,2.356,3.658l1.21,3.777A1.977,1.977,0,0,1,96.217,366.368Z" transform="translate(-7.616 -312.285)" fill="#cfd8dc"/>
    <path id="Path_5405" data-name="Path 5405" d="M124.223,263.533a.917.917,0,0,1-.7-1.505c2.354-2.809,2.293-3.849,2.181-5.736-.028-.474-.058-.986-.058-1.568a15.338,15.338,0,0,1,1.958-6.75.917.917,0,0,1,1.584.923,13.678,13.678,0,0,0-1.709,5.827c0,.542.029,1.019.055,1.46.138,2.334.085,3.811-2.606,7.022A.914.914,0,0,1,124.223,263.533Z" transform="translate(-66.377 -220.935)"/>
    <path id="Path_5406" data-name="Path 5406" d="M337.883,263.48a.915.915,0,0,1-.7-.328c-2.691-3.211-2.744-4.688-2.606-7.022.026-.441.055-.918.055-1.46a13.593,13.593,0,0,0-1.708-5.826.917.917,0,1,1,1.583-.924,15.342,15.342,0,0,1,1.958,6.75c0,.582-.03,1.094-.058,1.568-.112,1.888-.173,2.927,2.181,5.736a.917.917,0,0,1-.7,1.505Z" transform="translate(-253.361 -220.883)"/>
    <path id="Path_5407" data-name="Path 5407" d="M241.682,249.3h-1.833a.917.917,0,0,1,0-1.833h1.833a.917.917,0,1,1,0,1.833Z" transform="translate(-169.581 -220.884)"/>
    <path id="Path_5408" data-name="Path 5408" d="M140.358,18.174l-.1.073a.917.917,0,0,1-1.422-.534l-.32-1.338c0-.019-.008-.037-.012-.056l-1.678-6.841a4.726,4.726,0,0,1-.264-1.125,4.615,4.615,0,0,1-.033-.559c0-4.369,5.637-7.792,12.833-7.792S162.2,3.423,162.2,7.792q0,.164-.01.32a.912.912,0,0,1-.021.376l-.043.157a.91.91,0,0,1-.017.1l-.08.325c0,.02-.009.04-.015.06h0l-.11.422-1.671,6.841c0,.019-.007.038-.012.056l-.312,1.283a.917.917,0,0,1-.571.642.9.9,0,0,1-.32.058.918.918,0,0,1-.532-.171l-.1-.071c-.024-.015-.106-.075-.129-.092a16.995,16.995,0,0,0-17.778-.015m8.882-4.336a17.768,17.768,0,0,1,9.074,2.258h0l1.8-7.338v0l0-.009L160.3,8.4a.885.885,0,0,1,.014-.1,2.573,2.573,0,0,0,.047-.509c0-3.23-5.037-5.958-11-5.958s-11,2.729-11,5.958a2.961,2.961,0,0,0,.021.351,2.921,2.921,0,0,0,.175.734.91.91,0,0,1,.033.1l1.706,6.952c0,.019.008.038.012.057A17.812,17.812,0,0,1,149.364,13.75Z" transform="translate(-78.18)"/>
    <path id="Path_5409" data-name="Path 5409" d="M169.407,88.886a.911.911,0,0,1-.5-.147c-2.471-1.6-6.243-2.511-10.347-2.511-4.031,0-7.889.935-10.32,2.5a.917.917,0,0,1-.994-1.541c2.756-1.776,6.88-2.8,11.313-2.8s8.582,1.022,11.342,2.805a.917.917,0,0,1-.5,1.687Z" transform="translate(-87.379 -75.328)"/>
    <path id="Path_5410" data-name="Path 5410" d="M165.208,177.843a6.331,6.331,0,0,1-4.009-1.421c-4.031-3.265-6.076-6.141-6.076-8.548,0-.255.01-.51.03-.754l.021-.263c.013-.151.026-.3.031-.453a20.846,20.846,0,0,0-.691-6.882,8.388,8.388,0,0,1-.227-1.132.917.917,0,0,1,1.817-.244h0a6.652,6.652,0,0,0,.176.886,22.626,22.626,0,0,1,.756,7.459c-.005.161-.02.34-.035.521l-.02.249c-.017.206-.025.41-.025.613,0,1.775,1.917,4.306,5.4,7.126a4.526,4.526,0,0,0,5.7,0c3.484-2.822,5.4-5.352,5.4-7.128,0-.2-.008-.407-.024-.6l-.021-.26c-.015-.181-.03-.361-.037-.545a22.584,22.584,0,0,1,.757-7.437,6.631,6.631,0,0,0,.176-.885.917.917,0,1,1,1.817.244h0a8.421,8.421,0,0,1-.226,1.131,20.8,20.8,0,0,0-.693,6.859c.007.177.02.326.033.477l.022.274c.02.234.03.488.03.743,0,2.407-2.045,5.283-6.078,8.55A6.327,6.327,0,0,1,165.208,177.843Z" transform="translate(-94.022 -140.448)"/>
    <path id="Path_5411" data-name="Path 5411" d="M181.833,293.614h-.026a.916.916,0,0,1-.89-.942h0a19.3,19.3,0,0,0-.15-2.79,29.186,29.186,0,0,0-.525-3.071.917.917,0,1,1,1.789-.4h0a31.1,31.1,0,0,1,.557,3.259,21.113,21.113,0,0,1,.161,3.054A.916.916,0,0,1,181.833,293.614Z" transform="translate(-117.175 -255.004)"/>
    <path id="Path_5412" data-name="Path 5412" d="M309.109,293.622a.916.916,0,0,1-.916-.891,21.128,21.128,0,0,1,.162-3.058,31.067,31.067,0,0,1,.556-3.254.917.917,0,0,1,1.79.4,29.173,29.173,0,0,0-.525,3.066,19.346,19.346,0,0,0-.15,2.795.916.916,0,0,1-.89.942h-.027Z" transform="translate(-231.398 -255.012)"/>
    <path id="Path_5413" data-name="Path 5413" d="M138.932,176.394a1.548,1.548,0,0,1-.492-.082c-.472-.157-1.909-.636-1.909-6.382,0-.618,0-2.5,1.265-3.065a2.36,2.36,0,0,1,2.323.546.917.917,0,1,1-1.213,1.375,1.357,1.357,0,0,0-.352-.212,3.25,3.25,0,0,0-.19,1.356c0,2.87.4,4.155.627,4.552a2.86,2.86,0,0,0,.473-.518.917.917,0,0,1,1.466,1.1h0A2.689,2.689,0,0,1,138.932,176.394Z" transform="translate(-78.18 -148.847)"/>
    <path id="Path_5414" data-name="Path 5414" d="M335.26,176.075a2.47,2.47,0,0,1-1.818-1.109c-.048-.052-.09-.1-.13-.156a.947.947,0,0,1,.129-1.3.887.887,0,0,1,1.25.094l.007.009.062.077c.023.024.064.073.085.1a2.466,2.466,0,0,0,.357.374,9.225,9.225,0,0,0,.607-3.758.929.929,0,0,1,.009-.1v-.322c.009-.17.009-.268.009-.367a3.246,3.246,0,0,0-.19-1.357,1.347,1.347,0,0,0-.344.206.917.917,0,0,1-1.224-1.365,2.655,2.655,0,0,1,1.707-.692c.86.031,1.884.613,1.884,3.208,0,.121,0,.242-.008.369,0,.021,0,.042,0,.063v.338a.968.968,0,0,1-.013.146c-.137,4.376-1.138,5.214-1.881,5.464A1.558,1.558,0,0,1,335.26,176.075Z" transform="translate(-253.642 -148.528)"/>
    <path id="Path_5415" data-name="Path 5415" d="M192.315,189.567h-3.667a.917.917,0,0,1,0-1.833h3.667a.917.917,0,1,1,0,1.833Z" transform="translate(-123.881 -167.567)"/>
    <path id="Path_5416" data-name="Path 5416" d="M277.648,189.567h-3.667a.917.917,0,1,1,0-1.833h3.667a.917.917,0,0,1,0,1.833Z" transform="translate(-200.047 -167.567)"/>
    <path id="Path_5417" data-name="Path 5417" d="M205.715,191.4a.917.917,0,0,1-.917-.917v-1.833a.917.917,0,0,1,1.833,0v1.833A.917.917,0,0,1,205.715,191.4Z" transform="translate(-139.114 -167.568)"/>
    <path id="Path_5418" data-name="Path 5418" d="M291.049,191.4a.917.917,0,0,1-.917-.917v-1.833a.917.917,0,0,1,1.833,0v1.833A.917.917,0,0,1,291.049,191.4Z" transform="translate(-215.281 -167.568)"/>
    <path id="Path_5419" data-name="Path 5419" d="M90.672,359.667H51.7a2.753,2.753,0,0,1-2.625-3.587l1.211-3.779a11.2,11.2,0,0,1,2.581-4.026,22.873,22.873,0,0,1,2.392-1.808.8.8,0,0,1,.085-.055,9.938,9.938,0,0,1,1.15-.564,11.3,11.3,0,0,1,4.23-.848l3.4-3.4a.918.918,0,0,1,1.245-.048l5.82,4.989L77,341.554a.917.917,0,0,1,1.245.048l3.4,3.4a11.3,11.3,0,0,1,4.228.847,9.956,9.956,0,0,1,1.151.565.908.908,0,0,1,.086.055,22.866,22.866,0,0,1,2.393,1.808,11.243,11.243,0,0,1,1.677,2.147,11.086,11.086,0,0,1,.889,1.838l1.225,3.818a2.753,2.753,0,0,1-2.623,3.589ZM56.289,347.982c-1.816,1.318-2.049,1.508-2.13,1.589a9.375,9.375,0,0,0-1.4,1.8,9.275,9.275,0,0,0-.743,1.536l-1.2,3.734a.919.919,0,0,0,.878,1.2H90.672a.919.919,0,0,0,.877-1.2l-1.209-3.775a9.257,9.257,0,0,0-.728-1.493,9.4,9.4,0,0,0-1.4-1.8c-.08-.08-.312-.27-2.13-1.589a8.168,8.168,0,0,0-.9-.438,9.467,9.467,0,0,0-3.585-.711h-.33a.917.917,0,0,1-.648-.269L77.553,343.5l-5.772,4.948a.916.916,0,0,1-1.193,0L64.816,343.5l-3.066,3.066a.916.916,0,0,1-.648.269h-.33a9.463,9.463,0,0,0-3.587.712A8,8,0,0,0,56.289,347.982Z" transform="translate(0 -304.667)"/>
    <path id="Path_5420" data-name="Path 5420" d="M234.982,283.434h-3.667a.917.917,0,1,1,0-1.833h3.667a.917.917,0,1,1,0,1.833Z" transform="translate(-161.965 -251.351)"/>
    <path id="Path_5421" data-name="Path 5421" d="M161.987,233.927a.911.911,0,0,1-.549-.183l-.22-.156a.917.917,0,1,1,1.1-1.466l.22.156a.917.917,0,0,1-.551,1.65Z" transform="translate(-99.888 -207.023)"/>
    <path id="Path_5422" data-name="Path 5422" d="M332.95,233.927a.917.917,0,0,1-.551-1.65l.22-.156a.917.917,0,1,1,1.1,1.466l-.22.156A.912.912,0,0,1,332.95,233.927Z" transform="translate(-252.681 -207.023)"/>
    <path id="Path_5423" data-name="Path 5423" d="M359.145,193.492a.917.917,0,0,1-.917-.917.985.985,0,0,1,.016-.167c0-.042,0-.076,0-.108a.919.919,0,0,1-.009-.128v-.046a.917.917,0,0,1,1.833-.049,1.05,1.05,0,0,1,.009.141c0,.139,0,.266-.012.393a1.183,1.183,0,0,1-.022.138A.917.917,0,0,1,359.145,193.492Z" transform="translate(-276.062 -170.676)"/>
    <path id="Path_5424" data-name="Path 5424" d="M137.459,193.427a.917.917,0,0,1-.9-.743,1.142,1.142,0,0,1-.025-.219,2.993,2.993,0,0,1-.009-.312.858.858,0,0,1,.008-.117.965.965,0,0,1,.014-.13.917.917,0,0,1,1.82.156v.028a1.028,1.028,0,0,1-.009.132c0,.042,0,.083,0,.123a1,1,0,0,1,.016.166.917.917,0,0,1-.917.917Zm-.884-1.64h0Z" transform="translate(-78.173 -170.611)"/>
    <path id="Path_5425" data-name="Path 5425" d="M181.029,64.314a.917.917,0,0,1-.87-.627l-.917-2.75a.917.917,0,0,1,1.739-.58l.917,2.75a.917.917,0,0,1-.87,1.207Z" transform="translate(-116.261 -53.314)"/>
    <path id="Path_5426" data-name="Path 5426" d="M308.116,64.314a.918.918,0,0,1-.87-1.207l.917-2.75a.917.917,0,1,1,1.739.58l-.917,2.75A.917.917,0,0,1,308.116,64.314Z" transform="translate(-230.515 -53.313)"/>
    <path id="Path_5427" data-name="Path 5427" d="M248.382,48.983a.917.917,0,0,1-.917-.917V43.584a.917.917,0,1,1,1.833,0v4.483A.917.917,0,0,1,248.382,48.983Z" transform="translate(-177.197 -38.084)"/>
    <path id="Path_5428" data-name="Path 5428" d="M214.249,405.416a.917.917,0,0,1-.917-.917v-6.574a2.732,2.732,0,0,1,.806-1.945l3.13-3.129a.917.917,0,0,1,1.3,1.3l-3.13,3.13a.911.911,0,0,0-.269.648V404.5A.917.917,0,0,1,214.249,405.416Z" transform="translate(-146.731 -350.416)"/>
    <path id="Path_5429" data-name="Path 5429" d="M248.381,437.032a1.285,1.285,0,0,1-.183-.018.6.6,0,0,1-.165-.055.711.711,0,0,1-.165-.083,1.368,1.368,0,0,1-.137-.11.963.963,0,0,1-.266-.651,1.347,1.347,0,0,1,.018-.183.58.58,0,0,1,.055-.165.712.712,0,0,1,.083-.165l.11-.137.137-.11a.692.692,0,0,1,.165-.083.579.579,0,0,1,.165-.055.879.879,0,0,1,.532.055.95.95,0,0,1,.3.193l.11.138a.692.692,0,0,1,.083.165.593.593,0,0,1,.055.165,1.4,1.4,0,0,1,.018.184,1.161,1.161,0,0,1-.018.174.568.568,0,0,1-.055.174.7.7,0,0,1-.083.165l-.11.138a.957.957,0,0,1-.3.192A.924.924,0,0,1,248.381,437.032Z" transform="translate(-177.196 -388.448)"/>
    <path id="Path_5430" data-name="Path 5430" d="M248.38,471.235a1.289,1.289,0,0,1-.183-.018.6.6,0,0,1-.165-.055.713.713,0,0,1-.165-.083,1.384,1.384,0,0,1-.137-.11,1.06,1.06,0,0,1-.193-.3.869.869,0,0,1,0-.7,1.056,1.056,0,0,1,.193-.3.954.954,0,0,1,1-.193.861.861,0,0,1,.3.193,1.066,1.066,0,0,1,.192.3.913.913,0,0,1,.073.349.879.879,0,0,1-.568.843A.774.774,0,0,1,248.38,471.235Z" transform="translate(-177.196 -418.985)"/>
    <path id="Path_5952" data-name="Path 5952" d="M68.6,30.484l.961.852h3.758l.906-.852" fill="none" stroke="#000" stroke-linecap="round" stroke-linejoin="round" stroke-width="2"/>
  </g>
</svg>
