<svg id="heart" xmlns="http://www.w3.org/2000/svg" width="50" height="50" viewBox="0 0 50 50">
  <path id="Path_5451" data-name="Path 5451" d="M57.892,32.7A24.167,24.167,0,0,1,33.725,56.866a14.421,14.421,0,0,1-2.083-.1,24.167,24.167,0,0,1,0-48.133,14.42,14.42,0,0,1,2.083-.1A24.167,24.167,0,0,1,57.892,32.7Z" transform="translate(-8.725 -7.7)" fill="#f4f4f4"/>
  <path id="Path_5452" data-name="Path 5452" d="M53.725,33.547A24.166,24.166,0,0,1,31.642,57.605a24.167,24.167,0,0,1,0-48.133A24.167,24.167,0,0,1,53.725,33.547Z" transform="translate(-8.725 -8.547)" fill="#fff"/>
  <path id="Path_5453" data-name="Path 5453" d="M132.231,152.566a7.246,7.246,0,0,1-.608,2.917l-.225.417-13.525,14.667a.883.883,0,0,1-1.248.035l-.035-.035-1.025-1.117-12.5-13.55-.25-.417a7.342,7.342,0,0,1,1.667-8.217,7.514,7.514,0,0,1,2.45-1.608,8.026,8.026,0,0,1,1.333-.417,7.944,7.944,0,0,1,4.667.417,7.518,7.518,0,0,1,2.45,1.608l.167.175a9.671,9.671,0,0,1,1.667,2.567,9.417,9.417,0,0,1,1.833-2.742,7.514,7.514,0,0,1,2.45-1.608,7.849,7.849,0,0,1,3-.592,7.768,7.768,0,0,1,3,.592,7.518,7.518,0,0,1,2.45,1.608A7.358,7.358,0,0,1,132.231,152.566Z" transform="translate(-92.231 -130.899)" fill="#b71c1c"/>
  <path id="Path_5454" data-name="Path 5454" d="M128.9,154.182a7.246,7.246,0,0,1-.608,2.917l-.225.417-12.5,13.55-12.5-13.55-.25-.417a7.342,7.342,0,0,1,1.667-8.217,7.514,7.514,0,0,1,2.45-1.608,8.026,8.026,0,0,1,1.333-.417,7.776,7.776,0,0,1,1.333.417,11.239,11.239,0,0,1,2.45,1.608,35.073,35.073,0,0,1,3.517,3.633c1.008.142,1.317-.067,1.667-.892.65.692-.35-.833,0,0a9.418,9.418,0,0,1,1.833-2.742,7.514,7.514,0,0,1,2.45-1.608,7.867,7.867,0,0,1,1.342-.417,7.907,7.907,0,0,1,1.325.417,7.517,7.517,0,0,1,2.45,1.608A7.358,7.358,0,0,1,128.9,154.182Z" transform="translate(-92.231 -132.516)" fill="#d50000"/>
  <path id="Path_5455" data-name="Path 5455" d="M25,50A25,25,0,1,1,50,25,25,25,0,0,1,25,50ZM25,1.667A23.333,23.333,0,1,0,48.333,25,23.333,23.333,0,0,0,25,1.667Z"/>
  <path id="Path_5456" data-name="Path 5456" d="M109.75,163.755a1.669,1.669,0,0,1-1.25-.55L94.992,148.538a.8.8,0,0,1-.1-.142l-.25-.417-.042-.092a8.183,8.183,0,0,1,1.842-9.167,8.338,8.338,0,0,1,2.717-1.775,8.786,8.786,0,0,1,6.667,0,8.332,8.332,0,0,1,2.717,1.783,8.726,8.726,0,0,1,1.25,1.583,8.825,8.825,0,0,1,1.258-1.592,8.338,8.338,0,0,1,2.717-1.775,8.786,8.786,0,0,1,6.667,0,8.332,8.332,0,0,1,2.65,1.8,8.2,8.2,0,0,1,1.833,9.15l-.042.092-.25.417a.8.8,0,0,1-.1.142L111,163.2A1.669,1.669,0,0,1,109.75,163.755ZM96.275,147.471,109.75,162.08l13.5-14.608.175-.3a6.479,6.479,0,0,0-1.467-7.233,6.653,6.653,0,0,0-2.208-1.433,7.089,7.089,0,0,0-5.367,0,6.659,6.659,0,0,0-2.192,1.433,8.527,8.527,0,0,0-1.667,2.5.833.833,0,0,1-1.533,0,8.525,8.525,0,0,0-1.667-2.5,6.671,6.671,0,0,0-2.183-1.433,7.081,7.081,0,0,0-5.367,0,6.659,6.659,0,0,0-2.192,1.433,6.463,6.463,0,0,0-1.475,7.242Z" transform="translate(-84.75 -122.98)"/>
</svg>
