<svg xmlns="http://www.w3.org/2000/svg" xmlns:xlink="http://www.w3.org/1999/xlink" width="249.998" height="49.082" viewBox="0 0 249.998 49.082">
  <defs>
    <clipPath id="clip-path">
      <path id="Path_997" data-name="Path 997" d="M258.723,477.229l24.741.318.232-1.42,25.793-.142-2.6,1.868,2.59,1.6-24.088-.053-.244,1.392-28.2-.29Z" transform="translate(-256.945 -475.985)" fill="none"/>
    </clipPath>
  </defs>
  <g id="Group_1767" data-name="Group 1767" transform="translate(17663 22751)">
    <g id="Group_825" data-name="Group 825" transform="translate(-17568.369 -22745.135)">
      <g id="Group_824" data-name="Group 824" transform="translate(0 0)">
        <path id="Path_987" data-name="Path 987" d="M191.6,503.281a18.118,18.118,0,0,1-7.58-.443c.3-.84,1.277-3.611,2-5.881a1.826,1.826,0,0,0,2.142-.013c1.692-1.193,2.475-5.32,1.8-7.415-.326-1.018-.895-1.232-1.317-1.232h-.007c-2.276.016-3.793,1.693-5.714,3.817-.489.542-.994,1.1-1.552,1.677-.62-.633-.753-.787-.821-.864a4.232,4.232,0,0,0-.411-.4,20.864,20.864,0,0,0,3.415-7.48l1.231.318-4.317-2.884-4.714-3.157-2.075-1.392-1.086.109-.013.213c-.03.458-.067,1.052-.11,1.794l-.005.079-.057.052A96.565,96.565,0,0,0,164.043,489c-.2.238-.335.4-.4.474a1.2,1.2,0,0,0-.374,1.192.632.632,0,0,0,.441.449c1.454.3,4.7.8,5.6.937a4.068,4.068,0,0,1-.536,1.831l-.156.162.144.173c.695.835,2.317.783,4.535.442.5-.077,1.573-.325,2.061-.441l.277,1.257c-1.65.281-5.809,1.082-6.178,2.054l-.071.185.162.112a3.162,3.162,0,0,1,1.005,2.212c-.49.681-2.258,3.26-1.688,4.323,1.263,2.354,8.781,1.58,10.249,1.406l1.068,5.573,7.473.012.826-3.536,5.966,2.245,1.064-6.965-.281-.012A15.252,15.252,0,0,0,191.6,503.281Z" transform="translate(-163.225 -470.939)" fill="#fff"/>
        <path id="Path_988" data-name="Path 988" d="M202.9,487c-.4-.081-.821-.129-1.224-.175a12.2,12.2,0,0,1-1.562-.252,22.469,22.469,0,0,1-2.567-.889l-.591-.232a16.315,16.315,0,0,1-3.55-2.1,26.171,26.171,0,0,0-2.274-1.5,16.226,16.226,0,0,0-2.428-1.031,13.467,13.467,0,0,1-2.717-1.213,10.07,10.07,0,0,1-2.262-2.307,12.88,12.88,0,0,0-2.018-2.171,8.306,8.306,0,0,0-1.147-.711,5.014,5.014,0,0,1-1.6-1.167l-.183-.242a13.252,13.252,0,0,0-1.552-1.816l-.2-.185-4.1,5.387.605-.083a15.459,15.459,0,0,1,7.633.617c-1.133.156-1.907.284-2.661.411-1,.167-1.941.326-3.6.518l-.68.079.568.381c2.887,1.937,7.821,5.241,11.429,7.645l.055.028c5.767,2.054,9.548,5.021,11.9,9.337l.218.4,4.859-8.652Z" transform="translate(-163.142 -470.998)" fill="#fff"/>
      </g>
    </g>
    <g id="Group_826" data-name="Group 826" transform="translate(-17663 -22735.229)">
      <path id="Path_989" data-name="Path 989" d="M69.393,500.3l.051-19.093h0l.006-2.374,16.856.044-.007,2.376h0l-.054,19.093-6.537-.018.053-19.093-3.779-.01-.052,19.094ZM89.112,478.89l-.059,21.636,6.589.02,3.845-12.662-.035,12.671,6.589.017.058-21.636-6.588-.018-3.845,12.79.036-12.8Zm46.468.128-.053,19.076,3.808.011.054-19.076,6.587.017-.053,19.73.888.011,8.458-19.717h.089l6.483.016-.053,21.294-6.482-.018.012-5.041-4.451-.012-1.461,3.509h.005l-.063.138-.725,1.741h-.061l-1.373,3.041-2.422-3.057-5.439-.013v0l-3.808-.011v0l-6.589-.02L128.99,479Zm16.268,13.933,3.474.011.021-8.4Zm-42.979-14.006-.06,21.636.511,0h0l5.217.014.862,0h0l3.807.01h0l2.008.005,2.694.007,2.421,3.059,2.223-4.92-2.75-.034.054-19.737-6.591-.017-.052,19.078-3.807-.01.054-19.078Z" transform="translate(-69.393 -478.837)"/>
    </g>
    <g id="Group_827" data-name="Group 827" transform="translate(-17520.268 -22742.492)">
      <path id="Path_990" data-name="Path 990" d="M313.2,480.559a3.81,3.81,0,1,0,4.153,3.794A3.989,3.989,0,0,0,313.2,480.559Zm0,6.83a3.039,3.039,0,1,1,3.192-3.036A3.128,3.128,0,0,1,313.2,487.389Zm.985-2.97V484.4a.843.843,0,0,0,.7-.867c0-.238,0-1.105-1.388-1.105h-1.815v3.794h.949v-1.474h.273c.865,0,.9.314.913.607.024.585-.011.683.154.867h.973c-.166-.207-.131-.315-.166-.9C314.752,484.96,314.716,484.515,314.182,484.419Zm-.842-.347h-.712V483.1h.628c.143,0,.665.011.665.488C313.921,483.811,313.8,484.072,313.34,484.072Z" transform="translate(-210.084 -473.561)"/>
      <path id="Path_991" data-name="Path 991" d="M304.309,487.01c-4.727-.368-7.7,6.769-6.069,11.783-2.862,1.811-4.471-.31-3.744-12.277-2.3.089-9.406-.025-9.406-.025s.4,13.686-3.072,13.43c-.551-.039-1.212-.883-1.4-2.367l.006-1.767a17.742,17.742,0,0,1-6.286-.256c.255-3.628-1.078-7.393-3.582-8.421-6.57-2.7-11.044,4.553-9.315,10.8-2.292,2.405-5.8,2.9-5.6-1.531.144-3.2,3.042-9.87,3.042-9.87l-3.752-.5s-.416.7-.944,1.827a3.547,3.547,0,0,0-1.037-.882c-7.352-3.929-12.885,5.91-11.581,12.008-.736.508-1.85,1.419-3.337.564-2.036-1.171-1.211-13.325-.611-20.746,2.052.088,4.182.159,6.364.189l0,1.427,6.432.065,2.24-3.286-6.633-.084-.01-1.171s-12.754-.426-19.755-.483c-14.776-.121-16.193,4.748-14.62,9.09a5.69,5.69,0,0,0,5.5,3.352c-.028,7.351-.013,13.492-2.3,12.509-.56-.237-.625-1.613-.479-3.116H210.98c-.515,5.2,2.434,6.5,3.854,6.507l.52,0c6.984.019,5.256-13.533,5.791-25.381a107.516,107.516,0,0,1,12.61.2c-.566,8.17-1.393,20.612,1.654,23.462,1.632,1.528,5.076,1.751,7.638-.2a4.721,4.721,0,0,0,1.59,1.076c2.836,1.162,5.8-.392,7.9-3.23,1.642,4.173,6.477,5.169,10.513,1.411a6.214,6.214,0,0,0,6.666,1.683,6.614,6.614,0,0,0,3.9-4,17.774,17.774,0,0,0,3.425.309c.972,4.265,4.144,4.319,4.16,4.319,4.95.115,7.118-3.338,7.74-14.1l1.482.023c.069,5.7.444,10.714,2.59,12.621,2.028,1.805,4.926,1.557,7.068-.216a6.253,6.253,0,0,0,1.74,1.132C309.254,506.148,313.223,487.707,304.309,487.01Zm-87.146-2.3a2.3,2.3,0,0,1-2.465-1.6c-.234-2.047.738-3.273,2.634-3.979C217.23,480.953,217.185,482.84,217.163,484.706Zm29.185,7.465c1.6-4.383,6.938-3.522,5.536,1.271C249.182,502.675,242.707,502.131,246.348,492.171Zm24.748,2.1a8.8,8.8,0,0,1-4.248-5.279,1.844,1.844,0,0,1,.9-.168C269.508,488.945,270.858,491.559,271.1,494.273Zm-3.2,6.024c-3.076.695-3.964-4.362-3.109-7.986a11.734,11.734,0,0,0,5.836,5.588A3.822,3.822,0,0,1,267.893,500.3Zm34.439-1.068c-2.175-1.763-1.213-9.975,1.888-8.933C306.839,491.173,305.034,501.413,302.332,499.229Zm-43.055-24.9-5.446,10.039-4.776-.707L255.9,473.62Z" transform="translate(-210.92 -473.62)"/>
    </g>
    <g id="Group_828" data-name="Group 828" transform="translate(-17569.055 -22751)">
      <path id="Path_992" data-name="Path 992" d="M166.09,490.535s2.672.493,3.575-.25C169.591,489.4,167.565,489.506,166.09,490.535Z" transform="translate(-162.516 -464.972)"/>
      <path id="Path_993" data-name="Path 993" d="M170.052,493.367s5.262.338,6.529-1.891c-2.912-.007-6.524.2-6.524.2Z" transform="translate(-162.482 -464.957)"/>
      <path id="Path_994" data-name="Path 994" d="M187.091,494.954c1.169-.915,2.328-4.291,1.673-5.039s-2.277.516-2.265,4.134c-.7.15-1.063.534-1.008.815C185.577,495.293,186.474,495.437,187.091,494.954Z" transform="translate(-162.351 -464.972)"/>
      <path id="Path_995" data-name="Path 995" d="M214.62,483.266c-2.45-3.267-6.451-5.354-7.767-6.039l-.128-.068a6.08,6.08,0,0,1-.817-1,18.024,18.024,0,0,0-15.621-8.074c-.126,0-.255,0-.384,0s-.24.005-.359.01c-.153.005-.3.009-.44.009a1.559,1.559,0,0,1-1.17-.355c-.568-.548-3.747-1.238-5.591-1.6a47.715,47.715,0,0,0-7.286-.972c-.9,0-1.323.118-1.516.433a.6.6,0,0,0-.014.6,10.535,10.535,0,0,0,3.638,3.7l-4.871,6.4c-.644.127-1.031.234-1.031.234l.607,1.923.074-.007c-.025.4-.055.876-.09,1.474a93.58,93.58,0,0,0-8.686,9.208c-1.314,1.554-.238,2.565.414,2.7,1.74.362,4.865.731,5.075.76a1.725,1.725,0,0,1-.541,1.108l-.268.208s-.084,1.461,2.68,1.586a41.016,41.016,0,0,0,4.495-.631c.007.047.135.246.138.3-2.049.547-3.635.734-4.617,1.105-2.425.918-1.987,1.937-1.987,1.937s.855.015,1.083.668c.031.087.175.91.208,1.07-1.7,1.937-2.262,3.453-1.547,4.809,1.457,3.049,10.259,1.835,10.259,1.835l1.057,5.485,8.547.016.8-3.439,5.564,2.081-.064.073.359.3a19.329,19.329,0,0,0,5.273,3.152l.294-.844a15.86,15.86,0,0,1-2.607-1.306c3.258-.568,3.789-1.993,3.875-2.456a1.528,1.528,0,0,0-.923-1.667c-1.242-.606-3.421-.167-5.6,2.089l1-6.592c2.113.112,4.11.21,6.157-1-1.465-.682-1.853-3.233-3.322-6.286l6.592-11.743a31.615,31.615,0,0,0,3.25.189,21.076,21.076,0,0,0,5.568-.68l.635-.172Zm-14.275,25.528a.673.673,0,0,1,.436.7c-.1.557-1.094,1.566-4.141,1.869-.284-.2-.579-.417-.876-.65C197.628,508.773,199.422,508.344,200.345,508.793Zm-6.1,1.029-5.944-2.237-.847,3.62-7.064-.012-1.073-5.6s-8.926,1.186-10.23-1.246c-.548-1.023,1.725-4.13,1.725-4.13a3.521,3.521,0,0,0-1.12-2.493c.37-.974,6.247-1.939,6.247-1.939l-.39-1.765s-1.642.4-2.29.5c-1.836.28-3.644.439-4.3-.354a5.03,5.03,0,0,0,.626-2.22s-4.12-.614-5.82-.97c-.24-.05-.522-.586.066-1.221a99.28,99.28,0,0,1,8.765-9.277l.132-.122.01-.179c.043-.741.081-1.335.11-1.793.275-.026.536-.052.784-.079l1.839,1.233-.875,2.586-1.954,1.308,7.775-.581,3.008,2.012-.044-.013a20.62,20.62,0,0,1-3.557,7.829c.954.877,0,0,1.567,1.587,2.89-2.959,4.495-5.585,7.265-5.6,2.661-.016,1.015,10.891-2.76,8.008-.874,2.766-2.194,6.449-2.194,6.449a18.448,18.448,0,0,0,7.955.521,15.057,15.057,0,0,1,3.567-.195ZM180.3,482.77l-4.658-.582.354-2.3Zm6.139,3.023c-3.608-2.4-8.541-5.707-11.429-7.643,3.189-.37,3.721-.609,7.128-1.044-2.752-1.456-6.279-1.318-8.558-1l3.563-4.682a15.036,15.036,0,0,1,1.7,2.023c.659.867,1.958,1.264,2.794,1.923,1.644,1.3,2.588,3.382,4.3,4.493,1.524.987,3.576,1.359,5.159,2.252,2.014,1.138,3.65,2.77,5.856,3.624a28.97,28.97,0,0,0,3.188,1.129c.93.238,1.889.251,2.8.433l-4.465,7.951C196.692,491.973,193.5,488.308,186.44,485.793Zm18.14-1.414.014-.036h.005Zm4.233-.63a35.545,35.545,0,0,1-4.574-.352c-.3-.039-.56-.074-.773-.1a24.659,24.659,0,0,1-10.9-3.371,11.646,11.646,0,0,0-2.821-1.284,14.878,14.878,0,0,1-5.538-2.931l-3.227-3.112a25.405,25.405,0,0,1-1.938-2.475l-.053-.085-.084-.05c-2.855-1.783-3.889-2.971-4.422-3.89a4.53,4.53,0,0,1,.572-.026c3.335.009,11.593,1.766,12.258,2.321A2.423,2.423,0,0,0,189.1,469c.159,0,.319-.005.472-.01.114-.005.227-.008.341-.009s.25,0,.372,0c9.22.025,13.057,5.217,14.9,7.712a4.448,4.448,0,0,0,1.121,1.256l.13.069a23,23,0,0,1,7.039,5.249A20.881,20.881,0,0,1,208.813,483.749Z" transform="translate(-162.546 -465.181)"/>
      <path id="Path_996" data-name="Path 996" d="M208.712,483.741a35.55,35.55,0,0,1-4.574-.352c-.3-.039-.56-.074-.773-.1a24.659,24.659,0,0,1-10.9-3.371,11.645,11.645,0,0,0-2.821-1.284,14.879,14.879,0,0,1-5.538-2.931l-3.227-3.112a25.419,25.419,0,0,1-1.938-2.475l-.053-.085-.084-.05c-2.855-1.783-3.889-2.971-4.422-3.89a4.527,4.527,0,0,1,.572-.026c3.335.009,11.593,1.766,12.258,2.321A2.423,2.423,0,0,0,189,469c.159,0,.319-.005.472-.01.114-.005.227-.008.341-.009s.25,0,.372,0c9.22.025,13.057,5.217,14.9,7.712a4.449,4.449,0,0,0,1.121,1.256l.13.069a23,23,0,0,1,7.039,5.249A20.879,20.879,0,0,1,208.712,483.741Z" transform="translate(-162.445 -465.173)" fill="#fff"/>
    </g>
    <g id="Group_830" data-name="Group 830" transform="translate(-17473.85 -22740.105)">
      <g id="Group_829" data-name="Group 829" transform="translate(0 0)" clip-path="url(#clip-path)">
        <rect id="Rectangle_702" data-name="Rectangle 702" width="18.147" height="10.675" transform="translate(-1.319 -4.198)" fill="#2b7729"/>
        <rect id="Rectangle_703" data-name="Rectangle 703" width="18.147" height="10.675" transform="translate(16.828 -4.198)" fill="#fff"/>
        <rect id="Rectangle_704" data-name="Rectangle 704" width="18.147" height="10.675" transform="translate(34.976 -4.198)" fill="#d9000d"/>
      </g>
    </g>
    <path id="Path_998" data-name="Path 998" d="M285.58,481.307l-29.47-.3,2.322-4.279,24.612.316.231-1.412,27.8-.152-3.267,2.349,3.462,2.143-25.444-.056ZM257.8,480.014l26.94.276.243-1.389,22.733.05-1.718-1.064,1.926-1.386-23.788.131-.234,1.428-24.87-.32Z" transform="translate(-17730.801 -23216.096)"/>
  </g>
</svg>
