<svg xmlns="http://www.w3.org/2000/svg" width="151.238" height="72.412" viewBox="0 0 151.238 72.412">
  <g id="Group_3185" data-name="Group 3185" transform="translate(-28.273 -228.076)">
    <path id="Path_1020" data-name="Path 1020" d="M105.152,254.975l-.558-.743c-3.672-4.9-9.557-7.966-11.483-8.97l-.01,0c-.188-.217-.554-.714-.8-1.044-2.651-3.589-8.862-11.993-23.285-12.032-.155,0-.315,0-.475,0h-.12c-.182,0-.363.008-.527.015-.2.007-.378.02-.57.012-.464,0-.559-.055-.568-.063-.407-.392-1.254-1.209-8.676-2.668a68.671,68.671,0,0,0-10.583-1.4c-.921,0-2.639-.006-3.471,1.349a2.4,2.4,0,0,0-.084,2.376,14.451,14.451,0,0,0,4.32,4.84l-5.558,7.3c-.606.132-.964.23-.983.236a1.56,1.56,0,0,0-1.073,1.974l.856,2.708c-.017.272-.035.568-.054.893a134.882,134.882,0,0,0-11.683,12.4l-.251.3a4.1,4.1,0,0,0-1.064,4.088,3.537,3.537,0,0,0,2.521,2.259c1.125.235,2.771.5,4.909.787a1.534,1.534,0,0,0-.125.529,3.209,3.209,0,0,0,.867,2.233,4.3,4.3,0,0,0,1.491,1.05,3.888,3.888,0,0,0-1.174,1.495,2.562,2.562,0,0,0-.058,1.991,1.516,1.516,0,0,0,1.374.941.862.862,0,0,1,.131.023c.024.122.052.273.08.426-1.716,2.081-3.451,4.976-1.909,7.935,2.106,4.324,10.767,3.988,14.619,3.607l1.219,6.321a1.56,1.56,0,0,0,1.529,1.266l12.066.023h0a1.56,1.56,0,0,0,1.519-1.206l.73-3.127,5.568,2.082c.029.028.06.055.091.081l.51.418a28.687,28.687,0,0,0,7.911,4.713,1.56,1.56,0,0,0,1.994-.957l.416-1.192a1.568,1.568,0,0,0-.956-1.986l-.132-.051a5.133,5.133,0,0,0,2.939-3.507,3.708,3.708,0,0,0-2.155-4.037c-1.47-.717-3.82-.791-6.459.694l.609-4.022a13.977,13.977,0,0,0,8.154-1.7,1.56,1.56,0,0,0-.137-2.758c-.812-.378-1.467-2.077-2.224-4.045-.391-1.016-.826-2.145-1.371-3.348L91.419,258.5c1.305.114,2.531.171,3.722.174a31.593,31.593,0,0,0,8.275-1.013l.9-.244a1.561,1.561,0,0,0,.839-2.442Z" fill="#fff"/>
    <g id="Group_876" data-name="Group 876">
      <path id="Path_1021" data-name="Path 1021" d="M176.033,282.938a2.473,2.473,0,0,0-2.042-1.03,2.617,2.617,0,0,0-1.966.9,6.037,6.037,0,0,0-1.136,3.371,1.717,1.717,0,0,0-1.185-.681l-1.354-.148a1.725,1.725,0,0,0-1.454.541,1.719,1.719,0,0,0-.732-.215l-1.363-.087a1.71,1.71,0,0,0-1.252.427,1.69,1.69,0,0,0-.207.216,1.732,1.732,0,0,0-.823-.421l-1.34-.274a1.729,1.729,0,0,0-1.727.652,1.738,1.738,0,0,0-.579-.211l-1.347-.231a1.726,1.726,0,0,0-1.744.763,1.721,1.721,0,0,0-.866-.463l-1.339-.275a1.727,1.727,0,0,0-1.669.577,1.729,1.729,0,0,0-.434-.136l-1.347-.231a1.718,1.718,0,0,0-1.492.458,1.734,1.734,0,0,0-.474-.155l-1.346-.234a1.733,1.733,0,0,0-1.506.47,1.771,1.771,0,0,0-.329-.09l-1.347-.232a1.725,1.725,0,0,0-1.29.292,1.742,1.742,0,0,0-.305.276,3.312,3.312,0,0,0-2.508-.354,3.65,3.65,0,0,0-.681.254,1.734,1.734,0,0,0-.76-.227l-1.364-.079a1.656,1.656,0,0,0-.607.075,4.966,4.966,0,0,0-4.369-2.337,4.887,4.887,0,0,0-3.292,1.483,5.214,5.214,0,0,0-5.228-.791,4.7,4.7,0,0,0-2.807,3.346,1.7,1.7,0,0,0-.372-.089l-.5-.059-.478-.16a1.729,1.729,0,0,0-1.936.609,1.714,1.714,0,0,0-.858-.487l-1.331-.308a1.72,1.72,0,0,0-1.008.071c.07-.531.158-1.112.269-1.751a1.728,1.728,0,0,0-1.6-2.02l-1.351-.079a1.735,1.735,0,0,0-1.483.689,22.258,22.258,0,0,0-1.89,3.114,13.041,13.041,0,0,0-1.371-2.859,1.73,1.73,0,0,0-1.613-.738l-1.237.136a1.729,1.729,0,0,0-1.517,1.443,46.281,46.281,0,0,1-1.293,6.094,1.728,1.728,0,0,0-1.036-.56,3.448,3.448,0,0,0-3.514,1.551,3.776,3.776,0,0,0,.166,4.1,3.963,3.963,0,0,0,3.31,1.671,5.027,5.027,0,0,0,1.016-.107,5.7,5.7,0,0,0,4.018-3.477c.063.314.1.5.1.509a1.731,1.731,0,0,0,1.886,1.4l1.312-.143a1.73,1.73,0,0,0,1.432-1.116c.01-.028.072-.194.177-.464a3.69,3.69,0,0,0,1.577,1.536,3.562,3.562,0,0,0,3.184-.031,3.18,3.18,0,0,0,.609.229,3.309,3.309,0,0,0,3.07-.637,3.191,3.191,0,0,0,.641.38,3.113,3.113,0,0,0,1.278.271,4.745,4.745,0,0,0,3.452-1.883c.467.423.98.845,1.548,1.266a26.663,26.663,0,0,0,2.913,2,2.229,2.229,0,0,0,1.089.3,3.742,3.742,0,0,0,2.345-1.208c.2-.181.43-.386.692-.593a15.961,15.961,0,0,0,2.662-2.636,1.729,1.729,0,0,0,1.687,1.4l1.366.008a1.69,1.69,0,0,0,1.562-.97,3.059,3.059,0,0,0,1.256.738,3.615,3.615,0,0,0,2.8-.3,3.053,3.053,0,0,0,1.953-.027,3.347,3.347,0,0,0,.617-.289,3.022,3.022,0,0,0,.628.352,3.246,3.246,0,0,0,3.038-.351,3.058,3.058,0,0,0,1.817.184,3.2,3.2,0,0,0,.116.505,2.94,2.94,0,0,0,2.8,2.051,3.049,3.049,0,0,0,.571-.054,3.867,3.867,0,0,0,2.832-2.71,3.242,3.242,0,0,0,1.526-.144,3.166,3.166,0,0,0,.1.409,3.1,3.1,0,0,0,2.951,2.159,3.154,3.154,0,0,0,.765-.1,3.256,3.256,0,0,0,.932-.4c.024.1.052.183.081.264a2.731,2.731,0,0,0,2.594,1.808,2.936,2.936,0,0,0,.481-.04c1.335-.223,2.915-1.458,3.566-4.234.251-.172.523-.346.8-.52a2.767,2.767,0,0,0,1.652.541c.045,0,.091,0,.136,0a2.613,2.613,0,0,0,2.559-2.657,2.407,2.407,0,0,0-.268-.989C176.39,288.562,177.324,284.7,176.033,282.938Zm-3.139,9.682a.841.841,0,0,1-.068-.066h0a1.079,1.079,0,0,0,.509.1h0l.006.117A.681.681,0,0,1,172.894,292.62Zm.447.15-.005-.117a1.083,1.083,0,0,0,.51-.154A.708.708,0,0,1,173.341,292.77Z" fill="#fff"/>
      <path id="Path_1022" data-name="Path 1022" d="M174.958,234.9a4.54,4.54,0,0,0-4.333,2.993,1.708,1.708,0,0,0-.825-.221l-5.038-.013h-.007a1.726,1.726,0,0,0-1.588,1.047l-3.836,8.939.023-8.271a1.728,1.728,0,0,0-1.724-1.733l-5.053-.013h0a1.727,1.727,0,0,0-1.459.8,1.671,1.671,0,0,0-.238-.3,1.733,1.733,0,0,0-1.221-.51l-5.056-.012h0a1.721,1.721,0,0,0-1.2.485,1.728,1.728,0,0,0-1.2-.494l-5.056-.013h0a1.726,1.726,0,0,0-1.458.8,1.784,1.784,0,0,0-.237-.3,1.726,1.726,0,0,0-1.221-.509l-5.057-.014h-.005a1.716,1.716,0,0,0-1.059.372,1.712,1.712,0,0,0-1.062-.378l-5.054-.014h-.005a1.727,1.727,0,0,0-1.459.8,1.726,1.726,0,0,0-1.458-.809l-5.056-.015a1.646,1.646,0,0,0-1.077.383,1.724,1.724,0,0,0-1.075-.389l-12.931-.034h0A1.729,1.729,0,0,0,97.19,239.2l-.043,16.469a1.728,1.728,0,0,0,1.723,1.733l5.014.014h0a1.728,1.728,0,0,0,1.219-.5,1.786,1.786,0,0,0,.228-.281,1.693,1.693,0,0,0,.227.281,1.725,1.725,0,0,0,1.22.509l5.015.014h.005a1.713,1.713,0,0,0,.995-.319,1.714,1.714,0,0,0,1.153.454l5.055.015h.005a1.728,1.728,0,0,0,1.459-.8,1.749,1.749,0,0,0,.239.3,1.725,1.725,0,0,0,1.22.509l5.055.013h0a1.713,1.713,0,0,0,1.059-.371,1.711,1.711,0,0,0,1.057.377l1.661.005-.873,1.28-3.283-.041a1.729,1.729,0,0,0-1.469-.917c-.1,0-9.867-.327-15.2-.371-6.564-.053-10.612,1.138-12.384,3.643a6.069,6.069,0,0,0,3.638,9.157c-.009,1.338-.028,2.765-.091,3.978a1.709,1.709,0,0,0-.3-.027H98.2a1.728,1.728,0,0,0-1.72,1.558,6.659,6.659,0,0,0,1.4,5.364,4.536,4.536,0,0,0,3.274,1.526h.417c5.961,0,6.006-7.892,6.05-15.523.008-1.329.016-2.691.05-4.031,1.757-.042,3.842.037,6.16.147-.537,8.315-.63,15.226,1.93,17.622a6.339,6.339,0,0,0,6.926.672,5.309,5.309,0,0,0,.68.337,6.207,6.207,0,0,0,6.469-1.289,5.809,5.809,0,0,0,2.929,1.667,6.884,6.884,0,0,0,5.349-1.147,6.461,6.461,0,0,0,9.125-2.112c.124.012.248.023.373.032a5.113,5.113,0,0,0,4.421,3.358h0a6.151,6.151,0,0,0,6.3-4.267,6.071,6.071,0,0,0,1.653,2.711,5.643,5.643,0,0,0,6.528.646,6.645,6.645,0,0,0,.684.347,4.817,4.817,0,0,0,5.392-.953c2.474-2.285,3.563-7.1,2.379-10.513a5.671,5.671,0,0,0-5.035-4.022h0a5.568,5.568,0,0,0-4.85,2.326,8.91,8.91,0,0,0-1.21,2.089c.015-.847.054-1.829.123-2.966a1.727,1.727,0,0,0-.49-1.313,1.706,1.706,0,0,0-1.3-.519c-1.7.065-7.068-.02-7.122-.021a1.7,1.7,0,0,0-1.257.514,1.729,1.729,0,0,0-.5,1.264,38.243,38.243,0,0,1-.3,6.061,1.7,1.7,0,0,0-.246-.27,1.726,1.726,0,0,0-1.356-.424,13.277,13.277,0,0,1-2.893.055c-.194-2.722-1.366-5.591-3.813-6.6a6.5,6.5,0,0,0-7.013,1.065,7.969,7.969,0,0,0-1.859,2.476c.245-.64.487-1.232.7-1.713a1.729,1.729,0,0,0-1.357-2.4l-1.965-.262.48-.885,21.685.217h.018a1.727,1.727,0,0,0,1.6-1.065l17.068.038h0a1.728,1.728,0,0,0,1.1-3.057,1.729,1.729,0,0,0-1.1-3.062h-.01l-13.511.075.479-1.062a1.743,1.743,0,0,0,.216-.376l.537-1.29.048-.106c.021-.049.041-.1.058-.147l.635-1.524h.531l-.006,2.139a1.728,1.728,0,0,0,1.723,1.732l4.973.014a1.8,1.8,0,0,0,1.224-.5,1.726,1.726,0,0,0,.509-1.221l.034-13.718a4.649,4.649,0,0,0,3.441,1.5,4.315,4.315,0,1,0,0-8.617Zm-54.716,28.758c.577.02,1.129.036,1.664.05a1.729,1.729,0,0,0,1.6,1.125l2.362.024a1.712,1.712,0,0,0-.092,1.269,7.243,7.243,0,0,0-1.836,1.006,11.284,11.284,0,0,0-4.035,7.228A86.2,86.2,0,0,1,120.242,263.658Zm6.717,9.072h0a1.637,1.637,0,0,1,.781-1,1.057,1.057,0,0,1,.239-.064,1.386,1.386,0,0,1-.054.961,8.525,8.525,0,0,1-1.693,3.39A10,10,0,0,1,126.959,272.73Zm17.171-13.751.6-1.318,4.874.015c.03,0,.059,0,.088,0l2.729.007c.035,0,.07,0,.1,0l3.34.007.327.414-1.908.011a1.731,1.731,0,0,0-1.59,1.071l-8.623-.108C144.086,259.045,144.113,259.016,144.13,258.979Zm-4.27-1.332,1.1,1.394-4.076-.051a1.723,1.723,0,0,0-.063-1.268c-.014-.03-.036-.055-.051-.083Zm2.005,20.724-.3-1.189.038.025.264,1.164Zm-6.85-2.472a2.1,2.1,0,0,1-.615.287,2.71,2.71,0,0,1-.048-.741,14.892,14.892,0,0,1,.822-3.373A9.847,9.847,0,0,0,135.015,275.9Z" fill="#fff"/>
    </g>
    <g id="Group_879" data-name="Group 879">
      <g id="Group_877" data-name="Group 877">
        <path id="Path_1023" data-name="Path 1023" d="M122.053,288.836c.221-2.361,3.159-3.7,5.484-1.781.619.51.948,1.187,1.46.506a3.908,3.908,0,0,1,2.752-1.737,3.1,3.1,0,0,1,3.323,2.973c0,2.846-2.28,5.2-4.029,6.579-1.087.861-1.642,1.666-2.221,1.347a25.3,25.3,0,0,1-2.717-1.877C124.094,293.354,121.838,291.143,122.053,288.836Z" fill="#d9000d"/>
        <path id="Path_1024" data-name="Path 1024" d="M124.487,287.138c.544-.294,1.6-.027,1.149.714-.169.279-1.731.346-1.778,3.01C122.7,289.047,123.489,287.678,124.487,287.138Z" fill="#fff"/>
      </g>
      <g id="Group_878" data-name="Group 878">
        <path id="Path_1025" data-name="Path 1025" d="M120.058,293.753c-.006,0-.629-.407-.209-3.992l-.679-.079-.647-.217a4.225,4.225,0,0,1-2.228,2.329c.412.885.151,1.915-.146,2.051-.967.443-.754-2.074-.261-4.213l-1.331-.308a12.836,12.836,0,0,0-.353,3.685c-.789.792-1.313.968-1.527.861-.507-.253-1.2-2.294-.173-8.2l-1.351-.079a34.037,34.037,0,0,0-3.625,7.074c-.5-2.1-1.385-5.34-2.442-6.875l-1.237.136c-1.065,6.605-1.993,9.093-3.68,9.44a1.07,1.07,0,0,1-1.165-.3.674.674,0,0,1-.074-.7c.026-.041.1-.169.427-.12l.2-1.352a1.728,1.728,0,0,0-1.791.752,2.028,2.028,0,0,0,.115,2.2,2.22,2.22,0,0,0,1.893.933,3.346,3.346,0,0,0,.668-.071c2.428-.5,3.468-3.176,4.427-8.5a59.833,59.833,0,0,1,1.737,6.912l1.312-.143a64.84,64.84,0,0,1,2.81-6.37c-.379,3.734.068,5.865,1.337,6.5a1.661,1.661,0,0,0,.753.179,2.972,2.972,0,0,0,1.808-.8,1.489,1.489,0,0,0,.9.7,2.046,2.046,0,0,0,.525.073,1.478,1.478,0,0,0,1-.376,2.716,2.716,0,0,0,.8-2.449,3.56,3.56,0,0,0,.481-.383c.02,1.676.392,2.628,1.158,2.97a1.4,1.4,0,0,0,.574.121,3.13,3.13,0,0,0,2.2-1.339l-1.025-.9C120.594,293.619,120.147,293.779,120.058,293.753Z"/>
        <path id="Path_1026" data-name="Path 1026" d="M169.4,291.591c.015-.672.036-1.147.057-1.608.033-.733.063-1.426.062-2.77l-1.354-.148c-.478,2.382-1.672,4.161-2.042,3.873-.383-.227-.154-2.156-.066-3.541l-1.364-.087a21.4,21.4,0,0,0-.011,3.16,10.855,10.855,0,0,0-1.919.976c-.239.016-.369,0-.443-.075-.169-.174-.522-.9-.145-3.87l-1.34-.275c-.758,2.9-2.141,4.419-2.474,4.338s-.061-2.241.222-3.886l-1.347-.231a18.589,18.589,0,0,0-.316,3.111,13.012,13.012,0,0,0-1.851,1.127c-.18.005-.289-.014-.353-.079-.17-.174-.523-.9-.145-3.869l-1.339-.276c-.751,2.869-1.886,4.507-2.273,4.329s-.056-2.242.225-3.877l-1.348-.231a20.762,20.762,0,0,0-.315,2.772c-1.025,1.452-1.469,1.863-1.689,1.68s-.524-.922.037-4.149l-1.347-.234c-.763,2.921-1.719,4.563-2.061,4.24s-.049-2.242.229-3.86l-1.347-.232a19.577,19.577,0,0,0-.317,2.963c-.726,1.279-1.061,1.494-1.381,1.236-.343-.277.446-2.959-.484-3.837a1.5,1.5,0,0,0-1.192-.179,3.874,3.874,0,0,0-2.055,1.881c.02-.626.045-1.25.077-1.8l-1.364-.08c-.132,2.238-.151,5.65-.151,5.684l1.366.008c.493-2.283,2.069-4.59,2.417-4.085s-.87,3.365.916,3.934a2.081,2.081,0,0,0,2.193-.784,1.041,1.041,0,0,0,.249.291,1.263,1.263,0,0,0,.767.261,1.39,1.39,0,0,0,.455-.08,3.275,3.275,0,0,0,1.486-1.448,1.873,1.873,0,0,0,.986,1.545,1.29,1.29,0,0,0,.5.1,2.888,2.888,0,0,0,1.926-1.15,1.23,1.23,0,0,0,.374.555,1.272,1.272,0,0,0,.775.26,1.478,1.478,0,0,0,.486-.085,3.911,3.911,0,0,0,1.789-1.79,2.431,2.431,0,0,0,.577,1.262,1.467,1.467,0,0,0,.2.16,2.247,2.247,0,0,0-.668,2.1,1.2,1.2,0,0,0,1.158.851,1.361,1.361,0,0,0,.252-.024c.837-.158,1.756-1.111,1.781-3.263.19-.119.406-.242.634-.367a1.188,1.188,0,0,0,1.2.925,1.563,1.563,0,0,0,.519-.092,4.262,4.262,0,0,0,1.938-1.873,2.52,2.52,0,0,0,.59,1.352,1.546,1.546,0,0,0,.221.177,1.991,1.991,0,0,0-.462,1.861,1.372,1.372,0,0,0,1.307.964,1.4,1.4,0,0,0,.343-.043c.815-.2,1.554-1.12,1.39-3.064.265-.14.571-.281.906-.42a1.288,1.288,0,0,0,1.024.514,1.431,1.431,0,0,0,.327-.039,3.13,3.13,0,0,0,1.654-1.358c-.008.259-.016.539-.023.873-.005.3-.022.575-.048.833-1.944,1.579-2.448,2.85-2.171,3.613a1.007,1.007,0,0,0,.97.671,1.117,1.117,0,0,0,.2-.017c.927-.154,1.932-1.319,2.288-3.533a20.322,20.322,0,0,1,1.9-1.254l-.694-1.177C170.082,291.152,169.727,291.373,169.4,291.591Zm-14.981,2.794c-.189-.344.209-.877.794-1.331C155.114,293.774,154.6,294.729,154.416,294.385Zm7.949-.226c-.429-.143.138-1.057.763-1.372C163.065,293.253,162.849,294.32,162.365,294.159Z"/>
        <path id="Path_1027" data-name="Path 1027" d="M173.991,283.636c-2.032,0-1.3,6.505-1.3,6.505l1.362.107S176.133,283.636,173.991,283.636Z"/>
        <path id="Path_1028" data-name="Path 1028" d="M173.258,291.044a.817.817,0,1,0,.992.759A.889.889,0,0,0,173.258,291.044Z"/>
        <path id="Path_1029" data-name="Path 1029" d="M103.889,255.692l.041-14.649,2.9.008-.041,14.648,5.015.014.041-14.648h0l.005-1.823-12.931-.034,0,1.821h0l-.039,14.648Z"/>
        <path id="Path_1030" data-name="Path 1030" d="M114,239.249l-.045,16.6,5.054.015,2.95-9.714-.026,9.721,5.054.013.045-16.6-5.054-.014-2.95,9.812.027-9.819Z"/>
        <path id="Path_1031" data-name="Path 1031" d="M144.6,239.335l-.046,16.6,5.055.016v0l2.921.008v0l4.173.01,1.858,2.346,1.053-2.333h.047l.556-1.336.048-.106h0l1.122-2.692,3.414.01-.01,3.866,4.973.014L169.8,239.4l-4.973-.013h-.068l-6.49,15.126-.68-.008.041-15.136-5.054-.013-.041,14.635-2.922-.008.042-14.635Zm20.217,4.263-.016,6.447-2.665-.009Z"/>
        <path id="Path_1032" data-name="Path 1032" d="M129.159,239.291l-.045,16.6h.392l4,.011.662,0h0l2.921.008h0l1.54,0,2.066.006,1.858,2.346,1.706-3.774-2.11-.026.041-15.141-5.056-.014-.04,14.636-2.921-.008.041-14.636Z"/>
        <path id="Path_1033" data-name="Path 1033" d="M169.8,268.178c-3.627-.283-5.907,5.193-4.656,9.039-2.2,1.389-3.43-.238-2.872-9.418-1.766.068-7.217-.02-7.217-.02s.3,10.5-2.357,10.3c-.421-.031-.929-.678-1.07-1.816l0-1.356a13.592,13.592,0,0,1-4.822-.2c.2-2.784-.827-5.672-2.748-6.461-5.04-2.068-8.472,3.494-7.146,8.289-1.759,1.845-4.446,2.224-4.293-1.176.111-2.453,2.334-7.571,2.334-7.571l-2.879-.384s-.318.538-.724,1.4a2.75,2.75,0,0,0-.8-.678c-5.639-3.013-9.884,4.534-8.884,9.213a2.183,2.183,0,0,1-2.56.433c-1.562-.9-.929-10.222-.468-15.916,1.574.067,3.208.122,4.882.145l0,1.094,4.935.05,1.718-2.521-5.089-.064-.007-.9s-9.784-.327-15.155-.371c-11.335-.092-12.423,3.643-11.216,6.974a4.364,4.364,0,0,0,4.218,2.571c-.021,5.64-.009,10.351-1.761,9.6-.429-.183-.48-1.238-.368-2.391H98.2c-.4,3.988,1.866,4.99,2.956,4.992h.4c5.359.015,4.033-10.382,4.444-19.472a82.582,82.582,0,0,1,9.674.154c-.435,6.267-1.069,15.812,1.269,18,1.252,1.172,3.893,1.343,5.859-.153a3.622,3.622,0,0,0,1.221.825c2.175.892,4.45-.3,6.059-2.478,1.26,3.2,4.969,3.966,8.065,1.083a4.768,4.768,0,0,0,5.114,1.291,5.075,5.075,0,0,0,2.994-3.065,13.665,13.665,0,0,0,2.628.236c.746,3.272,3.179,3.314,3.191,3.314,3.8.088,5.461-2.561,5.939-10.82l1.136.017c.053,4.375.34,8.219,1.987,9.683a4.091,4.091,0,0,0,5.422-.166,4.8,4.8,0,0,0,1.335.868C173.6,282.859,176.64,268.712,169.8,268.178Zm-66.855-1.768a1.768,1.768,0,0,1-1.891-1.225,2.674,2.674,0,0,1,2.021-3.052C103,263.531,102.964,264.979,102.947,266.41Zm22.389,5.726c1.228-3.361,5.323-2.7,4.248.976C127.51,280.2,122.543,279.778,125.336,272.136Zm18.987,1.614a6.753,6.753,0,0,1-3.259-4.05,1.423,1.423,0,0,1,.688-.129C143.1,269.662,144.14,271.668,144.323,273.75Zm-2.458,4.621c-2.359.533-3.041-3.346-2.385-6.127a9,9,0,0,0,4.477,4.287A2.93,2.93,0,0,1,141.865,278.371Zm26.421-.819c-1.67-1.352-.931-7.652,1.447-6.854C171.743,271.371,170.358,279.227,168.286,277.552Z"/>
        <path id="Path_1034" data-name="Path 1034" d="M174.958,236.628a2.591,2.591,0,1,0,2.824,2.581A2.714,2.714,0,0,0,174.958,236.628Zm0,4.645a2.067,2.067,0,1,1,2.171-2.064A2.127,2.127,0,0,1,174.958,241.273Z"/>
        <path id="Path_1035" data-name="Path 1035" d="M175.628,239.253v-.015a.572.572,0,0,0,.476-.589c0-.162,0-.752-.944-.752h-1.235v2.58h.646v-1h.186c.589,0,.613.214.621.413.016.4-.008.465.1.59h.662c-.113-.14-.089-.214-.113-.612C176.015,239.622,175.991,239.319,175.628,239.253Zm-.573-.236h-.484v-.663H175c.1,0,.452.007.452.331C175.451,238.84,175.37,239.017,175.055,239.017Z"/>
        <path id="Path_1036" data-name="Path 1036" d="M133.263,263.2l22.142.222.187-1.068,18.48.041-1.987-1.23,1.992-1.433-19.788.109-.178,1.089-19.485-.244Z"/>
        <path id="Path_1037" data-name="Path 1037" d="M132.663,257.905l-5.25,7.7,3.665.542,4.178-7.7Z"/>
      </g>
    </g>
    <path id="Path_1038" data-name="Path 1038" d="M34.877,265.726s3.771.7,5.046-.353C39.818,264.12,36.959,264.273,34.877,265.726Z"/>
    <path id="Path_1039" data-name="Path 1039" d="M40.518,269.744s7.428.477,9.217-2.67c-4.111-.009-9.21.281-9.21.281Z"/>
    <path id="Path_1040" data-name="Path 1040" d="M64.758,271.964c1.649-1.29,3.285-6.058,2.361-7.113s-3.215.728-3.2,5.837c-.987.212-1.5.753-1.423,1.15C62.62,272.443,63.887,272.646,64.758,271.964Z"/>
    <path id="Path_1041" data-name="Path 1041" d="M103.346,255.168c-3.457-4.612-9.107-7.558-10.964-8.526l-.181-.1a8.575,8.575,0,0,1-1.154-1.406c-2.513-3.4-8.4-11.362-22.052-11.4-.178,0-.361,0-.543,0s-.338.007-.507.014c-.216.007-.418.013-.621.013a2.2,2.2,0,0,1-1.651-.5c-.8-.773-5.289-1.748-7.894-2.26a67.179,67.179,0,0,0-10.285-1.372c-1.269,0-1.868.167-2.14.61a.844.844,0,0,0-.02.848c.9,1.768,2.486,3.387,5.135,5.224l-6.876,9.037c-.91.179-1.455.33-1.455.33l.857,2.715.1-.01c-.035.557-.077,1.236-.126,2.081a132.164,132.164,0,0,0-12.263,13c-1.855,2.194-.336,3.619.583,3.812,2.457.512,6.869,1.032,7.165,1.073a2.436,2.436,0,0,1-.763,1.566l-.379.293s-.118,2.063,3.783,2.239c1.441.065,3.915-.581,6.346-.891.01.068.191.348.195.419-2.892.771-5.131,1.037-6.518,1.56-3.425,1.3-2.8,2.735-2.8,2.735s1.207.021,1.528.943c.044.122.249,1.284.293,1.511-2.4,2.734-3.193,4.875-2.183,6.788,2.057,4.3,14.482,2.589,14.482,2.589l1.493,7.745L66,295.877l1.133-4.855,7.856,2.937-.091.1.508.416a27.237,27.237,0,0,0,7.444,4.45l.416-1.192a22.232,22.232,0,0,1-3.681-1.844c4.6-.8,5.349-2.813,5.47-3.466a2.159,2.159,0,0,0-1.3-2.355c-1.754-.855-4.828-.236-7.907,2.95l1.409-9.306c2.982.158,5.8.3,8.691-1.415-2.068-.962-2.616-4.563-4.69-8.874l9.307-16.578a44.572,44.572,0,0,0,4.589.266,29.718,29.718,0,0,0,7.86-.959l.9-.244ZM83.195,291.207a.95.95,0,0,1,.614.991c-.146.786-1.544,2.211-5.845,2.638-.4-.282-.819-.587-1.238-.916C79.359,291.179,81.892,290.573,83.195,291.207Zm-8.607,1.452L66.2,289.5,65,294.611l-9.973-.016-1.515-7.906s-12.6,1.674-14.443-1.758c-.773-1.444,2.434-5.83,2.434-5.83s-.075-2.477-1.581-3.52c.523-1.375,8.818-2.738,8.818-2.738l-.55-2.492s-2.319.56-3.233.7c-2.592.4-5.145.62-6.076-.5.711-.739.884-3.133.884-3.133s-5.815-.867-8.217-1.371c-.339-.07-.737-.827.094-1.724a140.144,140.144,0,0,1,12.373-13.1l.187-.173.014-.254c.062-1.046.114-1.885.155-2.53.389-.038.756-.075,1.106-.111l2.6,1.741L46.84,253.55,44.081,255.4l10.977-.819c1.419.95,2.857,1.911,4.247,2.839-.022-.005-.042-.012-.064-.018A29.1,29.1,0,0,1,54.22,268.45c1.348,1.239,0,0,2.212,2.241,4.082-4.177,6.346-7.884,10.258-7.91,3.757-.023,1.432,15.375-3.9,11.3-1.235,3.9-3.1,9.105-3.1,9.105a26.058,26.058,0,0,0,11.231.736,21.183,21.183,0,0,1,5.036-.274ZM54.9,254.467l-6.577-.821.5-3.248C50.63,251.611,52.735,253.021,54.9,254.467Zm8.667,4.27c-5.094-3.393-12.057-8.059-16.134-10.792,4.5-.523,5.253-.86,10.063-1.474-3.885-2.055-8.865-1.86-12.083-1.418l5.03-6.609a21.393,21.393,0,0,1,2.407,2.856c.929,1.225,2.763,1.785,3.944,2.716,2.321,1.83,3.654,4.773,6.069,6.342,2.15,1.394,5.048,1.92,7.282,3.179,2.843,1.606,5.153,3.912,8.268,5.116a40.786,40.786,0,0,0,4.5,1.594c1.312.336,2.667.354,3.951.61l-6.3,11.226C78.037,267.461,73.525,262.286,63.563,258.737Zm25.609-2,.021-.051H89.2Zm5.976-.89a50.2,50.2,0,0,1-6.457-.5c-.425-.055-.79-.1-1.091-.135-8.515-.888-12.487-3.124-15.386-4.759a16.389,16.389,0,0,0-3.983-1.813,21.03,21.03,0,0,1-7.817-4.137l-4.557-4.4a36.249,36.249,0,0,1-2.736-3.493l-.075-.12-.118-.071c-4.031-2.517-5.491-4.194-6.244-5.492a6.423,6.423,0,0,1,.807-.037c4.709.013,16.366,2.493,17.306,3.276a3.418,3.418,0,0,0,2.524.855c.225,0,.449-.006.666-.013.16-.008.321-.012.481-.013s.353,0,.525,0c13.017.035,18.434,7.365,21.038,10.888a6.279,6.279,0,0,0,1.584,1.773l.183.1a32.464,32.464,0,0,1,9.938,7.411A29.367,29.367,0,0,1,95.148,255.85Z"/>
    <path id="Path_1042" data-name="Path 1042" d="M95.148,255.85a50.2,50.2,0,0,1-6.457-.5c-.425-.055-.79-.1-1.091-.135-8.515-.888-12.487-3.124-15.386-4.759a16.389,16.389,0,0,0-3.983-1.813,21.03,21.03,0,0,1-7.817-4.137l-4.557-4.4a36.249,36.249,0,0,1-2.736-3.493l-.075-.12-.118-.071c-4.031-2.517-5.491-4.194-6.244-5.492a6.423,6.423,0,0,1,.807-.037c4.709.013,16.366,2.493,17.306,3.276a3.418,3.418,0,0,0,2.524.855c.225,0,.449-.006.666-.013.16-.008.321-.012.481-.013s.353,0,.525,0c13.017.035,18.434,7.365,21.038,10.888a6.279,6.279,0,0,0,1.584,1.773l.183.1a32.464,32.464,0,0,1,9.938,7.411A29.367,29.367,0,0,1,95.148,255.85Z" fill="#fff"/>
  </g>
</svg>
