<?xml version="1.0" encoding="UTF-8"?>
<svg viewBox="0 0 359.34 981.58" xmlns="http://www.w3.org/2000/svg">
<path transform="translate(.514 .765)" d="M201.9,979.266a27.98,27.98,0,0,1-5.665-2.516c-2.173-1.25-2.77-3.647-1.752-6.074a9.691,9.691,0,0,1,4.49-5.263c1.9-.956,2.807-2.794,3.813-4.491.664-1.119.119-2.3-.318-3.44-.549-1.427-1.269-2.407-3.043-1.94a7.756,7.756,0,0,1-1.913.024v.028c-1.477,0-2.957-.072-4.429.015-3.6.211-5.5-2-6.8-4.869a15.152,15.152,0,0,1-.491-10.986c1.355-4.429,4.252-7.735,7.492-10.9,3.155-3.08,7.049-4.91,10.778-7.039a16.269,16.269,0,0,1,7.16-1.652c3.829-.255,7.707-.365,11.394.876,5.316,1.789,10.127,4.349,13.6,9.046a28.711,28.711,0,0,1,5.615,18.445,15.208,15.208,0,0,1-2.3,8.311c-2.236,3.191-4.989,6.075-9.488,5.939-2.267-.068-4.544-.122-6.8.013-2.853.17-4.6,2.353-4.137,5.466a35.913,35.913,0,0,1,.169,7.257c-.13,2.248-2.472,4.239-4.926,4.51a44.311,44.311,0,0,1-4.857.292,25.589,25.589,0,0,1-7.6-1.052Zm.753-23.9c.5.72.871,1.229,1.21,1.762a4.772,4.772,0,0,1,.677,4.549c-.981,2.21-2.1,4.437-4.436,5.61a7.769,7.769,0,0,0-3.659,4.4c-.712,1.79-.289,3.132,1.249,4,5.04,2.836,10.31,4.587,16.225,3.691,2.568-.389,4.033-1.589,3.963-4.179-.068-2.528-.593-5.04-.813-7.568-.234-2.681.663-5.908,4.016-6.438a3.265,3.265,0,0,0,.473-.072c2.755-.875,5.571-.392,8.328-.188,3.788.279,6.092-2.129,8.144-4.489a12.568,12.568,0,0,0,2.644-7.815,27.534,27.534,0,0,0-5.379-17.91c-3.23-4.37-7.746-6.71-12.615-8.465a25.05,25.05,0,0,0-10.31-.963c-2.616.185-5.293.409-7.628,1.765-3.372,1.961-6.76,3.854-9.611,6.656-3.134,3.081-5.727,6.379-6.927,10.663a13.351,13.351,0,0,0,.419,9.244c.617,1.4,1.312,3.029,3.044,3.27a43.552,43.552,0,0,0,5.971.217c2.2,0,4.4-.181,6.592-.136a6.127,6.127,0,0,1,5.621,3.654,7.7,7.7,0,0,1,.357,3.347c-.007.378-.57.747-1.123,1.418-.748-3.55-2.076-6.044-5.811-6.044-.2,0-.4.011-.618.026Zm2,17.286a10.942,10.942,0,0,1,1.222-5.685c1.1,1.972-.008,3.673.347,5.563.67-.526,1.211-1.022,1.822-1.41.664-.422,1.392-.744,2.092-1.11q.516,1.166,1.03,2.333l-.646.471-.52-1.041c-1.07.753-2.041,1.557-3.121,2.166a2.228,2.228,0,0,1-1.059.339c-.685,0-1.085-.571-1.166-1.621Zm8.936-6.782a6.9,6.9,0,0,1,3.58-6.3,18.686,18.686,0,0,1,2.229-1.14,10.45,10.45,0,0,0,4.487-3.862l-3.317-1.794a2.088,2.088,0,0,1,2.835-.694c.107.054.208.118.31.179,2.556,1.528,2.74,2.552.511,4.52a25.408,25.408,0,0,1-3.978,2.56,18.138,18.138,0,0,1-1.76.733c-2.894,1.319-4.685,3.357-4.473,6.758a37.505,37.505,0,0,1-.01,3.83,5.366,5.366,0,0,1-.4,1.636c0-2.14.054-4.283-.013-6.421Zm13.52-7.87c-.238-1.04.671-1.561,1.876-1.949-.248.694-.4,1.12-.593,1.658,2.916,1.057,3.7-2.1,5.724-2.7-1.3,1.364-2.339,3.041-4.333,3.588a3.184,3.184,0,0,1-.461.109,9.01,9.01,0,0,1-1.072.112,1.011,1.011,0,0,1-1.141-.823Zm-7.821-11.911c1.484,1.327-.062,6.306-2.065,8.659Zm-6.366,6.044a103.916,103.916,0,0,1,5-20.417,14.273,14.273,0,0,1,.788-1.733,2.443,2.443,0,0,1,.35-.435l.229.125q-3.016,12.138-6.034,24.274l-.185.049a9.311,9.311,0,0,1-.148-1.859Zm20.714-17.721.41-.153a8.339,8.339,0,0,1,1.069,2.079c.494,2.526.917,5.071,1.222,7.627a40.747,40.747,0,0,1,.24,5.376,6.789,6.789,0,0,1-1.434,4.194c.057-6.428-.052-12.823-1.507-19.119ZM217.119,947.4c.566,1.247-.35,4.705-1.577,5.958C215.058,952.111,216.04,948.4,217.119,947.4Zm7.948,5.207a2.487,2.487,0,0,1,2.856-2.139,2.951,2.951,0,0,1-2.753,2.141h-.1Zm-19.108-1.958a17.517,17.517,0,0,1-1.466-9.175,2.186,2.186,0,0,1,.2-.56,5.534,5.534,0,0,1,.341-.5c1.856,3.8,1.718,7.86,3.071,11.557l-.618.3c-.524-.534-1.249-.981-1.528-1.621Zm3.91-11.718c1.4,1.261,1.532,11.108.113,12.788-.782-1.4-.833-11.336-.113-12.787Zm15.094,7.5-2.616,4.455c-.495-1.94.544-3.656,2.616-4.459Zm-27.51-13.01c-.673,1.339-.995,2.627-1.795,3.454-2.755,2.849-2.693,6.293-2.465,9.834a14.3,14.3,0,0,1-.121,1.738c-3.2-3.167-.491-12.424,4.381-15.03Zm33.39,3.292a2.644,2.644,0,0,1,.314,3.53c-.936-1.376-1.008-2.35-.314-3.534Zm-29.934-7.228c4.032-3.3,8.258-6.122,13.84-5.558.407.041.808.139,1.211.21l.009.274a64.712,64.712,0,0,0-8.007,1.94,69.421,69.421,0,0,0-7.607,3.912,4.732,4.732,0,0,1,.554-.782ZM92.516,887.446c-6.871-.711-12.883-3.1-17.629-8.317-6.4-7.042-9.165-15.378-8.866-24.773a26.3,26.3,0,0,1,3.526-12.177q1.588-2.807,3.35-5.513c2.652-4.065,6.654-6.07,11.237-7.024A54.641,54.641,0,0,1,89.606,829c10.152.6,19.52,2.558,26.955,9.477a29.382,29.382,0,0,1,9.676,20.456,26.862,26.862,0,0,1-3.526,15.866c-4.142,6.8-10.423,10.761-18.268,12.118a46.888,46.888,0,0,1-8,.728,38.011,38.011,0,0,1-3.927-.2ZM87.222,831.22a18.689,18.689,0,0,0-12.632,6A25.4,25.4,0,0,0,71,842.941a27.016,27.016,0,0,0-3.309,14.737,33.191,33.191,0,0,0,6.022,17.369,24.75,24.75,0,0,0,8.465,7.647c4.451,2.371,9.233,3.121,14.217,3.337,2.687-.322,5.4-.494,8.055-.994,11-2.071,19.321-10.392,19.814-22.757a28.5,28.5,0,0,0-3.135-14.3,27.764,27.764,0,0,0-15.312-13.74,44.422,44.422,0,0,0-15.981-3.1Q88.536,831.135,87.222,831.22Zm-1.709,51.673.072-.334,3.187.711a4.957,4.957,0,0,1-1.551.3,2.369,2.369,0,0,1-1.708-.677Zm10.849.168a18.96,18.96,0,0,1-4.568-.8A29.767,29.767,0,0,1,74.487,870.2c-2.881-4.2-4.562-9.04-3.807-14.367.5-3.538.639-7.155,2.083-10.494a12.564,12.564,0,0,1,6.476-6.9,39.6,39.6,0,0,1,6.839-2.742,24.9,24.9,0,0,1,6.659-.226c6.184.3,11.808,2.524,17.177,5.407a20.75,20.75,0,0,1,6.826,6.437c1.862,2.6,3.728,5.318,4.02,8.692.1,1.112.149,2.228.221,3.342a30.248,30.248,0,0,1-1.881,10.663,18.764,18.764,0,0,1-7.826,9.085,26.339,26.339,0,0,1-14.458,3.965Zm-9.328-45.6a55.926,55.926,0,0,0-6.965,2.718c-3.271,1.494-5.183,4.266-6.449,7.507-1.205,3.089-1.409,6.355-1.507,9.979-.2,4.36,1.5,8.5,4.116,12.241a24.533,24.533,0,0,0,6.208,6.085c6.444,4.474,13.252,6.689,21.155,4.537,5.151-1.4,9.5-3.954,12.371-8.394,3.086-4.774,3.412-10.27,2.91-15.809-.237-2.6-1.655-4.7-3.026-6.8a20.576,20.576,0,0,0-7.58-7.3c-5.405-2.827-11.108-4.815-17.31-4.917-.678-.011-1.379-.067-2.064-.067a6.4,6.4,0,0,0-1.859.218Zm10.173,40A23.2,23.2,0,0,1,88.23,875.2a18.761,18.761,0,0,1-10.262-15.187c-.131-1.107-.22-2.22-.327-3.33l-.173-.056c.419-2.263.8-4.535,1.27-6.786a5.683,5.683,0,0,1,2.707-3.631,42.289,42.289,0,0,0,3.538-2.721c2.381-1.94,5.234-2.133,8.069-1.994,6.449.316,11.9,3.153,16.6,7.37a15.053,15.053,0,0,1,4.834,10.112,17.96,17.96,0,0,1-1.617,9.642,16.7,16.7,0,0,1-14.369,8.9q-.646,0-1.294-.063ZM80.154,849.7a39.409,39.409,0,0,0-.88,5.642c-.306,7.1,1.654,13.2,7.919,17.361A18.415,18.415,0,0,0,101.1,875.56a14.424,14.424,0,0,0,11.656-14.779,13.814,13.814,0,0,0-6.489-12.4c-3.652-2.414-7.54-4.56-12.119-5.038a12.929,12.929,0,0,0-11.336,4.014c-.463.483-1.021,1.241-1.53,1.237h-.019C80.344,848.6,80.25,849.193,80.154,849.7Zm14.5,23.406h6.785a4.293,4.293,0,0,1-3.42,1.271c-1.469,0-2.912-.452-3.361-1.27ZM78.076,868.7l4.992,4.676C80.741,873.221,77.924,870.481,78.076,868.7Zm14.153,2.833H96.7a3.69,3.69,0,0,1-2.412.975,2.539,2.539,0,0,1-2.059-.976Zm-6.5-2.721,5.839,3.377a3.28,3.28,0,0,1-.818.1c-2.166,0-4.875-1.819-5.019-3.478Zm31.055-3.631c.742,1.96-.976,6.051-2.834,6.755-.432-1.2,1.728-6.351,2.836-6.755Zm-27.419,3.5a9.748,9.748,0,0,1-4.376-4.772,25.664,25.664,0,0,1-1.855-6.024c-.689-4.264,2.693-9.684,7.719-9.56.839.022,1.678,0,2.516,0,6.337-.238,11.066,2.593,13.181,7.923a13.368,13.368,0,0,1,.547,8.24,7.577,7.577,0,0,1-6.353,5.794,18.288,18.288,0,0,1-3.606.369,16.189,16.189,0,0,1-7.771-1.968Zm-3.318-16.345a4.508,4.508,0,0,0-1.906,3.556c-.2,2.366.675,4.456,1.493,6.568a9.651,9.651,0,0,0,6.386,6,15.237,15.237,0,0,0,7.8.49c2.3-.495,4.325-1.47,5.2-3.891a11.688,11.688,0,0,0-3.468-12.377,11.54,11.54,0,0,0-8.6-2.431,9.156,9.156,0,0,0-1.113-.069,9.258,9.258,0,0,0-5.79,2.156Zm24.634,11.873c.873,1.877-.27,4.183-2.526,5.02.766-1.8,1.066-3.641,2.528-5.018Zm-10.543,2.93c-.206-.049-.5-.746-.427-.821.923-.938,1.906-1.815,3.033-2.856.534,1.658-1.034,3.706-2.343,3.706a1.18,1.18,0,0,1-.261-.027Zm21.136-.38.974-5.5c1.217,1.562.811,4.114-.572,5.6ZM89.02,860.3a4.243,4.243,0,0,1,.325-3.577,1.525,1.525,0,0,1,.764-.716c2.884-1,5.674-1.494,8.507.448,1.762,1.207,2.5,4.918,1.572,6.476a2.672,2.672,0,0,1-1.2,1.1,27.033,27.033,0,0,1-2.765.806C93.345,864.838,89.863,862.447,89.02,860.3Zm4.249-4.111c-.436.039-.877.043-1.305.122A2.2,2.2,0,0,0,90.11,859.5c.977,2.978,5.742,4.794,8.37,3.165a1.634,1.634,0,0,0,.6-.821,3.784,3.784,0,0,0-1.553-4.365,35.882,35.882,0,0,0-4.14-1.585Zm-.99,5.139a3.591,3.591,0,0,1-.518-3.8l2.174,4.547c-.735-.313-1.351-.394-1.656-.747Zm9.877-4.613c1.559.738,2.049,3.181,1.138,4.69l-.417.058c-.235-1.538-.468-3.077-.722-4.748Zm14.256-1.058c1.854.869,2.13,3.57.473,5.642-.152-1.814-.3-3.628-.474-5.643Zm-7.246-.037c.617.293,1.165.374,1.372.684a5.3,5.3,0,0,1,1,4.755l-.46.1c-.6-1.722-1.191-3.447-1.912-5.54ZM94.5,860.54a12.9,12.9,0,0,1-1.188-1.8l.542-.332,1.891,2.023-.133.371C95.232,860.72,94.71,860.772,94.5,860.54Zm27.549-7.149a6.826,6.826,0,0,1,.9,4.983c-1.1-1.5-.839-3.274-.9-4.983Zm-48.028,3.272a4.87,4.87,0,0,1,1.026-4.386q-.335,2.214-.667,4.427ZM96.7,853.3c1.644-1.039,3.021-.389,3.135,1.237Zm-21.06-1.259,1.877-3.581.49.247c-.114,1.444-1.125,2.453-1.8,3.624Zm3.468-8.666a7.874,7.874,0,0,1-3.188,3.945c.022-1.567,1.78-3.734,3.18-3.946Zm25.953-6.417c4.991,1.392,6.355,1.249,6.948,3.635-2.119-1.614-5.168-1.44-6.951-3.636Zm-8.641-2.073c-1.213-.323-2.392-.77-3.9-1.266.549-.25,1.01-.662,1.336-.574,1.975.538,3.919,1.184,5.869,1.813.167.054.293.24.437.366l-.117.412c-1.213-.246-2.437-.436-3.628-.752Zm120.8-123.038a12.072,12.072,0,0,1-.215-2.374,10.482,10.482,0,0,1,2.285-7.024,3.061,3.061,0,0,1,.937-.907c2.261-1.039,4.311-2.6,6.884-2.873a9.513,9.513,0,0,1,2.383-.006c4.684.694,9.729,5.616,10.2,10.312.474,4.767-2.5,11.025-7.849,11.757a19.056,19.056,0,0,1-2.6.184c-5.789,0-10.241-2.916-12.034-9.07Zm9.882-11.168c-2.507.39-4.342,2.111-6.581,3.01a2.259,2.259,0,0,0-.979,1.159,9.5,9.5,0,0,0-.58,6.881c1.676,5,4.712,7.074,11.381,7.327a6.3,6.3,0,0,0,4.212-1.976,10.2,10.2,0,0,0,2.9-5.754,6.934,6.934,0,0,0-1.836-6.626,28.612,28.612,0,0,0-5.073-3.527,4.4,4.4,0,0,0-2.307-.59,7.386,7.386,0,0,0-1.139.1Zm-1.12,15.024a5.722,5.722,0,0,1-3.312-6.265,12.09,12.09,0,0,1,1.32-3.675,5.1,5.1,0,0,1,6.34-1.933,15.825,15.825,0,0,1,4.261,3.341c.585.6.612,1.743.979,2.919-.489,1.177-1,2.438-1.534,3.694a4.311,4.311,0,0,1-.486.927c-.3.4-.615,1-1.016,1.086a16.728,16.728,0,0,1-3.575.49,7.424,7.424,0,0,1-2.981-.587Zm-1.108-2.637a5.135,5.135,0,0,0,6.839.6c-1.191-3-2.211-6.134-5.354-7.831-2.535,1.85-3.189,5.117-1.489,7.23Zm3.23-7.8a16.331,16.331,0,0,1,4.945,7.009c.6-1.787.885-3.333-.235-4.593-1.09-1.229-2.312-2.431-4.323-2.431-.129,0-.258,0-.391.012Zm25.5-18.133a34.8,34.8,0,0,1-3.757-.625c-4.082-1.127-5.855-4.324-6.758-8.073a15.047,15.047,0,0,1,.419-8.151c1.842-5.783,6.438-8.442,12.113-8.273a2.175,2.175,0,0,1,.814.184c3.867,1.772,7.481,4.065,8.788,8.288,2.763,8.924-3.446,16.65-11.608,16.65Zm.3-23.009c-.82.134-1.636.308-2.445.5-3.148.756-5.554,2.417-6.418,5.693a45.191,45.191,0,0,0-.759,4.468,24.157,24.157,0,0,0,.44,3.683c.693,2.415,1.815,4.676,4.16,5.854a10.35,10.35,0,0,0,14.719-8.011c.576-3.878-.529-7.187-3.668-9.525-1.573-1.171-3.107-2.727-5.266-2.727a4.693,4.693,0,0,0-.767.061Zm-2.456,16.739c-2.591-1.409-4.473-3.474-4.358-7.286-.005-2.126.994-4.033,3.491-5.445,3.39-1.917,4.844-1.851,7.743,1.118a7.436,7.436,0,0,1-4.9,12.139,4.082,4.082,0,0,1-1.985-.53Zm-2.308-7.956a1.09,1.09,0,0,0-.585.657c-.584,2.334,2.091,5.861,4.5,5.98,2.239.109,4.37-1.83,5-4.446a10.044,10.044,0,0,1-2.091-1.347,4.33,4.33,0,0,0-3.257-1.758,11.135,11.135,0,0,0-3.575.907Zm9.127.785c-.14-1.928-2.372-4.676-4.029-4.96-1.46-.25-4.556,1.4-5.206,2.862a16.647,16.647,0,0,1,4-.855c1.522-.005,2.554.818,5.227,2.949ZM34.224,675.729a32.268,32.268,0,0,1-9-2.207A15.225,15.225,0,0,1,16,662.579a34.869,34.869,0,0,1,1.8-22.057,24.734,24.734,0,0,1,8.457-10.953c1.954-1.354,4.138-1.741,6.6-2.143A19.365,19.365,0,0,0,31,626.194c-2.474-1.273-5.052-2.363-7.437-3.782a6.6,6.6,0,0,1-3.1-6.111,4.5,4.5,0,0,1,.159-.847c3.083.947,6.062,1.842,9.023,2.789a12.064,12.064,0,0,1,1.784.926,5.078,5.078,0,0,0-.2-.8,27.725,27.725,0,0,0-6.337-9.756,6.221,6.221,0,0,1-.865-1.355l.274-.236a5.557,5.557,0,0,1,.864.254c1.728.82,3.42,1.72,5.175,2.475,2.36,1.015,3.36,2.908,3.744,5.295a14.607,14.607,0,0,0,.9,3.307,17.528,17.528,0,0,1,.806-2.812c1.775-3.772,3.589-7.528,5.483-11.241a14.823,14.823,0,0,1,2.075-2.775A1.612,1.612,0,0,1,44.473,601a20.083,20.083,0,0,1,3.428.433,1.339,1.339,0,0,1,1.013,2.083,9.57,9.57,0,0,1-1.5,1.8c-.681.761-1.423,1.473-2.06,2.271-.914,1.144-1.676,2.417-2.646,3.506-2.246,2.522-3.619,5.287-3.211,8.793a44.318,44.318,0,0,1,.029,4.813c.421-.758.7-1.341,1.052-1.874a6.8,6.8,0,0,1,1.6-2.14c2.491-1.541,4.889-3.315,7.883-3.857a14.711,14.711,0,0,0,2.277-.688c.761-.27,1.067,0,1.022.762a5.931,5.931,0,0,1-2.809,4.9c-2.5,1.552-5.117,2.9-7.688,4.33a6.956,6.956,0,0,0-1.874,1.3c.806.127,1.61.249,2.414.383a16.7,16.7,0,0,1,7.338,3.3,44.9,44.9,0,0,1,10.042,9.719,23.767,23.767,0,0,1,4.6,15.594C64.96,663.458,61.3,668,55.5,671.49a31.9,31.9,0,0,1-16.824,4.476,44.129,44.129,0,0,1-4.452-.237ZM18.74,642.776A38.592,38.592,0,0,0,17,657.976c.485,6.544,3.443,11.42,9.316,14.226a27.586,27.586,0,0,0,18.19,2.072,47.325,47.325,0,0,0,6.668-1.7,31.706,31.706,0,0,0,5.207-2.913,14.285,14.285,0,0,0,7.012-9.817,31.231,31.231,0,0,0,.389-6.78c-.077-1.823-.173-3.749-1.369-5.334l-.221-.428a46,46,0,0,0-2.925-5.663,40.979,40.979,0,0,0-10.22-9.683,13.014,13.014,0,0,0-10.265-2.525,9.948,9.948,0,0,1-5.271-.076,4.006,4.006,0,0,0-1.779-.072c-3.31.441-5.778,2.318-7.9,4.745a10.739,10.739,0,0,0-.724,1.042c2.9-2.327,3.269-2.5,4.307-1.968a11.482,11.482,0,0,0-5.072,5.31c-1.952,3.857-1.766,8.2-2.638,12.3-.665,3.135-.091,6.289.268,9.409.337,2.928,1.321,5.589,4.049,7.224a14.7,14.7,0,0,1,1.314.833c.518.391,1,.834,1.675,1.407a8.355,8.355,0,0,1-6.8-5.6,39.107,39.107,0,0,1-.977-14.584c.3-2.207.263-4.455.519-6.669a30.722,30.722,0,0,1,.87-3.685,15.232,15.232,0,0,0-1.878,3.729Zm6.193-21.791c2.111,1.184,4.36,2.12,6.494,3.267.958.515,2.178,1.092,2.586,1.965.9,1.933,2,2.435,3.981,1.7.809-.3,1.59-.284,2.062-1.255.277-.569,1.054-.934,1.663-1.292,2.5-1.471,5.031-2.9,7.538-4.359a5.584,5.584,0,0,0,2.6-3.79c-.452.034-.841.048-1.228.1-3.207.391-5.692,2.346-8.348,3.91a2.623,2.623,0,0,0-1.054,1.394,4.643,4.643,0,0,1-3.189,3.426,14.282,14.282,0,0,1-.258-1.707c-.036-1.106.026-2.214,0-3.321-.049-2.065-.422-4.162.467-6.142A26.122,26.122,0,0,1,46.912,604.6a5.855,5.855,0,0,0,1.163-1.007c.7-.886.481-1.471-.611-1.7-.7-.142-1.426-.128-2.127-.259a1.833,1.833,0,0,0-2.209,1.149c-.626,1.282-1.327,2.525-1.965,3.8-.994,1.99-2,3.978-2.932,6-1.354,2.921-2.462,5.889-1.348,9.188a16.8,16.8,0,0,1,.319,1.75c.28,1.256-1.193,1.092-1.49,1.873a5.369,5.369,0,0,1-1.013-1.116,11.547,11.547,0,0,0-7.707-6.637c-1.788-.455-3.607-.788-5.548-1.205.925,1.733,1.721,3.564,3.489,4.55Zm2.22-11.289c2.168,3.113,4.671,6.051,5.256,10a.66.66,0,0,0,.193.288q1.565,1.767,3.135,3.53a6.2,6.2,0,0,0-.545-1.991,18.8,18.8,0,0,1-2.093-6.406,5.1,5.1,0,0,0-3.42-4.614c-.845-.328-1.649-.76-2.65-1.229a2.222,2.222,0,0,0,.124.426Zm7.991,62.429c8.392,1.91,15.565-.542,22.168-5.684-.157,2.33-6.586,6.3-11.11,7.156a21.618,21.618,0,0,1-3.956.345c-3.37,0-6.583-.685-7.1-1.817Zm-.823-3.27a13.966,13.966,0,0,1-1.422-.888c-.784-.492-1.48-1.2-2.546-.4a1.42,1.42,0,0,1-1.382-.264c-.261-.354-.1-1.015-.134-1.709L26.7,663.783c-.636.936-1.243,2.109-2.644,1.633-.377-.128-.713-.9-.75-1.4a1.636,1.636,0,0,1,1.628-1.966l-2.114-4.157c-1.681.393-2.554.207-2.7-.7a1.334,1.334,0,0,1,1.018-1.742,3.385,3.385,0,0,1,.041.541c-.032.32-.09.635-.138.952a2.974,2.974,0,0,1,.318.013,1.066,1.066,0,0,0,.647-.072,1.14,1.14,0,0,0,.463-.89,9.323,9.323,0,0,1,.789-5.829c.326-.637.732-1.233,1.067-1.867.42-.8.742-1.653,1.227-2.407a5.957,5.957,0,0,1,1.507-1.7c.864-.6,1.868-.995,2.809-1.593a3.411,3.411,0,0,1-3.406-2.16c-.4-.8-1.017-1.582-.384-2.539,3.02.026,5.095,2.114,4.486,4.559a19.94,19.94,0,0,0,3.239-2.459,3.379,3.379,0,0,0,.418-2.448c-.255-1.724-.773-3.409-1.123-5.121a5.059,5.059,0,0,1,.089-1.346l.49-.079c.864,2.885,2.7,5.535,2.273,8.729-.249,1.884-1.785,2.864-3.485,3.406-1.737.554-3.543.893-5.268,1.477a2.407,2.407,0,0,0-1.31,1.316,32.563,32.563,0,0,0-1.678,5.789,11.225,11.225,0,0,0,2.477,8.678c1.843,2.41,4.417,3.847,6.971,5.337,2.43,1.417,4.792,2.948,7.255,4.474a8.9,8.9,0,0,1-1.139.073,12.8,12.8,0,0,1-5.455-1.434Zm-7.6-29.373,1.991,1.922.49-.537-2.138-1.777ZM44.172,669.05l3.782-2.8a2.917,2.917,0,0,1-3.238-1.568,6.02,6.02,0,0,1-.237-1.816l1.856,1.921.329-.255-.175-1.367c1.192-.383,1.7.093,2.077,2.046a14.346,14.346,0,0,0,2.779-7.061c.326-3.717.466-7.451.687-11.211-.8.135-1.828.267-2.106-.922-.324-1.383.845-1.9,2.042-2.759a17.455,17.455,0,0,0-2.848-1.506,23.4,23.4,0,0,0-4.53-.965c-3.429-.351-5.194-2.876-6.142-6.556a7.61,7.61,0,0,1,.072-2.153l.176.131c.617,1.613,1.166,3.258,1.869,4.831.936,2.093,2.828,2.689,4.925,3.086a33.353,33.353,0,0,1,5.241,1.545,3.6,3.6,0,0,1,2.295,3.607c.1,3.514.23,7.032.234,10.548a16.871,16.871,0,0,1-3.242,10.087,9.6,9.6,0,0,1-4.615,3.281,1.115,1.115,0,0,1-.394.068,2.06,2.06,0,0,1-.837-.212Zm6.576-23.533c.189.092.456.311.555.251.681-.409,1.157-.939.519-2.1ZM37.4,667.284a2.218,2.218,0,0,1-.231-2.93c.192.976.041,2.171,1.256,2.1,1.4-.085.2-1.314.673-1.974.76-.314,1.131.291,1.347.858a1.733,1.733,0,0,1-.765,2.178,1.813,1.813,0,0,1-1.015.346,1.85,1.85,0,0,1-1.265-.578Zm-5.267-9.819-2.675-.3a2.15,2.15,0,0,1-3,.932c-.974-.487-1.29-1.211-.884-2.022.525-1.048,1.714-1.238,3.354-.536.6-1.512.855-1.675,1.84-1.32a6.025,6.025,0,0,0-.71,1.547c-.031.194.6.5.923.754l.238-.247-.435-.977,1.8-.152c.042.365.147.955.171,1.549a5.09,5.09,0,0,0,3.794,5.053,5.148,5.148,0,0,1,1.239.949,3.383,3.383,0,0,1-1.039.164c-2.316,0-4.409-2.421-4.615-5.394Zm-5.712-.768c.31.2.625.55.931.543.277-.006.628-.362.778-.652.067-.129-.281-.472-.547-.884-.5.43-.832.711-1.162,1Zm3.487,5.057c-.313-.042-.843-.646-.783-.861a3.24,3.24,0,0,1,.931-1.515c.3-.265.883-.21,1.34-.3l-.016.282-1.446,1.072.167.288a3.473,3.473,0,0,1,.68-.239,3.928,3.928,0,0,1,.643-.018c.094,0,.188.005.282.005-.09.319-.087.814-.29.922a2.932,2.932,0,0,1-1.307.374,1.474,1.474,0,0,1-.2-.009Zm25.042-1.536a1.58,1.58,0,0,1-.66-1.168c-.03-.371.323-.773.507-1.161l1.07,1.036a6,6,0,0,1,1.173.473c.063.038-.18.925-.354.952a4.62,4.62,0,0,1-.7.058,2.52,2.52,0,0,1-1.036-.19Zm6.221-14.006,1.016,1.09.221.428c.729,4.87.7,8.706-.129,10.578-.329-4.095.615-8.208-1.109-12.095Zm-12.805,11.02c-.049-.459-.1-.917-.144-1.377-.15-1.779-.173-3.58-.486-5.33A10.7,10.7,0,0,0,46.46,647.6c-.86-1.622-1.789-3.208-2.689-4.81l.408-.232,3.877,6.149,1.157-.558.1.59a9.085,9.085,0,0,1,1.372.3c.076.028.085.67-.033.733a18.168,18.168,0,0,1-1.9.766c.112.528.279,1.323.423,2l1.866.379-.021.227c-.206.063-.412.126-.617.191.54.963.434,1.081-1.046,1.2-.179.982-.337,1.843-.495,2.705Zm6.139-2.923a2.155,2.155,0,0,1,2.231-1.857,5.849,5.849,0,0,1,2.387.867,1.006,1.006,0,0,1-.059,1.786,15.258,15.258,0,0,1-2.215,1.016h-.075c-1.426,0-2.274-.809-2.274-1.812Zm1.2-.407c-.084.026-.047.451-.066.691a12.37,12.37,0,0,0,1.706.084c.269-.02.518-.292.95-.558-.358-.284-.574-.59-.761-.59H57.52a8.628,8.628,0,0,0-1.82.371Zm-28.254-.832a2.1,2.1,0,0,1-.863-.807,11.942,11.942,0,0,1-.608-1.709l1.643-.448a6.417,6.417,0,0,1,1.45.773,1.712,1.712,0,0,1,.488,2.348.893.893,0,0,1-.742.44,3.426,3.426,0,0,1-1.369-.6Zm3.678-3.106c-1.465.317-2.956.607-3.884-.972-.323-.547-.769-1.511-.546-1.784a3.113,3.113,0,0,1,1.941-.848c1.376-.156,2.438.917,2.875,2.736.813-.768,1.543-1.5,2.318-2.182,2.389-2.1,2.4-2.094,2.191-5.173,1.413.544,1.958,2.933.851,4.282a23.94,23.94,0,0,1-2.825,2.75,6.14,6.14,0,0,0-2.2,4.7c-1.335-1-1.058-2.227-.722-3.508ZM27.2,647.232c.639,1.93,1.952,2.521,2.974,1.432a2.626,2.626,0,0,0-2.641-1.44C27.427,647.224,27.317,647.227,27.2,647.232Zm28.634,3.633a1.484,1.484,0,0,1-1.637-1.5,2.057,2.057,0,0,1,1.764-2.069c.831.012,2.142,1.243,2.111,1.983-.034.82-1.11,1.589-2.212,1.589Zm-.382-1.576.258.333,1.634-1.159a6.524,6.524,0,0,0-1.09-.152c-.528,0-.629.26-.8.979ZM53.8,645.6a2.631,2.631,0,0,1,.238-1.742c.426-.781.888-1.719,2.006-1.517l-1.755,2.5.279.3,2.051-.537c-.052,1.1-.815,1.3-1.474,1.391a1.174,1.174,0,0,1-.175.011C54.509,646,53.852,645.81,53.8,645.6Zm-6.78-.283c-.724-.5-.588-1.351.023-1.957a16.044,16.044,0,0,1,1.7-1.3,5.541,5.541,0,0,0,.4,1.225,1.3,1.3,0,0,1-.318,2.041,1.882,1.882,0,0,1-.915.208,1.628,1.628,0,0,1-.89-.217Zm-23.2-1.335c-.372-.819-1.138-1.717-.208-2.607.433.234.834.419,1.2.657a3.1,3.1,0,0,1,.9.742,1.276,1.276,0,0,1-.165,1.9,1.07,1.07,0,0,1-.6.206,1.356,1.356,0,0,1-1.13-.9ZM182.248,509.311c-5.642-.14-10.266-2.7-14.307-6.592-3.433-3.3-5.514-7.378-7.414-11.616a16.531,16.531,0,0,1-1.517-7.426c.208-6.254,3.881-11.551,10.589-12.285,3.73-.408,7.555.02,11.335.092a6.992,6.992,0,0,1,1.2.233l.005.3a5.208,5.208,0,0,1-1.072.213c-1.157-.014-2.313-.126-3.47-.119-.76,0-1.523-.009-2.285-.022a36.667,36.667,0,0,0-5.831.207A10.113,10.113,0,0,0,160.8,484.88c1.915,8.251,5.785,15.46,13.441,19.941a14.231,14.231,0,0,0,10.545,1.963c3.442-.787,6.61-2.143,8.185-5.739a17.93,17.93,0,0,1,1.732-2.719c.344-.507.778-.785,1.347-.294-.07.213-.149.427-.205.645-.642,2.533-1.384,5.075-3.391,6.867a14.512,14.512,0,0,1-9.816,3.777C182.511,509.316,182.38,509.315,182.248,509.311Zm29.927-1.325c-2.04-.473-4.286-.671-6.023-1.7a57.52,57.52,0,0,1-6.946-5.466c-1.077-.887-2.091-1.852-3.134-2.783,0-.561.165-1.021.823-.669a8.561,8.561,0,0,1,1.729,1.215c3.858,3.514,7.516,7.28,13.3,7.447,5.046.146,9.745-.5,13.739-3.994,3.286-2.874,5.213-6.53,6.992-10.428,2.846-6.241-1.317-12.758-5.879-14.713-1.792-.77-3.575-1.559-5.369-2.322a19.992,19.992,0,0,0-6.8-1.458,3.1,3.1,0,0,1,1.24-2.631,45.932,45.932,0,0,1,4.481-3.966c3.058-2.108,4.3-8.84,2.668-12.394-1.943-4.236-5.611-6.034-9.563-7.27-4.912-1.537-10.085-1.517-15.193-1.38a18.049,18.049,0,0,0-13.2,5.862c-2.662,2.871-4,6.258-3.037,10.212.535,2.19,1.367,4.306,1.972,6.482.327,1.178.457,2.412.676,3.621l-.473.211a8.319,8.319,0,0,1-1.092-1.384c-.781-1.568-1.552-3.149-2.2-4.776-1.86-4.675-2.146-9.253.733-13.729,2.6-4.04,6.383-6.385,10.743-8a15.087,15.087,0,0,1,6.826-.9c1.945.194,3.887.417,5.829.634a35.293,35.293,0,0,1,14.161,4.275c3.29,1.9,6.71,7.953,5.777,11.907-.527,2.237-.791,4.623-2.549,6.335s-3.6,3.282-5.406,4.916c-.275.249-.545.5-.952.879a14.981,14.981,0,0,1,2.839.181c2.644.712,5.237,1.617,7.886,2.306a12.194,12.194,0,0,1,6.552,4.345c2.382,2.937,4,6.142,3.137,10.029a46.878,46.878,0,0,1-1.943,6,23.477,23.477,0,0,1-8.477,10.618,9.708,9.708,0,0,1-2.8,1.559,25.178,25.178,0,0,1-7.489,1.327,15.761,15.761,0,0,1-3.578-.4Zm-39.559-5.97c-1.112-.847-2.192-1.739-3.222-2.681a4.516,4.516,0,0,1-1.578-3.513c2.694,2.229,4.67,5.216,8.141,6.27a2.546,2.546,0,0,1-1.583.641A2.935,2.935,0,0,1,172.616,502.016ZM179.6,500.7c-3.69-1.619-6.453-4.342-9.211-7.142a15.369,15.369,0,0,1-4.01-7.484c-.732-3.111.094-4.953,2.89-6.451a11.5,11.5,0,0,1,1.545-.628c3.42-1.237,6.942-1.111,10.455-.986,1.157.041,2.315.083,3.467.076a8.127,8.127,0,0,0,5-1.5,1.913,1.913,0,0,0,.832-2.4c-.708-1.771-1.434-3.542-2.281-5.25A12.114,12.114,0,0,1,187,463.277c.068-4.112.622-5.574,3.264-8.7a9.761,9.761,0,0,0,.915-1.256,5.644,5.644,0,0,1,4.6-2.857,44.579,44.579,0,0,1,6.916,0c3.407.3,6.8.752,9.768,2.774a5.307,5.307,0,0,1,2.225,2.83,13.369,13.369,0,0,1-.241,8.467c-.623,1.935-1.87,3.661-2.742,5.525a26.46,26.46,0,0,0-1.6,4.2,1.9,1.9,0,0,0,.714,1.571,18.828,18.828,0,0,0,3.581,2.04,29.758,29.758,0,0,0,3.712,1.048,5.156,5.156,0,0,1,1.564.469c1.725,1.2,3.349,2.543,5.092,3.711a7.3,7.3,0,0,1,3.177,8.053c-.909,4.586-5.221,9.053-10.393,9.374a32.35,32.35,0,0,1-5.972-.27,11.449,11.449,0,0,1-7.209-3.374,45.2,45.2,0,0,0-4.868-3.866c-1.041-.822-2.041-1.5-3.247-.21-.269.287-.845.266-1.184.517-.315.233-.75.68-.7.963A3.959,3.959,0,0,1,192.5,498.2a18.355,18.355,0,0,1-8.5,3.283,6.05,6.05,0,0,1-.912.068,8.682,8.682,0,0,1-3.488-.851Zm-8.163-19.85c-.114.033-.238.041-.349.079-2.8.962-3.489,2.482-2.751,5.34,1.014,3.931,3.829,6.5,6.7,8.95a40,40,0,0,0,5.892,3.8,5.316,5.316,0,0,0,4.243-.029,41.719,41.719,0,0,1-4.163-.836,11.243,11.243,0,0,1-7.322-6.4,37.11,37.11,0,0,1-2.048-6.207c-.565-2.36.75-4.3,3.379-5.109A13.153,13.153,0,0,1,174,482.3a4.412,4.412,0,0,0-.851,4.038c.94,3.748,2.322,7.233,5.8,9.4,3.448,2.141,8.387,2.649,11.842-.614,1.477-1.394,2.839-2.911,4.3-4.32a3.324,3.324,0,0,0,.84-3.065,9.935,9.935,0,0,1,.046-2.95,2.56,2.56,0,0,1,4.985.042,3.265,3.265,0,0,1,.208.93c-.109,2.973,2.075,4.519,3.928,6.231a6.108,6.108,0,0,0,2.036.92c1.324.493,2.648.992,4,1.4,2.373.724,4.762,1.5,7.109-.123a7.226,7.226,0,0,1,1.166-.6c2.469-1.108,2.746-1.536,2.47-4.219-.162-1.576-.313-3.117-1.567-4.39-.69-.7-.884-1.863-1.435-2.732a5.121,5.121,0,0,0-1.62-1.764c-2.111-1.18-4.3-2.232-6.477-3.274a4.051,4.051,0,0,0-1.57-.271,14.409,14.409,0,0,0-1.769.082,6.639,6.639,0,0,1-3.878-.44,4.116,4.116,0,0,1-2.23-4.794,2.791,2.791,0,0,1,1.2-1.383c1.291-.789,2.647-1.472,4-2.155a3.416,3.416,0,0,0,1.91-2.316c.651-2.664,1.363-5.316,1.9-8a8.216,8.216,0,0,0-.231-2.8,20.388,20.388,0,0,0-.66-2.236,43.684,43.684,0,0,0-5.243-.47,74.685,74.685,0,0,0-8.577.663,5.674,5.674,0,0,0-2.494,1.626,21.267,21.267,0,0,0-1.662,2.036,4.145,4.145,0,0,0-.524,5.467,8.217,8.217,0,0,1,1.006,6.849,2.386,2.386,0,0,0-.063.945c.246,1.394.532,2.782.829,4.3,2.529-1.2,4.743-.527,6.847.8,1.667,1.054,1.669,2.258.04,3.321a8.593,8.593,0,0,1-5.621,1.117c-2.992-.241-5.981-.423-8.96-.423a48.574,48.574,0,0,0-13.593,1.725Zm27.171,9.716a79.346,79.346,0,0,1,7.114,4.356,13.47,13.47,0,0,0,6.376,2.72c3.253.468,6.521.741,9.3-1.419,2.649-2.061,4.527-4.633,3.856-8.293a4.128,4.128,0,0,0-.646-1.767c-.941-1.2-2.012-2.308-3.029-3.451l-.242.157a8.656,8.656,0,0,0,.76,1.4,4.547,4.547,0,0,1,.97,3.47c-.124,1.187-.322,2.369-.383,3.559a2.792,2.792,0,0,1-1.865,2.528,7.239,7.239,0,0,0-1.4.659c-2.31,1.778-4.863,1.813-7.484,1.005a32.283,32.283,0,0,1-6.426-2.311,25.422,25.422,0,0,1-5.334-4.369c-.6-.6-.572-1.839-.816-2.79-.167-.658-.037-1.569-1.09-1.528-.932.036-1.083.788-1.169,1.534-.018.158-.055.316-.064.474-.1,1.929,0,3.924-1.9,5.284l.339.223a10.468,10.468,0,0,0,1.147-1.052,1.5,1.5,0,0,1,1.15-.659,1.639,1.639,0,0,1,.836.273Zm-6.174-12.6c2.326.254,4.626.507,6.887-1.115a7.354,7.354,0,0,0-5.811-1.61c-1.074.211-1.493-.158-1.651-1.119-.459-2.785-.865-5.579-1.419-8.345a10.644,10.644,0,0,0-1.143-2.391l-.534.208c.342,1.94.633,3.893,1.041,5.821a28.114,28.114,0,0,0,1.069,3.615c.706,1.967.429,2.942-1.631,4.766q.311-.018.621-.017a23.629,23.629,0,0,1,2.571.188ZM211.6,459.135c-.607,2.176-1.038,4.4-1.508,6.616a5.66,5.66,0,0,1-3.529,4.211c-.91.4-1.778.89-2.66,1.354a1.885,1.885,0,0,0-.438,3.327,7.884,7.884,0,0,0,2,.972.937.937,0,0,0,.356.009h2.853a29.3,29.3,0,0,1,1.157-4.289c.664-1.524,1.715-2.871,2.481-4.356a14.214,14.214,0,0,0,1.441-10.391,3.533,3.533,0,0,0-2.512-2.624,6.428,6.428,0,0,1,.359,5.171Zm-15.544,38.892h0l.01.01.007.006h0Zm-27.046-5.4,3.2,4.333-.437.316c-1.351-1.246-2.716-2.49-2.765-4.647Zm-5.226-3.586a1.374,1.374,0,0,1,.57-1.838c1.052,2.26,2.067,4.439,3.083,6.618l-.4.278c-1.868-1.144-2.6-3.082-3.255-5.057Zm62.2-8.476A2.606,2.606,0,0,1,224.5,478.3c1.389.678,2.675,1.21,3.865,1.908a9.035,9.035,0,0,1,3.85,4.71,5.851,5.851,0,0,1,.185,1.385l-.407.073a14.4,14.4,0,0,0-6.015-5.809Zm-9.49-4.748c2.154-.955,6.513.49,7.063,2.185ZM.106,362.945a1.924,1.924,0,0,1,.932-2.25,19.87,19.87,0,0,1,2.84-1.973c2.854-1.487,3.623-4.185,3.875-6.978.307-3.414.05-6.878.346-10.293A26.79,26.79,0,0,1,9.581,334.5a31.756,31.756,0,0,1,6.937-11.326,15.363,15.363,0,0,1,2.532-1.986,29.316,29.316,0,0,1,11.02-4.928,19.381,19.381,0,0,0,4.892-2.107c1.812-.9,3.576-1.9,5.345-2.893,1.354-.755,2.684-1.556,4.026-2.336.309-.18.612-.374.934-.527,1.717-.82,2.358-.421,2.344,1.686-.218,1.417-.59,3.058-.7,4.715-.3,4.5-.644,9-.69,13.5a19.447,19.447,0,0,1-2.887,10.8c-1.541,2.363-3.02,4.769-4.643,7.074-1.766,2.51-4.406,4.047-6.952,5.581a67.278,67.278,0,0,1-15.3,6.272c-1.442.44-2.934.743-4.333,1.291A24.653,24.653,0,0,0,8.88,361.07q-1.029.6-2.009,1.267c-1,.684-1.965,1.415-2.965,2.1a2.677,2.677,0,0,1-1.109.548c-.045,0-.091.006-.137.006a3.212,3.212,0,0,1-2.554-2.046ZM41.74,311.391q-3.511,1.789-7.047,3.534a27.877,27.877,0,0,1-3.466,1.562c-1.956.649-4.12.842-5.91,1.776A41.236,41.236,0,0,0,17.01,323.6a20.4,20.4,0,0,0-5.9,10.217,26.177,26.177,0,0,0-.892,5.746c-.14,3.672-.026,7.355-.048,11.032a12.873,12.873,0,0,1-2.156,6.871,4.6,4.6,0,0,1-3.746,2.261,8.057,8.057,0,0,0-2.835,2.514.854.854,0,0,0,.2.627,11.226,11.226,0,0,0,.911.818c1.6-.758,2.984-1.412,4.369-2.074a3.1,3.1,0,0,0,.837-.458,13.531,13.531,0,0,1,6.036-2.966,82.516,82.516,0,0,0,13.731-5.45,25.863,25.863,0,0,0,8.872-7.162,90.159,90.159,0,0,0,5.332-8.343,16.868,16.868,0,0,0,2.362-8.4c.262-5.1.716-10.184,1.2-15.265a36.883,36.883,0,0,1,1.047-4.589C44.619,309.875,43.19,310.651,41.74,311.391ZM11.047,355.145c.533-1.406,1.078-2.769,1.565-4.15.9-2.543,1.713-5.117,2.655-7.643a46.26,46.26,0,0,0,2.179-6.481c.388-1.808,1.56-3.451,2.419-5.24-1.652-2.246-1.845-5.128-.407-6.836.141,2.029.287,4.1.432,6.18l.508.048c.2-.52.429-1.031.608-1.561.74-2.184,1.409-4.394,2.22-6.549a14.522,14.522,0,0,1,1.417-2.356l.463.218-2.351,7.788.161.152,5.27-5.94.427.214a12.007,12.007,0,0,1-1.294,2.384c-1.446,1.651-3.208,3.05-4.5,4.8-1.619,2.193-2.9,4.634-4.31,6.981a3.031,3.031,0,0,0-.212.87l.26.2c4.336-3.744,8.584-7.6,13.031-11.2,4.5-3.652,7.188-8.731,10.8-13.091-2.059,4.4-5.166,8.062-8.312,11.972a27.313,27.313,0,0,0,8.753-3.2l.245.391a7.178,7.178,0,0,1-1.629,1.352,58.841,58.841,0,0,1-5.7,2.082,11.635,11.635,0,0,0-5.443,2.943c-2.216,2.293-4.937,4.091-7.388,6.165-1.337,1.132-2.6,2.356-3.827,3.61-1.547,1.583-1.922,3.688-2.434,5.784.17,0,.3.042.367-.007a27.149,27.149,0,0,1,7.932-3.778,4.031,4.031,0,0,0,1.487-1.026c1.921-1.919,3.763-3.932,6.306-5.07a5.758,5.758,0,0,1,2.224-.57l-7.583,5.505.265.471,9.526-3.841.234.285a7.074,7.074,0,0,1-1.464,1.534,36.931,36.931,0,0,1-5.027,2.425c-2.711,1-5.5,1.791-8.254,2.671l.023.311h7.6l.055.4a4.5,4.5,0,0,1-1,.244,51.4,51.4,0,0,1-6.108-.016c-2.5-.266-4.344.842-6.2,2.239-1.872,1.414-2.166,3.622-3.033,5.546a14.841,14.841,0,0,1-.668,1.657,2.168,2.168,0,0,1-1.911,1.159,2.525,2.525,0,0,1-.377-.026ZM254.221,268.5a80.593,80.593,0,0,1-10.138-.682c-7.141-.921-14.26-2.007-21.38-3.079-5.04-.759-10.085-1.506-15.091-2.454a22.7,22.7,0,0,1-7.574-3.145c-2.306-1.411-4.821-2.473-7.213-3.748a29.6,29.6,0,0,1-2.588-1.714c-1.183-.8-2.412-1.55-3.532-2.434a79.487,79.487,0,0,1-6.16-5.114c-3.506-3.387-6.845-6.947-10.283-10.408-2.223-2.237-4.631-4.306-6.712-6.665a81.664,81.664,0,0,1-7.844-9.8,44.308,44.308,0,0,1-3.893-9.1c-1.545-4.347-2.944-8.752-4.235-13.181a43.538,43.538,0,0,1-1.283-6.776,4.016,4.016,0,0,1,.669-2.476,10.376,10.376,0,0,1,8.893-5.013A2.318,2.318,0,0,1,158.229,184a1,1,0,0,0,.256.4c4.2,2.9,5.358,7.473,6.725,11.993,1.534,5.066,3.031,10.2,7.048,14.036q.606.579,1.26,1.1,4.378,3.523,8.762,7.038a10.228,10.228,0,0,1,1.342,1.193c2.459,2.828,4.88,5.688,7.344,8.511a20.861,20.861,0,0,0,2.124,2.088c1.564,1.346,3.171,2.644,4.937,4.108,2.838-3.585,5.872-7.268,8.741-11.075,4.059-5.387,7.977-10.881,11.989-16.3a167.754,167.754,0,0,0,11.432-17.822c2.046-3.65,4.3-7.191,6.587-10.695,1.963-3,4.116-5.882,6.179-8.82.2-.278.346-.589.613-1.048a11,11,0,0,0-2.381.026c-2.157.522-4.459.825-6.388,1.824a35.588,35.588,0,0,1-14.477,4.1A66.058,66.058,0,0,0,203.67,178.2a59.249,59.249,0,0,1-17.807,2.517c-3.475.041-6.963-.011-10.417.3a19.565,19.565,0,0,0-5.313,1.6c-1.911.761-3.729,1.751-5.586,2.642l-.345-.43a2.142,2.142,0,0,0,.524-.154c4.09-2.443,8.215-4.567,13.208-4.726,4.164-.131,8.311-.886,12.462-1.385a79.912,79.912,0,0,0,13.707-2.609c3.387-1.023,6.806-1.983,10.264-2.718a60.94,60.94,0,0,1,7.369-.859,30.293,30.293,0,0,0,10.9-2.89c1.271-.626,2.607-1.118,4.1-1.748-4.328.184-8.5.311-12.662.555-3.988.234-7.985.458-11.947.94a32.629,32.629,0,0,0-8.14,1.738c-6.66,2.664-13.585,4.336-20.485,6.138a74.522,74.522,0,0,1-18.232,2.272,34.434,34.434,0,0,1-4.89-.383,16.023,16.023,0,0,0-9.048,1.4c-1.337.617-2.722,1.135-4.046,1.777-2.547,1.236-3.54,1.015-5.166-1.258-.162-.227-.326-.452-.562-.778l-.676,1.086a11.75,11.75,0,0,1-.814-2.994c.077-3.788-.767-7.433-1.328-11.137a101.609,101.609,0,0,1-.688-10.848c-.076-1.755.134-3.525.018-5.276a34.56,34.56,0,0,1,3.3-16.812c1.47-3.243,2.467-6.7,3.674-10.062.161-.448.3-.9.473-1.347,1.146-2.909,2.281-5.823,3.452-8.723a5.981,5.981,0,0,1,7.75-3.713c.877.263,1.736.59,2.6.9,2.555.927,4.287,2.566,4.661,5.386a4.867,4.867,0,0,0,.288.814l.657-1.214c2.265,1.35,4.512,2.691,6.762,4.027q2.207,1.314,4.422,2.615,7.614,4.5,15.233,8.984,2.578,1.508,5.242,2.867c4.427,2.267,8.942,4.37,13.3,6.771a90.128,90.128,0,0,1,13.138,9.365,96.4,96.4,0,0,0,9.265,6.585,60.844,60.844,0,0,0,6.542,3.172c1.043.5,2.1.96,3.122,1.506,3.949,2.118,4.547,4.907,2.056,8.646-1.9,2.854-3.973,5.6-5.777,8.51-3.208,5.181-6.2,10.495-9.42,15.67q-3.915,6.3-8.156,12.389c-3.818,5.461-7.786,10.818-11.7,16.209-1.265,1.742-2.535,3.483-3.879,5.164-1.093,1.367-2.3,2.641-3.455,3.962-.909,1.042-1.81,2.092-2.685,3.106a2.756,2.756,0,0,0,.288.482,35.434,35.434,0,0,0,16.106,8.127c3.8.841,7.516,2.045,11.315,2.881,4.5.991,9.034,1.878,13.587,2.592,3.891.611,7.826.962,11.752,1.323a44.416,44.416,0,0,0,4.539-.031c.919-.009,1.838-.008,2.758-.015,2.509-.02,5.02-.032,7.53-.074a5.2,5.2,0,0,0,1.1-.307c-.607-2.862-1.042-5.737-1.845-8.5-1.174-4.05-2.723-7.989-3.9-12.038-1.3-4.463-2.368-9-3.533-13.5a.44.44,0,0,1,.106-.382c3.744,11.377,9.1,22.225,10.97,34.527,5.437-.729,10.8-1.417,16.143-2.192a9,9,0,0,0,2.673-.977c1.991-1.005,3.943-2.086,5.9-3.152a5.124,5.124,0,0,0,1.192-.8c2.389-2.4,4.776-4.794,7.118-7.237,1.517-1.583,3.026-3.185,4.413-4.881,2.673-3.272,5.426-6.5,7.831-9.966,2.352-3.389,4.313-7.051,6.271-10.3-3.559-2.371-6.927-4.464-10.12-6.8-1.922-1.406-3.522-3.244-5.351-4.787-1.678-1.414-3.449-2.719-5.213-4.026a16.866,16.866,0,0,0-7.833-3.3c-4.231-.588-7.767-2.738-11.164-5.161a1.846,1.846,0,0,0-.293-.207c-4.294-1.93-7.727-5.14-11.574-7.738a1.781,1.781,0,0,0-1.223-.153c-2.878.589-5.792,1.075-8.6,1.9a32.579,32.579,0,0,0-4.975,2.416l.783.977a27.7,27.7,0,0,1,8.493-2.728,55.23,55.23,0,0,1,6.1-.293,7.138,7.138,0,0,1,2.028.632c-.641.268-1.293.794-1.917.761a38.6,38.6,0,0,0-12.959,1.868,1.474,1.474,0,0,0-.824,2.523,1.728,1.728,0,0,0,1.5.527,33.854,33.854,0,0,0,4.8-2.358,16.566,16.566,0,0,1,6.156-2.138,9.253,9.253,0,0,1,1.9.167c-.549.447-.783.764-1.089.866-.941.311-1.959.428-2.858.823-1.89.83-3.721,1.792-5.581,2.691a18.669,18.669,0,0,1-2.6,1.19,2.4,2.4,0,0,1-3.163-1.571,6.476,6.476,0,0,0-2.2-3.309c-.53-.349-.432-.895.2-1.2a1.881,1.881,0,0,0,.428-.2c4.071-3.53,9.21-3.625,14.288-4.491-2.208-2.127-4.375-4.121-7.424-4.981a17.4,17.4,0,0,1-3.77-1.915c-1.137-.653-2.206-1.424-3.321-2.118a13.611,13.611,0,0,1-1.6-1.021,8.549,8.549,0,0,1,4.782,2.2,14.71,14.71,0,0,0,4.789,2.547,21.234,21.234,0,0,1,4.981,2.975c2.581,1.935,5.032,4.045,7.628,6.155,1.162-2.189,3.272-1.772,5.026-1.966a70.274,70.274,0,0,1,8.021-.277c1.666.007,3.332.271,5,.41a2.128,2.128,0,0,0,.932-.111c-6.2-.99-12.438-.6-18.673-.438l-.222-.348c.277-.331.491-.806.844-.963a4.951,4.951,0,0,1,1.959-.469c5.071.041,10.145.09,15.214.256a8.227,8.227,0,0,1,3.319.894,2.513,2.513,0,0,1,1.233,1.809,35.723,35.723,0,0,1-.5,5.469.992.992,0,0,1-1.616.758c-3.776-2.143-7.991-2.85-12.153-3.726a7.226,7.226,0,0,0-5.085.292c.2-1.436,1.013-1.918,2.046-1.813a61.714,61.714,0,0,1,6.84.941c2.816.606,5.579,1.463,8.361,2.212.715-3.024.737-3.3-2.425-3.559a121.062,121.062,0,0,0-13.268-.278c-3.3.1-3.291.314-4.571,1.206A25.289,25.289,0,0,0,276.928,184c2.393,1.426,4.907,2.668,7.216,4.214,3.147,2.107,6.677,2.891,10.292,3.606a16.689,16.689,0,0,1,4.925,1.652c3.573,2.017,7.082,4.172,10.47,6.485,2.987,2.04,5.724,4.444,8.677,6.538a29.69,29.69,0,0,0,4.251,2.112c1.2-2.187,2.341-4.32,3.533-6.426.94-1.663,1.982-3.269,2.906-4.941,1.367-2.473,2.649-4.992,4.006-7.471.957-1.747,1.97-3.465,2.973-5.187a14.163,14.163,0,0,0,2.034-7.4c-.093-5.31-.379-10.618-.634-15.924-.221-4.589-.507-9.176-.768-13.763-.05-.876-.118-1.749-.185-2.732H335.4c-1.717.031-3.437.154-5.148.072a15.874,15.874,0,0,0-6.95,1.568c-4.658,1.972-9.544,2.965-14.425,4.119-4.387,1.037-8.641,2.632-12.954,3.982l.039.464c.714.066,1.425.14,2.138.193,1.538.115,3.1.1,4.611.351,2.931.49,5.882.934,8.8.271a48.1,48.1,0,0,0,5.7-2.014c.559-.2,1.11-.429,1.656-.663a1.9,1.9,0,0,1,2.432.685,2.171,2.171,0,0,1,.313,2.663c-.861,1.341-1.872,2.584-2.786,3.892a14.2,14.2,0,0,0-1.45,2.334,18.6,18.6,0,0,1-3.621,5.14,21.534,21.534,0,0,0-4.822,9.883c-.093.387-.139.787-.252,1.166-.472,1.589-1.169,1.843-2.572.959a52.267,52.267,0,0,0-6.386-3.942,34.589,34.589,0,0,0-7.717-2.314,69.517,69.517,0,0,0-7.637-.553c-1.614-.113-2.4-1.476-1.464-2.783a26.33,26.33,0,0,1,3.049-3.364,21.43,21.43,0,0,0,6.465-10.972c-.431.13-.754.215-1.069.322-5.044,1.721-10.013,3.727-15.153,5.092-5.874,1.561-11.9,2.551-17.861,3.793-.739.154-1.476.327-2.211.5-1.184.279-2.369.565-2.527,2.239-1.178-1.557-1.066-2.3.435-2.709,2.984-.808,6.014-1.449,9.027-2.155,6.883-1.608,13.84-2.919,20.429-5.64,2.3-.951,4.787-1.448,7.184-2.169,4.747-1.427,9.455-3,14.246-4.256,3.99-1.047,8.077-1.713,12.116-2.575a14.344,14.344,0,0,0,2.5-.747,45.763,45.763,0,0,1,12.533-3.579c1.418-.158,2.814-.5,4.462-.8-.3-1.519-.5-3.047-.912-4.513-.878-3.1-1.921-6.156-2.794-9.258-.6-2.134-1.017-4.319-1.546-6.473a3.209,3.209,0,0,0-.544-1.185c-3.477-4.417-5.693-9.721-9.742-13.744a51,51,0,0,1-5.181-5.768c-3.087-4.178-7.332-6.835-11.729-9.274a77.912,77.912,0,0,0-7.168-3.123,5.387,5.387,0,0,0-.266.612c-1.076,3.92-3.384,7.155-5.624,10.463-2.613,3.863-4.983,7.889-7.5,11.821-1.309,2.048-2.667,4.066-4.054,6.062a43.03,43.03,0,0,0-5.38,10.886,21.57,21.57,0,0,1-2.406,4.909c-2.1,3.187-3.985,6.527-6.642,9.355-.979,1.04-1.31,2.683-1.965,4.038-1.12,2.324-2.262,4.637-3.392,6.954-.254.52-.5,1.047-.842,1.783a42.365,42.365,0,0,0,9.522-12,7.616,7.616,0,0,1,1.668-2.154,1.686,1.686,0,0,1,2.565.139c-2.512.51-3.081,2.663-3.964,4.421a34.4,34.4,0,0,1-7.872,9.867,19.52,19.52,0,0,0-1.577,1.832l.264.352,7.3-3.295.157.179a5.175,5.175,0,0,1-.989.805c-1.951.9-3.909,1.787-5.893,2.612-1.309.543-1.426.425-1.512-.736a35.832,35.832,0,0,1-3.46,4.543,12.075,12.075,0,0,1-3.877,2.192c-1.109.458-1.638-.008-2.281-1.6-1.81.707-3.143-.134-4.392-1.4a16.707,16.707,0,0,0-2.014-1.495c-1.7-1.254-3.373-2.532-5.088-3.76a20.519,20.519,0,0,0-2.426-1.5c-1.8-.942-3.651-1.781-5.432-2.754a12.012,12.012,0,0,1-2.072-1.6c-1.762-1.551-3.439-3.2-5.259-4.685a91.363,91.363,0,0,0-7.613-5.79c-2.725-1.774-5.679-3.2-8.537-4.765-7.2-3.95-14.5-7.735-21.57-11.912-3.48-2.058-6.558-4.81-9.758-7.324a10.551,10.551,0,0,1-1.615-2.15c-2.051,1.372-4.08.241-6.1-.346a8.9,8.9,0,0,1-6.382-10.478,7.38,7.38,0,0,1,3.3-4.4c3.443-2.385,6.93-4.712,10.289-7.214,5.058-3.768,10-7.686,15.027-11.5,3.778-2.869,7.494-5.84,11.435-8.472A53.061,53.061,0,0,1,216.34,64.8a36.021,36.021,0,0,0,7-2.675c5.193-2.653,10.7-3.165,16.4-3.111a93.54,93.54,0,0,1,15,1.449c8.906,1.532,17.808,3.092,26.722,4.588,3.707.621,7.059,2.179,10.454,3.659,3.028,1.319,6.188,2.372,9.108,3.891,6.7,3.485,13.728,6.5,19.167,12.019,3.242,3.292,6.8,6.284,9.474,10.11a5.663,5.663,0,0,0,.636.869c3.716,3.592,6.242,8.094,9.113,12.3a74.275,74.275,0,0,1,7.872,13.925,31.015,31.015,0,0,0,2.157,3.7c.775,1.341,1.547,2.685,2.282,4.048,1.287,2.383,2.54,4.785,3.816,7.176a21.411,21.411,0,0,1,2.315,9.209c.257,5.385.537,10.781.464,16.167-.09,6.585-.194,13.232-1.722,19.658-1.014,4.27-2.922,8.323-4.312,12.514-1.355,4.092-3.7,7.659-5.672,11.432a107.87,107.87,0,0,1-7.995,12.478c-3.127,4.377-6.572,8.536-10.043,12.651q-4.748,5.631-9.864,10.949a131.137,131.137,0,0,1-9.776,9.366c-4.432,3.735-9.532,6.454-14.683,9.14-6.638,3.463-13.869,4.886-20.9,7a37.78,37.78,0,0,1-11.022,1.325C259.629,268.628,256.919,268.5,254.221,268.5Zm-65.542-19.147a52.09,52.09,0,0,0,4.8,3.52c3.208,1.848,6.53,3.5,9.813,5.212a16.975,16.975,0,0,0,1.642.7c4.791,1.94,9.926,2.217,14.941,3.059,3.181.535,6.46.644,9.567,1.441a140.03,140.03,0,0,0,17.983,3.093,97.125,97.125,0,0,0,19.021.236,41.745,41.745,0,0,0,4.719-.714c.318-.061.824-.521.8-.756a21.9,21.9,0,0,0-.734-5.155c-.842-2.419-2.1-4.7-3.159-6.99-3.649.063-7.393.182-11.136.175-.563,0-1.128,0-1.693.005a48.419,48.419,0,0,1-7.256-.316c-6.736-.977-13.473-2.035-20.12-3.479-6.015-1.307-11.944-3.052-17.84-4.84a34.655,34.655,0,0,1-7.157-3.254,40.5,40.5,0,0,1-4.792-3.75c-4.741,2.78-6.225,7.928-9.4,11.812Zm133.408-35.23a60.931,60.931,0,0,1-11.024,16c-.525.542-.937,1.192-1.433,1.765-2.476,2.863-4.766,5.923-7.5,8.519a45.176,45.176,0,0,1-10.165,7.659,35.707,35.707,0,0,1-12.994,3.671c-2.932.321-5.879.5-8.771.732.572,1.976.825,4.032,1.742,5.731a10.526,10.526,0,0,1,1.431,7.187c1.691-.487,3.2-.906,4.7-1.355,4.333-1.3,8.844-2.074,12.851-4.325s8.262-4.023,12.1-6.708c5.863-4.106,10.7-9.209,15.546-14.35,2.929-3.109,5.764-6.31,8.555-9.543,2.451-2.839,4.783-5.777,7.162-8.676a.941.941,0,0,0,.1-.332,7.328,7.328,0,0,1-1.466-1.3,7.439,7.439,0,0,0-3.11-2.512A33.93,33.93,0,0,1,326.039,214c-.918-.611-1.766-1.328-2.777-2.1-.447.837-.834,1.518-1.175,2.222ZM155.142,184.654c-2.867.249-4.877,2.166-6.307,4.617a1.767,1.767,0,0,0-.2,1.143,45.77,45.77,0,0,0,1.243,5.445c2.121,6.38,4.432,12.7,6.513,19.091a36.133,36.133,0,0,0,7.358,12.178c2.092,2.452,4.664,4.488,6.822,6.891A105.361,105.361,0,0,0,184.6,246.691c.843.655,1.668,1.337,2.579,2.069,3.454-4.046,5.015-9.375,9.864-12.557-1.52-1.37-2.807-2.534-4.1-3.692-1.184-1.061-2.4-2.09-3.557-3.179a55.2,55.2,0,0,1-7.716-8.157,4.258,4.258,0,0,0-.727-.621c-2.906-2.551-5.628-5.323-8.977-7.337a7.9,7.9,0,0,1-1.336-1.2c-4.509-4.406-6.309-10.16-7.789-16.018a29.937,29.937,0,0,0-3.645-9.03,4.733,4.733,0,0,0-3.775-2.33C155.33,184.642,155.237,184.646,155.142,184.654Zm184.064-39.977c0,.547-.023,1.145,0,1.741.391,8.379.859,16.755,1.16,25.139.153,4.275-.023,8.573-1.95,12.529-.975,2-2.2,3.878-3.288,5.825-1.882,3.374-3.8,6.728-5.6,10.148-1.66,3.159-3.176,6.394-4.861,9.81,2.424,1.665,4.792,3.34,7.209,4.938,1.986,1.314,3.016,3.335,2.551,5.232a13.746,13.746,0,0,0,1.317-1.571c2.95-4.683,6.083-9.241,8.964-13.978,3.921-6.446,6.36-13.445,8.847-20.435,2.274-6.392,2.091-13.212,2.373-19.879a105.579,105.579,0,0,0-.673-20.451c-.218-1.426-.618-2.825-.963-4.36ZM149.052,116.3c-.767,2.121-1.628,4.209-2.439,6.317-.228.592-.424,1.2-.643,1.795-1.661,4.514-3.227,9.065-5.019,13.525a19.83,19.83,0,0,0-1.687,8.365c.1,2.349.21,4.706.489,7.038.614,5.139,1.36,10.262,2.007,15.4a51.044,51.044,0,0,1,.78,8.3A3.928,3.928,0,0,0,143.613,180c.1.124.2.251.294.378a1.2,1.2,0,0,0,1.667.387c2.43-1.091,4.885-2.125,7.331-3.18a3.874,3.874,0,0,0,2.284-4.487,8.672,8.672,0,0,0-3.177-5.321,5.823,5.823,0,0,1-2.043-5.933,4.8,4.8,0,0,0-1.584-5.094,21.229,21.229,0,0,1-1.438-1.7l.383-.363c1,.878,2.038,1.72,2.994,2.644a4,4,0,0,1,1.1,3.87,2.44,2.44,0,0,0,.515,2.2c.687.872,1.452,1.682,2.309,2.664a9.237,9.237,0,0,0,1.08-1.4,10.381,10.381,0,0,0,.1-9.213A5.308,5.308,0,0,1,155,152.32a61.5,61.5,0,0,0,1.626-11.449,7.6,7.6,0,0,1,.6-3.013c.9-1.772,2.058-3.407,3.083-5.114,1.329-2.213,2.751-4.383,3.907-6.685a4.664,4.664,0,0,0-.242-4.706,12.166,12.166,0,0,1-1.908-4.276,5.053,5.053,0,0,0-3.557-3.817c-.715-.243-1.413-.535-2.133-.753a5.427,5.427,0,0,0-1.579-.232,6.231,6.231,0,0,0-5.74,4.025Zm144.763,40.173c-.922,5.971-4.9,10.5-9.343,14.731l.288.415c2.639.322,5.294.554,7.915.989,3.343.554,6.592,1.319,9.312,3.644a35.739,35.739,0,0,0,4.888,3c.919-5.622,2.858-10.374,6.65-14.26a4.689,4.689,0,0,0,.972-1.494c1.248-3.132,3.372-5.675,5.426-8.274a4.088,4.088,0,0,0,.435-1.223c-.462-.083-.989-.354-1.373-.218-1.825.643-3.594,1.445-5.414,2.1a21.258,21.258,0,0,1-9.063.944c-2.024-.166-4.054-.271-6.084-.346-.552-.021-1.1-.027-1.678-.027-.895-.006-1.846.01-2.931.01ZM164.383,118.7a9.038,9.038,0,0,0,.3,1.277,8.772,8.772,0,0,1,.232,6.286,25.9,25.9,0,0,1-2.276,4.47c-1.269,2.115-2.737,4.115-3.955,6.258a4.6,4.6,0,0,0-.594,2.8,23.119,23.119,0,0,1-.693,11.225,5.469,5.469,0,0,0,.191,4.166,9.462,9.462,0,0,1,.55,6.894c-.561,1.725-.854,3.807-3.178,4.521a10.511,10.511,0,0,1,2.838,5.7,5.948,5.948,0,0,1-2.146,5.65c2.141,0,4.093.053,6.041-.013a63.71,63.71,0,0,0,7.151-.431,93.955,93.955,0,0,0,16.8-4.085c6.02-2.069,12.08-4.02,18.134-5.986a19.238,19.238,0,0,1,4.16-1.06c6.283-.552,12.572-1.1,18.871-1.4,3.38-.158,6.784.23,10.178.317,2.2.055,4.411.01,6.616.01l.146-.379a26.344,26.344,0,0,0-2.813-1.616c-5.027-2.138-10.071-4.229-14.432-7.637-2.13-1.665-4.32-3.256-6.534-4.919.123,1.762.225,3.453.363,5.14.14,1.71.368,3.415.456,5.126.063,1.237-.474,1.693-1.583,1.732-4.906.175-9.809.41-14.716.558-2.748.084-4.561-1.064-3.12-4.3a5.6,5.6,0,0,1,.266-.536c1.449-2.479,2.83-5,4.373-7.416a8.058,8.058,0,0,1,5.038-3.767c1.1-.247,2.24-.307,3.52-.472a6.627,6.627,0,0,0-.655-.494c-2.2-1.209-4.388-2.428-6.6-3.607q-4.852-2.583-9.732-5.11c-2.193-1.129-4.5-2.061-6.617-3.313-3.908-2.311-7.7-4.811-11.571-7.191-1.219-.75-2.533-1.342-3.782-2.047q-2.754-1.559-5.471-3.179c-1.839-1.1-3.653-2.245-5.477-3.369Zm77.95,48.55c1.771.739,1.771.739,2.224-.676Zm10.985-88.306c-6.07.184-12.145.25-18.21.53a50.953,50.953,0,0,0-6.248,1.036c.088.93.1,1.574.217,2.2,1.21,6.209,2.3,12.447,3.7,18.612,1.667,7.328,3.585,14.6,5.443,21.882,1.365,5.356,2.706,10.722,4.253,16.025,1.079,3.7,2.524,7.292,3.733,10.955.685,2.075.977,4.317,1.9,6.269a58.825,58.825,0,0,1,2.275,6.718c.094.279.249.538.484,1.034,1.061-.873,2.286-1.468,2.868-2.446,1.233-2.072,2.086-4.367,3.184-6.526a33.067,33.067,0,0,1,2.02-3.241c.64-.961,1.333-1.887,2-2.831,1.913-2.694,3.933-5.319,5.706-8.1,2.137-3.353,4.568-6.65,5.962-10.316a94.106,94.106,0,0,1,7.841-16.853c3.223-5.134,6.537-10.21,9.855-15.286,1.959-3,4.137-5.866,4.862-9.555a7.474,7.474,0,0,0-.64-.452c-3.438-2.006-6.841-4.075-10.334-5.98A21.848,21.848,0,0,0,278.209,80a78.827,78.827,0,0,0-12.084-1.463c-.646-.024-1.293-.034-1.94-.034-3.617,0-7.245.327-10.867.436ZM225.172,81.78q-2.542,1.185-5.06,2.421c-.89.437-1.768.9-2.636,1.378-2.507,1.384-4.864,3.236-7.539,4.07A98.087,98.087,0,0,0,197.3,94.907a42.36,42.36,0,0,0-16.785,14.066c-1.6,2.265-3.316,4.221-6.245,5.207a26.707,26.707,0,0,0,2.152,2.18A87.913,87.913,0,0,0,190,125.067c6.574,3.511,13.09,7.131,19.68,10.607,6.369,3.361,11.58,8.206,16.744,13.064a24.888,24.888,0,0,0,6.423,4.869,27.739,27.739,0,0,1,2.578,1.242c1.021.61,1.991,1.311,2.948,2.021,1.023.755,1.993,1.583,3.008,2.347,1.529,1.147,3.065,2.285,4.629,3.385a3.111,3.111,0,0,0,1.387.592c1.035.1,1.388-.552,1.006-1.5-1.043-2.577-2.138-5.14-3.024-7.771-2.175-6.451-4.244-12.937-6.458-19.72-.175.562-.266.8-.326,1.055-.47,1.965-.793,3.98-1.446,5.881-.526,1.527-1.5,2.893-2.18,4.375a3.028,3.028,0,0,1-2.856,1.985c-2.412.04-3.947-.545-3.971-3.417a5.463,5.463,0,0,1,1.088-2.68c1.668-2.594,4.01-4.828,4.256-8.154.1-1.392.14-2.791.2-4.187a2.037,2.037,0,0,1,2.806-1.946c.431.143.841.347,1.553.646-3.561-15.725-7.066-31.2-10.619-46.887-.935.372-1.61.6-2.254.9Zm-16.635,68.753c-1.771,3.153-3.517,6.317-5.272,9.478-.388.7-.085,1.041.616,1.15a53.728,53.728,0,0,0,5.642.829c1.929.092,3.864.074,5.8.056,1.015-.009,2.03-.019,3.046-.012,1.665.011,1.669.034,1.555-1.607a5.258,5.258,0,0,0-.148-.815c-.414-1.775-.824-3.55-1.254-5.321a11.712,11.712,0,0,0-.862-3.046c-.355-.623-1.283-.92-1.955-1.363h0a17.737,17.737,0,0,0-2.762-.423,6.546,6.546,0,0,0-1.316.176,5.664,5.664,0,0,1-1.506.17c-.083-.005-.162-.009-.238-.009a1.369,1.369,0,0,0-1.346.732Zm24.435-11.08c-.791,1.2-1.668,2.339-2.5,3.506-.877,1.226-.65,2.1.717,2.756,2.185,1.056,2.283,1.025,3.509-1.117.158-.276.32-.551.483-.825a20.852,20.852,0,0,0,2.551-13.238,2.244,2.244,0,0,0-1.627-2c-.83-.3-1.212.073-1.165.95.081,1.464.075,2.934.1,4.4,0,.159-.031.32-.022.479a3.509,3.509,0,0,0,.077.443c.93-1.678.189-3.759,1.383-5.338.585,5.262-.482,10.041-4.076,14.068-.136-2.638,2.166-4.467,2.345-7.127-.612,1.055-1.147,2.08-1.775,3.038Zm64.659-52c.64.276,1.112.478,1.583.683a60.859,60.859,0,0,1,6.432,2.852c4.541,2.645,9.04,5.335,12.154,9.85,2.231,3.236,4.99,6.1,7.309,9.284,2.486,3.412,4.748,6.989,7.072,10.516a7.618,7.618,0,0,1,.957,2.05c.577,2.025.967,4.108,1.616,6.107.843,2.6,1.941,5.125,2.785,7.727.647,1.993,1.071,4.059,1.627,6.225l14.044-5.4a17.53,17.53,0,0,0-1.038-2.028c-2.215-3.355-3.346-7.337-6.04-10.416a4.107,4.107,0,0,1-.623-1.151,96.94,96.94,0,0,0-9.833-17.174c-.986-1.453-2.007-2.884-3.074-4.279-2.351-3.065-4.57-6.255-7.16-9.107-2.674-2.944-5.843-5.433-8.579-8.327-4.051-4.282-9.764-5.787-14.345-9.11-3.441,3.258-3.452,7.732-4.887,11.691Zm-74.417-22.7a24.084,24.084,0,0,1-5.917,2.178c-5.462,1.372-10.309,4.052-14.956,7.055-3.505,2.266-6.731,4.969-10.065,7.5q-8.442,6.407-16.864,12.839-.381.29-.775.562c-3.244,2.249-6.5,4.477-9.729,6.752-3.127,2.207-3.183,7.461.12,9.408a66.1,66.1,0,0,0,8.022,3.444l-.385-1.849c.536.089,1.051.332,1.232.179a17.6,17.6,0,0,0,3.707-3.444,50.042,50.042,0,0,1,8.2-9.95c4.769-4.383,10.811-6.57,16.277-9.745a9.312,9.312,0,0,1,1.8-.631c3.361-1.1,6.962-1.7,9.86-3.848,3.956-2.936,8.59-4.472,12.992-6.785-.062-.3-.122-.723-.244-1.13-.867-2.931-1.791-5.847-2.6-8.8a15.1,15.1,0,0,1-.19-2.9,3.517,3.517,0,0,1,2.528,2.788c.9,3.2,1.721,6.433,2.588,9.711.238-.053.619-.16,1.008-.222a60.036,60.036,0,0,1,6.612-.993c7.5-.341,15.013-.644,22.522-.725,5.1-.054,10.223.118,15.309.523a22.155,22.155,0,0,1,7.492,1.849c4.176,1.953,8.123,4.393,12.155,6.651.747.419,1.44.936,2.2,1.434.111-.294.174-.441.22-.592.068-.229.1-.47.189-.689,1.368-3.45,1.64-7.459,5.124-9.865-.277-.135-.486-.249-.7-.342-3.844-1.638-7.68-3.3-11.539-4.9a32.73,32.73,0,0,0-6.01-2.252c-8.039-1.581-16.119-2.957-24.185-4.4a119.821,119.821,0,0,0-18.865-2.217q-.736-.013-1.466-.014c-5.466-.006-10.741.638-15.672,3.414Zm27.545,198.071c-.135-.036-.246-.2-.344-.324a6.335,6.335,0,0,1-.359-.616c3.006-.646,5.7.426,8.469.5l.208.652a5.311,5.311,0,0,1-1.463.85,6.344,6.344,0,0,1-1.256.123,20.51,20.51,0,0,1-5.255-1.191Zm1.682-3.3c2.386-.07,4.725-1.018,7.318-.209-.9,1.582-2.324,1.609-3.578,1.733-.293.029-.59.05-.883.05a2.932,2.932,0,0,1-2.857-1.583Zm28.771,1.069a7.511,7.511,0,0,1,1.383-1.34c3.033-1.654,6.078-3.293,9.175-4.822a8.177,8.177,0,0,1,2.486-.364l.226.607c-.948.6-1.857,1.286-2.852,1.8-2.649,1.367-5.339,2.654-8,3.992a3.1,3.1,0,0,1-1.376.469,1.9,1.9,0,0,1-1.042-.351Zm-56.643-1.9a4.934,4.934,0,0,1,4.956.244,2.806,2.806,0,0,1-2.165.836,3.984,3.984,0,0,1-2.791-1.087Zm-7.012-1.423c-2.127-.218-4.276-.343-6.366-.758a2.167,2.167,0,0,1-1.463-3.119c1.571,2.3,4.018,1.9,6.264,2.207a6.748,6.748,0,0,1,1.937.753.656.656,0,0,1,.188.614.684.684,0,0,1-.531.3Zm37.55-1.981c1.945-1.068,4.819-.932,5.8.278a4.166,4.166,0,0,1-2.766.809c-1.325-.006-2.655-.384-3.034-1.094ZM293,253.409c.839-2.222,4.824-5.3,7.311-5.586-.121,1.457-5.577,5.6-7.155,5.6a.645.645,0,0,1-.156-.014Zm-94.928-.868A5.692,5.692,0,0,1,195.1,248.3l6.854,4.513a3.194,3.194,0,0,1-1.682.513,4.051,4.051,0,0,1-2.2-.785Zm100.571-.1c2.628-2.436,4.874-4.93,8-6.3a3.313,3.313,0,0,1,1.3.015c-.135.439-.149.994-.433,1.291a11.363,11.363,0,0,1-1.724,1.271c-1.264.9-2.552,1.76-3.784,2.7a4.461,4.461,0,0,1-2.864,1.042A4.373,4.373,0,0,1,298.643,252.441Zm-100.036-5.924a2.925,2.925,0,0,1-.006-.682,11.561,11.561,0,0,1,5.576,2.466c.548.408.516.9-.246,1.1a1.313,1.313,0,0,1-.322.035C202.13,249.434,199,247.667,198.607,246.517Zm84.946-.944c.221-.323.339-.668.58-.817q4.81-2.983,9.654-5.913a5.813,5.813,0,0,1,.948-.337c-.9,2.5-8.042,7.092-10.847,7.093a2.054,2.054,0,0,1-.336-.026Zm-44.044-.38c-2.417-1.53-4.753-3.189-7.088-4.843-1.17-.831-2.2-1.865-3.407-2.631A25.827,25.827,0,0,0,224.5,235.3c-3.2-1.224-2.783-4.714-.86-6.284a16.2,16.2,0,0,1,2.57-1.747,34.336,34.336,0,0,0,9.728-8.214,9.109,9.109,0,0,0,.931-1.525,3.009,3.009,0,0,1,3.7-1.652c1.768.6,3.459.2,5.2.08a30.163,30.163,0,0,1,4.276.092,1.551,1.551,0,0,1,1.089.631c1.8,3.163,4.078,6.09,4.918,9.736a8.607,8.607,0,0,1,.114.982,6.981,6.981,0,0,1-2.009,4.832c-2.205,2.015-4.516,3.921-6.657,6-1.892,1.837-4.141,3.373-5.129,6.037a1.769,1.769,0,0,1-1.648,1.309,2.273,2.273,0,0,1-1.208-.388Zm-1.837-26.887a17.356,17.356,0,0,1-6.248,8.222c-1.926,1.281-3.863,2.545-5.793,3.817-1.445.952-1.845,2.642.176,3.717a33.922,33.922,0,0,1,4.689,3.068c2.406,1.846,4.7,3.836,7.069,5.729a14.007,14.007,0,0,0,1.75,1.017c.835.491,1.133.059,1.486-.682a11.587,11.587,0,0,1,1.922-3.217c2.822-2.862,5.724-5.653,8.723-8.328a7,7,0,0,0,2.4-5.4,12.928,12.928,0,0,0-.329-1.867c-.6-1.845-1.3-3.663-1.909-5.505a3.088,3.088,0,0,0-3.458-2.443c-.911.076-1.824.117-2.734.2-1.639.152-3.231.753-4.935.226a3.245,3.245,0,0,0-.945-.164c-.878,0-1.419.538-1.865,1.611Zm36.13,26.58a29.3,29.3,0,0,1-3.438-2.16,1.725,1.725,0,0,1-.413-2.61,14.407,14.407,0,0,1,1.438-1.6,41.1,41.1,0,0,0,10.256-18.227,17.353,17.353,0,0,0,.328-3.282,3.747,3.747,0,0,1,1.316-.406,11.964,11.964,0,0,1,2.951.576c.913.337.867,1.262.945,2.133.415,4.627-1.642,8.689-2.844,12.949a37.436,37.436,0,0,1-5.716,11.353,3.493,3.493,0,0,1-2.825,1.845,4.47,4.47,0,0,1-2-.571Zm5.612-14.39a36.55,36.55,0,0,1-8.136,10.714c1.3.852,2.409,1.616,3.555,2.313a1.708,1.708,0,0,0,2.671-.551,35.238,35.238,0,0,0,5.341-10.359c.616-2.134,1.317-4.251,2.109-6.327.9-2.347.7-4.786.827-7.2.012-.194-.141-.4-.287-.772-.288,1.644-.443,3.116-.821,4.528a37.854,37.854,0,0,1-1.507,4.257c-1.048,2.619-2.04,5.268-3.254,7.809s-2.665,4.955-4.018,7.424a.52.52,0,0,1-.243.255,1.445,1.445,0,0,1-.735.111c-.105-.029-.222-.435-.156-.6a12.054,12.054,0,0,1,1.183-2.591,26.314,26.314,0,0,0,3.448-6.917c1.669-4.826,4.646-9.167,5.233-14.512l-1.555-.35c.106,4.706-1.585,8.8-3.655,12.772Zm-40.693,7.948c.329-1.513,2.928-4.1,4.5-4.4-.244,1.866-2.841,4.411-4.337,4.411a1.2,1.2,0,0,1-.163-.011Zm-7.058-5.368c-.837-1.4-.346-2.949.7-4.206a11.432,11.432,0,0,1,1.537-1.508,21.286,21.286,0,0,0,5.04-5.709,9.522,9.522,0,0,1,1.015-1.228l.355.236a10.113,10.113,0,0,1-2.414,5.019c-1.163,1.308-2.471,2.488-3.735,3.7-1.675,1.612-1.657,2.8.01,4.433a6.953,6.953,0,0,1,1.34,1.794c.187.368.033.909.033,1.372l-.458.212A32.585,32.585,0,0,1,231.663,233.076Zm58.652,2.487c2.785-1.841,5.43-3.593,8.083-5.333.074-.049.22.01.59.039a18.308,18.308,0,0,1-1.815,2.033c-1.408,1.167-2.879,2.259-4.356,3.337a2.111,2.111,0,0,1-1.232.472,1.929,1.929,0,0,1-1.27-.549ZM203.9,233.68c2.111.347,2.962.09,3.516-2.091,1.08-4.253,3.921-7.034,6.994-9.845,1.665-1.522,2.765-3.665,4.107-5.538a9.4,9.4,0,0,0,.552-1c-.5,2.627-1.138,5.215-3.04,7.184a22.1,22.1,0,0,0-5.752,9.376c-.594,2.1-1.791,3.851-4.214,4.277a1.955,1.955,0,0,1-.336.03,1.892,1.892,0,0,1-1.827-2.393Zm96.071,1.156c.175-.245.336-.5.53-.734,1.723-2.038,3.539-4.008,5.143-6.137a36.193,36.193,0,0,0,1.815-3.613c1.04-1.774,2.149-3.513,3.325-5.2a32.329,32.329,0,0,1,2.855-3.534,3.845,3.845,0,0,1,1.958-.951,46.1,46.1,0,0,1-3.553,4.955,24.744,24.744,0,0,0-4.1,6.954,19.543,19.543,0,0,1-5.954,7.642,9.333,9.333,0,0,1-1.865.863Zm-49.841-8.564c.569,2.189-.707,4.016-2.836,4.038,1.036-1.478,1.935-2.758,2.834-4.039Zm37.525-.376c.354-5.014.671-10.048.6-15.068-.049-3.47-.3-7.03-2.072-10.214-.046-.083.009-.221.027-.5l1.142.752c.667-.419,1.239-.8,1.831-1.143a38.747,38.747,0,0,0,3.359-1.967,3.3,3.3,0,0,1,2.913-.652,4.637,4.637,0,0,1,1.986.774c2.381,2.218,5.459,3.044,8.293,4.367a23.518,23.518,0,0,1,2.519,1.6c1.613,1.025,3.262,2,4.832,3.085.606.419,1.484,1.05.08,1.723-.267.128-.416.568-.553.892-.757,1.795-1.4,3.645-2.27,5.38a32.343,32.343,0,0,1-2.361,3.55c-.472.691-1,1.346-1.418,2.066a12.811,12.811,0,0,1-6.975,6.214c-2.628.893-5.175,2.141-7.869,2.69a6.8,6.8,0,0,1-1.351.152c-2.168,0-2.875-1.442-2.715-3.7Zm2.359-4.459c-.119,1.9-.2,3.812-.308,5.878a7.792,7.792,0,0,0,2.072.119c2.745-.621,5.5-1.235,8.185-2.069a9.159,9.159,0,0,0,3.342-1.955,29.351,29.351,0,0,0,3.031-3.641,29.3,29.3,0,0,0,3.01-4c1.275-2.364,2.275-4.877,3.294-7.113-2.108-1.069-3.936-1.98-5.75-2.92a42.239,42.239,0,0,0-4.111-2.158,19.471,19.471,0,0,1-6.145-3.341c-1.312-1.153-2.052-1.02-3.464.067a6.478,6.478,0,0,1-5.141,1.589c2.506,6.4,2.393,12.957,1.983,19.543Zm-22.394,3.848c-2.836-3.514-3.868-7.522-4.253-11.84-.184-2.066-.4-4.128-.609-6.192a20.837,20.837,0,0,1,4.319-12.587c.024-.032.047-.064.072-.1.529-.656.974-1.765,1.6-1.88a20.593,20.593,0,0,1,5.2-.2c1.161.086,1.22.689.74,1.784a48.754,48.754,0,0,0-3.173,7.943,20.546,20.546,0,0,0-.109,6.9c.538,4.91,1.325,9.793,2.03,14.684a7.128,7.128,0,0,0,.426,1.363c.414,1.143,0,1.793-1.159,2.088a5.51,5.51,0,0,1-1.354.184,4.7,4.7,0,0,1-3.727-2.153Zm1.342-30.977a21.579,21.579,0,0,0-4.377,10.328c-.485,4.676.38,9.3,1.3,13.875.542,2.7,2.457,4.6,4.008,6.715.709.966,1.617.962,2.71.669-.139-.549-.29-.995-.361-1.453-.792-5.11-1.652-10.212-2.33-15.338-.579-4.381-.249-8.672,2.018-12.635.484-.847.833-1.771,1.256-2.681-1.239-.362-1.834.115-2.063,1.228-.128.62-.327,1.228-.5,1.836-.935,3.236-2.085,6.383-2.352,9.824a32.582,32.582,0,0,0,1.448,12.25c.4,1.3.656,2.635.979,3.954l-.406.122c-1.813-1.679-2.136-4.056-2.69-6.286-2-8.057-.385-15.633,3.43-23.172-.9.31-1.764.335-2.072.763ZM194.7,227.019a3.283,3.283,0,0,1-3.225-2.787c-.042-1.6,1.293-2.736,3.316-2.822,1.264-.054,2.542,1.509,2.551,3.122a2.422,2.422,0,0,1-2.627,2.488Zm-2-3.244c-.077.873.659,1.57,2.048,1.62.147-.158.657-.459.75-.857.18-.777-.81-1.8-1.6-1.882a1.864,1.864,0,0,0-.194-.011C192.993,222.646,192.756,223.123,192.7,223.775Zm98.96-1.272c.06-2.315.315-4.626.319-6.941,0-3.9-.124-7.808-.19-11.714,0-.064.071-.131.278-.482a10.925,10.925,0,0,1,1,2.03,37.746,37.746,0,0,1,.633,11.3c-.124,2.06-.214,4.121-.319,6.158H298.7l.089.308a13.39,13.39,0,0,1-1.667.441c-1.157.155-2.346.131-3.481.375a3.67,3.67,0,0,1-.756.093c-.84,0-1.255-.458-1.226-1.575Zm-90.563-.522a2.306,2.306,0,0,1-2.027-2.642,5.153,5.153,0,0,1,.535-1.285l.323.107c-.029.3-.188.68-.062.887a5.282,5.282,0,0,0,1.191,1.418c.145.114.762-.155.967-.407.129-.16-.056-.638-.2-.928-.094-.2-.386-.286-.529-.47-.255-.33-.464-.7-.692-1.046a3.784,3.784,0,0,1,1.4-.21,2.373,2.373,0,0,1,1.729,2.866,2.229,2.229,0,0,1-2.238,1.738,2.977,2.977,0,0,1-.394-.028Zm-10.941-2.388a15.8,15.8,0,0,1-1.579-1.793,4.179,4.179,0,0,1,2.118-6.544,2.1,2.1,0,0,1,.661-.067c.106,0,.213,0,.318-.005l.162.284a19.215,19.215,0,0,0-1.793,2.165c-.391.627-.949,1.656-.7,2.077a14.711,14.711,0,0,0,2.6,2.87c.122.117.626-.05.88-.2a32.152,32.152,0,0,0,3.1-2.012,1.632,1.632,0,0,0,.127-2.826,6.709,6.709,0,0,0-2.391-1.136,5.906,5.906,0,0,0-1.686-.03,2.328,2.328,0,0,1,3.286-1.281,4.523,4.523,0,0,1,2.989,3.053,3.463,3.463,0,0,1-1.568,3.749,28.556,28.556,0,0,1-3.231,2.235,2.689,2.689,0,0,1-1.318.366,2.808,2.808,0,0,1-1.977-.9Zm36.8-7.949c-.93,3.461-2.31,6.35-5.021,8.572-.545-1.488,3.144-7.9,5.02-8.571Zm79.317,1.645c.763,1.61-2.175,5.665-4.6,6.247-.055-1.157,3.109-5.39,4.6-6.246Zm-146.158,3.547a13.456,13.456,0,0,1-3.056-7.616c-.048-.519.356-1.079.552-1.62l.493.085c.174.349.373.688.517,1.048q1.146,2.871,2.267,5.754a9.207,9.207,0,0,1,.536,1.575,4.867,4.867,0,0,1-.081,1.231c-.419-.145-.986-.165-1.229-.456Zm46.448-1.03a18.556,18.556,0,0,1-3.4-1.89c-2.836-2.387-5.565-4.9-8.3-7.4-2.352-2.145-2.459-4.391-.176-6.592,1.161-1.12,2.622-1.919,3.893-2.932,2.271-1.808,4.538-3.624,6.718-5.536.557-.489.711-1.409,1.183-2.029a2.317,2.317,0,0,1,3.258-.814c3.056,1.318,6.11,2.641,9.139,4.017a14.254,14.254,0,0,1,2.34,1.44,4.258,4.258,0,0,1,1.765,3.047,11.676,11.676,0,0,1-1.121,2.309q-4.932,6.252-9.981,12.41c-1.009,1.23-2.173,2.333-3.271,3.488A1.849,1.849,0,0,1,207.3,216a1.563,1.563,0,0,1-.74-.2Zm.821-24.677a22.378,22.378,0,0,1-8.292,8.257,12.729,12.729,0,0,0-2.547,1.957c-1.391,1.345-1.489,2.326-.474,4.021,2.3,3.847,5.669,6.655,9.167,9.328a6.1,6.1,0,0,0,.967.449c1.05.533,1.766.158,2.451-.724,1.59-2.044,3.326-3.977,4.874-6.052,2.287-3.067,4.47-6.211,6.669-9.343a11.614,11.614,0,0,0,.8-1.768c-.469-.524-.87-1.275-1.5-1.615-1.707-.923-3.507-1.671-5.272-2.485-1.83-.845-3.657-1.7-5.5-2.519a1.253,1.253,0,0,0-.5-.126c-.32,0-.587.191-.844.621Zm92.693,22.112c1.271-1.742,2.083-3.665,4.194-4.56.28,1.955-1.92,4.609-3.774,4.609a1.772,1.772,0,0,1-.422-.048Zm-56.511-1.265a2.025,2.025,0,0,1-.7-2.356c.526-1.46,1.1-2.9,1.611-4.367.316-.9.568-1.818.832-2.732.149-.515.22-1.464.408-1.486a5.178,5.178,0,0,1,2.6.186,3.043,3.043,0,0,1,1.839,3.442l-.321-.014c0,2.141.025,4.282-.011,6.422a1.766,1.766,0,0,1-1.746,1.893,10.476,10.476,0,0,1-1.4.108,4.416,4.416,0,0,1-3.114-1.1Zm3.542-.969c.815.069,1.088-.3,1.16-1.1.145-1.613.444-3.21.617-4.82a15.374,15.374,0,0,0-.034-2.024l-.4.028a4.512,4.512,0,0,1-.033.575c-.364,2.022-.713,4.048-1.13,6.06-.054.261-.472.448-.721.67-.176-.314-.5-.629-.5-.942.009-1.1.131-2.206.21-3.31l-.163-.063c-.374,1.034-.761,2.064-1.121,3.1-.482,1.391-.205,1.783,1.278,1.833h.367c.086,0,.172-.005.257-.005a.878.878,0,0,1,.211,0Zm10.384,1.653c-.266-.04-.471-.478-.5-.923a.393.393,0,0,0,.085.016c3.421,0,3.193-.459,3.093-3.608-.137-4.267-.258-8.534-.415-12.8-.045-1.232-.187-2.461-.294-3.813-1.944.732-3.325,2.7-5.647,2.223.956,4.958,1.9,9.842,2.838,14.726l-.4.086a29.682,29.682,0,0,1-1.429-3.749,6.781,6.781,0,0,0-3.1-4.338l.006.018c-.293-.425-.559-.868-.879-1.267-1.318-1.643-1.5-3.989,1.1-5.153-.549-3.1-1.219-6.169-1.61-9.274-.432-3.442-.525-6.925-.936-10.369a12.945,12.945,0,0,0-1.226-3.686c-.6-1.32-1.388-2.553-2.094-3.824l.292-.293a11.753,11.753,0,0,1,1.62,1.491,13.992,13.992,0,0,1,1.977,3.118,17.336,17.336,0,0,1,1.077,4.339c.418,3.6.583,7.234,1.04,10.83.268,2.112.9,4.18,1.413,6.481a11.8,11.8,0,0,0,1.818-.706c1.057-.635,2.051-1.377,3.09-2.045,1.512-.972,2.3-.679,2.548,1.06a34.132,34.132,0,0,1,.113,10.925c-.431,2.442-.126,5.013-.137,7.527-.009,2.026-.888,3.075-2.634,3.075a5.364,5.364,0,0,1-.811-.066Zm-6.534-15.746c.229,1.636,1.42,2.711,2.916,3.906l-1.592-5.686-.446-.108c-.316.632-.962,1.312-.88,1.889Zm-29.483,14.792a18.853,18.853,0,0,1,.98-3.43c1.873-3.768,3.836-7.492,5.855-11.184a6,6,0,0,1,2.155-2.01c-2.1,5.995-5.8,11.132-8.354,16.857Zm14.372-.533a8.688,8.688,0,0,1-3.653-5.558c-.327-1.345-.463-2.739-.685-4.109a14.154,14.154,0,0,1,1.56-6.116c1.5-3.071,5.3-3.885,7.717-3.817,1.219.035,1.516,1.031.786,2.151a16.09,16.09,0,0,0-2.96,9.655,5.236,5.236,0,0,0,1.767,4.017c1.215,1.035,1,2.026-.45,2.77a8.281,8.281,0,0,0-1.671,1.079,1.582,1.582,0,0,1-1.056.438,2.6,2.6,0,0,1-1.357-.509Zm1.422-17.156a3.412,3.412,0,0,0-3.157,3.064,21.635,21.635,0,0,0-.711,5.384,9.056,9.056,0,0,0,2.5,6.4,2.756,2.756,0,0,0,4.136-.125c-4.855-4.9-2.714-10.023-.347-15.318a16.9,16.9,0,0,1-2.423.6ZM257.941,209.7a11.221,11.221,0,0,0,.038-5.071c-.338-2.423-.468-4.876-.687-7.316l.527-.133a5.07,5.07,0,0,1,.482,1.213c.334,2.8.722,5.6.886,8.415.1,1.628.01,3.348-1.6,4.715a17.349,17.349,0,0,1,.352-1.822Zm-73.808-.018c-4.573-.655-8-2.785-9.585-7.357-.978-2.828-2.111-5.614-1.883-8.7l-.316-.059a54.9,54.9,0,0,1,1.273-5.648c.433-1.313,3.251-2.623,4.567-2.445,1.277.175,1.775.983,1.151,2.1a6.853,6.853,0,0,0-.044,6.517c.986,2.251,1.593,4.666,2.534,6.94a13.825,13.825,0,0,0,1.973,3.045c.68.878,1.557,1.6,2.249,2.475a1.86,1.86,0,0,1,.183,2.328,1.78,1.78,0,0,1-1.6.842,3.515,3.515,0,0,1-.5-.037Zm-6.949-20.439a75.458,75.458,0,0,0,.666,7.727c.7,3.819,3.037,6.89,5.314,9.914.386.513,1.319.616,2,.908l.329-.455a28.772,28.772,0,0,0-2.178-2.4,8.519,8.519,0,0,1-2.437-3.885c-.767-2.335-1.551-4.674-2.509-6.934a7.444,7.444,0,0,1,.032-6.548,1.431,1.431,0,0,0,.113-.841c-.337-.14-.919-.329-1.074-.171-.942.969-2.316,1.909-2.581,3.078-1.113,4.9.432,9.447,2.582,13.8a6.567,6.567,0,0,0,3.256,2.771,1.824,1.824,0,0,0-.122-.351,21.737,21.737,0,0,1-4.55-15.341c.077-.851,0-1.832,1.1-2.433.022.477.031.82.057,1.162ZM199.44,204.17a2.492,2.492,0,0,1,1.474-3.189c2.538-.908,4.1-2.768,5.519-4.865.729-1.078,1.444-2.165,2.385-3.577.078.776.37,1.456.151,1.858-1.63,2.992-2.751,6.4-6.456,7.721-1.737.62-2.156,2.271-1.093,3.8.683.981,1.541,1.84,2.321,2.755l.332-.172c.226-2.273.631-4.448,3.053-5.562-1.82,1.8-2.229,4.166-2.542,6.763C202.072,208.285,200.115,206.811,199.44,204.17Zm77.523,4.542a7.068,7.068,0,0,1-1.4-2.673,1.279,1.279,0,0,1,1.094-1.751,8.441,8.441,0,0,0,.148,2.174,1.327,1.327,0,0,0,1.73,1.053,9.5,9.5,0,0,1-.5-1.4,5.57,5.57,0,0,1,.021-1.216,3.769,3.769,0,0,1,1.215.43c1.359,1.142,1.482,2.74.3,3.547a2.373,2.373,0,0,1-1.317.451,1.645,1.645,0,0,1-1.291-.614Zm-116.87-2.561c-.49-1.872-2.027-3.61-.916-5.764a11.327,11.327,0,0,1,3.113,8.152,2.9,2.9,0,0,1-2.2-2.388Zm122.549.575a3.367,3.367,0,0,1-.439-2.417c.084-.527.833-.949,1.373-1.51.493,1.085-1.064,1.947.472,2.8l-.118-1.165c.919-.351,1.688-.312,2.1.685a1.456,1.456,0,0,1-1.231,1.948,4.306,4.306,0,0,1-.742.062,1.954,1.954,0,0,1-1.415-.408Zm-30.91-6.224-.008-.022c.878,2.088.536,4.248.513,6.454-1.968-.861-2.184-4.534-.505-6.434ZM235.1,204.2a15.943,15.943,0,0,1,.519-7.44c.188-.639.886-1.128,1.349-1.686l.348.311a28.271,28.271,0,0,0-.4,10.584C235.618,205.952,235.256,205.047,235.1,204.2Zm85.963-2.474c1.415-2.1,2.95-4.118,4.464-6.15.123-.166.4-.219.6-.324l.388.175a7.555,7.555,0,0,1-.527,1.936c-1.027,1.743-2.164,3.42-3.259,5.122a.247.247,0,0,1-.076.092c-.526.286-1.056.569-1.585.853-.014-.58-.268-1.317-.007-1.707Zm-166.5-8.9c.883,3.333,2.285,6.443,1.683,10.031-2.066-1.147-3.178-8-1.686-10.035Zm123.8,8.6c-.676-1.674-1.075-3.461-1.559-5.094a5.92,5.92,0,0,1,2.657-4.046.949.949,0,0,1,1.418.87,1.5,1.5,0,0,0,.376.676,6.014,6.014,0,0,1-.078,7.641,1.987,1.987,0,0,1-1.536.754,1.312,1.312,0,0,1-1.276-.8Zm-.189-5a22.856,22.856,0,0,0,1.462,4.332c1.945-2.534,1.878-4.156-.394-7.1-.425,1.022-1.176,1.953-1.066,2.766Zm-94.58-1a1.911,1.911,0,0,1,.359-2.318c1.036-1.108,2.082-2.213,3.2-3.229a5.631,5.631,0,0,1,1.589-.7,54.161,54.161,0,0,1,5.315,1.2c2.272.739,2.826,2.742,1.569,4.768A8.261,8.261,0,0,1,191.6,198.4a3.877,3.877,0,0,1-1.478.255c-2.38-.006-5.637-1.493-6.523-3.233Zm4.431-4.278c-.9.846-1.673,1.824-2.523,2.724a.817.817,0,0,0,0,1.322c2.159,2.319,6.849,2.126,8.755-.387,1.232-1.624.882-2.781-1.1-3.367-1.174-.347-2.4-.539-3.741-.833a3.947,3.947,0,0,0-1.39.544Zm3.308,1.02a2.658,2.658,0,0,1-1.094,3.614c-.974-.819-.387-2.755,1.1-3.612Zm137.383-4.678a21.772,21.772,0,0,1-5.912,7.345c.019-2.06,3.93-7.007,5.913-7.343Zm-22.623,5.6c-.771-1.471-1.558-2.937-2.272-4.435-.4-.848.112-1.571,1.283-2.02a47.119,47.119,0,0,0,6.634-2.63c6.154-3.529,11.6-7.915,15.4-14.057.269-.436.418-.944.65-1.4s.476-.868.876-1.589c1.52,1.427,2.913,2.642,4.192,3.965a2.682,2.682,0,0,1,.385,3.127c-1.144,2.623-2.321,5.233-3.415,7.876a13.848,13.848,0,0,1-6.176,6.776,86.237,86.237,0,0,1-10.026,4.723,22.081,22.081,0,0,1-5.035.92,3.025,3.025,0,0,1-.453.035,2.208,2.208,0,0,1-2.042-1.286Zm14.043-5.247c-3.929,2.452-7.853,5.063-12.759,5.35a3.6,3.6,0,0,0,1.57.239,22.274,22.274,0,0,0,8.221-2.277c1.428-.786,2.821-1.662,4.314-2.3,4.873-2.083,6.991-6.2,8.286-10.994-2.83,3.7-5.62,7.481-9.632,9.987Zm7.786-16.565a13.888,13.888,0,0,1-1.547,2.672c-1.771,2.049-3.586,4.076-5.522,5.969a34.52,34.52,0,0,1-13.979,8.473,8.705,8.705,0,0,0-.832.355l.748,3.5c.92-.366,1.683-.675,2.451-.974,1.773-.689,3.582-1.3,5.314-2.075a30.152,30.152,0,0,0,9.912-7.152c2.773-3,5.27-6.071,6.085-10.192a1.248,1.248,0,0,0-.209-.919,1.375,1.375,0,0,0-1.076-.541,1.548,1.548,0,0,0-1.345.888Zm-79.891,19.335a19.434,19.434,0,0,1-1.175-11.208,41.369,41.369,0,0,0,.306-4.492l.451-.134a11.572,11.572,0,0,1,.562,2.43,45.746,45.746,0,0,1-.2,5.6c-.266,2.483.648,4.682,1.343,6.955.3.986.449,2.021.667,3.034l-.559.241a22.584,22.584,0,0,1-1.4-2.422Zm-28.008-1.531c-.795-.449-.776-1.269-.1-1.926a23.235,23.235,0,0,0,5.088-8.164,21.484,21.484,0,0,0,.887-3.557c.175-.818.481-1.069,1.319-.667a6.116,6.116,0,0,1,2.874,8.032c-.893,1.82-1.849,3.609-2.742,5.429-.775,1.58-2.237,1.883-4.066,2.228a27.149,27.149,0,0,1-3.26-1.371Zm1.835-1.134a12.172,12.172,0,0,0,1.4.639,3.133,3.133,0,0,0,3.188-.986c1.014-1.888,2.039-3.775,2.948-5.717.815-1.74.536-2.6-.994-3.935l.008.009h0v.005l.005.006h0l-.015-.007v-.011l-1.607-1.864c-.766,5.273-1.171,6.233-4.933,11.865Zm107.908.546c.509-1.159,1.275-2.206,1.792-3.363.884-1.983,1.657-4.016,2.475-6.028.183-.452.362-.9.626-1.567a4.718,4.718,0,0,1,.242,4.682c-1,2.41-2.322,4.688-3.509,7.021a.213.213,0,0,1-.073.094q-.825.462-1.653.919a5.125,5.125,0,0,1,.1-1.754Zm-162.288-2.224a9.153,9.153,0,0,1,5.271-2.585c2.062-.219,4.129-.39,6.2-.525a11.348,11.348,0,0,1,1.938.226c-.949,1.179-2.145,1-3.185,1.122-1.462.175-2.947.164-4.415.292a8.656,8.656,0,0,0-5.586,2.934c-.219.231-.428.473-.652.7-.043.041-.146.024-.266.041a1.921,1.921,0,0,1,.695-2.2Zm56.568,1.969a3.955,3.955,0,0,1-.034-1.239c.275-.907.651-1.785,1.007-2.665q1.136-2.8,2.294-5.6c.2-.485.252-1.189,1.084-.778.131,3.226-1.406,5.945-2.694,8.73a9.281,9.281,0,0,1-1.258,1.648Zm-23.108-.572a11.981,11.981,0,0,1-8.589-3.316,6.384,6.384,0,0,1-.667-.916l.2-.239,1.432.4c.612-1.755.967-1.807,2.862-1.545,5.055.7,10,.672,14.505-2.357,1.493-1.006,3.145-1.952,5.129-1.123a3.081,3.081,0,0,1,1.954,2.879,2.174,2.174,0,0,1-1.669,2.329c-4.827,1.9-9.638,3.888-14.953,3.888Zm-6.258-3.96c.265.419.434,1,.814,1.227a12.742,12.742,0,0,0,6.527.948l-1.947-.984a46.324,46.324,0,0,0,16.294-3.134c-.531-1.91-1.543-2.518-3.076-1.939a26.557,26.557,0,0,0-2.426,1.274,28.831,28.831,0,0,1-3.21,1.539c-3.821,1.366-7.755,1.147-11.7.739h-.093a5,5,0,0,0-1.183.334Zm45.834,2.6c-.646-.337-.951-1.329-1.331-1.912.725-2.557,1.589-4.653,3.692-5.948A1.353,1.353,0,0,1,244,178.43c.212.1.337.6.33.909-.037,1.769-.067,3.542-.222,5.3-.063.725-.33,1.964-.681,2.03a4.834,4.834,0,0,1-.882.079,4.5,4.5,0,0,1-2.031-.443Zm1.155-.884v-3.7c-1.434,1.961-1.383,3.464,0,3.7ZM348.051,186.5a.92.92,0,0,1-.392-.807c.58-2.133,1.172-4.267,1.889-6.356.159-.466.825-.757,1.258-1.129l.407.263c-.086.682-.133,1.372-.268,2.045-.3,1.509-.607,3.022-1,4.508a3.156,3.156,0,0,1-.854,1.381.893.893,0,0,1-.589.169A1.268,1.268,0,0,1,348.051,186.5ZM184.7,184.039c.794-1.447,3.05-2.157,5.4-1.679a8.363,8.363,0,0,1-4.67,1.722,6.247,6.247,0,0,1-.725-.043Zm160.137-6.583a53.822,53.822,0,0,1,1.461-5.871c.111-.371.754-.582,1.151-.867a3.661,3.661,0,0,1,.309,1.285c-.283,1.884-.614,3.764-1.014,5.627a9.581,9.581,0,0,1-.8,1.808,1.544,1.544,0,0,1-1.11-1.981Zm-107.065-5.4c.553,2.255-2.289,5.709-4.645,5.737Zm30,1.519c1.733-.039,3.373-.206,4.975.986a4.324,4.324,0,0,1-2.011.492,3.354,3.354,0,0,1-2.966-1.477Zm-102.518.9a4.277,4.277,0,0,1-2.822-2.879,1.547,1.547,0,0,1,.407-1.427c.468-.235.85.09,1,.838.218,1.087,1.936,1.681,2.983,1.133a7.351,7.351,0,0,0,1.923-1.393,3.547,3.547,0,0,1,3.95-.875c1.892.577,3.7,1.549,5.774,1.264.508-.07,1.013-.17,1.524-.225a11.85,11.85,0,0,1,2.807-.222,6.4,6.4,0,0,0,4.414-1.076c1.337-.821,2.714-1.578,4.074-2.362l.312.529c-2.243,1.234-4.37,3.087-6.758,3.525a27.912,27.912,0,0,0-6.531,2.007c-1.024.459-2.476.1-3.7-.084a9.252,9.252,0,0,1-2.317-.932,1.59,1.59,0,0,0-2.008.41,5.694,5.694,0,0,1-3.825,1.957,4.1,4.1,0,0,1-1.209-.184Zm136.021-2.213c-.585-1.094-1.221-2.065-2.86-2.147,1.793-.529,2.736.244,3.722,1.255a9.049,9.049,0,0,0,2.486,1.432c.343.172.788.143,1.13.319.223.115.528.526.47.641a1.216,1.216,0,0,1-.721.626,2.41,2.41,0,0,1-.434.038,4.85,4.85,0,0,1-3.8-2.16Zm-68.613,1.622q1.206-.7,2.411-1.409l.275.467-2.427,1.429Zm117.991-2.549c.054-2.871.221-5.741.358-8.61a2.7,2.7,0,0,1,.238-.646c2.108,1.828,2.156,9.617-.076,11.881a13.009,13.009,0,0,1-.523-2.621Zm-81.2.418a5.3,5.3,0,0,1-1.758-.7l.074-.466c.852-.1,1.7-.22,2.556-.315,1.148-.126,2.3-.291,3.447-.318.32-.008.65.411.977.634-.257.246-.487.666-.773.707a35.585,35.585,0,0,1-4.5.458Zm48.756-.71a1.618,1.618,0,0,1-1.564-1.535,3.569,3.569,0,0,1,3.491-3.854,1.83,1.83,0,0,1,1.967,1.923,3.963,3.963,0,0,1-3.575,3.489,2.1,2.1,0,0,1-.318-.019Zm-.26-2.5c-.3.769.153,1.139.937.852a1.9,1.9,0,0,0,.479-3.46,22.248,22.248,0,0,0-1.415,2.611Zm-5.831-5.773c-.882,3.336-4.136,4.9-4.959,8.247-1.208-2.124,2.341-7.8,4.96-8.244ZM288.8,169.318c-.209-.439.293-1.25.56-1.865a2.076,2.076,0,0,1,.651-.692,12.6,12.6,0,0,0,3.832-5.262c.217-.535.509-1.039.766-1.558l.367.188c-.01,3.536-1.984,6.071-4.684,8.37a8.629,8.629,0,0,0,2.843.228,5.675,5.675,0,0,1,3.838.792c-2.22.216-4.3.491-6.392.579h-.066a2.19,2.19,0,0,1-1.715-.78Zm35.413-1.866c-.454-.824-.061-1.554.779-2.21l-.153,1.445.322.117c.1-.227.306-.461.291-.68-.041-.626.161-1.155.8-.959a1.58,1.58,0,0,1,.907,1.131c.078,1.045-.77,1.564-1.626,1.763a.635.635,0,0,1-.141.015,1.6,1.6,0,0,1-1.178-.622Zm-60.7.255c1.568-1.483,14.571-3.74,15.92-2.566a31.546,31.546,0,0,1-3.918.875c-3.726.365-7.475.52-11.081,1.682a.809.809,0,0,1-.256.033c-.159,0-.367-.024-.659-.024Zm-68.365-.672.022-.518a19.037,19.037,0,0,1,6.411-1.721c.294-.019.615.362.923.557-.207.258-.368.673-.628.749-1.742.5-3.493.988-5.267,1.355a.742.742,0,0,1-.148.014,5.307,5.307,0,0,1-1.307-.436Zm-8.647-1.283c2.551-2.04,7.7-3.514,9.469-2.709-.781.949-6.908,2.77-8.969,2.771a1.542,1.542,0,0,1-.494-.063Zm141.744-2.969a22.128,22.128,0,0,1,.128-11.107,3.267,3.267,0,0,1,2.66-2.268,1.946,1.946,0,0,1,1.62.893,24.777,24.777,0,0,1,1.226,3.536l-.494.108c.157,1.852.279,3.707.487,5.553a6.4,6.4,0,0,0,.553,1.56,2.879,2.879,0,0,1-1.958,4.1,10.167,10.167,0,0,1-2.432.556c-1,0-1.248-.763-1.784-2.932Zm2.525-11.773v12.9c.37-.073.677-.145.987-.191,1.4-.206,1.85-.932,1.3-2.219a13.748,13.748,0,0,1-.931-6.656,11.319,11.319,0,0,0-.18-2.839c-.077-.443-.5-.824-.766-1.235Zm-1.518,7.4q.327-3.414.656-6.826l-.29-.049c-.764,2.235-.509,4.559-.361,6.875Zm-161.863,2.706c-.212-.953.288-1.438,1.174-1.768,3.729-1.383,7.462-2.763,11.138-4.276a15.62,15.62,0,0,0,3.887-2.281,33.461,33.461,0,0,0,8.114-9.037c.787-1.358,1.553-2.863,3.344-3.193a2.1,2.1,0,0,1,1.256.1c1.847.973,3.517,2.165,3.683,4.494a46.272,46.272,0,0,1,.179,6.031,4.057,4.057,0,0,1-1.279,2.335A43.178,43.178,0,0,1,178.14,164.7c-1.773.414-3.616.526-5.427.777a5.926,5.926,0,0,1-5.319-4.361ZM197.21,145.1a20.527,20.527,0,0,1-.549,2.361c-1.22,3.428-3.78,5.778-6.592,7.86-3.525,2.61-7.677,4-11.661,5.687-2.1.89-4.266,1.616-6.4,2.417l.183.7a57.447,57.447,0,0,0,7.023-1.086,41.634,41.634,0,0,0,18.153-10.131,4.588,4.588,0,0,0,1.392-2.628,29.805,29.805,0,0,0-.3-4.95c-.144-1.658-1.427-2.411-2.649-3.158a.882.882,0,0,0-1.372.461c-.336.721-.792,1.386-1.127,2.108a23.985,23.985,0,0,1-4.973,7.277c-1.758,1.7-3.587,3.326-5.242,4.854a21.744,21.744,0,0,0,8.046-4.706,23.138,23.138,0,0,0,4.76-6.249,6.531,6.531,0,0,1,.894-1.044ZM170.7,163.616l9.779-5.542c-3.737,1.119-7.236,2.962-11.53,2.865C169.7,162.087,170.239,162.906,170.7,163.616Zm151.409-1.19c-.384-.1-.588-.893-.874-1.373.237-1.483.439-1.652,1.82-1.511a3.366,3.366,0,0,0,.592-.067,1.538,1.538,0,0,1,1.8,1.039,1.4,1.4,0,0,1-.974,1.816,4.662,4.662,0,0,1-1.393.212,3.917,3.917,0,0,1-.969-.115Zm-112.231-5.5.378.13-.839,3,1.262.207-2.521,1.469a5.293,5.293,0,0,1,1.722-4.81Zm4.272,2.536c1.165-2.157.345-4.157-.508-6.137-.464-1.08-.6-2.137.373-2.939a4.64,4.64,0,0,1,1.682-.5c-1.555,1.517-1.585,1.778-.85,3.7.544,1.422,1.478,2.814.927,4.424A8.82,8.82,0,0,1,214.5,159.9c-.257-.329-.358-.416-.344-.441Zm38.048-1.823a5.821,5.821,0,0,0,2.408-4.534,10.736,10.736,0,0,1,1.984-6.138,3.122,3.122,0,0,0,.31-1.7c-2.124,1.421-4.18,2.823-4.67,5.579a1.546,1.546,0,0,1-1.772,1.271c-.925-.052-1.185-.729-1.18-1.509a9.049,9.049,0,0,1,.2-2.256c.124-.461.593-.829.907-1.238l.283.287v3.287l.223.037a4.21,4.21,0,0,0,.268-.571c.817-2.707,2.8-4.505,4.921-6.147.489-.379,1.543-.665,1.913-.4a2.349,2.349,0,0,1,.662,1.947,7.9,7.9,0,0,1-1.108,2.961,9.851,9.851,0,0,0-1.224,3.928,17.848,17.848,0,0,1-1.3,4.279,1.775,1.775,0,0,1-1.769,1.066,4.184,4.184,0,0,1-1.054-.153Zm19.376-.948a2.877,2.877,0,0,1-.3-3.618,4.229,4.229,0,0,1,1.382-.691,14.279,14.279,0,0,0-.664,2.249c-.034.272.365.6.568.9a3.557,3.557,0,0,0,.741-.916c.126-.349-.055-.8.037-1.172.084-.332.346-.859.548-.867a1.465,1.465,0,0,1,1.057.5,2.7,2.7,0,0,1-.52,3.561,2.31,2.31,0,0,1-1.5.564,2.025,2.025,0,0,1-1.346-.514Zm-30.936-1.617c-1.041-.485-2.048-1.048-3.039-1.629-.234-.137-.346-.478-.516-.726.28-.174.612-.545.832-.489.942.246,1.844.644,2.777.934a10.157,10.157,0,0,0,1.39.238c.077-.5.384-1.129.191-1.481-.682-1.241-1.6-2.352-2.3-3.584a12.154,12.154,0,0,1-1.145-2.806,4.175,4.175,0,0,1,.217-1.572l.469-.046c.022,2.4,1.807,3.716,3.024,5.4a14.87,14.87,0,0,1,1.434,2.843,2.025,2.025,0,0,1-.688,2.453,2.442,2.442,0,0,1-1.642.7,2.354,2.354,0,0,1-1-.239Zm42.857.036c-1.642-.2-3.3-.314-4.918-.623a1.2,1.2,0,0,1-.9-1.752c.606-1.714,3.594-3.193,5.329-2.632a2.443,2.443,0,0,0,.683.163c1.78.019,2.787.909,2.784,2.482a2.73,2.73,0,0,1-2.671,2.383,2.207,2.207,0,0,1-.3-.025Zm-.611-4.211a18.826,18.826,0,0,0-3.274,1.548l.172.3a27.417,27.417,0,0,0,3.071.623,3.6,3.6,0,0,0,1.665-.438,1.074,1.074,0,0,0-.071-.9c-.436-.436-1.076-1.143-1.482-1.143a.292.292,0,0,0-.078,0Zm-140.927,1.229c.192-2.343.509-4.675.838-7,.052-.367.42-.69.643-1.034l.4.108c.773,3.393.032,6.7-.6,10.122a1.9,1.9,0,0,1-1.277-2.2Zm22.941-.143a18.343,18.343,0,0,1-2.26-9.166,18.7,18.7,0,0,1,6.476-12.162c.781-.68,1.674-1.229,2.462-1.9a4.04,4.04,0,0,1,4.9-.3,19.43,19.43,0,0,1,3.14,2.179c1.472,1.21,1.243,2.569-.4,3.527-1.439.841-2.8,1.806-4.19,2.734-3,2.006-3.406,4.952-3.083,8.236a12.372,12.372,0,0,0,1.945,5.692c.459.7.086,1.026-.479,1.282-1.263.571-2.532,1.123-3.8,1.676a4.285,4.285,0,0,1-1.7.4c-1.246-.008-2.226-.771-3.009-2.2Zm6.186-20.742c-.331.346-.7.654-1.035,1-3.135,3.27-5.2,7.045-5.351,11.672-.094,2.992,1.2,5.553,2.712,8.021a1.765,1.765,0,0,0,2.124.68c1.266-.306,2.5-.744,4.014-1.207a12.36,12.36,0,0,1-3.416-8.68c-.089-2.579.545-4.9,2.711-6.583,1.661-1.288,3.308-2.592,4.982-3.9a1.809,1.809,0,0,0-2.021-.556c-2.07.537-3.262,2.063-4.56,3.514a10.88,10.88,0,0,0-2.913,8.325c.127,1.725.347,3.444.525,5.167l-.4.062c-1.156-2.631-1.975-5.381-1.278-8.3,1.1-4.615,3.627-8.145,8.158-9.888a3.946,3.946,0,0,0-1.873-.574,3.3,3.3,0,0,0-2.376,1.247Zm133.789,17.093c-2.794,1.293-5.222,2.985-8.371,3.242.489-1.692,6.688-4.115,8.375-3.247Zm-3.684-.995-.242-.447c2.645-1.351,5.279-2.724,7.947-4.027.337-.166.855.034,1.306.222-2.7,1.861-5.1,4.262-8.6,4.263-.129,0-.267-.008-.407-.016Zm6.943-.516a13.791,13.791,0,0,1,1.63-1.06,7.87,7.87,0,0,1,2.344-.854c4.276-.51,7.49-3.081,10.8-5.462a11.489,11.489,0,0,1,7.84-1.862c.535.036,1.035.564,1.552.865l-.238.443c-1.8.254-3.613.484-5.411.778a4.394,4.394,0,0,0-1.678.56c-1.988,1.312-3.91,2.723-5.894,4.04a9.519,9.519,0,0,1-2.605,1.37c-2.1.578-4.248,1-6.389,1.418a2.641,2.641,0,0,1-.515.049,4.311,4.311,0,0,1-1.426-.289Zm-130.7-3.213a4.347,4.347,0,0,1,2.853-3.9,3.866,3.866,0,0,1,4.162,1.354,2.22,2.22,0,0,1,.225,2.768,6.487,6.487,0,0,1-3.785,2.921,2.231,2.231,0,0,1-.614.085,3.133,3.133,0,0,1-2.839-3.232Zm1.65.153A1.117,1.117,0,0,0,180.3,145c.9,0,2.65-1.495,2.671-2.257.02-.65-1.22-1.517-2.266-1.585h-.036c-.7,0-1.579,1.272-1.585,2.6Zm-32.1.959c-.1-2.7.991-5.106,2.011-7.51.13-.31.768-.4,1.17-.6a2.9,2.9,0,0,1,.175,1.084c-.62,2.451-1.283,4.892-1.964,7.328a4.639,4.639,0,0,1-.554.977l-.372.02a4.615,4.615,0,0,1-.465-1.3Zm136.4.069c-1.882-.005-3.782-1.042-5.625-1.737a2.009,2.009,0,0,1-.919-1.306,8.11,8.11,0,0,1-.21-2.6c.206-2.078.652-2.4,2.763-2.086,3.1,0,6.2.069,9.3-.017a20.254,20.254,0,0,0,11.557-3.632,8.276,8.276,0,0,1,1.634-.973,2.194,2.194,0,0,1,3.2,2.029,7.647,7.647,0,0,1-5.992,8.324,59.872,59.872,0,0,1-15.545,2Zm-5.615-4c.049.536.312,1.332.7,1.508a12.561,12.561,0,0,0,4.364,1.456,46.867,46.867,0,0,0,15.674-2.048,7.116,7.116,0,0,0,4.27-3.575c.967-1.741.865-3.641-.31-4.76a14.911,14.911,0,0,1-9.3,5.579,66.586,66.586,0,0,1-7.232.833,14.369,14.369,0,0,1-7.131-1.1,8.043,8.043,0,0,0-.808-.252,12.579,12.579,0,0,0-.222,2.356ZM248.2,142.13a15.58,15.58,0,0,1-2.363-2.53,2,2,0,0,1,.368-3.057c3.266-2.911,5.211-6.679,6.871-10.624a2.668,2.668,0,0,0,.16-1.159c-.128-2.164.894-3.7,2.551-3.78a3.381,3.381,0,0,1,3.7,3.609c.006.279,0,.559,0,.839a20.282,20.282,0,0,1-2.443,9.14c-1.2,2.065-2.273,4.2-3.34,6.34a3.536,3.536,0,0,1-3.1,2.208,3.75,3.75,0,0,1-2.4-.989Zm6.455-17.529a5.834,5.834,0,0,1-.042,1.666c-.762,3.9-3.087,7.026-5.187,10.255-.478.733-1.6,1.378-1.569,2.026.032.742,1.009,1.447,1.587,2.159,1.136,1.4,2.558,1.3,3.431-.261,1.148-2.051,2.21-4.152,3.415-6.166a16.294,16.294,0,0,0,2.049-9.668,7.576,7.576,0,0,0-.491-1.662l-.332.042c.779,2.419-.568,4.359-1.4,6.374-.842,2.04-1.724,4.133-3.645,5.432l-.483-.252c1.759-3.944,3.516-7.887,5.347-11.99a6.94,6.94,0,0,0-1.161-.12c-1.308,0-1.664.656-1.515,2.164Zm-65.913,17.854c-1.236-.2-1.847-1.23-2.188-2.41-.326-1.134-.3-2.122.724-2.694a5.765,5.765,0,0,0,1.172.659c1.406.35,2.515,2.151,1.894,3.438a2.131,2.131,0,0,1-1.507,1.014.626.626,0,0,1-.091-.01Zm92.642-.687a15.063,15.063,0,0,1,2.281-.613c3.278-.371,6.615-.241,9.8-1.363,2.888-1.018,5.8-1.956,8.71-2.924.213-.072.44-.108.886-.215-1.662,2.488-12.794,5.5-18.808,5.5a8.3,8.3,0,0,1-2.865-.388Zm-62.292-4.005a1.479,1.479,0,0,1-.209-.292c-1.1-2.915-3.406-4.222-6.248-5.1a44.439,44.439,0,0,1-5.971-2.678c-1.288-.617-2.527-1.336-3.908-2.073a5.707,5.707,0,0,0,.958-5.981,4.939,4.939,0,0,1,.079-2.935,18.984,18.984,0,0,0,.182-11.291,5.919,5.919,0,0,1-.073-2.611,7.04,7.04,0,0,1,1.054-1.906l.517.175a15.838,15.838,0,0,0,.024,2.473,20.231,20.231,0,0,0,.905,3.935,13.328,13.328,0,0,1,.282,7.87c-.445,1.967-.556,4.011-.987,5.985a44.716,44.716,0,0,1-1.471,4.438,17.754,17.754,0,0,0,2.308,1.022,75.1,75.1,0,0,0,8.226,2.3,7.533,7.533,0,0,1,5.6,4.313,2.459,2.459,0,0,0,3.673,1.064,1.544,1.544,0,0,0,.67-.89c.494-2.127.914-4.27,1.386-6.4.163-.734.113-1.283-.671-1.67-1.213-.6-2.361-1.326-3.566-1.941a3.362,3.362,0,0,1-2.141-3.748,4.4,4.4,0,0,1,3.225-3.912,6.112,6.112,0,0,1,2.234-.084c1.408.148,1.868-.252,2.014-1.643a50.03,50.03,0,0,1,.785-5.176,4.287,4.287,0,0,0-.549-2.838c-.966-2.119-1.82-4.291-2.687-6.455-.306-.759-.523-1.555-.781-2.334l-.427-.146a21.5,21.5,0,0,0-1.883,1.918,7.107,7.107,0,0,1-5.478,2.758,13.569,13.569,0,0,1-6.242-.715,2.854,2.854,0,0,0-1.7.121,23.682,23.682,0,0,0-2.3.909l-.331-.31a8.607,8.607,0,0,1,1.3-1.576c1.442-1.1,3.079-.964,4.792-.73a24.8,24.8,0,0,0,5.011.127,5.1,5.1,0,0,0,3.531-2.011,10.457,10.457,0,0,1,2.721-2.245,1.837,1.837,0,0,1,2.744.819,6.957,6.957,0,0,1,.706,1.758c.73,2.592,1.581,5.165,2.073,7.8a19.606,19.606,0,0,1-.186,4.449,25.1,25.1,0,0,0-.13,3.8c.231,2.248-.549,3.5-2.755,4a5.714,5.714,0,0,0-1.834.455,2.5,2.5,0,0,0-.972,1.467c-.064.307.436.837.8,1.108,1.271.945,2.641,1.76,3.881,2.743.944.748.925,1.62.189,2.6a1.854,1.854,0,0,0-.352.729c-.42,2.225-.809,4.455-1.226,6.681-.324,1.734-1.651,2.5-3.135,2.935a4.539,4.539,0,0,1-1.264.2,2.782,2.782,0,0,1-2.384-1.264Zm-70.7-8.287c-1.513,2.993-1.534,6.437-3.765,9.24-1-3.495,1.22-9.116,3.766-9.243ZM261.4,138.182a2.186,2.186,0,0,1-1.85-2.636,4.9,4.9,0,0,1,2.64-3.893,8.072,8.072,0,0,0,1.229-1.06c.5-.406,1.029-.779,1.28-.968,1.509-.008,3.228,1.243,3.326,2.3a2.431,2.431,0,0,1-.6,1.562c-.928,1.122-1.993,2.128-2.947,3.231a3.483,3.483,0,0,1-2.6,1.506,2.9,2.9,0,0,1-.478-.042Zm2.885-6.69a2.927,2.927,0,0,1-1.11.661,4.161,4.161,0,0,0-2.489,3.666c.058.712.375,1.11,1.309,1.235.48-.419,1-.8,1.433-1.266.945-1,1.874-2.019,2.75-3.078a1.021,1.021,0,0,0,.1-.958,1.519,1.519,0,0,0-1.1-.706,1.289,1.289,0,0,0-.889.447Zm-80.223,5.784a2.766,2.766,0,0,1-2.775-2.521c-.011-.969,1.3-2,2.569-2.014a2.276,2.276,0,0,1,2.431,2.1,2.227,2.227,0,0,1-2.191,2.438Zm-1.885-2.987c.118,1.209.886,2.025,1.774,1.758a1.552,1.552,0,0,0,.869-1.144c.022-.525-.473-.8-1.29-.8a5.726,5.726,0,0,0-1.35.187Zm127.529.638a50.582,50.582,0,0,1-15.189-14.91c-1.993-3.107-2.3-6.565-2.119-10.134.106-2.058.13-1.945,2-2.751a19.228,19.228,0,0,0,3.126-2.13,18.48,18.48,0,0,1,2.734-1.86c1.327-.6,2.05-.2,2.674,1.136a.379.379,0,0,1,.046.111c.4,2.92,2.6,4.673,4.418,6.628,1.724,1.85,4.108,2.177,6.476,2.2,1.668.019,3.338-.314,5.011-.357a5.307,5.307,0,0,1,3.982,1.912,14.123,14.123,0,0,0,2.361,1.971c1.9,1.245,2.244,2.788.788,4.5-.612.718-1.461,1.23-2.111,1.922a5.854,5.854,0,0,0-1.486,2.041,19.342,19.342,0,0,1-7.547,10.463,7.017,7.017,0,0,1-1.5.593,16.657,16.657,0,0,1-3.661-1.334Zm-9.147-31.084c-.782.449-1.535.953-2.269,1.478a29.263,29.263,0,0,1-3.357,2.425c-.878.453-1.4.827-1.151,1.619.234,3.407.51,6.54,2.233,9.4a41.112,41.112,0,0,0,6.228,7.388,68.287,68.287,0,0,0,9.541,7.779c1.531,1.084,2.358,1.168,3.537.169a17.6,17.6,0,0,0,5.878-8.8,5.184,5.184,0,0,1,1.894-3.062,8.343,8.343,0,0,0,1.617-1.739c.593-.773.33-1.324-.493-1.831-1.108-.68-2.085-1.579-3.2-2.236a5.906,5.906,0,0,0-2.577-.95c-1.5-.058-3.014.311-4.523.328-2.714.032-5.532-.3-7.492-2.215-2.1-2.056-3.99-4.469-4.374-7.623a14.887,14.887,0,0,0-.254-1.521c-.112-.479-.358-.769-.719-.769h0a1.041,1.041,0,0,0-.516.161Zm44.38,30.654a3.674,3.674,0,0,1-1.528-3.124,3.111,3.111,0,0,1,2.754,2.389,1.009,1.009,0,0,1-.325.848.583.583,0,0,1-.293.064,1.092,1.092,0,0,1-.6-.174Zm1.54-2.863c-.77-1-1.486-2.049-2.3-3.015-1.2-1.433-1.043-2.9.858-3.968-.753,2.071.6,2.89,1.622,3.983a9.673,9.673,0,0,1,1.689,2.848,5.179,5.179,0,0,1,.04,1.871l-.419.156c-.494-.624-1-1.241-1.487-1.874Zm-66.091-.744c-.633-.938.169-1.677.607-2.479,1.517-2.783,2.973-5.6,4.437-8.413a10.962,10.962,0,0,0,.462-1.19l.363.022.179,1.586c1.543.167,3.113.322,4.678.511,3.923.474,5.687,2.175,6.275,6.055a14.888,14.888,0,0,1,.221,2.255c-.006,1.593-.68,2.308-2.276,2.237-1.459-.064-2.9-.419-4.363-.5a23.826,23.826,0,0,0-4.125.121c-1.211.147-2.382.588-3.586.817a3.751,3.751,0,0,1-.707.069,2.493,2.493,0,0,1-2.162-1.09Zm11.166-.333a10.621,10.621,0,0,0,2.33.475c2.694.2,2.986-.185,2.209-2.75-.046-.152-.068-.311-.111-.464-.751-2.734-2.26-4.714-5.308-4.873-1.633-.086-3.186-.2-4.256-1.509-1.238,2.972-2.435,5.844-3.723,8.932a5.732,5.732,0,0,0,3.318.1,14.231,14.231,0,0,1,2.805-.311,9.127,9.127,0,0,1,2.739.4Zm-51.281-6.5a2.79,2.79,0,0,1,1.207-1.406,13.622,13.622,0,0,0,1.081,7.187,5.949,5.949,0,0,1,.032,1.955l-.362.069c-1.5-2.37-2.543-4.885-1.955-7.8Zm4.58,7.337c-.766-.634-1.527-4.927-1.019-5.814.087-.152.285-.239.556-.456a7.794,7.794,0,0,1,1.4,5.976c-.075.365-.23.532-.438.532a.853.853,0,0,1-.5-.232Zm47.783-2.289a33.893,33.893,0,0,1-5.2-1.549c-1.089-.467-.62-2.484.726-3.322.065.114.1.15.1.182-.213,2.406-.106,2.557,2.406,3.037.657.126,1.353.073,1.994.238.336.086.6.468.889.717-.292.233-.642.7-.876.7a.18.18,0,0,1-.036,0Zm-28.556-1.644c-1.283-.018-2.162-1.248-2.1-2.946a1.985,1.985,0,0,1,2.16-1.862,2.348,2.348,0,0,1,2.56,2.252,2.64,2.64,0,0,1-2.582,2.556Zm-.32-1.3c.3.125,1.3-.507,1.349-.879.189-1.368-1.163-1.1-2.108-1.737-.05,1.194-.245,2.19.762,2.617ZM157.781,120.7a3.42,3.42,0,0,1,2.463,2.891c.281,1.22.463,2.424-.608,3.413C158.854,126.376,157.478,121.715,157.781,120.7Zm51.471,2.851a7.7,7.7,0,0,1,1.547-5.837c.169-.222.356-.432.546-.636,1.791-1.921,1.723-3.091.008-5.138a12.483,12.483,0,0,1-1.872-3.255c-.438-1.061.133-1.792,1.6-2.187-1.051,1.988-.186,3.343,1.019,4.64a8.575,8.575,0,0,1,1.271,1.718c1.22,2.255,1.094,3.166-.737,4.96a7.141,7.141,0,0,0-2.117,4.946l2.263-1.722a3.841,3.841,0,0,1-2.375,3.362,1.479,1.479,0,0,1-.312.036c-.488,0-.766-.308-.841-.886Zm95.893-.64a25.441,25.441,0,0,1-6.9-5.494c-1.383-1.509-1.177-3.317-1.155-5.09l.337-.032a1.453,1.453,0,0,1,.158.433c.036,2.749,1.685,4.529,3.651,6.125a18.8,18.8,0,0,0,6.941,3.866,10.98,10.98,0,0,1,2.485,1.143,6.973,6.973,0,0,1-1.48.159,8.642,8.642,0,0,1-4.037-1.109Zm-38.66-2.343a16.35,16.35,0,0,1-8-12.192c-.894-7.682,1.079-14.541,7.025-19.8a7.661,7.661,0,0,1,7.086-1.591c.454.113,1.065.476,1.171.848.092.327-.326.942-.681,1.229-3.6,2.9-5.467,6.936-7.025,11.081a10.666,10.666,0,0,0,.434,7.5c.838,2.228,1.99,4.337,3,6.5a5.5,5.5,0,0,0,2.871,2.733c1.854.84,2.324,1.566,2.028,2.768a3.31,3.31,0,0,1-3.488,2.5l-.129.306a29.778,29.778,0,0,1-4.291-1.881Zm3.328-32.722a11.783,11.783,0,0,0-4.706,3.55,21.917,21.917,0,0,0-4.59,15.679c.467,6.12,4.207,10.036,9.309,12.883a4.98,4.98,0,0,0,1.454.517c1.155.226,2.243-.256,2.36-1.091.178-1.268-.91-1.344-1.711-1.532a5.8,5.8,0,0,1-3.463-2.149,31.016,31.016,0,0,1-4.849-9.676l.229,4.587c-2.531-3.155-1.453-15.235,1.377-17.4L264.1,98.206a20.69,20.69,0,0,1,9.364-10.248,4.809,4.809,0,0,0-1.993-.48,4.038,4.038,0,0,0-1.657.369Zm-78.778,32.608a17.668,17.668,0,0,1-9.118-8.75,6.567,6.567,0,0,1-.3-1.094l.326-.218a33.448,33.448,0,0,1,2.585,2.82,18.859,18.859,0,0,0,6.8,5.33,2.125,2.125,0,0,0,2.722-.47,60.3,60.3,0,0,0,4.584-4.874c1.593-2.075,1.579-4.616,1.282-7.11a17,17,0,0,0-.6-2.547,1.812,1.812,0,0,0-.487-.926c-.379-.294-.96-.685-1.3-.572-.32.109-.552.8-.624,1.262a25.236,25.236,0,0,1-.489,3.878,27.038,27.038,0,0,1-2.276,5.1,3.337,3.337,0,0,1-5.833.031c-.6-.929-.937-2.027-1.544-2.949a3.454,3.454,0,0,0-1.589-1.382c-.933-.307-1.227.63-1.6,1.28a4.732,4.732,0,0,1-.391.455c-.053-1.206.154-2.029,1.167-2.46a2.256,2.256,0,0,1,2.625.565c.967.952,1.828,2.017,2.822,2.938,1.441,1.336,2.276,1.124,3.042-.672,1-2.335,2.012-4.664,2.956-7.02.329-.82.713-1.823,1.607-1.636a3.048,3.048,0,0,1,2.1,1.612,31.5,31.5,0,0,1,1.047,7.277c-.013,4.033-2.357,6.992-5.277,9.521a3.787,3.787,0,0,1-2.513,1.014,4.17,4.17,0,0,1-1.728-.4Zm-34.71-1.7a4.7,4.7,0,0,1-1.1-.453c-1.326-.638-2.655-1.237-4.226-.645.708-1.539,1.232-1.869,2.628-1.456a18.615,18.615,0,0,1,3.345,1.445c.292.154.367.719.541,1.1-.271.007-.547.044-.817.044a2.008,2.008,0,0,1-.37-.03Zm83.042-2.8c-.54-2.681-1.161-5.346-1.7-8.028a19.675,19.675,0,0,1-.318-2.834c-.155-3.018-1.84-5.469-2.956-8.131a1.861,1.861,0,0,1,1.317-2.843c-.336,2.547,1.322,4.306,2.373,6.3a14.578,14.578,0,0,1,1.491,5.962c.207,3.051.45,6.1.684,9.149.018.235.007.58.148.676a3.642,3.642,0,0,0,1.4.684c.164.027.57-.589.634-.954.115-.66,0-1.357.086-2.028.088-.718.291-1.422.494-2.365,1.877,1.643.876,5.55-.455,6.222a1.64,1.64,0,0,1-.741.168,2.667,2.667,0,0,1-2.456-1.971ZM185.05,110.9c1.97,1.524,3.053,4.172,6.057,4.424a1.94,1.94,0,0,1-1.336.536c-1.787.008-3.851-2.358-4.72-4.953Zm93.613.731c.641,1.491-.092,2.96-2.115,4.119-.372-1.308.78-3.48,2.116-4.112Zm31.2-1.372c-.551-3.649-2.671-6.466-5.06-9.04a25.764,25.764,0,0,0-4.436-3.315c-.567-.39-.616-.695-.1-1.074a31.789,31.789,0,0,1,2.94-2.046,2.218,2.218,0,0,1,2.964.819,9.842,9.842,0,0,0,4.131,2.9,6.778,6.778,0,0,1,3.188,3.119c.813,1.5,1.9,2.861,2.692,4.371,1.645,3.125,1.94,3.692-2.015,5.289-.8.326-1.651.549-2.371.783a2.007,2.007,0,0,1-1.934-1.8ZM301.274,97.52c5.09,1.925,7.759,5.925,9.631,10.507,1.07,2.619.854,2.707,3.632,1.889,1.985-.585,2.244-1.033,1.254-2.836-.86-1.566-2.052-2.957-2.856-4.549a6.593,6.593,0,0,0-3.9-3.457A6.431,6.431,0,0,1,305.6,96.66c-.868-1.257-1.661-1.172-2.929.06,5.691,1.625,8.5,5.863,10.142,11.122-1.561-1.977-2.659-4.342-4.331-6.185-1.722-1.9-4-3.288-6-4.87Zm-23.415,10.8c-.423-.126-.818-.8-.955-1.308a4.892,4.892,0,0,1,.047-1.783q.292-2.484.645-4.959a3.983,3.983,0,0,1,.309-.831l.374.045c1.021,2.612-1,5.223-.214,7.884.177-.041.337-.029.387-.1,2.319-3.165,4.455-6.382,4.626-10.528a8.677,8.677,0,0,1,3.547-7.139,1.739,1.739,0,0,1,2.538.021c-3.361,1.492-4.241,4.369-4.5,7.654a29.59,29.59,0,0,1-.7,4.116,8.265,8.265,0,0,1-3.091,4.834c-.557.435-.944,1.09-1.508,1.514a2.674,2.674,0,0,1-1.334.6.613.613,0,0,1-.177-.013Zm-110-2.351c-1.24-2.3-1.176-4.239.435-5.128a10.2,10.2,0,0,0,3.18,6.874,2.5,2.5,0,0,1-1.177.338c-.92.007-1.7-.69-2.442-2.077Zm4.774.09a2.47,2.47,0,0,1-1.859-2.229c-.2-1.067-.486-2.218.907-2.983a12.862,12.862,0,0,0,.58,1.708c.41.821.915,1.6,1.372,2.394.126.219.37.545.3.666a1.413,1.413,0,0,1-.712.473.533.533,0,0,1-.192.032,1.824,1.824,0,0,1-.4-.054Zm55.488-8.033a15.814,15.814,0,0,1,.025-2.752,3.438,3.438,0,0,0-1.459-2.87A20.579,20.579,0,0,1,225,91.057a3.2,3.2,0,0,1,.457-4.945,12.2,12.2,0,0,1,.1,1.521,3.131,3.131,0,0,0,1.613,2.975,5.287,5.287,0,0,1,2.641,3.4,4.346,4.346,0,0,1,.02,1.994,9.8,9.8,0,0,0-.021,5.3,10.7,10.7,0,0,1,.027,2.273l-.6.065c-.38-1.867-.826-3.725-1.121-5.607Zm-15.09.843c-.263-.365-.045-1.076-.045-1.63l.341.029.432.589.948-1.512c.474.3,1.149.5,1.381.934.423.793-.07,1.443-.8,1.859a2.3,2.3,0,0,1-1.115.336,1.356,1.356,0,0,1-1.147-.6Zm33.764.108a10.361,10.361,0,0,1-4.819-12,5.053,5.053,0,0,1,4.412-4.088c.9-.161,1.82-.232,3.029-.381,1.414.256,3.092.58,4.78.85a5.591,5.591,0,0,0,1.236-.1,10.425,10.425,0,0,1,2.56-.14,1.838,1.838,0,0,1,1.481,2.03c.009,3.761-1.975,6.354-5.036,8.1-2.058,1.173-3.714,2.476-4.54,4.79a1.794,1.794,0,0,1-1.68,1.4,2.792,2.792,0,0,1-1.428-.453Zm-2.862-11.153a1.008,1.008,0,0,1-.242.411,2.423,2.423,0,0,0-.507,2.435c.614,2.556,1.264,5.1,3.994,6.259a1.7,1.7,0,0,0,1.544-.176c1.446-2,3.593-2.938,5.609-4.16,2.317-1.4,4.189-3.354,4.37-6.319.035-.577-.19-1.663-.352-1.674a3.227,3.227,0,0,0-2.173.4,2.81,2.81,0,0,1-2.742.631c-1.516-.314-3.052-.535-4.23-.734-2.469.232-4.584.365-5.276,2.935ZM205.7,99.128c-1.216-.012-1.742-.719-1.735-2.333.006-1.461.762-2.639,1.682-2.617a2.762,2.762,0,0,1,2.551,2.8,2.2,2.2,0,0,1-2.462,2.146Zm-.258-1.259c.143.108,1.026-.33,1.088-.618.206-.967-.464-1.471-1.409-1.865-.379,1-.493,1.866.317,2.483Zm5.75-4.018a2,2,0,0,1-1.169-2.149c.022-1.033.55-1.17,1.286-1.014l-.369,1.436a9.379,9.379,0,0,1,2.5-.651,1.734,1.734,0,0,1,1.34,1c.075.506-.392,1.515-.759,1.583a5.46,5.46,0,0,1-.987.087,5.883,5.883,0,0,1-1.846-.292Zm100.881-.644a22.679,22.679,0,0,1-4.125-3.316,6.113,6.113,0,0,0-2.671-2.022,24.8,24.8,0,0,1-2.766-1.248l.192-.535c2.156.275,4.424.052,6.2,1.869,1.047,1.073,2.2,2.038,3.32,3.045a5.335,5.335,0,0,1,.821.683,8.941,8.941,0,0,1,.649,1.26,9.725,9.725,0,0,1-1.349.333.462.462,0,0,1-.275-.068Zm-66.041-1.359a3.323,3.323,0,0,1-.6-3.457,1.654,1.654,0,0,1,1.812-1.332c-.748,2.329-.748,2.329.547,5.167a1.158,1.158,0,0,1-.653.222,1.662,1.662,0,0,1-1.11-.6Zm70.678-2.44a39.025,39.025,0,0,1-4.08-1.867c-.34-.178-.5-.7-.742-1.065l.261-.408c1.71.634,3.434,1.232,5.117,1.93.3.125.436.656.647,1a4.381,4.381,0,0,1-1.076.432.35.35,0,0,1-.131-.021ZM208.682,84.493a2.481,2.481,0,0,1-.5-.116c.538-2.187,2.309-2.691,4.082-3.217a21.254,21.254,0,0,0,2.441-.87c1.678-.734,3.312-1.572,5.006-2.262a10,10,0,0,1,2.166-.372l.2.313a4.1,4.1,0,0,1-.693,1.13,10.545,10.545,0,0,1-1.988,1.3c-1.425.712-2.883,1.356-4.338,2.006a4.3,4.3,0,0,1-1.352.448,7.15,7.15,0,0,0-4.559,1.509.736.736,0,0,1-.446.131Zm9.2-8.726c.526-1.669,4.088-3.037,5.472-2.159a6.063,6.063,0,0,1-4.5,2.294,3.331,3.331,0,0,1-.976-.135ZM238.724,72.2c1.7.726,2.885-.433,4.276-.895a11.127,11.127,0,0,1,3.263-.451c2.985-.06,5.972-.038,8.958-.017a8.525,8.525,0,0,1,1.994.245c.27.068.464.442.692.677-.245.165-.479.452-.735.472-2.137.169-4.277.387-6.417.4-1.868.006-3.736-.3-5.607-.34a5.909,5.909,0,0,0-2.036.553c-.706.261-1.362.661-2.072.906a2.2,2.2,0,0,1-.72.137C239.567,73.884,239.049,73.343,238.724,72.2Zm23.967,1.3c-.553,0-1.121-.719-1.684-1.107l.176-.491a16.622,16.622,0,0,1,6.286-.491,1.213,1.213,0,0,1,.753.757c.05.185-.356.689-.612.732a34.187,34.187,0,0,1-4.906.6Zm-2.723-4.91c1.16-1.52,4.167-1.544,6.85-.055a5.914,5.914,0,0,1-3.672,1.083,4.289,4.289,0,0,1-3.178-1.018ZM29.858,55.049a3.685,3.685,0,0,1-1.83-.959c-1.11-.829-2.093-1.837-3.248-2.586-.842-.545-.971-1.067-.536-1.87,1.081-2,2.938-3.11,4.834-4.133a31.561,31.561,0,0,1,3.194-1.315,3.425,3.425,0,0,1-1.129-4.223,2.842,2.842,0,0,1,2.037-1.821,14.094,14.094,0,0,1,7.562.131,3.593,3.593,0,0,1,2.707,2.453l4.009-5.989a35.557,35.557,0,0,0-3.676.557c-3.354.875-6.678,1.175-9.973-.194-2.6-1.076-3.867-3.362-5.446-5.742.753-.172,1.2-.261,1.642-.377,1.177-.31,2.269-.507,2.79-2,.838-2.4,5.649-2.96,7.34-1.037a2.047,2.047,0,0,0,1.444.695,5.736,5.736,0,0,1,6.143,3.538c.427.93,1.01,1.787,1.529,2.69l8.572-6.555c-1.227.111-2.191.272-3.158.268a17.341,17.341,0,0,1-3.555-.256c-2.728-.586-5.42-1.336-8.139-1.968a6.456,6.456,0,0,0-1.765-.04,7.676,7.676,0,0,1-1.17.194,11.141,11.141,0,0,1-1.654-.433,4.49,4.49,0,0,1,.6-1.477c1.639-1.725,3.195-3.572,5.519-4.462a2.142,2.142,0,0,1,2.44.272,2.574,2.574,0,0,0,1.292.5,5.2,5.2,0,0,0,1.787,0c3.028-.648,5.731.328,8.185,1.872,1.13.71,1.854,2.065,2.99,3.394,5.749-3.462,12.179-6.591,17.391-11.576l-.173-.4c-2.937.923-5.833,2.017-8.821,2.728-3.8.9-7.684,1.592-11.485-.136a3.568,3.568,0,0,1-1.384-.891,2.289,2.289,0,0,1-.58-1.661c.13-.426.9-.826,1.444-.913a4.355,4.355,0,0,0,2.692-.932,4.128,4.128,0,0,0,1.3-2.8c.165-1.264.036-2.736,1.379-3.366a6.187,6.187,0,0,1,5.436-.217c1.04.494,1.965,1.246,3.024,1.682a5.541,5.541,0,0,0,2.6.461,5.526,5.526,0,0,1,4.842,1.8c1.3,1.359,1.372,1.411,2.693.047,1.683-1.741,3.243-3.61,5.027-5.236A11.329,11.329,0,0,1,91.353,0a8.348,8.348,0,0,1-.593,1.171C88.3,4.285,85.9,7.46,83.306,10.462c-1.119,1.293-2.173,2.326-1.006,4.093a4.51,4.51,0,0,1,.341,1.257c.015.06.107.1.242.217,1.108-1.431-.48-3.044.441-4.6a4.488,4.488,0,0,1,.879.781c1.377,2.1.628,4.138-.315,6.109-.368.77-1.644.694-2.217-.18a9.931,9.931,0,0,1-.979-2.4,19.015,19.015,0,0,1-.421-1.975c-2.869,2.283-5.654,4.5-8.437,6.711l.1.434c2.975.662,4.468,3.245,6.624,4.964a2.326,2.326,0,0,1,.733,2.818c-.458,1.074-1.446,1.022-2.364.886-1.158-.172-1.678.237-1.487,1.41.445,2.727-.648,5.2-1.327,7.723-.443,1.648-2.007,1.644-3.33,1.784a2.262,2.262,0,0,1-2.555-1.543,3.811,3.811,0,0,1-.277-2.2c.85-2.6.59-5.227.318-7.837a11.961,11.961,0,0,1,.9-6.55,4.523,4.523,0,0,0,.191-.795L62.436,25.55c1.6,2.212,2.037,4.5.742,6.969a4.523,4.523,0,0,0-.215,4.122c.715,1.7-.8,5.126-2.429,5.939-.685.342-1.3.277-1.562-.5-.7-2.025-1.391-4.056-1.976-6.115-.607-2.14.038-4.188.691-6.215.166-.514.288-1.043.488-1.778l-8.409,5.586c2.628,3.291,2.55,7.241,3.57,10.848a5.212,5.212,0,0,1,.146,2.127,1.625,1.625,0,0,1-.854,1.143,1.655,1.655,0,0,1-1.3-.511c-2.631-2.585-3.4-5.951-3.828-9.439a3.529,3.529,0,0,0-.285-1.317c-1,1.538-2.618,2.992-2.843,4.636-.3,2.189-1.932,2.96-2.982,4.347-.645.853-1.3,1.7-1.9,2.583a50.09,50.09,0,0,1-3.084,4.514c-1.681,1.941-4.068,2.53-6.539,2.556Zm.836-9c-2.087.98-4.107,2.046-5.3,3.991,1.273,1.173,2.38,2.248,3.558,3.238a1.88,1.88,0,0,0,1.391.513c1.615-.495,3.459-.817,4.688-1.84,1.46-1.214,2.373-3.083,3.524-4.668l-.27-.219c-.868.374-1.729.766-2.6,1.121-1.27.518-2.533,1.07-3.838,1.48-.419.132-.966-.136-1.454-.222l.052-.229,5.824-1.954.007-.347c-1.406-.263-2.693-1.193-4.145-1.193a3.305,3.305,0,0,0-1.437.333Zm3.043-1.4c1.546.627,2.747,1.136,3.969,1.589a.885.885,0,0,0,.734-.173c1.4-1.222,2.765-2.478,4.142-3.722l-.231-.262C39.577,42.908,36.8,43.734,33.737,44.649ZM52.4,46.205a78.574,78.574,0,0,0-2.251-9.311l-.3.071-.317,1.345-.7-.311C49.343,42.142,50.188,44.142,52.4,46.205ZM33.323,39.478c-.871.141-1.5,1.7-1.183,2.561a1.727,1.727,0,0,0,2.291.974c.38-.117.77-.2,1.152-.311l7-1.987a11.357,11.357,0,0,0-1.889-.027c-.412.017-.822.034-1.229.021a3.476,3.476,0,0,1-2.97-1.153l2.032-.206-.04-.445C36.764,39.085,35.031,39.2,33.323,39.478Zm26.451-11.9c-.418.981-.529,2.092-.936,3.079-1.545,3.74-.213,7.042,1.447,10.487,1.075-1.451,1.942-2.762,1.283-4.564a10.1,10.1,0,0,1-.641-5.02c.178-1.182.427-2.358.509-3.547a4.4,4.4,0,0,0-.447-1.479c-.416.347-1.026.608-1.215,1.048Zm10.444.328c.29,3,.806,6.026-.223,9a1.06,1.06,0,0,0-.045.7c.219.5.438,1.268.808,1.367.828.221,1.962.185,2.262-.793.658-2.149,1.716-4.239,1.359-6.613a9.9,9.9,0,0,1-.016-1.667,1.438,1.438,0,0,1,1.5-1.516,5.369,5.369,0,0,1,.59-.011,4.315,4.315,0,0,0,.716-.024,6.017,6.017,0,0,0,1.038-.344,5.7,5.7,0,0,0-.439-1.166,4.045,4.045,0,0,0-.8-.7c-1.74-1.546-3.478-3.094-5.378-4.785-.853,2.265-1.59,4.264-1.372,6.556ZM34.261,27.52a2.653,2.653,0,0,1-1.684,1.968c-.559.271-1.1.569-1.782.92a19.162,19.162,0,0,0,1.8,2.17,8.832,8.832,0,0,0,7.178,1.944c2.671-.3,5.306-.914,7.958-1.391l.136-.22a7.393,7.393,0,0,0-1.914-.683c-2.176-.148-4.361-.169-6.545-.243a13.936,13.936,0,0,1-2.02-.11c-.329-.059-.607-.4-.907-.617.311-.184.609-.5.935-.528,2.538-.252,5.091-.649,7.6.208a8.425,8.425,0,0,1,1.261.679c-.438-2.639-2.265-3.98-4.211-3.623a2.773,2.773,0,0,1-3.106-1.152,2.424,2.424,0,0,0-1.968-.76c-1.226,0-2.534.543-2.731,1.442Zm10.972-8.13C43.87,20.3,42.554,21.281,41,22.4c3.144.733,5.906,1.442,8.7,2.014,3.683.756,7.135.807,8.446.269-2.532-1.076-5.242-1.161-7.958-1.286a10.745,10.745,0,0,1-2.257-.6l.122-.451c3.862.033,7.761-.157,11.531,2.141-.7-1.061-1.1-2.23-1.912-2.77a10.43,10.43,0,0,0-7.345-1.893,17.172,17.172,0,0,1-4.076-.471,5.258,5.258,0,0,0-.593-.056.756.756,0,0,0-.423.1Zm27.872-7.41a8.94,8.94,0,0,0-5.6-.292,38.015,38.015,0,0,1-3.886.642c-.972.112-1.379-.227-1.609-.914,1.348-.226,2.744-.394,4.107-.7,1.829-.414,3.625-.953,5.528-.449,2.3.608,4.565,1.48,7.012.83a.191.191,0,0,1,.119,0,1.311,1.311,0,0,0,1.9-.542,10.374,10.374,0,0,1-2.131-.43c-.951-.393-1.789-1.057-2.735-1.463A6.877,6.877,0,0,0,73.994,8.4l-.054.365L76.175,9.93l-.1.187L66.1,8.026l.1-.583,4.5.612a18.5,18.5,0,0,0-3.55-2.113,6.413,6.413,0,0,0-3.576-.079c-.49.142-.629,1.524-.906,2.351a6.886,6.886,0,0,1-.784,2.316c-.942,1.07-1.715,2.5-3.835,2.354C61.493,14.85,67.468,14.387,73.105,11.98Zm-.611,12.355-.4,4.624a3.365,3.365,0,0,1,.4-4.624Z" fill="gray" stroke="rgba(0,0,0,0)" data-name="Union 140"/>
</svg>
