<svg xmlns="http://www.w3.org/2000/svg" width="150" height="136.294" viewBox="0 0 150 136.294">
  <g id="pizza_5_" data-name="pizza (5)" transform="translate(0.002 0)">
    <path id="Path_6933" data-name="Path 6933" d="M316.447,161.8a2.569,2.569,0,1,1-2.569-2.569A2.569,2.569,0,0,1,316.447,161.8Zm0,0" transform="translate(-220.106 -112.578)" fill="#e30613"/>
    <path id="Path_6934" data-name="Path 6934" d="M362.2,138.577a2.569,2.569,0,1,1-2.568-2.569A2.569,2.569,0,0,1,362.2,138.577Zm0,0" transform="translate(-252.456 -96.161)" fill="#e30613"/>
    <path id="Path_6935" data-name="Path 6935" d="M350.7,160.64a2.569,2.569,0,1,1-2.569-2.569A2.569,2.569,0,0,1,350.7,160.64Zm0,0" transform="translate(-244.322 -111.761)" fill="#e30613"/>
    <path id="Path_6936" data-name="Path 6936" d="M121.375,120a2.569,2.569,0,1,1-2.569-2.569A2.569,2.569,0,0,1,121.375,120Zm0,0" transform="translate(-82.185 -83.026)" fill="#e30613"/>
    <path id="Path_6937" data-name="Path 6937" d="M172.509,108.39a2.569,2.569,0,1,1-2.569-2.569A2.569,2.569,0,0,1,172.509,108.39Zm0,0" transform="translate(-118.337 -74.818)" fill="#e30613"/>
    <path id="Path_6938" data-name="Path 6938" d="M144.25,99.62a2.569,2.569,0,1,1-2.569-2.569A2.569,2.569,0,0,1,144.25,99.62Zm0,0" transform="translate(-98.358 -68.618)" fill="#e30613"/>
    <path id="Path_6939" data-name="Path 6939" d="M101.646,260.851a2.569,2.569,0,1,1-2.569-2.569A2.569,2.569,0,0,1,101.646,260.851Zm0,0" transform="translate(-68.235 -182.613)" fill="#e30613"/>
    <path id="Path_6940" data-name="Path 6940" d="M130.141,240.472a2.569,2.569,0,1,1-2.568-2.569A2.569,2.569,0,0,1,130.141,240.472Zm0,0" transform="translate(-88.383 -168.204)" fill="#e30613"/>
    <path id="Path_6941" data-name="Path 6941" d="M144.25,258.009a2.569,2.569,0,1,1-2.569-2.568A2.569,2.569,0,0,1,144.25,258.009Zm0,0" transform="translate(-98.358 -180.605)" fill="#e30613"/>
    <path id="Path_6942" data-name="Path 6942" d="M222.119,67.449a1.793,1.793,0,0,1,1.362.223,1.443,1.443,0,0,1,.665.919,6.807,6.807,0,0,0,8.1,5.141,1.8,1.8,0,0,1,1.361.223,1.44,1.44,0,0,1,.666.919,6.51,6.51,0,0,0,2.987,4.247,6.917,6.917,0,0,0,3.655,1.038,7.133,7.133,0,0,0,1.455-.15,2.569,2.569,0,0,0-1.043-5.032,1.844,1.844,0,0,1-1.362-.223,1.433,1.433,0,0,1-.663-.919,6.515,6.515,0,0,0-2.99-4.247A6.943,6.943,0,0,0,231.2,68.7a1.651,1.651,0,0,1-2.03-1.146,6.515,6.515,0,0,0-2.99-4.246,6.956,6.956,0,0,0-5.111-.891,2.572,2.572,0,0,0,1.047,5.035Zm0,0" transform="translate(-154.858 -44.022)" fill="#e30613"/>
    <path id="Path_6943" data-name="Path 6943" d="M231.186,204.078a2.573,2.573,0,0,0-2.514,2.622c.007.3-.165.493-.288.5a5.539,5.539,0,0,0-5.309,5.742c.007.3-.165.493-.288.5a5.319,5.319,0,0,0-3.864,1.791,5.7,5.7,0,0,0-1.447,3.953,2.57,2.57,0,0,0,2.567,2.513h.058a2.568,2.568,0,0,0,2.51-2.625c0-.19.1-.489.288-.491a5.544,5.544,0,0,0,5.312-5.744c-.008-.3.165-.491.285-.493a5.543,5.543,0,0,0,5.312-5.744A2.6,2.6,0,0,0,231.186,204.078Zm0,0" transform="translate(-153.763 -144.289)" fill="#e30613"/>
    <path id="Path_6944" data-name="Path 6944" d="M174.415,157.24a1.659,1.659,0,0,1-2.109.989,6.513,6.513,0,0,0-5.191-.029,6.973,6.973,0,0,0-3.688,3.651,2.564,2.564,0,0,0,1.317,3.383,2.534,2.534,0,0,0,1.033.219,2.571,2.571,0,0,0,2.352-1.536,1.881,1.881,0,0,1,.972-.982,1.457,1.457,0,0,1,1.135-.007,6.79,6.79,0,0,0,8.883-3.62,1.873,1.873,0,0,1,.972-.982,1.456,1.456,0,0,1,1.135-.007,6.513,6.513,0,0,0,5.191.027,6.97,6.97,0,0,0,3.688-3.65,2.568,2.568,0,1,0-4.7-2.066,1.875,1.875,0,0,1-.972.981,1.464,1.464,0,0,1-1.135.008,6.526,6.526,0,0,0-5.194-.029,6.957,6.957,0,0,0-3.686,3.648Zm0,0" transform="translate(-115.394 -106.828)" fill="#e30613"/>
    <path id="Path_6945" data-name="Path 6945" d="M147.732,41.565c-.018-.048-.056-.079-.077-.128a48.6,48.6,0,0,0-2.72-7.991,2.633,2.633,0,0,0-.163-.347C138.89,20.188,127.9,11.983,114.629,6.993a2.357,2.357,0,0,0-.231-.142c-.062-.021-.124-.01-.185-.025A101.245,101.245,0,0,0,96.244,2.143c-.016-.006-.024-.018-.039-.024a2.523,2.523,0,0,0-1.013-.138A184.659,184.659,0,0,0,56.612.318c-.033,0-.06-.018-.093-.018-.054,0-.1.029-.157.031A283.585,283.585,0,0,0,27.734,3.362,14.483,14.483,0,0,0,15.55,16.3v.008c-.013.134-.052.254-.062.385L11.63,66C6.951,68.984-2.917,77.066.83,90.311c1.323,4.67,3.484,7.416,6.425,8.153.538.136,1.413.583,1.284,1.4-.991,6.288-2.676,17.892-2.8,24.951a10.514,10.514,0,0,0,3.231,8.237c3.083,2.821,7.419,3.242,9.715,3.242.807,0,1.365-.054,1.527-.069.906-.06,8.924-.748,11.569-6.286,1.611-3.37.763-7.48-2.5-12.205L71.4,100.66c.008.006.018.006.026.01a9.042,9.042,0,0,0,1.592.642c.088.029.167.072.257.1a10.241,10.241,0,0,0,2.021.344,16.435,16.435,0,0,0,1.727.01c.126-.006.252-.023.38-.031a14,14,0,0,0,1.41-.167c.116-.021.231-.041.347-.064a12.866,12.866,0,0,0,1.576-.409l.1-.031a9.905,9.905,0,0,0,5.917-4.875.268.268,0,0,0,.025-.051,11.424,11.424,0,0,0,.85-2c.008-.023.018-.039.026-.062L135.894,74.51a22.255,22.255,0,0,0,11.865-10.784c3-6.142,2.986-13.594-.027-22.161Zm-6.437,5.253q-1.341-2.935-2.915-5.779l3.041-2.6a44.5,44.5,0,0,1,1.793,6.41,9.591,9.591,0,0,1-.966,6.432,10.016,10.016,0,0,0-.953-4.46Zm-2.016-13.306-3.591,3.073A54.643,54.643,0,0,0,129.01,28.3l3.129-4.542A39.776,39.776,0,0,1,139.278,33.512ZM113.313,17.385l1.719-4.741a55.874,55.874,0,0,1,13.244,7.66l-3.085,4.48a54.973,54.973,0,0,0-11.878-7.4ZM95.559,11.777l1.506-4.318a95.584,95.584,0,0,1,13.16,3.368l-1.651,4.559A83.712,83.712,0,0,0,95.559,11.777ZM77.073,9.625V5.276c4.97.216,9.956.642,14.848,1.339L90.427,10.9c-4.114-.609-8.549-1.044-13.354-1.275ZM68.793,5.1q1.564,0,3.143.025V9.455q-6.051-.108-12.845.2V5.33c3.178-.141,6.414-.233,9.7-.233ZM38.54,11.354v-4.3c4.718-.576,9.913-1.086,15.413-1.444V9.926q-7.275.474-15.413,1.428ZM28.535,8.441c1.517-.239,3.162-.481,4.868-.72v4.254c-3.812.5-7.809,1.1-11.906,1.762a9.35,9.35,0,0,1,7.038-5.3ZM27.148,127.715c-1.148,2.417-5.762,3.273-7.385,3.391-1.23.141-5.225.079-7.329-1.845a5.417,5.417,0,0,1-1.56-4.354c.121-6.749,1.768-18.084,2.741-24.241A6.43,6.43,0,0,0,8.509,93.48c-.972-.244-1.991-1.952-2.731-4.57-3.009-10.629,5.7-16.944,9.587-19.165l1.179-.676,3.909-49.962a348.956,348.956,0,0,1,35.989-4.241c.027,0,.051.016.079.016.047,0,.085-.024.132-.026,13.866-.811,25.2-.318,34.553,1.162.048.021.079.06.13.077a2.574,2.574,0,0,0,.845.144,1.963,1.963,0,0,0,.241-.039,77.089,77.089,0,0,1,16.2,4.472,2.552,2.552,0,0,0,.629.383,2.407,2.407,0,0,0,.522.089,48.636,48.636,0,0,1,13.781,8.77,2.568,2.568,0,0,0,.71.737c.058.041.122.055.184.09,5.7,5.5,9.273,11.865,12.176,18.213,2.268,4.955-4.277,8.654-5.024,9.055L82.908,78.252,82.592,79.5a9.248,9.248,0,0,0-.033,4.249,19.883,19.883,0,0,1,.486,7.6l-.06.291a5.785,5.785,0,0,1-2.862,4.171,8.32,8.32,0,0,1-3.763.825c-.241,0-.483,0-.718-.018a4.715,4.715,0,0,1-1.238-.249l-.108-.039a3.742,3.742,0,0,1-1.02-.57l-.18-.144a3.816,3.816,0,0,1-.423-.426c-1.492-1.837-1.8-5.376-1.449-7.884l.617-4.449L30.056,100.231c-4.786,1.86-7.6,4.385-8.614,7.721-1.071,3.548.07,7.645,3.494,12.519,1.542,2.19,3.17,5.222,2.212,7.244Zm-.784-18.272c.514-1.7,2.384-3.188,5.613-4.441L66.025,90.845a15.177,15.177,0,0,0,1.528,5.828L26.768,113.208a5.974,5.974,0,0,1-.4-3.765ZM143.177,61.4a17.364,17.364,0,0,1-9.065,8.29L88.338,88.245a30.586,30.586,0,0,0-.763-5.618,4.217,4.217,0,0,1-.1-.7l52.08-21.652a14.358,14.358,0,0,0,5.038-3.587,16.649,16.649,0,0,1-1.416,4.714Zm0,0" transform="translate(0 0)" fill="#e30613"/>
    <path id="Path_6946" data-name="Path 6946" d="M81.833,238.863c10.86,0,19.694-7.034,19.694-15.681,0-5.256-2.574-7.6-4.736-8.639a16.508,16.508,0,0,0-7.252-1.156c-4.041,0-24.832,5.2-24.832,14.933,0,10.542,7.936,10.542,17.126,10.542Zm7.727-20.337h.031a12.508,12.508,0,0,1,4.972.65c.547.264,1.826.878,1.826,4.01,0,5.715-6.666,10.542-14.557,10.542-11.989,0-11.989-1.143-11.989-5.405,0-4.573,15.752-9.8,19.716-9.8Zm0,0" transform="translate(-45.751 -150.871)" fill="#e30613"/>
    <path id="Path_6947" data-name="Path 6947" d="M102.165,96.591c10.86,0,19.7-7.034,19.7-15.68,0-5.256-2.574-7.6-4.737-8.639a16.625,16.625,0,0,0-7.224-1.156h-.029c-4.041,0-24.832,5.2-24.832,14.932,0,10.542,7.938,10.542,17.126,10.542Zm7.727-20.337h.031a12.531,12.531,0,0,1,4.974.65c.547.264,1.825.879,1.825,4.01,0,5.715-6.665,10.542-14.557,10.542-11.989,0-11.989-1.143-11.989-5.405,0-4.572,15.753-9.8,19.716-9.8Zm0,0" transform="translate(-60.126 -50.282)" fill="#e30613"/>
    <path id="Path_6948" data-name="Path 6948" d="M280.613,129.532c0,10.54,7.935,10.54,17.126,10.54,10.86,0,19.7-7.031,19.7-15.677,0-5.259-2.577-7.6-4.737-8.639a16.6,16.6,0,0,0-7.224-1.158h-.029c-4.043,0-24.832,5.2-24.832,14.935Zm24.847-9.8h.031a12.56,12.56,0,0,1,4.978.65c.547.264,1.826.881,1.826,4.012,0,5.713-6.666,10.54-14.557,10.54-11.989,0-11.989-1.143-11.989-5.4,0-4.574,15.752-9.8,19.71-9.8Zm0,0" transform="translate(-198.403 -81.024)" fill="#e30613"/>
  </g>
</svg>
