<svg xmlns="http://www.w3.org/2000/svg" xmlns:xlink="http://www.w3.org/1999/xlink" width="512.001" height="12038" viewBox="0 0 512.001 12038"><svg width="22" height="22" viewBox="0 0 22 22" id="aim" y="0"><path d="M2.055 12H0v-2h2.055A9 9 0 0 1 10 2.055V0h2v2.055A9 9 0 0 1 19.945 10H22v2h-2.055A9 9 0 0 1 12 19.945V22h-2v-2.055A9 9 0 0 1 2.055 12zM11 4a7 7 0 1 0 7 7 7 7 0 0 0-7-7zm0 3a4 4 0 1 1-4 4 4 4 0 0 1 4-4zm0 2a2 2 0 1 0 2 2 2 2 0 0 0-2-2z" fill-rule="evenodd"></path></svg><svg viewBox="0 0 129 129" width="129" height="129" id="arrow-down" y="22"><path d="M121.3 34.6c-1.6-1.6-4.2-1.6-5.8 0l-51 51.1-51.1-51.1c-1.6-1.6-4.2-1.6-5.8 0-1.6 1.6-1.6 4.2 0 5.8l53.9 53.9c.8.8 1.8 1.2 2.9 1.2 1 0 2.1-.4 2.9-1.2l53.9-53.9c1.7-1.6 1.7-4.2.1-5.8z"></path></svg><svg width="451.847" height="451.847" viewBox="0 0 451.847 451.847" id="arrow-down-fat" y="151"><path d="M225.923 354.706c-8.098 0-16.195-3.092-22.369-9.263L9.27 151.157c-12.359-12.359-12.359-32.397 0-44.751 12.354-12.354 32.388-12.354 44.748 0l171.905 171.915 171.906-171.909c12.359-12.354 32.391-12.354 44.744 0 12.365 12.354 12.365 32.392 0 44.751L248.292 345.449c-6.177 6.172-14.274 9.257-22.369 9.257z"></path></svg><svg viewBox="0 0 477.175 477.175" width="477.175" height="477.175" id="arrow-left" y="603"><path d="M145.188 238.575l215.5-215.5c5.3-5.3 5.3-13.8 0-19.1s-13.8-5.3-19.1 0l-225.1 225.1c-5.3 5.3-5.3 13.8 0 19.1l225.1 225c2.6 2.6 6.1 4 9.5 4s6.9-1.3 9.5-4c5.3-5.3 5.3-13.8 0-19.1l-215.4-215.5z"></path></svg><svg viewBox="0 0 492 492" width="492" height="492" id="arrow-left-fat" y="1081"><path d="M464.344 207.418l.768.168H135.888l103.496-103.724c5.068-5.064 7.848-11.924 7.848-19.124 0-7.2-2.78-14.012-7.848-19.088L223.28 49.538c-5.064-5.064-11.812-7.864-19.008-7.864-7.2 0-13.952 2.78-19.016 7.844L7.844 226.914C2.76 231.998-.02 238.77 0 245.974c-.02 7.244 2.76 14.02 7.844 19.096l177.412 177.412c5.064 5.06 11.812 7.844 19.016 7.844 7.196 0 13.944-2.788 19.008-7.844l16.104-16.112c5.068-5.056 7.848-11.808 7.848-19.008 0-7.196-2.78-13.592-7.848-18.652L134.72 284.406h329.992c14.828 0 27.288-12.78 27.288-27.6v-22.788c0-14.82-12.828-26.6-27.656-26.6z"></path></svg><svg viewBox="0 0 477.175 477.175" width="477.175" height="477.175" id="arrow-right" y="1573"><path d="M360.731 229.075l-225.1-225.1c-5.3-5.3-13.8-5.3-19.1 0s-5.3 13.8 0 19.1l215.5 215.5-215.5 215.5c-5.3 5.3-5.3 13.8 0 19.1 2.6 2.6 6.1 4 9.5 4 3.4 0 6.9-1.3 9.5-4l225.1-225.1c5.3-5.2 5.3-13.8.1-19z"></path></svg><svg viewBox="0 0 492.004 492.004" width="492.004" height="492.004" id="arrow-right-fat" y="2051"><path d="M484.14 226.886L306.46 49.202c-5.072-5.072-11.832-7.856-19.04-7.856-7.216 0-13.972 2.788-19.044 7.856l-16.132 16.136c-5.068 5.064-7.86 11.828-7.86 19.04 0 7.208 2.792 14.2 7.86 19.264L355.9 207.526H26.58C11.732 207.526 0 219.15 0 234.002v22.812c0 14.852 11.732 27.648 26.58 27.648h330.496L252.248 388.926c-5.068 5.072-7.86 11.652-7.86 18.864 0 7.204 2.792 13.88 7.86 18.948l16.132 16.084c5.072 5.072 11.828 7.836 19.044 7.836 7.208 0 13.968-2.8 19.04-7.872l177.68-177.68c5.084-5.088 7.88-11.88 7.86-19.1.016-7.244-2.776-14.04-7.864-19.12z"></path></svg><svg width="64" height="64" viewBox="0 0 64 64" id="arrow-up" y="2544"><path d="M3.352 48.296l28.56-28.328 28.58 28.347c.397.394.917.59 1.436.59.52 0 1.04-.196 1.436-.59a2.003 2.003 0 0 0 0-2.849l-29.98-29.735c-.2-.2-.494-.375-.757-.475a2.052 2.052 0 0 0-2.166.456L.479 45.447a2.003 2.003 0 0 0 0 2.849 2.045 2.045 0 0 0 2.873 0z"></path></svg><svg width="451.847" height="451.846" viewBox="0 0 451.847 451.846" id="arrow-up-fat" y="2608"><path d="M248.292 106.406l194.281 194.29c12.365 12.359 12.365 32.391 0 44.744-12.354 12.354-32.391 12.354-44.744 0L225.923 173.529 54.018 345.44c-12.36 12.354-32.395 12.354-44.748 0-12.359-12.354-12.359-32.391 0-44.75L203.554 106.4c6.18-6.174 14.271-9.259 22.369-9.259 8.095 0 16.192 3.091 22.369 9.265z"></path></svg><svg width="20" height="20" viewBox="0 0 20 20" id="calendar" y="3060"><path d="M18 6V3h-2v1h-2V3H6v1H4V3H2v3zm0 2H2v10h16zm-2-7h2a2 2 0 0 1 2 2v15a2 2 0 0 1-2 2H2a2 2 0 0 1-2-2V3a2 2 0 0 1 2-2h2V0h2v1h8V0h2zM7 12H5v-2h2zm4 0H9v-2h2zm4 0h-2v-2h2zm-8 4H5v-2h2zm4 0H9v-2h2z" fill-rule="evenodd"></path></svg><svg viewBox="0 0 475.2 475.2" width="475.2" height="475.2" id="cancel" y="3080"><path d="M405.6 69.6C360.7 24.7 301.1 0 237.6 0s-123.1 24.7-168 69.6S0 174.1 0 237.6s24.7 123.1 69.6 168 104.5 69.6 168 69.6 123.1-24.7 168-69.6 69.6-104.5 69.6-168-24.7-123.1-69.6-168zm-19.1 316.9c-39.8 39.8-92.7 61.7-148.9 61.7s-109.1-21.9-148.9-61.7c-82.1-82.1-82.1-215.7 0-297.8C128.5 48.9 181.4 27 237.6 27s109.1 21.9 148.9 61.7c82.1 82.1 82.1 215.7 0 297.8z"></path><path d="M342.3 132.9c-5.3-5.3-13.8-5.3-19.1 0l-85.6 85.6-85.6-85.6c-5.3-5.3-13.8-5.3-19.1 0-5.3 5.3-5.3 13.8 0 19.1l85.6 85.6-85.6 85.6c-5.3 5.3-5.3 13.8 0 19.1 2.6 2.6 6.1 4 9.5 4s6.9-1.3 9.5-4l85.6-85.6 85.6 85.6c2.6 2.6 6.1 4 9.5 4 3.5 0 6.9-1.3 9.5-4 5.3-5.3 5.3-13.8 0-19.1l-85.4-85.6 85.6-85.6c5.3-5.3 5.3-13.8 0-19.1z"></path></svg><svg width="33" height="23" viewBox="0 0 33 23" id="card" y="3556"><defs><path id="a" d="M468 1286.6v2.3h-30v-2.3c0-.85.67-1.54 1.5-1.54h27c.83 0 1.5.69 1.5 1.54zm-30 5.38h30v11.54c0 .85-.67 1.54-1.5 1.54h-27c-.83 0-1.5-.69-1.5-1.54zm10.12 8.46c0-.84-.67-1.53-1.5-1.53-.82 0-1.5.69-1.5 1.53 0-.84-.67-1.53-1.5-1.53-.82 0-1.5.69-1.5 1.53 0 .85.68 1.54 1.5 1.54.83 0 1.5-.69 1.5-1.54 0 .85.68 1.54 1.5 1.54.83 0 1.5-.69 1.5-1.54z"></path></defs><use xlink:href="#a" transform="translate(-436 -1284)"></use></svg><svg width="49.992" height="50" viewBox="0 0 49.992 50" id="carrot--color" y="3579"><path data-name="Path 5431" d="M36.56 29.06a8.949 8.949 0 0 1-1.818 1.559l-29.6 18.036a2.718 2.718 0 0 1-4.286-1.918 2.866 2.866 0 0 1 .484-1.884l18.044-29.6a8.915 8.915 0 0 1 8.08-4.078c.2.017.409.033.609.067.033.008.075.008.108.017a7.868 7.868 0 0 1 4.386 2.226l.142.142 3.619 3.619.05.05.142.142a7.819 7.819 0 0 1 2.226 4.378 8.853 8.853 0 0 1-2.186 7.244z" fill="#f57c00"></path><path data-name="Path 5432" d="M36.559 29.059a8.95 8.95 0 0 1-1.818 1.559L5.14 48.653a2.718 2.718 0 0 1-4.286-1.918l16.327-26.792a8.915 8.915 0 0 1 8.08-4.078c.2.017.409.033.617.067.033.008.067.008.108.017a7.843 7.843 0 0 1 4.378 2.226l.15.142 3.611 3.619.05.05.15.142a7.819 7.819 0 0 1 2.226 4.378 8.471 8.471 0 0 1 .008 2.553z" fill="#ff9801"></path><path data-name="Path 5433" d="M3.548 50A3.565 3.565 0 0 1 .64 44.4l18.029-29.583a9.727 9.727 0 0 1 8.854-4.474c.229.018.461.038.684.076a1.427 1.427 0 0 1 .168.028 8.623 8.623 0 0 1 4.778 2.447l3.952 3.952a8.639 8.639 0 0 1 2.461 4.84 9.732 9.732 0 0 1-4.37 9.631l-.022.014L5.569 49.368A3.673 3.673 0 0 1 3.548 50zm23.273-38.017a8.09 8.09 0 0 0-6.741 3.723L2.05 45.287a1.895 1.895 0 0 0 2.633 2.671l29.614-18.045a8.063 8.063 0 0 0 3.624-7.968 6.987 6.987 0 0 0-1.99-3.917l-3.954-3.955a7.04 7.04 0 0 0-3.925-1.992 1.586 1.586 0 0 1-.178-.03 8.678 8.678 0 0 0-1.053-.068z"></path><path data-name="Path 5434" d="M28.534 20.898a.832.832 0 0 1-.59-.244l-4.128-4.128a.834.834 0 0 1 1.179-1.179l4.128 4.128a.834.834 0 0 1-.59 1.423z"></path><path data-name="Path 5435" d="M32.072 29.153a.832.832 0 0 1-.59-.244l-4.128-4.128a.834.834 0 0 1 1.179-1.179l4.128 4.128a.834.834 0 0 1-.59 1.423z"></path><path data-name="Path 5436" d="M23.228 26.205a.832.832 0 0 1-.59-.244l-2.948-2.948a.834.834 0 1 1 1.179-1.179l2.948 2.948a.834.834 0 0 1-.59 1.423z"></path><path data-name="Path 5437" d="M17.921 37.407a.832.832 0 0 1-.59-.244l-1.179-1.179a.834.834 0 0 1 1.179-1.179l1.179 1.179a.834.834 0 0 1-.59 1.423z"></path><path data-name="Path 5438" d="M19.69 32.1a.832.832 0 0 1-.59-.244l-2.948-2.948a.834.834 0 0 1 1.179-1.179l2.948 2.948a.834.834 0 0 1-.59 1.423z"></path><path data-name="Path 5439" d="M13.314 39.875a.832.832 0 0 1-.59-.244l-2.359-2.358a.834.834 0 0 1 1.179-1.179l2.359 2.358a.834.834 0 0 1-.59 1.423z"></path><g data-name="Group 1738" fill="#4caf50"><path data-name="Path 5440" d="M43.38 6.613s-1.568 6.329-3.786 8.555a.106.106 0 0 0-.033.033 8.671 8.671 0 0 1-2.16 1.593 6.161 6.161 0 0 1-1.009.434.123.123 0 0 0-.067.017l-3.619-3.619c.025 0 .042-.008.067-.008a5.959 5.959 0 0 1 .392-.942 8.486 8.486 0 0 1 1.626-2.235l.033-.033c2.226-2.227 8.556-3.795 8.556-3.795z"></path><path data-name="Path 5441" d="M34.85 9.489c-.008.325-.025.642-.058.951a8.062 8.062 0 0 0-2.018 3.177c-.025 0-.042.008-.067.008l-.142-.142a9.106 9.106 0 0 0-.417-.392 7.856 7.856 0 0 0-3.969-1.834c-.033-.008-.075-.008-.108-.017-.2-.033-.409-.05-.609-.067l.709-.1a9.188 9.188 0 0 1-.125-1.543 14.1 14.1 0 0 1 1.559-5.137 38.66 38.66 0 0 1 1.9-3.561s3.362 5.531 3.345 8.657z"></path><path data-name="Path 5442" d="M49.155 18.487a37.579 37.579 0 0 1-3.561 1.893 13.949 13.949 0 0 1-5.137 1.568 9.79 9.79 0 0 1-1.659-.142l-.058.008a7.748 7.748 0 0 0-1.843-3.961 5.979 5.979 0 0 0-.384-.417l-.142-.142a.1.1 0 0 1 .017-.067 8.218 8.218 0 0 0 3.169-2.026c.3-.033.625-.042.942-.05 3.131-.024 8.656 3.336 8.656 3.336z"></path></g><g data-name="Group 1739" fill="#2e7d32"><path data-name="Path 5443" d="M39.417 11.653a29.857 29.857 0 0 1-2.016 5.141 6.158 6.158 0 0 1-1.009.434.123.123 0 0 0-.067.017l-3.619-3.619c.025 0 .042-.008.067-.008a5.959 5.959 0 0 1 .392-.942 29.59 29.59 0 0 1 5.216-2.058.831.831 0 0 1 1.036.556.819.819 0 0 1 0 .479z"></path><path data-name="Path 5444" d="M32.348 11.99c-.008.325-.025.642-.058.951-.05.05-.1.1-.142.15a7.856 7.856 0 0 0-3.969-1.834c-.033-.008-.075-.008-.108-.017-.2-.033-.409-.05-.609-.067l.709-.1a9.191 9.191 0 0 1-.125-1.543 14.1 14.1 0 0 1 1.559-5.134c.976 1.757 2.752 5.318 2.743 7.594z"></path><path data-name="Path 5445" d="M45.594 20.379a13.948 13.948 0 0 1-5.137 1.568 9.79 9.79 0 0 1-1.659-.142l-.058.008a7.749 7.749 0 0 0-1.843-3.961c.05-.05.108-.1.158-.15.3-.033.625-.042.942-.05 2.289-.017 5.842 1.768 7.597 2.727z"></path></g><path data-name="Path 5446" d="M36.326 18.077a.838.838 0 0 1-.59-.243l-3.619-3.618a.834.834 0 0 1-.042-1.135 9.116 9.116 0 0 1 2.126-3.23c2.4-2.4 8.71-3.981 8.978-4.047a.835.835 0 0 1 1.011 1.011c-.066.268-1.65 6.581-4 8.945l-.018.017-.017.017a9.117 9.117 0 0 1-3.5 2.23.683.683 0 0 1-.1.025.852.852 0 0 1-.229.028zm-2.608-4.62l2.826 2.827a7.725 7.725 0 0 0 2.428-1.668l.033-.032c1.336-1.341 2.532-4.62 3.179-6.768-2.149.648-5.429 1.846-6.768 3.185a7.68 7.68 0 0 0-1.7 2.46z"></path><path data-name="Path 5447" d="M32.757 14.5a.834.834 0 0 1-.834-.833 1.065 1.065 0 0 1 .113-.437.838.838 0 1 1 .721 1.271z"></path><path data-name="Path 5448" d="M32.707 14.459a.832.832 0 0 1-.59-.244l-.142-.142a7.04 7.04 0 0 0-3.925-1.992 1.586 1.586 0 0 1-.178-.03 8.678 8.678 0 0 0-.479-.046.834.834 0 0 1-.15-1.637 10.48 10.48 0 0 1-.033-.838c.027-3.328 3.44-8.9 3.585-9.135a.835.835 0 0 1 .71-.4.834.834 0 0 1 .71.4c.142.233 3.483 5.769 3.465 9.092v.023c-.008.349-.027.689-.062 1.019a.839.839 0 0 1-.239.5 7.261 7.261 0 0 0-1.812 2.838.835.835 0 0 1-.717.58 1.212 1.212 0 0 1-.143.012zm-3.769-3.906a8.6 8.6 0 0 1 3.5 1.7 9.5 9.5 0 0 1 1.549-2.18c.014-.194.023-.393.028-.594.006-1.881-1.461-5.015-2.516-6.968-1.085 1.97-2.606 5.142-2.621 7.029a8.8 8.8 0 0 0 .059 1.016z"></path><path data-name="Path 5449" d="M28.175 12.005a.809.809 0 0 1-.8-.646l.816-.168-.819.157a1.313 1.313 0 0 1-.032-.274.834.834 0 0 1 1.666-.052.84.84 0 0 1-.829.982z"></path><path data-name="Path 5450" d="M40.468 22.781a10.564 10.564 0 0 1-1.762-.146.872.872 0 0 1-.787-.694 6.983 6.983 0 0 0-1.99-3.913l-.143-.144a.832.832 0 0 1-.244-.59 1.088 1.088 0 0 1 .155-.527.839.839 0 0 1 .437-.333 7.419 7.419 0 0 0 2.838-1.823.83.83 0 0 1 .5-.239c.322-.036.672-.047 1.013-.055h.041c3.345 0 8.836 3.315 9.069 3.457a.834.834 0 0 1 0 1.423c-.234.144-5.805 3.557-9.127 3.584zm-1.022-1.725a8.607 8.607 0 0 0 1.016.058c1.882-.016 5.052-1.536 7.023-2.621-1.946-1.051-5.062-2.508-6.945-2.508h-.029c-.188 0-.387.01-.581.022a9.631 9.631 0 0 1-2.178 1.552 8.638 8.638 0 0 1 1.694 3.496z"></path></svg><svg width="21.664" height="22" viewBox="0 0 21.664 22" id="cart" y="3629"><path d="M5.37 4.4A5.473 5.473 0 0 1 10.833 0a5.473 5.473 0 0 1 5.463 4.4h3.169a2.2 2.2 0 0 1 2.178 2.511l-1.886 13.2A2.2 2.2 0 0 1 17.579 22H4.087a2.2 2.2 0 0 1-2.178-1.889L.023 6.911A2.2 2.2 0 0 1 2.201 4.4zm2.242 0h6.441a3.457 3.457 0 0 0-6.441 0zM5.333 6.6H2.201l1.886 13.2h13.492l1.885-13.2h-3.131v2.2h-2.2V6.6h-6.6v2.2h-2.2z"></path></svg><svg viewBox="0 0 191.667 191.667" width="191.667" height="191.667" id="check-round" y="3651"><path d="M95.833 0C42.991 0 0 42.99 0 95.833s42.991 95.834 95.833 95.834 95.833-42.991 95.833-95.834S148.676 0 95.833 0zm55.029 79.646l-60.207 60.207a13.463 13.463 0 0 1-9.583 3.969c-3.62 0-7.023-1.409-9.583-3.969l-30.685-30.685a13.464 13.464 0 0 1-3.97-9.583c0-3.621 1.41-7.024 3.97-9.584a13.46 13.46 0 0 1 9.583-3.97c3.62 0 7.024 1.41 9.583 3.971l21.101 21.1 50.623-50.623a13.463 13.463 0 0 1 9.583-3.969c3.62 0 7.023 1.409 9.583 3.969 5.286 5.286 5.286 13.883.002 19.167z"></path></svg><svg width="12" height="8.728" viewBox="0 0 12 8.728" id="checked" y="3843"><path data-name="Union 142" d="M3.604 8.401L.33 5.125a1.08 1.08 0 0 1 1.532-1.523L4.37 6.108 10.147.331a1.079 1.079 0 0 1 1.525 1.525L5.133 8.402a1.057 1.057 0 0 1-1.529 0z"></path></svg><svg viewBox="0 0 26 26" width="26" height="26" id="checked-1" y="3852"><path d="M.3 14c-.2-.2-.3-.5-.3-.7s.1-.5.3-.7l1.4-1.4c.4-.4 1-.4 1.4 0l.1.1 5.5 5.9c.2.2.5.2.7 0L22.8 3.3h.1c.4-.4 1-.4 1.4 0l1.4 1.4c.4.4.4 1 0 1.4l-16 16.6c-.2.2-.4.3-.7.3-.3 0-.5-.1-.7-.3L.5 14.3.3 14z"></path></svg><svg width="44.486" height="55" viewBox="0 0 44.486 55" id="chef--color" y="3878"><g data-name="Group 1734" fill="#f57c00"><path data-name="Path 5393" d="M14.974 41.131l-.046.119h-3.1a10.123 10.123 0 0 0-2.924.431c3.181-3.8 2.337-4.877 2.337-7.892a14.519 14.519 0 0 1 1.836-6.29 2.1 2.1 0 0 0 .018.238 3.789 3.789 0 0 0 .11.632 2.1 2.1 0 0 0 .092.321 1.678 1.678 0 0 0 .1.275 1.35 1.35 0 0 0 .11.266 1.381 1.381 0 0 0 .119.266 5.948 5.948 0 0 0 .284.532q.151.261.33.522c.083.128.174.266.266.394.165.22.339.44.513.66a30.2 30.2 0 0 1 .541 3.163c.258 2.155.313 4.768-.586 6.363z"></path><path data-name="Path 5394" d="M35.583 41.681a10.124 10.124 0 0 0-2.924-.431h-3.1l-.046-.119c-.9-1.6-.843-4.207-.587-6.362a30.213 30.213 0 0 1 .541-3.162 7.228 7.228 0 0 0 1.943-4.106 14.517 14.517 0 0 1 1.833 6.288c.001 3.012-.843 4.097 2.34 7.892z"></path></g><path data-name="Path 5395" d="M32.328 16.775a8.037 8.037 0 0 1-.275 2.053c0 .009-.009.028-.009.037a21.979 21.979 0 0 0-.66 7.883c.018.22.028.449.028.678a4.436 4.436 0 0 1-.413 1.778 10.546 10.546 0 0 1-1.531 2.4 26.4 26.4 0 0 1-3.8 3.658 5.237 5.237 0 0 1-1.393.816 4.176 4.176 0 0 1-.568.2 5.607 5.607 0 0 1-2.172.156l-.312-.055a2.5 2.5 0 0 1-.357-.082 3.748 3.748 0 0 1-.486-.147h-.009c-.119-.046-.229-.092-.339-.137-.009-.009-.009-.009-.018-.009a.183.183 0 0 1-.073-.037 1.336 1.336 0 0 1-.257-.128 1.168 1.168 0 0 1-.247-.147 2.013 2.013 0 0 1-.293-.193 3.724 3.724 0 0 1-.33-.238 36.046 36.046 0 0 1-.972-.816l-.495-.44a4.954 4.954 0 0 1-.321-.293 20.667 20.667 0 0 1-2.008-2.108c-.11-.138-.22-.266-.321-.4a1.046 1.046 0 0 0-.092-.119c-.018-.028-.037-.046-.055-.073-.11-.156-.211-.3-.312-.458q-.179-.261-.33-.522a.19.19 0 0 0-.028-.046c-.092-.165-.183-.321-.257-.486a1.4 1.4 0 0 1-.119-.266 1.364 1.364 0 0 1-.11-.266.1.1 0 0 1-.028-.073 1.756 1.756 0 0 1-.073-.2 3.913 3.913 0 0 1-.22-1.265c0-.229.009-.458.028-.678a21.983 21.983 0 0 0-.669-7.92 8.037 8.037 0 0 1-.275-2.053 6.409 6.409 0 0 1 .1-1.192 8.437 8.437 0 0 1 3.08-5.225h13.8a8.29 8.29 0 0 1 3.191 6.413z" fill="#fec108"></path><path data-name="Path 5396" d="M29.577 16.775a8.039 8.039 0 0 1-.275 2.053c0 .009-.009.028-.009.037a21.979 21.979 0 0 0-.66 7.883c.018.22.027.449.027.678 0 2.64-3.135 5.729-5.738 7.837a5.185 5.185 0 0 1-2.053 1.036 4.229 4.229 0 0 1-.486-.147h-.009a13.156 13.156 0 0 1-.339-.138c-.009-.009-.009-.009-.018-.009a.183.183 0 0 1-.073-.037 1.339 1.339 0 0 1-.257-.128 1.168 1.168 0 0 1-.247-.147 2.013 2.013 0 0 1-.293-.193 3.723 3.723 0 0 1-.33-.238 36.046 36.046 0 0 1-.972-.816l-.495-.44-.321-.293a20.668 20.668 0 0 1-2.008-2.108c-.11-.137-.22-.266-.321-.4a1.045 1.045 0 0 0-.092-.119c-.018-.028-.037-.046-.055-.073-.11-.156-.211-.3-.312-.458q-.179-.261-.33-.522a.192.192 0 0 0-.028-.046c-.092-.165-.183-.321-.257-.486a1.4 1.4 0 0 1-.119-.266 1.368 1.368 0 0 1-.11-.266.1.1 0 0 1-.028-.073 1.751 1.751 0 0 1-.073-.2 3.913 3.913 0 0 1-.22-1.265c0-.229.009-.458.028-.678a21.983 21.983 0 0 0-.669-7.92 8.037 8.037 0 0 1-.275-2.053 6.411 6.411 0 0 1 .1-1.192 8.437 8.437 0 0 1 3.08-5.225h11.055a8.29 8.29 0 0 1 3.182 6.412z" fill="#ffecb3"></path><path data-name="Path 5397" d="M29.512 41.13a1.556 1.556 0 0 0-.183.073 5.76 5.76 0 0 0-1.4.953c-.11.092-.229.193-.339.3-.055.046-.092.082-.147.128l-.009.009h-.009a18.8 18.8 0 0 1-3.327 2.695c-.009.009-.009.009-.018.009a4.774 4.774 0 0 1-.667.312 3.452 3.452 0 0 1-.779.193 2.722 2.722 0 0 1-.385.027c-2.081 0-4.024-2.264-5.683-3.676a6.368 6.368 0 0 0-1.3-.908 1.889 1.889 0 0 0-.284-.119 8.549 8.549 0 0 0 .743-4.217c0-.11 0-.22-.009-.339v-.037a.569.569 0 0 0-.009-.119v-.018a5.51 5.51 0 0 0-.018-.385l-.055-.633a1.755 1.755 0 0 1-.018-.22c-.018-.138-.027-.266-.046-.394a30.207 30.207 0 0 0-.541-3.163 26.393 26.393 0 0 0 3.795 3.658 1 1 0 0 0 .156.119.009.009 0 0 0 .009.009 1.735 1.735 0 0 0 .165.11.209.209 0 0 0 .092.064.386.386 0 0 0 .128.083 2.294 2.294 0 0 0 .321.192c.037.018.064.037.1.055a.811.811 0 0 0 .156.073 4.845 4.845 0 0 0 .862.312.067.067 0 0 0 .055.018 2.381 2.381 0 0 0 .367.083 2.119 2.119 0 0 0 .257.046c.1.018.211.027.312.037.147.009.284.018.431.018h.046c.128 0 .266-.009.394-.018.11-.009.229-.018.339-.037s.229-.037.339-.064a3.984 3.984 0 0 0 .651-.174 1.523 1.523 0 0 0 .284-.11h.009a.92.92 0 0 0 .137-.064 1.222 1.222 0 0 0 .165-.064c.027-.018.055-.027.083-.046a3.827 3.827 0 0 0 .495-.284 4.594 4.594 0 0 0 .5-.358c.183-.156.376-.312.568-.467.046-.037.092-.083.138-.119.339-.293.688-.6 1.027-.917.183-.165.367-.33.541-.513a19.713 19.713 0 0 0 1.522-1.641 30.205 30.205 0 0 0-.541 3.162c-.263 2.159-.318 4.771.58 6.366z" fill="#fec108"></path><path data-name="Path 5398" d="M27.615 42.524c-.064.018-.11.046-.174.064l-.009.009h-.009a6.006 6.006 0 0 0-1.393.953c-.614.522-1.256 1.146-1.934 1.742-.009.009-.009.009-.018.009a4.774 4.774 0 0 1-.667.312 3.451 3.451 0 0 1-.779.193 2.718 2.718 0 0 1-.385.027c-2.081 0-4.024-2.264-5.683-3.676a6.367 6.367 0 0 0-1.3-.908 1.885 1.885 0 0 0-.284-.119 8.155 8.155 0 0 0 .752-3.868c0-.119 0-.229-.009-.348a19.315 19.315 0 0 0-.064-1.247.37.37 0 0 1-.009-.1q.151.151.3.275c.33.284.651.559.972.816a3.741 3.741 0 0 0 .33.238 2.04 2.04 0 0 0 .293.192 1.168 1.168 0 0 0 .248.147 1.355 1.355 0 0 0 .257.128.183.183 0 0 0 .073.037c.009 0 .009 0 .018.009.11.046.22.092.339.138h.009a3.805 3.805 0 0 0 .486.147 2.509 2.509 0 0 0 .357.082l.312.055a5.607 5.607 0 0 0 2.173-.156 4.194 4.194 0 0 0 .568-.2 5.236 5.236 0 0 0 1.393-.816c.284-.229.577-.468.871-.733.009-.009.018-.009.027-.018a24.084 24.084 0 0 0 2.9-2.906c-.046.2-.1.458-.165.761v.009a34.787 34.787 0 0 0-.376 2.393c-.257 2.126-.312 4.7.559 6.3a.506.506 0 0 0 .021.059z" fill="#ffecb3"></path><g data-name="Group 1735" fill="#fec108"><path data-name="Path 5399" d="M12.389 19.25s-2.062-1.833-2.062 1.833.687 7.333 2.75 4.583"></path><path data-name="Path 5400" d="M32.097 19.25s2.063-1.833 2.063 1.833-.688 7.333-2.75 4.583"></path></g><path data-name="Path 5401" d="M22.244.917q-.921 0-1.815.083h-.037c-5.7.513-10.065 3.364-10.065 6.792a4.1 4.1 0 0 0 .257 1.412l.092.367 1.512 6.169.1.413v.009l.321 1.338c.064-.046.128-.1.2-.147a15.13 15.13 0 0 1 7.6-2.6c.6-.055 1.21-.083 1.833-.083a18.6 18.6 0 0 1 6.417 1.082 12.169 12.169 0 0 1 3.034 1.623c.073.046.138.1.2.147l.312-1.283v-.009l1.678-6.857.009-.046.11-.422a.055.055 0 0 0 .009-.037l.027-.119.055-.22v-.045a3.491 3.491 0 0 0 .064-.688C34.162 3.997 28.825.917 22.244.917z" fill="#607d8b"></path><path data-name="Path 5402" d="M30.493 7.792a3.508 3.508 0 0 1-.064.687v.046l-.055.22-.028.119a.056.056 0 0 1-.009.037l-.11.422-.009.046-1.56 6.379a18.6 18.6 0 0 0-6.417-1.082c-.623 0-1.238.028-1.833.083a15.128 15.128 0 0 0-7.6 2.6c-.073.046-.137.1-.2.147l-.321-1.338v-.009l-.1-.413-1.513-6.169-.092-.367a4.1 4.1 0 0 1-.257-1.412c0-3.428 4.363-6.279 10.065-6.792h.037c5.703.516 10.066 3.367 10.066 6.796z" fill="#cfd8dc"></path><path data-name="Path 5403" d="M43.483 51.691l-1.21-3.777a10.3 10.3 0 0 0-2.356-3.658 25.656 25.656 0 0 0-2.283-1.714 9.174 9.174 0 0 0-1.045-.513 10.444 10.444 0 0 0-3.932-.779h-.33l-3.667-3.667-3.1 2.649-3.313 2.852-.889-.761-5.527-4.739-3.667 3.667h-.33a9.775 9.775 0 0 0-1.943.192 10.559 10.559 0 0 0-1.989.587 9.207 9.207 0 0 0-1.045.513c-.431.312-.779.568-1.054.77a12.245 12.245 0 0 0-1.228.944 10.3 10.3 0 0 0-2.356 3.658l-1.21 3.776a1.836 1.836 0 0 0 1.751 2.393h38.972a1.836 1.836 0 0 0 1.751-2.393z" fill="#607d8b"></path><path data-name="Path 5404" d="M39.66 54.083H2.76a1.836 1.836 0 0 1-1.751-2.392l1.21-3.777a10.3 10.3 0 0 1 2.356-3.658 12.284 12.284 0 0 1 1.228-.944c.275-.2.623-.458 1.054-.77a9.175 9.175 0 0 1 1.045-.513 10.568 10.568 0 0 1 1.989-.587 9.771 9.771 0 0 1 1.943-.193h.33l3.667-3.667 5.527 4.739.889.761 3.318-2.851 2.851 2.851h.33a10.447 10.447 0 0 1 3.932.779 9.192 9.192 0 0 1 1.045.513 25.63 25.63 0 0 1 2.283 1.714 10.3 10.3 0 0 1 2.356 3.658l1.21 3.777a1.977 1.977 0 0 1 .088.56z" fill="#cfd8dc"></path><path data-name="Path 5405" d="M8.905 42.598a.917.917 0 0 1-.7-1.505c2.354-2.809 2.293-3.849 2.181-5.736a25.606 25.606 0 0 1-.058-1.568 15.338 15.338 0 0 1 1.958-6.75.917.917 0 0 1 1.584.923 13.678 13.678 0 0 0-1.709 5.827c0 .542.029 1.019.055 1.46.138 2.334.085 3.811-2.606 7.022a.914.914 0 0 1-.705.327z"></path><path data-name="Path 5406" d="M35.581 42.597a.915.915 0 0 1-.7-.328c-2.691-3.211-2.744-4.688-2.606-7.022.026-.441.055-.918.055-1.46a13.593 13.593 0 0 0-1.708-5.826.917.917 0 1 1 1.583-.924 15.342 15.342 0 0 1 1.958 6.75c0 .582-.03 1.094-.058 1.568-.112 1.888-.173 2.927 2.181 5.736a.917.917 0 0 1-.7 1.505z"></path><path data-name="Path 5407" d="M23.16 28.416h-1.833a.917.917 0 0 1 0-1.833h1.833a.917.917 0 1 1 0 1.833z"></path><path data-name="Path 5408" d="M13.237 18.174l-.1.073a.917.917 0 0 1-1.422-.534l-.32-1.338c0-.019-.008-.037-.012-.056L9.705 9.478a4.726 4.726 0 0 1-.264-1.125 4.615 4.615 0 0 1-.033-.559c0-4.369 5.637-7.792 12.833-7.792s12.838 3.421 12.838 7.79q0 .164-.01.32a.912.912 0 0 1-.021.376l-.043.157a.91.91 0 0 1-.017.1l-.08.325c0 .02-.009.04-.015.06l-.11.422-1.671 6.841c0 .019-.007.038-.012.056l-.312 1.283a.917.917 0 0 1-.571.642.9.9 0 0 1-.32.058.918.918 0 0 1-.532-.171l-.1-.071a3.789 3.789 0 0 1-.129-.092 16.995 16.995 0 0 0-17.778-.015m8.882-4.336a17.768 17.768 0 0 1 9.074 2.258l1.8-7.338v-.009l.065-.258a.885.885 0 0 1 .014-.1 2.573 2.573 0 0 0 .047-.509c0-3.23-5.037-5.958-11-5.958s-11 2.729-11 5.958a2.961 2.961 0 0 0 .021.351 2.921 2.921 0 0 0 .175.734.91.91 0 0 1 .033.1l1.706 6.952c0 .019.008.038.012.057a17.812 17.812 0 0 1 9.056-2.235z"></path><path data-name="Path 5409" d="M33.087 13.558a.911.911 0 0 1-.5-.147c-2.471-1.6-6.243-2.511-10.347-2.511-4.031 0-7.889.935-10.32 2.5a.917.917 0 0 1-.994-1.541c2.756-1.776 6.88-2.8 11.313-2.8s8.582 1.022 11.342 2.805a.917.917 0 0 1-.5 1.687z"></path><path data-name="Path 5410" d="M22.245 37.395a6.331 6.331 0 0 1-4.009-1.421c-4.031-3.265-6.076-6.141-6.076-8.548 0-.255.01-.51.03-.754l.021-.263c.013-.151.026-.3.031-.453a20.846 20.846 0 0 0-.691-6.882 8.388 8.388 0 0 1-.227-1.132.917.917 0 0 1 1.817-.244 6.652 6.652 0 0 0 .176.886 22.626 22.626 0 0 1 .756 7.459c-.005.161-.02.34-.035.521l-.02.249c-.017.206-.025.41-.025.613 0 1.775 1.917 4.306 5.4 7.126a4.526 4.526 0 0 0 5.7 0c3.484-2.822 5.4-5.352 5.4-7.128 0-.2-.008-.407-.024-.6l-.021-.26c-.015-.181-.03-.361-.037-.545a22.584 22.584 0 0 1 .757-7.437 6.631 6.631 0 0 0 .176-.885.917.917 0 1 1 1.817.244 8.421 8.421 0 0 1-.226 1.131 20.8 20.8 0 0 0-.693 6.859c.007.177.02.326.033.477l.022.274c.02.234.03.488.03.743 0 2.407-2.045 5.283-6.078 8.55a6.327 6.327 0 0 1-4.004 1.42z"></path><path data-name="Path 5411" d="M15.717 38.61h-.026a.916.916 0 0 1-.89-.942 19.3 19.3 0 0 0-.15-2.79 29.186 29.186 0 0 0-.525-3.071.917.917 0 1 1 1.789-.4 31.1 31.1 0 0 1 .557 3.259 21.113 21.113 0 0 1 .161 3.054.916.916 0 0 1-.916.89z"></path><path data-name="Path 5412" d="M28.77 38.61a.916.916 0 0 1-.916-.891 21.128 21.128 0 0 1 .162-3.058 31.067 31.067 0 0 1 .556-3.254.917.917 0 0 1 1.79.4 29.173 29.173 0 0 0-.525 3.066 19.346 19.346 0 0 0-.15 2.795.916.916 0 0 1-.89.942h-.027z"></path><path data-name="Path 5413" d="M11.811 27.547a1.548 1.548 0 0 1-.492-.082c-.472-.157-1.909-.636-1.909-6.382 0-.618 0-2.5 1.265-3.065a2.36 2.36 0 0 1 2.323.546.917.917 0 1 1-1.213 1.375 1.357 1.357 0 0 0-.352-.212 3.25 3.25 0 0 0-.19 1.356c0 2.87.4 4.155.627 4.552a2.86 2.86 0 0 0 .473-.518.917.917 0 0 1 1.466 1.1 2.689 2.689 0 0 1-1.998 1.33z"></path><path data-name="Path 5414" d="M32.677 27.547a2.47 2.47 0 0 1-1.818-1.109 1.58 1.58 0 0 1-.13-.156.947.947 0 0 1 .129-1.3.887.887 0 0 1 1.25.094l.007.009.062.077c.023.024.064.073.085.1a2.466 2.466 0 0 0 .357.374 9.225 9.225 0 0 0 .607-3.758.929.929 0 0 1 .009-.1v-.322c.009-.17.009-.268.009-.367a3.246 3.246 0 0 0-.19-1.357 1.347 1.347 0 0 0-.344.206.917.917 0 0 1-1.224-1.365 2.655 2.655 0 0 1 1.707-.692c.86.031 1.884.613 1.884 3.208 0 .121 0 .242-.008.369v.401a.968.968 0 0 1-.013.146c-.137 4.376-1.138 5.214-1.881 5.464a1.558 1.558 0 0 1-.498.078z"></path><path data-name="Path 5415" d="M19.493 22h-3.667a.917.917 0 0 1 0-1.833h3.667a.917.917 0 1 1 0 1.833z"></path><path data-name="Path 5416" d="M28.66 22h-3.667a.917.917 0 1 1 0-1.833h3.667a.917.917 0 0 1 0 1.833z"></path><path data-name="Path 5417" d="M17.66 23.832a.917.917 0 0 1-.917-.917v-1.833a.917.917 0 0 1 1.833 0v1.833a.917.917 0 0 1-.916.917z"></path><path data-name="Path 5418" d="M26.827 23.832a.917.917 0 0 1-.917-.917v-1.833a.917.917 0 0 1 1.833 0v1.833a.917.917 0 0 1-.916.917z"></path><path data-name="Path 5419" d="M41.731 55H2.759a2.753 2.753 0 0 1-2.625-3.587l1.211-3.779a11.2 11.2 0 0 1 2.581-4.026A22.873 22.873 0 0 1 6.318 41.8a.8.8 0 0 1 .085-.055 9.938 9.938 0 0 1 1.15-.564 11.3 11.3 0 0 1 4.23-.848l3.4-3.4a.918.918 0 0 1 1.245-.048l5.82 4.989 5.811-4.987a.917.917 0 0 1 1.245.048l3.4 3.4a11.3 11.3 0 0 1 4.228.847 9.956 9.956 0 0 1 1.151.565.908.908 0 0 1 .086.055 22.866 22.866 0 0 1 2.393 1.808 11.243 11.243 0 0 1 1.677 2.147 11.086 11.086 0 0 1 .889 1.838l1.225 3.818a2.753 2.753 0 0 1-2.623 3.589zM7.348 43.315c-1.816 1.318-2.049 1.508-2.13 1.589a9.375 9.375 0 0 0-1.4 1.8 9.275 9.275 0 0 0-.743 1.536l-1.2 3.734a.919.919 0 0 0 .878 1.2h38.978a.919.919 0 0 0 .877-1.2l-1.209-3.775a9.257 9.257 0 0 0-.728-1.493 9.4 9.4 0 0 0-1.4-1.8c-.08-.08-.312-.27-2.13-1.589a8.168 8.168 0 0 0-.9-.438 9.467 9.467 0 0 0-3.585-.711h-.33a.917.917 0 0 1-.648-.269l-3.066-3.066-5.772 4.948a.916.916 0 0 1-1.193 0l-5.772-4.948-3.066 3.066a.916.916 0 0 1-.648.269h-.33a9.463 9.463 0 0 0-3.587.712 8 8 0 0 0-.896.435z"></path><path data-name="Path 5420" d="M24.076 32.083h-3.667a.917.917 0 1 1 0-1.833h3.667a.917.917 0 1 1 0 1.833z"></path><path data-name="Path 5421" d="M13.158 26.904a.911.911 0 0 1-.549-.183l-.22-.156a.917.917 0 1 1 1.1-1.466l.22.156a.917.917 0 0 1-.551 1.65z"></path><path data-name="Path 5422" d="M31.328 26.904a.917.917 0 0 1-.551-1.65l.22-.156a.917.917 0 1 1 1.1 1.466l-.22.156a.912.912 0 0 1-.549.184z"></path><path data-name="Path 5423" d="M34.142 22.816a.917.917 0 0 1-.917-.917.985.985 0 0 1 .016-.167v-.108a.919.919 0 0 1-.009-.128v-.046a.917.917 0 0 1 1.833-.049 1.05 1.05 0 0 1 .009.141c0 .139 0 .266-.012.393a1.183 1.183 0 0 1-.022.138.917.917 0 0 1-.898.743z"></path><path data-name="Path 5424" d="M10.345 22.816a.917.917 0 0 1-.9-.743 1.142 1.142 0 0 1-.025-.219 2.993 2.993 0 0 1-.009-.312.858.858 0 0 1 .008-.117.965.965 0 0 1 .014-.13.917.917 0 0 1 1.82.156v.028a1.028 1.028 0 0 1-.009.132v.123a1 1 0 0 1 .016.166.917.917 0 0 1-.917.917zm-.884-1.64z"></path><path data-name="Path 5425" d="M15.827 11a.917.917 0 0 1-.87-.627l-.917-2.75a.917.917 0 0 1 1.739-.58l.917 2.75a.917.917 0 0 1-.87 1.207z"></path><path data-name="Path 5426" d="M28.66 11.001a.918.918 0 0 1-.87-1.207l.917-2.75a.917.917 0 1 1 1.739.58l-.917 2.75a.917.917 0 0 1-.869.627z"></path><path data-name="Path 5427" d="M22.244 10.899a.917.917 0 0 1-.917-.917V5.5a.917.917 0 1 1 1.833 0v4.483a.917.917 0 0 1-.916.916z"></path><path data-name="Path 5428" d="M18.577 55a.917.917 0 0 1-.917-.917v-6.574a2.732 2.732 0 0 1 .806-1.945l3.13-3.129a.92.92 0 0 1 1.3 1.3l-3.13 3.13a.911.911 0 0 0-.269.648v6.571a.917.917 0 0 1-.92.916z"></path><path data-name="Path 5429" d="M22.244 48.584a1.285 1.285 0 0 1-.183-.018.6.6 0 0 1-.165-.055.711.711 0 0 1-.165-.083 1.368 1.368 0 0 1-.137-.11.963.963 0 0 1-.266-.651 1.347 1.347 0 0 1 .018-.183.58.58 0 0 1 .055-.165.712.712 0 0 1 .083-.165l.11-.137.137-.11a.692.692 0 0 1 .165-.083.579.579 0 0 1 .165-.055.879.879 0 0 1 .532.055.95.95 0 0 1 .3.193l.11.138a.692.692 0 0 1 .083.165.593.593 0 0 1 .055.165 1.4 1.4 0 0 1 .018.184 1.161 1.161 0 0 1-.018.174.568.568 0 0 1-.055.174.7.7 0 0 1-.083.165l-.11.138a.957.957 0 0 1-.3.192.924.924 0 0 1-.349.072z"></path><path data-name="Path 5430" d="M22.243 52.25a1.289 1.289 0 0 1-.183-.018.6.6 0 0 1-.165-.055.713.713 0 0 1-.165-.083 1.384 1.384 0 0 1-.137-.11 1.06 1.06 0 0 1-.193-.3.869.869 0 0 1 0-.7 1.056 1.056 0 0 1 .193-.3.954.954 0 0 1 1-.193.861.861 0 0 1 .3.193 1.066 1.066 0 0 1 .192.3.913.913 0 0 1 .073.349.879.879 0 0 1-.568.843.774.774 0 0 1-.347.074z"></path><path data-name="Path 5952" d="M19.659 30.484l.961.852h3.758l.906-.852" fill="none" stroke="#000" stroke-linecap="round" stroke-linejoin="round" stroke-width="2"></path></svg><svg viewBox="0 0 372.96 372.96" width="372.96" height="372.96" id="clock" y="3933"><path d="M186.48 0C83.49 0 0 83.49 0 186.48s83.49 186.48 186.48 186.48 186.48-83.49 186.48-186.48C372.828 83.545 289.415.132 186.48 0zm8 356.56v-32.8a8 8 0 0 0-16 0v32.8C90.759 352.372 20.588 282.201 16.4 194.48h32.8a8 8 0 0 0 0-16H16.4C20.588 90.759 90.759 20.588 178.48 16.4v32.8a8 8 0 0 0 16 0V16.4c87.721 4.188 157.892 74.359 162.08 162.08h-32.8a8 8 0 0 0 0 16h32.88c-4.191 87.75-74.408 157.932-162.16 162.08z"></path><path d="M270.88 260.88l-76.4-77.68v-80.72a8 8 0 0 0-16 0v84a8 8 0 0 0 2.32 5.6l78.64 80a8.005 8.005 0 1 0 11.44-11.2z"></path></svg><svg width="20.789" height="20.789" viewBox="0 0 20.789 20.789" id="close" y="4306"><path data-name="Union 143" d="M18.095 20.294l-7.7-7.7-7.7 7.7a1.556 1.556 0 0 1-2.2-2.2l7.7-7.7-7.7-7.7a1.556 1.556 0 0 1 2.2-2.2l7.7 7.7 7.7-7.7a1.556 1.556 0 0 1 2.2 2.2l-7.7 7.7 7.7 7.7a1.472 1.472 0 0 1 0 2.2 1.471 1.471 0 0 1-2.2 0z"></path></svg><svg viewBox="0 0 21.9 21.9" width="21.9" height="21.9" id="close-fat" y="4327"><path d="M14.1 11.3c-.2-.2-.2-.5 0-.7l7.5-7.5c.2-.2.3-.5.3-.7s-.1-.5-.3-.7L20.2.3c-.2-.2-.5-.3-.7-.3-.3 0-.5.1-.7.3l-7.5 7.5c-.2.2-.5.2-.7 0L3.1.3C2.9.1 2.6 0 2.4 0s-.5.1-.7.3L.3 1.7c-.2.2-.3.5-.3.7s.1.5.3.7l7.5 7.5c.2.2.2.5 0 .7L.3 18.8c-.2.2-.3.5-.3.7s.1.5.3.7l1.4 1.4c.2.2.5.3.7.3s.5-.1.7-.3l7.5-7.5c.2-.2.5-.2.7 0l7.5 7.5c.2.2.5.3.7.3s.5-.1.7-.3l1.4-1.4c.2-.2.3-.5.3-.7s-.1-.5-.3-.7l-7.5-7.5z"></path></svg><svg width="50" height="34.087" viewBox="0 0 50 34.087" id="delivery-truck" y="4349"><path d="M40.878 24.924a4.617 4.617 0 0 0-3.258 1.344 4.524 4.524 0 0 0 0 6.475 4.635 4.635 0 0 0 3.258 1.344 4.582 4.582 0 0 0 0-9.163zm0 7.127a2.546 2.546 0 1 1 0-5.091 2.546 2.546 0 0 1 0 5.091zm1.181-22.389a.989.989 0 0 0-.682-.265h-5.223a1.021 1.021 0 0 0-1.018 1.018v8.349a1.021 1.021 0 0 0 1.018 1.018h8.288a1.021 1.021 0 0 0 1.018-1.018v-5.59a1.018 1.018 0 0 0-.336-.753zm1.364 8.084h-6.251v-6.323h3.808l2.443 2.2zm-27.408 7.178a4.617 4.617 0 0 0-3.258 1.344 4.524 4.524 0 0 0 0 6.475 4.635 4.635 0 0 0 3.258 1.344 4.582 4.582 0 0 0 0-9.163zm0 7.127a2.546 2.546 0 1 1 0-5.091 2.546 2.546 0 0 1 0 5.091zm-6.791-5.875H7.178v-2.708a1.018 1.018 0 1 0-2.036 0v3.722a1.021 1.021 0 0 0 1.018 1.018h3.064a1.018 1.018 0 0 0 0-2.036zm5.162-5.549a1.021 1.021 0 0 0-1.018-1.018H1.018a1.018 1.018 0 0 0 0 2.036h12.35a1.015 1.015 0 0 0 1.018-1.018zm-11.3-3.676l12.35.071a1.028 1.028 0 0 0 1.028-1.008 1.008 1.008 0 0 0-1.008-1.028l-12.35-.071H3.1a1.018 1.018 0 0 0-.01 2.036zm2.077-4.622h12.35a1.018 1.018 0 0 0 0-2.036H5.162a1.018 1.018 0 0 0 0 2.036zm44.461-1.375l-7.29-6.038a1 1 0 0 0-.652-.234h-8.573V1.017a1.021 1.021 0 0 0-1.018-1.018H6.16a1.021 1.021 0 0 0-1.018 1.018V8.47a1.018 1.018 0 1 0 2.036 0V2.035h23.905v24.14h-8.348a1.018 1.018 0 0 0 0 2.036h12.431a1.018 1.018 0 1 0 0-2.036H33.12V6.72h8.206l6.638 5.5-.071 13.938h-1.059a1.018 1.018 0 1 0 0 2.036H48.9a1.012 1.012 0 0 0 1.018-1.008L50 11.749a1.075 1.075 0 0 0-.377-.794z"></path></svg><svg viewBox="0 0 471.2 471.2" width="471.2" height="471.2" id="download" y="4384"><path d="M457.7 230.15c-7.5 0-13.5 6-13.5 13.5v122.8c0 33.4-27.2 60.5-60.5 60.5H87.5c-33.4 0-60.5-27.2-60.5-60.5v-124.8c0-7.5-6-13.5-13.5-13.5s-13.5 6-13.5 13.5v124.8c0 48.3 39.3 87.5 87.5 87.5h296.2c48.3 0 87.5-39.3 87.5-87.5v-122.8c0-7.4-6-13.5-13.5-13.5z"></path><path d="M226.1 346.75c2.6 2.6 6.1 4 9.5 4s6.9-1.3 9.5-4l85.8-85.8c5.3-5.3 5.3-13.8 0-19.1-5.3-5.3-13.8-5.3-19.1 0l-62.7 62.8V30.75c0-7.5-6-13.5-13.5-13.5s-13.5 6-13.5 13.5v273.9l-62.8-62.8c-5.3-5.3-13.8-5.3-19.1 0-5.3 5.3-5.3 13.8 0 19.1l85.9 85.8z"></path></svg><svg width="20" height="20.002" viewBox="0 0 20 20.002" id="edit" y="4856"><path d="M10.3 5.945L2.7 13.55a2.071 2.071 0 0 0-.7 1.318V18h3.064a2.076 2.076 0 0 0 1.431-.743L14.057 9.7zm1.414-1.414l3.754 3.754 2.394-2.394a.462.462 0 0 0 0-.653l-3.1-3.1a.456.456 0 0 0-.648 0zM14.437 0a2.454 2.454 0 0 1 1.741.723l3.1 3.1a2.462 2.462 0 0 1 0 3.482L7.958 18.624A4.049 4.049 0 0 1 5.135 20H0v-5.215a4.047 4.047 0 0 1 1.323-2.694L12.7.725A2.456 2.456 0 0 1 14.437 0z" fill-rule="evenodd"></path></svg><svg width="19.999" height="20.001" viewBox="0 0 19.999 20.001" id="exit" y="4877"><path data-name="Union 125" d="M1.999 20a2 2 0 0 1-2-2V2a2 2 0 0 1 2-2h4v2h-4v16h4v2zm10.878-5.707l3.293-3.294H5.585v-2H16.17l-3.293-3.293 1.413-1.414L19.999 10l-5.708 5.708z"></path></svg><svg viewBox="0 0 59 59" width="59" height="59" id="garbage" y="4898"><path d="M29.5 51a1 1 0 0 0 1-1V17a1 1 0 1 0-2 0v33a1 1 0 0 0 1 1zm-10 0a1 1 0 0 0 1-1V17a1 1 0 1 0-2 0v33a1 1 0 0 0 1 1zm20 0a1 1 0 0 0 1-1V17a1 1 0 1 0-2 0v33a1 1 0 0 0 1 1z"></path><path d="M52.5 6H38.456c-.11-1.25-.495-3.358-1.813-4.711C35.809.434 34.751 0 33.499 0H23.5c-1.252 0-2.31.434-3.144 1.289C19.038 2.642 18.653 4.75 18.543 6H6.5a1 1 0 1 0 0 2h2.041l1.915 46.021C10.493 55.743 11.565 59 15.364 59h28.272c3.799 0 4.871-3.257 4.907-4.958L50.459 8H52.5a1 1 0 1 0 0-2zM21.792 2.681C22.24 2.223 22.799 2 23.5 2h9.999c.701 0 1.26.223 1.708.681.805.823 1.128 2.271 1.24 3.319H20.553c.112-1.048.435-2.496 1.239-3.319zm24.752 51.298C46.538 54.288 46.4 57 43.636 57H15.364c-2.734 0-2.898-2.717-2.909-3.042L10.542 8h37.915l-1.913 45.979z"></path></svg><svg width="44" height="38.609" viewBox="0 0 44 38.609" id="gift" y="4957"><g data-name="gift (1)"><path data-name="Path 5968" d="M43.9 27.573a2.915 2.915 0 0 0-2.379-2.111V8.742h1.457a.729.729 0 0 0 .728-.728V.729a.728.728 0 0 0-.727-.73H10.927a.728.728 0 0 0-.727.73v7.285a.729.729 0 0 0 .728.728h1.457v14.569h-.728a9.381 9.381 0 0 0-5.1 1.493v-3.678a.728.728 0 0 0-.728-.728H.728a.728.728 0 0 0-.728.728v16.755a.729.729 0 0 0 .728.728h5.1a.729.729 0 0 0 .728-.728v-3.682a9.39 9.39 0 0 0 5.1 1.492h11.961a9.593 9.593 0 0 0 2.454-.324l15.772-4.225a2.925 2.925 0 0 0 2.057-3.569zM11.655 1.457h30.6v5.828h-30.6zm2.185 7.285h26.226v16.845l-8.455 2.267a2.928 2.928 0 0 0-1.927-1.692l-9.815-2.633a6.621 6.621 0 0 0-1.693-.218h-4.335zM5.1 37.152H1.457v-15.3H5.1zm36.365-7.413L25.7 33.964a8.108 8.108 0 0 1-2.079.274H11.655a7.958 7.958 0 0 1-4.808-1.6l-.291-.218v-5.831l.291-.219a7.953 7.953 0 0 1 4.808-1.6h6.52a5.149 5.149 0 0 1 1.319.171l9.812 2.63a1.469 1.469 0 0 1 1.07 1.255.712.712 0 0 0 .029.088.718.718 0 0 0-.019.1 1.241 1.241 0 0 1-.048.35 1.457 1.457 0 0 1-1.4 1.077 1.437 1.437 0 0 1-.38-.048l-6.192-1.66a.729.729 0 1 0-.377 1.407l6.189 1.659a2.963 2.963 0 0 0 .758.1 2.909 2.909 0 0 0 2.8-2.14 2.61 2.61 0 0 0 .083-.446l8.881-2.389a2.35 2.35 0 0 1 .2-.043 1.457 1.457 0 0 1 1.595 1.071 1.423 1.423 0 0 1 .048.377 1.457 1.457 0 0 1-1.077 1.409zm0 0"></path><path data-name="Path 5969" d="M23.31 11.656h7.285a.729.729 0 0 0 0-1.457H23.31a.729.729 0 1 0 0 1.457zm0 0"></path></g></svg><svg viewBox="0 0 471.701 471.701" width="471.701" height="471.701" id="heart" y="4996"><path d="M433.601 67.001c-24.7-24.7-57.4-38.2-92.3-38.2s-67.7 13.6-92.4 38.3l-12.9 12.9-13.1-13.1c-24.7-24.7-57.6-38.4-92.5-38.4-34.8 0-67.6 13.6-92.2 38.2-24.7 24.7-38.3 57.5-38.2 92.4 0 34.9 13.7 67.6 38.4 92.3l187.8 187.8c2.6 2.6 6.1 4 9.5 4 3.4 0 6.9-1.3 9.5-3.9l188.2-187.5c24.7-24.7 38.3-57.5 38.3-92.4.1-34.9-13.4-67.7-38.1-92.4zm-19.2 165.7l-178.7 178-178.3-178.3c-19.6-19.6-30.4-45.6-30.4-73.3s10.7-53.7 30.3-73.2c19.5-19.5 45.5-30.3 73.1-30.3 27.7 0 53.8 10.8 73.4 30.4l22.6 22.6c5.3 5.3 13.8 5.3 19.1 0l22.4-22.4c19.6-19.6 45.7-30.4 73.3-30.4 27.6 0 53.6 10.8 73.2 30.3 19.6 19.6 30.3 45.6 30.3 73.3.1 27.7-10.7 53.7-30.3 73.3z"></path></svg><svg width="50" height="50" viewBox="0 0 50 50" id="heart-color" y="5468"><path data-name="Path 5451" d="M49.167 25A24.167 24.167 0 0 1 25 49.166a14.421 14.421 0 0 1-2.083-.1 24.167 24.167 0 0 1 0-48.133A14.42 14.42 0 0 1 25 .833 24.167 24.167 0 0 1 49.167 25z" fill="#f4f4f4"></path><path data-name="Path 5452" d="M45 25a24.166 24.166 0 0 1-22.083 24.058 24.167 24.167 0 0 1 0-48.133A24.167 24.167 0 0 1 45 25z" fill="#fff"></path><path data-name="Path 5453" d="M40 21.667a7.246 7.246 0 0 1-.608 2.917l-.225.417-13.525 14.667a.883.883 0 0 1-1.248.035l-.035-.035-1.025-1.117-12.5-13.55-.25-.417a7.342 7.342 0 0 1 1.667-8.217 7.514 7.514 0 0 1 2.45-1.608 8.026 8.026 0 0 1 1.333-.417 7.944 7.944 0 0 1 4.667.417 7.518 7.518 0 0 1 2.45 1.608l.167.175a9.671 9.671 0 0 1 1.667 2.567 9.417 9.417 0 0 1 1.833-2.742 7.514 7.514 0 0 1 2.45-1.608 7.849 7.849 0 0 1 3-.592 7.768 7.768 0 0 1 3 .592 7.518 7.518 0 0 1 2.45 1.608 7.358 7.358 0 0 1 2.282 5.3z" fill="#b71c1c"></path><path data-name="Path 5454" d="M36.669 21.666a7.246 7.246 0 0 1-.608 2.917l-.225.417-12.5 13.55L10.836 25l-.25-.417a7.342 7.342 0 0 1 1.667-8.217 7.514 7.514 0 0 1 2.45-1.608 8.026 8.026 0 0 1 1.333-.417 7.776 7.776 0 0 1 1.333.417 11.239 11.239 0 0 1 2.45 1.608 35.073 35.073 0 0 1 3.517 3.633c1.008.142 1.317-.067 1.667-.892.65.692-.35-.833 0 0a9.418 9.418 0 0 1 1.833-2.742 7.514 7.514 0 0 1 2.45-1.608 7.867 7.867 0 0 1 1.342-.417 7.907 7.907 0 0 1 1.325.417 7.517 7.517 0 0 1 2.45 1.608 7.358 7.358 0 0 1 2.266 5.301z" fill="#d50000"></path><path data-name="Path 5455" d="M25 50a25 25 0 1 1 25-25 25 25 0 0 1-25 25zm0-48.333A23.333 23.333 0 1 0 48.333 25 23.333 23.333 0 0 0 25 1.667z"></path><path data-name="Path 5456" d="M25 40.775a1.669 1.669 0 0 1-1.25-.55L10.242 25.558a.8.8 0 0 1-.1-.142l-.25-.417-.042-.092a8.183 8.183 0 0 1 1.842-9.167 8.338 8.338 0 0 1 2.717-1.775 8.786 8.786 0 0 1 6.667 0 8.332 8.332 0 0 1 2.717 1.783 8.726 8.726 0 0 1 1.25 1.583 8.825 8.825 0 0 1 1.258-1.592 8.338 8.338 0 0 1 2.717-1.775 8.786 8.786 0 0 1 6.667 0 8.332 8.332 0 0 1 2.65 1.8 8.2 8.2 0 0 1 1.833 9.15l-.042.092-.25.417a.8.8 0 0 1-.1.142L26.25 40.22a1.669 1.669 0 0 1-1.25.555zM11.525 24.491L25 39.1l13.5-14.608.175-.3a6.479 6.479 0 0 0-1.467-7.233A6.653 6.653 0 0 0 35 15.526a7.089 7.089 0 0 0-5.367 0 6.659 6.659 0 0 0-2.192 1.433 8.527 8.527 0 0 0-1.667 2.5.833.833 0 0 1-1.533 0 8.525 8.525 0 0 0-1.667-2.5 6.671 6.671 0 0 0-2.183-1.433 7.081 7.081 0 0 0-5.367 0 6.659 6.659 0 0 0-2.192 1.433 6.463 6.463 0 0 0-1.475 7.242z"></path></svg><svg viewBox="0 0 486.196 486.196" width="486.196" height="486.196" id="house" y="5518"><path d="M481.708 220.456l-228.8-204.6c-.4-.4-.8-.7-1.3-1-5-4.8-13-5-18.3-.3l-228.8 204.6c-5.6 5-6 13.5-1.1 19.1 2.7 3 6.4 4.5 10.1 4.5 3.2 0 6.4-1.1 9-3.4l41.2-36.9v238.6c0 18.7 15.2 34 34 34h72.2c17.6 0 31.9-14.3 31.9-31.9v-121.3c0-2.7 2.2-4.9 4.9-4.9h72.9c2.7 0 4.9 2.2 4.9 4.9v121.3c0 17.6 14.3 31.9 31.9 31.9h72.2c19 0 34-18.7 34-42.6v-228.7l41.2 36.9c2.6 2.3 5.8 3.4 9 3.4 3.7 0 7.4-1.5 10.1-4.5 4.8-5.6 4.3-14.1-1.2-19.1zm-86.2 66.7v145.1c0 9.7-4.8 15.6-7 15.6h-72.2c-2.7 0-4.9-2.2-4.9-4.9v-121.1c0-17.6-14.3-31.9-31.9-31.9h-72.9c-17.6 0-31.9 14.3-31.9 31.9v121.3c0 2.7-2.2 4.9-4.9 4.9h-72.2c-3.8 0-7-3.1-7-7v-262.8l151.8-135.6 153.1 136.9v107.6z"></path></svg><svg viewBox="0 0 330 330" width="330" height="330" id="info" y="6005"><path d="M165 0C74.019 0 0 74.02 0 165.001 0 255.982 74.019 330 165 330s165-74.018 165-164.999S255.981 0 165 0zm0 300c-74.44 0-135-60.56-135-134.999S90.56 30 165 30s135 60.562 135 135.001C300 239.44 239.439 300 165 300z"></path><path d="M164.998 70c-11.026 0-19.996 8.976-19.996 20.009 0 11.023 8.97 19.991 19.996 19.991 11.026 0 19.996-8.968 19.996-19.991 0-11.033-8.97-20.009-19.996-20.009zm.002 70c-8.284 0-15 6.716-15 15v90c0 8.284 6.716 15 15 15 8.284 0 15-6.716 15-15v-90c0-8.284-6.716-15-15-15z"></path></svg><svg viewBox="0 0 490.4 490.4" width="490.4" height="490.4" id="interface" y="6335"><path d="M245.2 490.4c135.2 0 245.2-110 245.2-245.2S380.4 0 245.2 0 0 110 0 245.2s110 245.2 245.2 245.2zm0-465.9c121.7 0 220.7 99 220.7 220.7s-99 220.7-220.7 220.7-220.7-99-220.7-220.7 99-220.7 220.7-220.7z"></path><path d="M206.5 349.6c2.3 2.3 5.4 3.6 8.7 3.6 3.2 0 6.3-1.3 8.6-3.6l147.5-146.7c2.3-2.3 3.6-5.4 3.6-8.7 0-3.2-1.3-6.4-3.6-8.7l-44.6-44.8c-4.8-4.8-12.5-4.8-17.3-.1l-94 93.5-34.2-34.4c-2.3-2.3-5.4-3.6-8.7-3.6-3.2 0-6.3 1.3-8.6 3.6l-44.8 44.6c-2.3 2.3-3.6 5.4-3.6 8.7 0 3.2 1.3 6.4 3.6 8.7l87.4 87.9zm-34-123.9l34.3 34.5c4.8 4.8 12.5 4.8 17.3.1l94-93.5 27.3 27.4-130.1 129.4-70.2-70.6 27.4-27.3z"></path></svg><svg width="96" height="95.428" viewBox="0 0 96 95.428" id="like" y="6826"><path data-name="Path 83" d="M93.4 51.227a10.194 10.194 0 0 0-7.6-17H66A65.927 65.927 0 0 0 68.8 17v-3.4A13.617 13.617 0 0 0 55.2 0h-3.4a3.4 3.4 0 0 0-3.3 2.575l-1.852 7.41c-2.6 10.377-10.835 21.826-19.362 23.907a10.214 10.214 0 0 0-9.488-6.465H3.4a3.4 3.4 0 0 0-3.4 3.4v61.2a3.4 3.4 0 0 0 3.4 3.4h14.4a10.211 10.211 0 0 0 9.207-5.814l11.682 3.894a37.318 37.318 0 0 0 11.828 1.92H79a10.2 10.2 0 0 0 9.484-13.958 10.194 10.194 0 0 0 4.912-16.642 10.18 10.18 0 0 0 0-13.6zm-72.2 34a3.4 3.4 0 0 1-3.4 3.4h-11v-54.4h11a3.4 3.4 0 0 1 3.4 3.4zm57.8-30.6h6.8a3.4 3.4 0 1 1 0 6.8H79a3.4 3.4 0 0 0 0 6.8h6.8a3.4 3.4 0 1 1 0 6.8H79a3.4 3.4 0 1 0 0 6.8 3.4 3.4 0 0 1 0 6.8H50.517a30.534 30.534 0 0 1-9.679-1.571L28 82.777V40.705c5.333-1.013 10.554-4.391 15.266-9.919a49.611 49.611 0 0 0 9.98-19.151L54.454 6.8h.746a6.808 6.808 0 0 1 6.8 6.8V17c0 4.565-1.428 13.321-3.255 17.229H51.8a3.4 3.4 0 0 0 0 6.8h34a3.4 3.4 0 1 1 0 6.8H79a3.4 3.4 0 0 0 0 6.8z"></path></svg><svg width="18" height="22.328" viewBox="0 0 18 22.328" id="location" y="6922"><path d="M9.658 21.753L9 22.328l-.658-.574C2.811 16.924 0 12.707 0 9a8.867 8.867 0 0 1 9-9 9.111 9.111 0 0 1 7.367 3.733A8.786 8.786 0 0 1 18 9c0 3.707-2.811 7.924-8.342 12.753zM2 9c0 2.849 2.307 6.434 7 10.663 4.693-4.23 7-7.814 7-10.663a6.871 6.871 0 0 0-7-7 6.871 6.871 0 0 0-7 7zm7-5a5 5 0 1 1-5 5 5 5 0 0 1 5-5zm0 2a3 3 0 1 0 3 3 3 3 0 0 0-3-3z" fill-rule="evenodd"></path></svg><svg width="19" height="33" viewBox="0 0 19 33" id="login" y="6945"><path class="cls-1" d="M16.71 28.7h-5.16v-1.641h3.3a2.151 2.151 0 1 0 0-4.293h-3.29v-5.7a9.374 9.374 0 0 0 4.25-2.272 8.273 8.273 0 0 0 .01-12.255 9.721 9.721 0 0 0-13.1 0 8.272 8.272 0 0 0-.01 12.255 9.4 9.4 0 0 0 4.26 2.27L6.96 30.85a2.064 2.064 0 0 0 .68 1.518 2.111 2.111 0 0 0 .33.262 2.422 2.422 0 0 0 1.29.366h7.45a2.151 2.151 0 1 0 0-4.296zM5.96 11.76a4.174 4.174 0 0 1 0-6.184 4.905 4.905 0 0 1 6.61 0 4.174 4.174 0 0 1 0 6.184 4.9 4.9 0 0 1-6.61 0z"></path></svg><svg viewBox="0 0 451 451" width="451" height="451" id="magnifying-glass" y="6978"><path d="M447.05 428l-109.6-109.6c29.4-33.8 47.2-77.9 47.2-126.1C384.65 86.2 298.35 0 192.35 0 86.25 0 .05 86.3.05 192.3s86.3 192.3 192.3 192.3c48.2 0 92.3-17.8 126.1-47.2L428.05 447c2.6 2.6 6.1 4 9.5 4s6.9-1.3 9.5-4c5.2-5.2 5.2-13.8 0-19zM26.95 192.3c0-91.2 74.2-165.3 165.3-165.3 91.2 0 165.3 74.2 165.3 165.3s-74.1 165.4-165.3 165.4c-91.1 0-165.3-74.2-165.3-165.4z"></path></svg><svg viewBox="0 0 483.3 483.3" width="483.3" height="483.3" id="mail" y="7429"><path d="M424.3 57.75H59.1c-32.6 0-59.1 26.5-59.1 59.1v249.6c0 32.6 26.5 59.1 59.1 59.1h365.1c32.6 0 59.1-26.5 59.1-59.1v-249.5c.1-32.6-26.4-59.2-59-59.2zm32.1 308.7c0 17.7-14.4 32.1-32.1 32.1H59.1c-17.7 0-32.1-14.4-32.1-32.1v-249.5c0-17.7 14.4-32.1 32.1-32.1h365.1c17.7 0 32.1 14.4 32.1 32.1v249.5h.1z"></path><path d="M304.8 238.55l118.2-106c5.5-5 6-13.5 1-19.1-5-5.5-13.5-6-19.1-1l-163 146.3-31.8-28.4c-.1-.1-.2-.2-.2-.3-.7-.7-1.4-1.3-2.2-1.9L78.3 112.35c-5.6-5-14.1-4.5-19.1 1.1-5 5.6-4.5 14.1 1.1 19.1l119.6 106.9-119.1 111.5c-5.4 5.1-5.7 13.6-.6 19.1 2.7 2.8 6.3 4.3 9.9 4.3 3.3 0 6.6-1.2 9.2-3.6l120.9-113.1 32.8 29.3c2.6 2.3 5.8 3.4 9 3.4s6.5-1.2 9-3.5l33.7-30.2 120.2 114.2c2.6 2.5 6 3.7 9.3 3.7 3.6 0 7.1-1.4 9.8-4.2 5.1-5.4 4.9-14-.5-19.1l-118.7-112.7z"></path></svg><svg width="459" height="459" viewBox="0 0 459 459" id="menu" y="7913"><path d="M0 382.5h459v-51H0v51zM0 255h459v-51H0v51zM0 76.5v51h459v-51H0z"></path></svg><svg width="16" height="2" viewBox="0 0 16 2" id="minus" y="8372"><defs><path id="a" d="M1130 1198v-2h16v2z"></path></defs><use xlink:href="#a" transform="translate(-1130 -1196)"></use></svg><svg viewBox="0 0 473.806 473.806" width="473.806" height="473.806" id="phone-call" y="8374"><path d="M374.456 293.506c-9.7-10.1-21.4-15.5-33.8-15.5-12.3 0-24.1 5.3-34.2 15.4l-31.6 31.5c-2.6-1.4-5.2-2.7-7.7-4-3.6-1.8-7-3.5-9.9-5.3-29.6-18.8-56.5-43.3-82.3-75-12.5-15.8-20.9-29.1-27-42.6 8.2-7.5 15.8-15.3 23.2-22.8 2.8-2.8 5.6-5.7 8.4-8.5 21-21 21-48.2 0-69.2l-27.3-27.3c-3.1-3.1-6.3-6.3-9.3-9.5-6-6.2-12.3-12.6-18.8-18.6-9.7-9.6-21.3-14.7-33.5-14.7s-24 5.1-34 14.7l-.2.2-34 34.3c-12.8 12.8-20.1 28.4-21.7 46.5-2.4 29.2 6.2 56.4 12.8 74.2 16.2 43.7 40.4 84.2 76.5 127.6 43.8 52.3 96.5 93.6 156.7 122.7 23 10.9 53.7 23.8 88 26 2.1.1 4.3.2 6.3.2 23.1 0 42.5-8.3 57.7-24.8.1-.2.3-.3.4-.5 5.2-6.3 11.2-12 17.5-18.1 4.3-4.1 8.7-8.4 13-12.9 9.9-10.3 15.1-22.3 15.1-34.6 0-12.4-5.3-24.3-15.4-34.3l-54.9-55.1zm35.8 105.3c-.1 0-.1.1 0 0-3.9 4.2-7.9 8-12.2 12.2-6.5 6.2-13.1 12.7-19.3 20-10.1 10.8-22 15.9-37.6 15.9-1.5 0-3.1 0-4.6-.1-29.7-1.9-57.3-13.5-78-23.4-56.6-27.4-106.3-66.3-147.6-115.6-34.1-41.1-56.9-79.1-72-119.9-9.3-24.9-12.7-44.3-11.2-62.6 1-11.7 5.5-21.4 13.8-29.7l34.1-34.1c4.9-4.6 10.1-7.1 15.2-7.1 6.3 0 11.4 3.8 14.6 7l.3.3c6.1 5.7 11.9 11.6 18 17.9 3.1 3.2 6.3 6.4 9.5 9.7l27.3 27.3c10.6 10.6 10.6 20.4 0 31-2.9 2.9-5.7 5.8-8.6 8.6-8.4 8.6-16.4 16.6-25.1 24.4-.2.2-.4.3-.5.5-8.6 8.6-7 17-5.2 22.7l.3.9c7.1 17.2 17.1 33.4 32.3 52.7l.1.1c27.6 34 56.7 60.5 88.8 80.8 4.1 2.6 8.3 4.7 12.3 6.7 3.6 1.8 7 3.5 9.9 5.3.4.2.8.5 1.2.7 3.4 1.7 6.6 2.5 9.9 2.5 8.3 0 13.5-5.2 15.2-6.9l34.2-34.2c3.4-3.4 8.8-7.5 15.1-7.5 6.2 0 11.3 3.9 14.4 7.3l.2.2 55.1 55.1c10.3 10.2 10.3 20.7.1 31.3zm-154.2-286.1c26.2 4.4 50 16.8 69 35.8s31.3 42.8 35.8 69c1.1 6.6 6.8 11.2 13.3 11.2.8 0 1.5-.1 2.3-.2 7.4-1.2 12.3-8.2 11.1-15.6-5.4-31.7-20.4-60.6-43.3-83.5s-51.8-37.9-83.5-43.3c-7.4-1.2-14.3 3.7-15.6 11s3.5 14.4 10.9 15.6zm217.2 96.3c-8.9-52.2-33.5-99.7-71.3-137.5s-85.3-62.4-137.5-71.3c-7.3-1.3-14.2 3.7-15.5 11-1.2 7.4 3.7 14.3 11.1 15.6 46.6 7.9 89.1 30 122.9 63.7 33.8 33.8 55.8 76.3 63.7 122.9 1.1 6.6 6.8 11.2 13.3 11.2.8 0 1.5-.1 2.3-.2 7.3-1.1 12.3-8.1 11-15.4z"></path></svg><svg width="48.639" height="50" viewBox="0 0 48.639 50" id="pizza--color" y="8848"><g data-name="Group 1728" fill="#d84315"><path data-name="Path 5373" d="M13.935 32.502a5.827 5.827 0 0 1-4.6 5.7 5.431 5.431 0 0 1-1.233.133 5.764 5.764 0 0 1-3.2-.958l3.867-8.95.692-1.592a5.827 5.827 0 0 1 4.474 5.667z"></path><path data-name="Path 5374" d="M23.043 22.054a6.669 6.669 0 0 1-10.725-1.833v-.008l3.692-8.533.292-.683h.008a6.661 6.661 0 0 1 6.733 11.058z"></path></g><g data-name="Group 1729" fill="#ff5722"><path data-name="Path 5375" d="M11.735 33.493a5.78 5.78 0 0 1-2.4 4.708 5.431 5.431 0 0 1-1.233.133 5.764 5.764 0 0 1-3.2-.958l3.867-8.95a5.8 5.8 0 0 1 2.966 5.067z"></path><path data-name="Path 5376" d="M20.844 23.042a6.107 6.107 0 0 1-.917.767 6.672 6.672 0 0 1-7.608-3.592v-.008l3.692-8.533a6.706 6.706 0 0 1 5 11.3.168.168 0 0 1-.167.066z"></path></g><path data-name="Path 5377" d="M8.103 39.168a6.607 6.607 0 0 1-3.662-1.1.833.833 0 0 1-.3-1.025L8.7 26.501a.831.831 0 0 1 .957-.48 6.663 6.663 0 0 1-1.55 13.143zm-2.139-2.146a5 5 0 1 0 4.281-9.036 4.433 4.433 0 0 0-.314-.136z"></path><path data-name="Path 5378" d="M18.334 24.841a7.521 7.521 0 0 1-6.768-4.266.828.828 0 0 1-.081-.358.877.877 0 0 1 .068-.339l3.983-9.217a.834.834 0 0 1 .574-.481 7.5 7.5 0 1 1 2.227 14.66zm-5.1-4.658a5.858 5.858 0 0 0 5.1 2.991 5.782 5.782 0 0 0 4.115-1.712 5.829 5.829 0 0 0-5.541-9.777z"></path><path data-name="Path 5379" d="M36.002 12.618c-5.017-5.017-11.408-7.558-17.2-7.4l-2.491 5.775a6.657 6.657 0 1 1-3.992 9.224l-2.808 6.508-.05.108a5.83 5.83 0 0 1-1.358 11.5 5.764 5.764 0 0 1-3.2-.958L4.42 38.5.903 46.642a.838.838 0 0 0 1.1 1.1l15.8-6.825V47.5a1.669 1.669 0 0 0 1.674 1.665 1.69 1.69 0 0 0 .276-.023 1.727 1.727 0 0 0 1.383-1.742v-4.025a1.667 1.667 0 0 0 3.333-.042v-5.3l8.333-3.6V40a1.669 1.669 0 0 0 1.674 1.665 1.69 1.69 0 0 0 .276-.023 1.727 1.727 0 0 0 1.383-1.742v-4.025a1.667 1.667 0 0 0 3.333-.042v-4.274l3.943-1.71c.158-5.8-2.384-12.206-7.409-17.231zm-11.433 19.15a2.5 2.5 0 1 1 0-3.533 2.5 2.5 0 0 1 0 3.533zm11.3-5.367a3.742 3.742 0 1 1 .008-.008z" fill="#ffeb3a"></path><path data-name="Path 5380" d="M19.469 50a2.5 2.5 0 0 1-2.5-2.5v-5.314L2.332 48.508a1.683 1.683 0 0 1-1.315 0 1.671 1.671 0 0 1-.882-2.194l4-9.268a.834.834 0 0 1 1.227-.365 4.911 4.911 0 0 0 2.723.819h.017a5 5 0 0 0 1.164-9.857.833.833 0 0 1-.563-1.16l.05-.108 2.8-6.488a.833.833 0 0 1 .748-.5.842.842 0 0 1 .768.472 5.824 5.824 0 1 0 3.492-8.07.833.833 0 0 1-1.014-1.13l2.492-5.775a.834.834 0 0 1 .742-.5c6.3-.182 12.782 2.614 17.813 7.643s7.827 11.541 7.652 17.847a.836.836 0 0 1-.5.743l-3.439 1.49v3.728a2.488 2.488 0 0 1-2.438 2.5 2.613 2.613 0 0 1-.9-.141v1.708a2.5 2.5 0 0 1-2.5 2.6 2.505 2.505 0 0 1-2.5-2.5v-4.3l-6.67 2.879v4.753a2.485 2.485 0 0 1-2.437 2.5 2.71 2.71 0 0 1-.9-.141v1.708a2.549 2.549 0 0 1-2.041 2.558c-.17.028-.325.029-.452.041zm-1.668-9.915a.833.833 0 0 1 .833.833v6.583a.837.837 0 0 0 .837.832.578.578 0 0 0 .141-.012.887.887 0 0 0 .69-.9v-4.044a.834.834 0 0 1 .822-.833.849.849 0 0 1 .843.813.828.828 0 0 0 .26.583.774.774 0 0 0 .594.228.829.829 0 0 0 .813-.833v-5.3a.832.832 0 0 1 .5-.765l8.333-3.6a.832.832 0 0 1 1.163.765v5.567a.836.836 0 0 0 .837.832.768.768 0 0 0 .139-.013.887.887 0 0 0 .689-.9v-4.044a.833.833 0 0 1 .822-.833h.011a.834.834 0 0 1 .833.813.82.82 0 0 0 .259.583.745.745 0 0 0 .6.228.83.83 0 0 0 .813-.833v-4.276a.833.833 0 0 1 .5-.765l3.446-1.493c-.013-5.613-2.668-11.592-7.17-16.094A23.182 23.182 0 0 0 19.35 6.044l-1.652 3.829a7.491 7.491 0 1 1-5.238 12.126l-1.866 4.325a6.663 6.663 0 0 1-2.486 12.845h-.023a6.565 6.565 0 0 1-2.78-.61l-3.638 8.415 15.8-6.821a.842.842 0 0 1 .334-.068zm5-6.752a3.332 3.332 0 1 1 2.356-.976 3.311 3.311 0 0 1-2.355.976zm0-5a1.665 1.665 0 1 0 1.178.488 1.655 1.655 0 0 0-1.177-.484zm10.417 0a4.58 4.58 0 1 1 3.248-1.35l-.009.008a4.547 4.547 0 0 1-3.236 1.341zm0-7.493a2.912 2.912 0 0 0-2.062 4.973 2.983 2.983 0 0 0 4.122 0 .787.787 0 0 1 .052-.047 2.914 2.914 0 0 0-2.109-4.927z"></path><path data-name="Path 5381" d="M47.611 28.043l-1.725.742-2.475 1.067c.158-5.8-2.383-12.208-7.408-17.233s-11.408-7.558-17.2-7.4l1.075-2.483.733-1.708a24.159 24.159 0 0 1 27 27.017z" fill="#ffb301"></path><path data-name="Path 5382" d="M45.885 28.784l-2.475 1.067c.158-5.8-2.383-12.208-7.408-17.233s-11.408-7.558-17.2-7.4l1.075-2.483a24.144 24.144 0 0 1 26.008 26.05z" fill="#fec108"></path><path data-name="Path 5383" d="M43.41 30.685a.834.834 0 0 1-.833-.833v-.023c.157-5.764-2.521-11.978-7.165-16.621-4.707-4.709-10.772-7.309-16.587-7.157a.811.811 0 0 1-.713-.365.833.833 0 0 1-.075-.8L19.845.699a.833.833 0 0 1 .66-.5 24.993 24.993 0 0 1 27.932 27.95.834.834 0 0 1-.5.66l-4.2 1.808a.846.846 0 0 1-.327.068zM20.066 4.39a25.036 25.036 0 0 1 16.527 7.639 25.083 25.083 0 0 1 7.648 16.559l2.6-1.12A23.326 23.326 0 0 0 21.185 1.799z"></path><g data-name="Group 1730" fill="#c52828"><path data-name="Path 5384" d="M35.868 26.401a3.748 3.748 0 1 1-5.3-5.3c.092-.092.183-.175.283-.258a3.749 3.749 0 0 1 5.017 5.558z"></path><path data-name="Path 5385" d="M24.568 31.768a2.47 2.47 0 0 1-1.575.725 2.516 2.516 0 0 1-1.958-.725 2.486 2.486 0 0 1-.092-3.425.568.568 0 0 1 .092-.108 2.5 2.5 0 0 1 3.533 3.533z"></path></g><g data-name="Group 1731" fill="#f44335"><path data-name="Path 5386" d="M33.368 27.235a4.062 4.062 0 0 1-.283.258 3.686 3.686 0 0 1-2.517-1.092 3.742 3.742 0 0 1-.008-5.292l.008-.008c.092-.092.183-.175.283-.258a3.686 3.686 0 0 1 2.517 1.092 3.742 3.742 0 0 1 .008 5.292z"></path><path data-name="Path 5387" d="M22.993 32.493a2.516 2.516 0 0 1-1.958-.725 2.486 2.486 0 0 1-.092-3.425 2.516 2.516 0 0 1 1.958.725 2.486 2.486 0 0 1 .092 3.425z"></path></g><path data-name="Path 5388" d="M33.219 28.33a4.581 4.581 0 1 1 3.239-1.339 4.581 4.581 0 0 1-3.239 1.339zm0-7.5a2.914 2.914 0 0 0-2.061 4.978 2.979 2.979 0 0 0 4.121 0 2.916 2.916 0 0 0-2.06-4.978z"></path><path data-name="Path 5389" d="M17.802 41.751a.833.833 0 0 1-.833-.833v-.917a.835.835 0 0 0-.833-.833.833.833 0 1 1 0-1.667 2.5 2.5 0 0 1 2.5 2.5v.917a.834.834 0 0 1-.833.833z"></path><path d="M21.135 44.193a.816.816 0 0 1-.833-.8v-.89a.833.833 0 1 1 1.667 0v.833a.851.851 0 0 1-.834.857z"></path><path d="M21.135 44.193a.816.816 0 0 1-.833-.8v-.89a.833.833 0 1 1 1.667 0v.833a.851.851 0 0 1-.834.857z" data-name="Group 1732"></path><path data-name="Path 5390" d="M32.802 35.268a.833.833 0 0 1-.833-.833v-1.933a.835.835 0 0 0-.833-.833.833.833 0 1 1 0-1.667 2.5 2.5 0 0 1 2.5 2.5v1.933a.834.834 0 0 1-.833.833z"></path><path d="M36.137 36.691a.816.816 0 0 1-.833-.8v-.89a.833.833 0 0 1 1.667 0v.833a.852.852 0 0 1-.834.857z"></path><path d="M36.137 36.691a.816.816 0 0 1-.833-.8v-.89a.833.833 0 0 1 1.667 0v.833a.852.852 0 0 1-.834.857z" data-name="Group 1733"></path><path data-name="Path 5391" d="M22.802 33.332a3.33 3.33 0 1 1 2.356-.974 3.33 3.33 0 0 1-2.356.974zm0-5a1.664 1.664 0 1 0 1.178.487 1.665 1.665 0 0 0-1.178-.483z"></path><path data-name="Path 5392" d="M39.469 32.393a.833.833 0 0 1-.831-.83v-1.025a.833.833 0 0 1 1.667 0v1.025a.834.834 0 0 1-.833.833z"></path></svg><svg width="51.58" height="40" viewBox="0 0 51.58 40" id="pizza-arrow-left" y="8898"><path data-name="Path 5457" d="M36.736 14.384a2.715 2.715 0 1 1-2.715-2.715 2.718 2.718 0 0 1 2.715 2.715z"></path><path data-name="Path 5458" d="M39.035 2.431a25.9 25.9 0 0 1 1.666 3.756A41.122 41.122 0 0 1 42.921 20c0 9.495-2.694 15.417-3.884 17.57l-7.181-2.8a5.74 5.74 0 1 0-7.2-2.8L2.204 23.23a3.471 3.471 0 0 1 0-6.465l9.113-3.547a5.734 5.734 0 1 0 3.664-1.326c-.092 0-.184 0-.275.007zM28.283 14.384a5.737 5.737 0 1 0 5.737-5.737 5.744 5.744 0 0 0-5.736 5.737z"></path><path data-name="Path 5459" d="M46.793.634c.2.274 4.786 6.854 4.786 19.366s-4.59 19.092-4.786 19.371a1.511 1.511 0 0 1-1.778.531l-3.138-1.231c1.45-2.735 4.067-9.01 4.067-18.675S43.327 4.06 41.877 1.325L45.015.103a1.511 1.511 0 0 1 1.778.531z"></path><path data-name="Path 5460" d="M17.697 17.631a2.715 2.715 0 1 1-2.715-2.715 2.718 2.718 0 0 1 2.715 2.715z"></path><path data-name="Path 5461" d="M32.51 29.422a2.715 2.715 0 1 1-2.715-2.715 2.718 2.718 0 0 1 2.715 2.715z"></path></svg><svg width="51.58" height="40" viewBox="0 0 51.58 40" id="pizza-arrow-right" y="8938"><path data-name="Path 5457" d="M14.843 14.384a2.715 2.715 0 1 0 2.715-2.715 2.718 2.718 0 0 0-2.715 2.715z"></path><path data-name="Path 5458" d="M12.544 2.431a25.9 25.9 0 0 0-1.666 3.756A41.122 41.122 0 0 0 8.658 20c0 9.495 2.694 15.417 3.884 17.57l7.181-2.8a5.74 5.74 0 1 1 7.2-2.8l22.452-8.74a3.471 3.471 0 0 0 0-6.465l-9.117-3.545a5.734 5.734 0 1 1-3.664-1.326c.092 0 .184 0 .275.007zm10.752 11.953a5.737 5.737 0 1 1-5.738-5.737 5.744 5.744 0 0 1 5.738 5.737z"></path><path data-name="Path 5459" d="M4.786.634C4.59.908 0 7.488 0 20s4.59 19.092 4.786 19.366a1.511 1.511 0 0 0 1.778.534L9.7 38.675C8.253 35.94 5.636 29.665 5.636 20S8.253 4.06 9.7 1.325L6.564.1a1.511 1.511 0 0 0-1.778.534z"></path><path data-name="Path 5460" d="M33.882 17.631a2.715 2.715 0 1 0 2.715-2.715 2.718 2.718 0 0 0-2.715 2.715z"></path><path data-name="Path 5461" d="M19.069 29.422a2.715 2.715 0 1 0 2.715-2.715 2.718 2.718 0 0 0-2.715 2.715z"></path></svg><svg width="20.164" height="26" viewBox="0 0 20.164 26" id="pizza-pice" y="8978"><path data-name="Path 5936" d="M7.251 18.518a1.369 1.369 0 1 0-1.369-1.369 1.37 1.37 0 0 0 1.369 1.369z"></path><path data-name="Path 5937" d="M1.231 19.68a13.056 13.056 0 0 0 1.893.84 20.729 20.729 0 0 0 6.963 1.119 18.469 18.469 0 0 0 8.852-1.959l-1.408-3.622a2.893 2.893 0 1 1-1.412-3.628L11.713 1.112a1.75 1.75 0 0 0-3.259 0L6.666 5.705a2.89 2.89 0 1 1-.668 1.847v-.139zm6.025-5.42a2.892 2.892 0 1 1-2.892 2.892 2.9 2.9 0 0 1 2.887-2.894z"></path><path data-name="Path 5938" d="M.32 23.588C.458 23.686 3.775 26 10.082 26s9.624-2.314 9.762-2.412a.762.762 0 0 0 .268-.9l-.616-1.582a20.177 20.177 0 0 1-9.414 2.05 20.177 20.177 0 0 1-9.414-2.05l-.616 1.582a.762.762 0 0 0 .268.9z"></path><path data-name="Path 5939" d="M8.888 8.921a1.369 1.369 0 1 0-1.369-1.369 1.37 1.37 0 0 0 1.369 1.369z"></path><path data-name="Path 5940" d="M14.831 16.387a1.369 1.369 0 1 0-1.369-1.369 1.37 1.37 0 0 0 1.369 1.369z"></path></svg><svg viewBox="0 0 477 477" width="477" height="477" id="placeholder" y="9004"><path d="M238.4 0C133 0 47.2 85.8 47.2 191.2c0 12 1.1 24.1 3.4 35.9.1.7.5 2.8 1.3 6.4 2.9 12.9 7.2 25.6 12.8 37.7 20.6 48.5 65.9 123 165.3 202.8 2.5 2 5.5 3 8.5 3s6-1 8.5-3c99.3-79.8 144.7-154.3 165.3-202.8 5.6-12.1 9.9-24.7 12.8-37.7.8-3.6 1.2-5.7 1.3-6.4 2.2-11.8 3.4-23.9 3.4-35.9C429.6 85.8 343.8 0 238.4 0zm161.2 222.4c0 .2-.1.4-.1.6-.1.5-.4 2-.9 4.3v.2c-2.5 11.2-6.2 22.1-11.1 32.6-.1.1-.1.3-.2.4-18.7 44.3-59.7 111.9-148.9 185.6-89.2-73.7-130.2-141.3-148.9-185.6-.1-.1-.1-.3-.2-.4-4.8-10.4-8.5-21.4-11.1-32.6v-.2c-.6-2.3-.8-3.8-.9-4.3 0-.2-.1-.4-.1-.7-2-10.3-3-20.7-3-31.2 0-90.5 73.7-164.2 164.2-164.2s164.2 73.7 164.2 164.2c0 10.6-1 21.1-3 31.3z"></path><path d="M238.4 71.9c-66.9 0-121.4 54.5-121.4 121.4s54.5 121.4 121.4 121.4 121.4-54.5 121.4-121.4S305.3 71.9 238.4 71.9zm0 215.8c-52.1 0-94.4-42.4-94.4-94.4s42.4-94.4 94.4-94.4 94.4 42.4 94.4 94.4-42.3 94.4-94.4 94.4z"></path></svg><svg width="14" height="14" viewBox="0 0 14 14" id="plus" y="9481"><path data-name="Union 1" d="M6.001 14V8h-6V6h6V0h2v6h6v2h-6v6z"></path></svg><svg width="22" height="22" viewBox="0 0 22 22" id="question-circle" y="9495"><path d="M11 22a11 11 0 1 1 11-11 11 11 0 0 1-11 11zm0-2a9 9 0 1 0-9-9 9 9 0 0 0 9 9zm0-4a1 1 0 1 1 1-1 1 1 0 0 1-1 1zm1-3h-2a3.033 3.033 0 0 1 2.053-3.144C12.875 9.445 13 9.3 13 8.5c0-.944-.723-1.5-2-1.5a2 2 0 0 0-2 2H7a4 4 0 0 1 4-4c2.284 0 4 1.321 4 3.5a3.033 3.033 0 0 1-2.053 3.144C12.125 12.055 12 12.2 12 13z" fill-rule="evenodd"></path></svg><svg width="24" height="22" viewBox="0 0 24 22" id="repeat" y="9517"><defs><path id="a" d="M1515.477 514.514c-1.232 2.532-3.395 4.441-6.088 5.377a10.878 10.878 0 0 1-3.577.604c-2.96 0-5.816-1.219-7.835-3.344a1.247 1.247 0 0 1 .068-1.788 1.287 1.287 0 0 1 1.794.066 8.264 8.264 0 0 0 5.974 2.55 8.29 8.29 0 0 0 2.73-.461c3.245-1.128 5.425-4.153 5.425-7.529 0-.907-.158-1.801-.469-2.66-1.15-3.18-4.24-5.316-7.692-5.316a8.25 8.25 0 0 0-2.72.461c-1.697.589-3.107 1.671-4.07 3.104l2.508-.872a1.276 1.276 0 0 1 1.623.762 1.26 1.26 0 0 1-.778 1.612l-5.358 1.864a1.285 1.285 0 0 1-.97-.05 1.265 1.265 0 0 1-.653-.71l-1.8-4.98a1.238 1.238 0 0 1-.076-.426c0-.533.343-1.01.854-1.186a1.284 1.284 0 0 1 1.621.764l.749 2.073c1.27-2.007 3.19-3.524 5.503-4.328 1.15-.401 2.35-.604 3.567-.604 4.526 0 8.582 2.806 10.095 6.984.412 1.142.62 2.326.62 3.52 0 1.567-.351 3.085-1.045 4.513z"></path></defs><use xlink:href="#a" transform="translate(-1493 -499)"></use></svg><svg width="30" height="30" viewBox="0 0 30 30" id="search" y="9539"><path data-name="Path 1209" d="M12.5 25A12.5 12.5 0 1 1 25 12.5 12.448 12.448 0 0 1 12.5 25zm0-22.222a9.722 9.722 0 1 0 9.722 9.722A9.662 9.662 0 0 0 12.5 2.778z"></path><path data-name="Path 1210" d="M28.611 30a1.261 1.261 0 0 1-.972-.417l-7.778-7.778a1.375 1.375 0 0 1 1.944-1.944l7.778 7.778a1.343 1.343 0 0 1 0 1.944 1.261 1.261 0 0 1-.972.417z"></path></svg><svg viewBox="0 0 481.6 481.6" width="481.6" height="481.6" id="share" y="9569"><path d="M381.6 309.4c-27.7 0-52.4 13.2-68.2 33.6l-132.3-73.9c3.1-8.9 4.8-18.5 4.8-28.4 0-10-1.7-19.5-4.9-28.5l132.2-73.8c15.7 20.5 40.5 33.8 68.3 33.8 47.4 0 86.1-38.6 86.1-86.1S429 0 381.5 0s-86.1 38.6-86.1 86.1c0 10 1.7 19.6 4.9 28.5l-132.1 73.8c-15.7-20.6-40.5-33.8-68.3-33.8-47.4 0-86.1 38.6-86.1 86.1s38.7 86.1 86.2 86.1c27.8 0 52.6-13.3 68.4-33.9l132.2 73.9c-3.2 9-5 18.7-5 28.7 0 47.4 38.6 86.1 86.1 86.1s86.1-38.6 86.1-86.1-38.7-86.1-86.2-86.1zm0-282.3c32.6 0 59.1 26.5 59.1 59.1s-26.5 59.1-59.1 59.1-59.1-26.5-59.1-59.1 26.6-59.1 59.1-59.1zM100 299.8c-32.6 0-59.1-26.5-59.1-59.1s26.5-59.1 59.1-59.1 59.1 26.5 59.1 59.1-26.6 59.1-59.1 59.1zm281.6 154.7c-32.6 0-59.1-26.5-59.1-59.1s26.5-59.1 59.1-59.1 59.1 26.5 59.1 59.1-26.5 59.1-59.1 59.1z"></path></svg><svg width="43" height="43" viewBox="0 0 43 43" id="smile-good" y="10051"><defs><path id="a" d="M928 1166c0 5.34-2.08 10.36-5.86 14.14A19.87 19.87 0 0 1 908 1186a19.87 19.87 0 0 1-14.14-5.86A19.87 19.87 0 0 1 888 1166c0-5.34 2.08-10.37 5.86-14.14A19.87 19.87 0 0 1 908 1146c5.34 0 10.36 2.08 14.14 5.86A19.87 19.87 0 0 1 928 1166zm-2.47 0c0-9.66-7.87-17.53-17.53-17.53a17.55 17.55 0 0 0-17.53 17.53c0 9.66 7.87 17.52 17.53 17.52s17.53-7.86 17.53-17.52zm-14.15-3.8a2.89 2.89 0 1 1 5.78.01 2.89 2.89 0 0 1-5.78 0zm-12.54 0a2.89 2.89 0 1 1 5.78.01 2.89 2.89 0 0 1-5.78 0zm17.87 7l2.32.86a11.8 11.8 0 0 1-11.03 7.7c-4.9 0-9.33-3.1-11.03-7.7l2.32-.86a9.32 9.32 0 0 0 8.71 6.08 9.32 9.32 0 0 0 8.71-6.08z"></path></defs><use xlink:href="#a" transform="translate(-886 -1144)"></use></svg><svg width="48" height="48" viewBox="0 0 48 48" id="soc-fb" y="10094"><path d="M24 0a24 24 0 1 0 24 24A24 24 0 0 0 24 0zm2.5 25.054v13.057h-5.4V25.055h-2.7v-4.5h2.7v-2.7c0-3.672 1.523-5.855 5.853-5.855h3.6v4.5H28.3c-1.686 0-1.8.629-1.8 1.8v2.255h4.082l-.478 4.5z" fill-rule="evenodd"></path></svg><svg width="48" height="48" viewBox="0 0 48 48" id="soc-inst" y="10142"><path data-name="Path 6956" d="M24 0a24 24 0 1 0 24 24A24 24 0 0 0 24 0zm-5.277 11.277c1.365-.062 1.8-.077 5.278-.077 3.477 0 3.912.015 5.277.077a9.424 9.424 0 0 1 3.109.595 6.549 6.549 0 0 1 3.744 3.744 9.482 9.482 0 0 1 .595 3.107c.061 1.365.077 1.8.077 5.278s-.016 3.912-.077 5.277a9.487 9.487 0 0 1-.595 3.107 6.559 6.559 0 0 1-3.743 3.745 9.409 9.409 0 0 1-3.108.595c-1.365.062-1.8.077-5.277.077s-3.912-.015-5.277-.077a9.4 9.4 0 0 1-3.107-.595 6.551 6.551 0 0 1-3.743-3.745 9.407 9.407 0 0 1-.595-3.107c-.062-1.365-.077-1.8-.077-5.277s.016-3.913.077-5.278a9.351 9.351 0 0 1 .595-3.107 6.548 6.548 0 0 1 3.745-3.743 9.394 9.394 0 0 1 3.102-.596z" fill-rule="evenodd"></path><path data-name="Path 6957" d="M22.853 13.507H24c3.418 0 3.823.012 5.172.074a7.087 7.087 0 0 1 2.377.441 4.242 4.242 0 0 1 2.429 2.429 7.073 7.073 0 0 1 .441 2.376c.061 1.349.075 1.755.075 5.171s-.013 3.821-.075 5.171a7.08 7.08 0 0 1-.441 2.376 4.245 4.245 0 0 1-2.429 2.428 7.059 7.059 0 0 1-2.377.441c-1.349.061-1.755.075-5.172.075s-3.823-.013-5.172-.075a7.1 7.1 0 0 1-2.377-.441 4.241 4.241 0 0 1-2.43-2.429 7.072 7.072 0 0 1-.441-2.376c-.061-1.349-.074-1.755-.074-5.173s.012-3.821.074-5.171a7.087 7.087 0 0 1 .441-2.376 4.242 4.242 0 0 1 2.43-2.43 7.072 7.072 0 0 1 2.377-.441c1.181-.053 1.639-.069 4.024-.072zm7.981 2.125a1.536 1.536 0 1 0 1.536 1.536 1.536 1.536 0 0 0-1.536-1.536zM17.428 24A6.573 6.573 0 1 1 24 30.572 6.574 6.574 0 0 1 17.428 24z" fill-rule="evenodd"></path><path data-name="Path 6958" d="M24 19.733A4.267 4.267 0 1 1 19.735 24 4.267 4.267 0 0 1 24 19.733z"></path></svg><svg width="48" height="48" viewBox="0 0 48 48" id="soc-telegram" y="10190"><path d="M0 24A24 24 0 1 0 24 0 24 24 0 0 0 0 24zm19.6 11l.408-6.118 11.129-10.043c.488-.434-.107-.645-.755-.252l-13.735 8.665-5.932-1.852c-1.281-.392-1.29-1.273.288-1.906l23.117-8.913c1.056-.479 2.075.254 1.672 1.87L31.855 35c-.275 1.318-1.071 1.634-2.175 1.025l-6-4.431L20.8 34.4l-.027.026A1.5 1.5 0 0 1 19.6 35z" fill-rule="evenodd"></path></svg><svg width="48" height="48" viewBox="0 0 48 48" id="soc-twtr" y="10238"><path d="M24 0a24 24 0 1 0 24 24A24 24 0 0 0 24 0zm-.668 20.338l-.05-.83a4.852 4.852 0 0 1 3.274-4.881 5.734 5.734 0 0 1 2.938-.068 6.831 6.831 0 0 1 1.427.746l.823.559.907-.288A9.364 9.364 0 0 0 34.126 15c.285-.153.537-.237.537-.186a4.93 4.93 0 0 1-1.142 1.813c-.705.763-.5.83.923.322.856-.288.873-.288.705.034a11.072 11.072 0 0 1-1.175 1.305c-.94.932-.99 1.034-.99 1.813a17.481 17.481 0 0 1-1.142 5.084 14.738 14.738 0 0 1-5.59 6.576 14.18 14.18 0 0 1-11.012 1.254A12.776 12.776 0 0 1 12 31.524a4.966 4.966 0 0 1 1.377-.136 9.452 9.452 0 0 0 4.5-1.254l.907-.542-1.041-.356a5.075 5.075 0 0 1-3.139-2.78c-.1-.356-.067-.373.873-.373l.974-.017-.823-.39a5.421 5.421 0 0 1-2.3-2.169 6.072 6.072 0 0 1-.6-2.271 1.98 1.98 0 0 1 .789.186c1.158.424 1.309.322.638-.39a4.891 4.891 0 0 1-1.041-5.017l.285-.813L14.5 16.3a13.654 13.654 0 0 0 7.991 3.932z" fill-rule="evenodd"></path></svg><svg width="48" height="48" viewBox="0 0 48 48" id="soc-vk" y="10286"><path d="M24 0a24 24 0 1 0 24 24A24 24 0 0 0 24 0zm1.954 31.576a1.311 1.311 0 0 1-.7.3h-1.53a8.876 8.876 0 0 1-6.349-2.839c-3.243-3.315-6.106-9.892-6.106-9.892s-.165-.431.014-.639c.2-.235.751-.249.751-.249l3.657-.023a1.593 1.593 0 0 1 .591.233 1.126 1.126 0 0 1 .318.422 23.9 23.9 0 0 0 1.374 2.795c1.529 2.592 2.24 3.159 2.758 2.881.756-.4.53-3.664.53-3.664a3.589 3.589 0 0 0-.381-1.71 1.739 1.739 0 0 0-1.136-.56c-.207-.027.132-.5.57-.707a8.467 8.467 0 0 1 3.195-.324 6.693 6.693 0 0 1 1.8.176c.971.23.94.967.875 2.557-.02.476-.042 1.027-.042 1.665 0 .143 0 .3-.009.453-.023.815-.049 1.748.5 2.095.281.177.965.026 2.68-2.831a21.662 21.662 0 0 0 1.421-2.946 1.068 1.068 0 0 1 .341-.406.89.89 0 0 1 .5-.086l3.849-.023s1.157-.136 1.344.377c.2.537-.432 1.793-2 3.851-1.492 1.952-2.218 2.671-2.151 3.307.049.465.521.885 1.426 1.709a11.78 11.78 0 0 1 2.519 2.847l.023.04c.848 1.38-.94 1.488-.94 1.488l-3.419.047a2.458 2.458 0 0 1-1.7-.509 8.758 8.758 0 0 1-1.472-1.428c-.72-.81-1.385-1.558-1.952-1.382-.953.3-.924 2.312-.924 2.312a1.084 1.084 0 0 1-.225.663z" fill-rule="evenodd"></path></svg><svg viewBox="0 0 512 512" width="512" height="512" id="soc-whatsapp" y="10334"><path d="M256.064 0h-.128C114.784 0 0 114.816 0 256c0 56 18.048 107.904 48.736 150.048l-31.904 95.104 98.4-31.456C155.712 496.512 204 512 256.064 512 397.216 512 512 397.152 512 256S397.216 0 256.064 0zm148.96 361.504c-6.176 17.44-30.688 31.904-50.24 36.128-13.376 2.848-30.848 5.12-89.664-19.264-75.232-31.168-123.68-107.616-127.456-112.576-3.616-4.96-30.4-40.48-30.4-77.216s18.656-54.624 26.176-62.304c6.176-6.304 16.384-9.184 26.176-9.184 3.168 0 6.016.16 8.576.288 7.52.32 11.296.768 16.256 12.64 6.176 14.88 21.216 51.616 23.008 55.392 1.824 3.776 3.648 8.896 1.088 13.856-2.4 5.12-4.512 7.392-8.288 11.744-3.776 4.352-7.36 7.68-11.136 12.352-3.456 4.064-7.36 8.416-3.008 15.936 4.352 7.36 19.392 31.904 41.536 51.616 28.576 25.44 51.744 33.568 60.032 37.024 6.176 2.56 13.536 1.952 18.048-2.848 5.728-6.176 12.8-16.416 20-26.496 5.12-7.232 11.584-8.128 18.368-5.568 6.912 2.4 43.488 20.48 51.008 24.224 7.52 3.776 12.48 5.568 14.304 8.736 1.792 3.168 1.792 18.048-4.384 35.52z"></path></svg><svg width="48" height="48" viewBox="0 0 48 48" id="soc-youtube" y="10846"><path data-name="Path 6959" d="M24 0a24 24 0 1 0 24 24A24 24 0 0 0 24 0zm10 15.749a3.25 3.25 0 0 1 2.263 2.324A35.1 35.1 0 0 1 36.8 24.4a35.1 35.1 0 0 1-.535 6.327A3.25 3.25 0 0 1 34 33.051c-2 .549-10 .549-10 .549s-8.005 0-10-.549a3.25 3.25 0 0 1-2.263-2.324A35.112 35.112 0 0 1 11.2 24.4a35.111 35.111 0 0 1 .535-6.327A3.25 3.25 0 0 1 14 15.749c2-.549 10-.549 10-.549s8.005 0 10 .549z" fill-rule="evenodd"></path><path data-name="Path 6960" d="M21.6 28.8v-8l6.4 4z"></path></svg><svg viewBox="0 0 490.727 490.727" width="490.727" height="490.727" id="star" y="10894"><path d="M453.443 160.214l-119.7-8.6c-2.5-.2-4.7-1.7-5.6-4.1l-45.6-111c-6.3-15.3-20.5-24.8-37.1-24.8s-30.7 9.5-37.1 24.9l-45.7 111.1c-1 2.3-3.1 3.9-5.6 4.1l-119.5 8.6c-16.2.9-30 11.5-35.3 27.1-5.4 15.8-.9 32.4 11.9 43.3l92.5 76.4c1.9 1.6 2.8 4.2 2.2 6.6l-28.2 115.4c-3.3 12-1 24.4 6.3 34.1 7.5 9.8 19.2 15.7 31.5 15.7 7.6 0 15-2.3 21.1-6.4l101.1-62.9c2.1-1.3 4.8-1.3 6.9 0l102.1 62.7c6.4 4.3 13.8 6.6 21.3 6.6 11.5 0 22.9-5.5 30.3-14.8 7.7-9.6 10.5-22.1 7.7-34.6l-28.3-115.7c-.6-2.5.3-5.1 2.2-6.7l93.9-76.6c12.6-10.8 17.1-27.4 11.8-43.2-5.2-15.6-19.1-26.3-35.1-27.2zm7.7 51.5l-93.7 76.5c-9.2 7.5-13.4 19.9-10.5 31.5l28.3 115.5c1.5 6.8-1.2 11.5-3 13.7-2.8 3.5-7 5.7-11.2 5.7-2.6 0-5.2-.8-8-2.7l-102.5-63c-4.9-3-10.5-4.6-16.3-4.6s-11.5 1.6-16.4 4.7l-101.5 63.1c-6.5 4.3-15.2 2.4-19.8-3.6-1.9-2.5-3.9-6.8-2.1-13.1l28.3-115.8c2.8-11.5-1.3-23.8-10.4-31.3l-92.3-76.3c-7.3-6.3-5.3-14.4-4.5-16.7s4.1-10 13.7-10.5l119.7-8.6c11.8-.9 22-8.2 26.5-19.2l45.7-111.1c3.7-9 12-9.7 14.4-9.7 2.4 0 10.7.7 14.4 9.7l45.7 111.1c4.5 11 14.7 18.3 26.5 19.2l119.9 8.7c9.4.5 12.7 8.2 13.5 10.5.6 2.1 2.6 10.2-4.4 16.3z"></path></svg><svg width="20" height="22" viewBox="0 0 20 22" id="trash" y="11385"><path d="M5 3V2a2 2 0 0 1 2-2h6a2 2 0 0 1 2 2v1h3a2 2 0 0 1 2 2v2a2 2 0 0 1-2 2h-.08L17 20a2 2 0 0 1-2 2H5a1.979 1.979 0 0 1-2-1.917L2.08 9H2a2 2 0 0 1-2-2V5a2 2 0 0 1 2-2zm0 2H2v2h16V5H5zm-.914 4L5 20h10v-.083L15.913 9zM13 3V2H7v1z" fill-rule="evenodd"></path></svg><svg width="96" height="95.428" viewBox="0 0 96 95.428" id="unlike" y="11407"><path data-name="Path 84" d="M2.6 44.201a10.194 10.194 0 0 0 7.6 17H30a65.927 65.927 0 0 0-2.8 17.227v3.4a13.617 13.617 0 0 0 13.6 13.6h3.4a3.4 3.4 0 0 0 3.3-2.575l1.852-7.41c2.6-10.377 10.835-21.826 19.362-23.907a10.214 10.214 0 0 0 9.488 6.465H92.6a3.4 3.4 0 0 0 3.4-3.4v-61.2a3.4 3.4 0 0 0-3.4-3.4H78.2a10.211 10.211 0 0 0-9.207 5.814L57.311 1.921A37.318 37.318 0 0 0 45.483.001H17a10.2 10.2 0 0 0-9.484 13.958 10.194 10.194 0 0 0-4.912 16.642 10.18 10.18 0 0 0 0 13.6zm72.2-34a3.4 3.4 0 0 1 3.4-3.4h11v54.4h-11a3.4 3.4 0 0 1-3.4-3.4zM17 40.801h-6.8a3.4 3.4 0 1 1 0-6.8H17a3.4 3.4 0 0 0 0-6.8h-6.8a3.4 3.4 0 1 1 0-6.8H17a3.4 3.4 0 1 0 0-6.8 3.4 3.4 0 0 1 0-6.8h28.483a30.534 30.534 0 0 1 9.679 1.571L68 12.651v42.072c-5.333 1.013-10.554 4.391-15.266 9.919a49.611 49.611 0 0 0-9.98 19.151l-1.208 4.835H40.8a6.808 6.808 0 0 1-6.8-6.8v-3.4c0-4.565 1.428-13.321 3.255-17.229H44.2a3.4 3.4 0 0 0 0-6.8h-34a3.4 3.4 0 1 1 0-6.8H17a3.4 3.4 0 0 0 0-6.8z"></path></svg><svg viewBox="0 0 512.001 512.001" width="512.001" height="512.001" id="upload" y="11503"><path d="M405.967 195.112c-1.069-78.061-64.902-141.239-143.213-141.239-34.835 0-68.396 12.672-94.498 35.682-23.296 20.535-39.232 47.977-45.543 78.106-.461-.005-.918-.009-1.374-.009C54.434 167.652 0 222.085 0 288.991S54.434 410.33 121.34 410.33h84.743c6.029 0 10.919-4.888 10.919-10.919 0-6.031-4.89-10.919-10.919-10.919H121.34c-54.866 0-99.502-44.636-99.502-99.501s44.636-99.501 99.502-99.501c2.923 0 6.013.157 9.448.48 5.822.545 11.049-3.596 11.842-9.396 3.932-28.82 18.161-55.327 40.067-74.638 22.111-19.492 50.542-30.226 80.056-30.226 66.935 0 121.389 54.455 121.389 121.389 0 2.41-.179 4.894-.368 7.524l-.081 1.118a10.915 10.915 0 0 0 3.287 8.604 10.914 10.914 0 0 0 8.697 3.03 87.102 87.102 0 0 1 8.708-.44c47.297 0 85.778 38.48 85.778 85.778 0 47.297-38.48 85.777-85.778 85.777h-89.111c-6.029 0-10.919 4.888-10.919 10.919 0 6.031 4.89 10.919 10.919 10.919h89.111c59.339 0 107.616-48.275 107.616-107.615-.001-58.807-47.421-106.752-106.034-107.601z"></path><path d="M262.755 105.192c-45.658 0-84.742 34.121-90.914 79.367-.815 5.975 3.369 11.48 9.343 12.295.501.068.998.102 1.489.102 5.375 0 10.059-3.97 10.804-9.444 4.703-34.48 34.486-60.482 69.277-60.482 6.031 0 10.919-4.888 10.919-10.919.001-6.03-4.888-10.919-10.918-10.919zm49.655 214.86l-39.718-35.48c-6.847-6.12-17.177-6.119-24.027-.001l-39.718 35.482c-4.498 4.017-4.886 10.92-.869 15.418 4.017 4.496 10.919 4.887 15.418.869l26.264-23.462v134.331c0 6.031 4.888 10.919 10.919 10.919 6.03 0 10.919-4.888 10.919-10.919V312.876l26.265 23.463a10.873 10.873 0 0 0 7.27 2.776 10.89 10.89 0 0 0 8.148-3.645c4.015-4.498 3.626-11.4-.871-15.418z"></path></svg><svg width="22" height="22" viewBox="0 0 22 22" id="user" y="12016"><path d="M5.035 17.74a9 9 0 0 0 11.929 0C16.672 16.687 14.569 16 11 16s-5.672.687-5.965 1.74zM3.6 16.125C4.726 14.638 7.371 14 11 14s6.274.638 7.4 2.125a9 9 0 1 0-14.8 0zM11 22a11 11 0 1 1 11-11 11 11 0 0 1-11 11zM7 9a3.851 3.851 0 0 1 4-4 4 4 0 0 1 4 4.2c0 3.28-1.782 4.8-4 4.8-2.239 0-4-1.573-4-5zm2 0c0 2.269.818 3 2 3s2-.7 2-2.8A2.019 2.019 0 0 0 11 7a1.864 1.864 0 0 0-2 2z" fill-rule="evenodd"></path></svg></svg>