<svg xmlns="http://www.w3.org/2000/svg" width="178.199" height="150" viewBox="0 0 178.199 150">
  <g id="Group_3193" data-name="Group 3193" transform="translate(-644 -326.097)">
    <path id="Path_5964" data-name="Path 5964" d="M183.741,231.475a2.7,2.7,0,0,0-2.186-1.114H38.2a2.7,2.7,0,1,0,0,5.4H177.835L168.1,265.707H152.125l4.367-20.516a2.7,2.7,0,1,0-5.285-1.125L146.6,265.707H128.4l1.845-20.84a2.7,2.7,0,0,0-5.383-.476l-1.887,21.316H104.795V244.628a2.7,2.7,0,1,0-5.4,0v21.078H81.815L79.928,244.39a2.7,2.7,0,0,0-5.383.476l1.845,20.84H73.084a2.7,2.7,0,1,0,0,5.4h3.784l1.7,19.222H63.429l-4.091-19.222h2.94a2.7,2.7,0,1,0,0-5.4h-4.09l-4.606-21.641a2.7,2.7,0,1,0-5.285,1.125l4.367,20.516h-16.4l-9.9-29.942h1.023a2.7,2.7,0,1,0,0-5.4H22.632a2.7,2.7,0,0,0-2.565,3.55L46.243,313.1a10.883,10.883,0,0,0,10.35,7.48h91.42a10.874,10.874,0,0,0,10.366-7.529l8.021-24.66a2.7,2.7,0,0,0-5.139-1.671l-1.175,3.612h-13.2l4.091-19.222h15.364l-1.734,5.332a2.7,2.7,0,1,0,5.139,1.671L184.124,233.9A2.7,2.7,0,0,0,183.741,231.475Zm-61.246,39.636-1.7,19.222h-16V271.111Zm1.524,44.067,1.721-19.441h14.469l-4.138,19.441Zm-5.425,0h-13.8V295.736h15.52Zm-32.4,0-1.721-19.441H99.392v19.441Zm-3.9-44.067h17.1v19.222h-15.4Zm-3.244,24.625,1.721,19.441H68.717l-4.138-19.441ZM53.813,271.111,57.9,290.332h-13.5l-6.354-19.222Zm-2.439,40.295-5.18-15.67h12.86l4.138,19.441h-6.6A5.487,5.487,0,0,1,51.374,311.405Zm106.955-15.669-5.088,15.644a5.483,5.483,0,0,1-5.227,3.8H141.6l4.138-19.441h12.595Zm-16.97-5.4H126.218l1.7-19.222H145.45Z" transform="translate(631.007 155.515)" fill="#1d893a"/>
    <path id="Path_5965" data-name="Path 5965" d="M178.2,216.456a11.6,11.6,0,0,1-11.568,11.564H11.568a11.566,11.566,0,0,1,0-23.132H166.632a11.605,11.605,0,0,1,11.55,10.923C178.192,216.024,178.2,216.24,178.2,216.456Z" transform="translate(644 172.122)" fill="#e30613"/>
    <g id="Group_1871" data-name="Group 1871" transform="translate(677.839 326.097)">
      <path id="Path_5966" data-name="Path 5966" d="M15.692,7.843v54.92A7.846,7.846,0,1,1,0,62.763V7.843A7.836,7.836,0,0,1,13.387,2.305q.119.119.238.249A7.8,7.8,0,0,1,15.692,7.843Z" transform="translate(35.304 0) rotate(30)"/>
      <path id="Path_5967" data-name="Path 5967" d="M15.692,62.766V7.846A7.846,7.846,0,1,0,0,7.846v54.92A7.835,7.835,0,0,0,13.386,68.3q.119-.119.238-.249A7.8,7.8,0,0,0,15.692,62.766Z" transform="translate(110.688 61.149) rotate(150)"/>
      <circle id="Ellipse_243" data-name="Ellipse 243" cx="2.329" cy="2.329" r="2.329" transform="translate(8.14 56.164)" fill="#e30613"/>
      <ellipse id="Ellipse_244" data-name="Ellipse 244" cx="2.329" cy="2.329" rx="2.329" ry="2.329" transform="translate(97.889 56.164)" fill="#e30613"/>
    </g>
  </g>
</svg>
