<svg xmlns="http://www.w3.org/2000/svg" width="107" height="55" viewBox="0 0 107 55">
  <g id="Сгруппировать_3203" data-name="Сгруппировать 3203" transform="translate(-1376 -454)">
    <g id="Сгруппировать_3195" data-name="Сгруппировать 3195" transform="translate(970 52)">
      <path id="Вычитание_19" data-name="Вычитание 19" d="M1938-5183a34.777,34.777,0,0,1-13.624-2.75,34.884,34.884,0,0,1-11.125-7.5,34.887,34.887,0,0,1-7.5-11.125A34.786,34.786,0,0,1,1903-5218h70a34.784,34.784,0,0,1-2.75,13.624,34.885,34.885,0,0,1-7.5,11.125,34.884,34.884,0,0,1-11.125,7.5A34.776,34.776,0,0,1,1938-5183Z" transform="translate(-1497 5640)" fill="#ff8d00"/>
      <circle id="Эллипс_291" data-name="Эллипс 291" cx="20" cy="20" r="20" transform="translate(421 402)" fill="#1a60a8"/>
    </g>
    <text id="time" transform="translate(1452 497)" font-size="24" font-family="TruthCYR-Bold, TruthCYR" font-weight="700" letter-spacing="0.025em"><tspan x="-30.708" y="0">TIME</tspan></text>
  </g>
</svg>
