<svg xmlns="http://www.w3.org/2000/svg" width="48.639" height="50" viewBox="0 0 48.639 50">
  <g id="pizza" transform="translate(-6.979 -0.001)">
    <g id="Group_1728" data-name="Group 1728" transform="translate(11.881 10.677)">
      <path id="Path_5373" data-name="Path 5373" d="M66.208,280.452a5.827,5.827,0,0,1-4.6,5.7,5.431,5.431,0,0,1-1.233.133,5.764,5.764,0,0,1-3.2-.958l3.867-8.95.692-1.592A5.827,5.827,0,0,1,66.208,280.452Z" transform="translate(-57.175 -258.626)" fill="#d84315"/>
      <path id="Path_5374" data-name="Path 5374" d="M143.843,120.7a6.669,6.669,0,0,1-10.725-1.833v-.008l3.692-8.533.292-.683h.008a6.661,6.661,0,0,1,6.733,11.058Z" transform="translate(-125.702 -109.322)" fill="#d84315"/>
    </g>
    <g id="Group_1729" data-name="Group 1729" transform="translate(11.881 11.675)">
      <path id="Path_5375" data-name="Path 5375" d="M64.007,296.151a5.78,5.78,0,0,1-2.4,4.708,5.431,5.431,0,0,1-1.233.133,5.764,5.764,0,0,1-3.2-.958l3.867-8.95A5.8,5.8,0,0,1,64.007,296.151Z" transform="translate(-57.174 -274.332)" fill="#ff5722"/>
      <path id="Path_5376" data-name="Path 5376" d="M141.644,130.915a6.107,6.107,0,0,1-.917.767,6.672,6.672,0,0,1-7.608-3.592v-.008l3.692-8.533a6.706,6.706,0,0,1,5,11.3A.168.168,0,0,1,141.644,130.915Z" transform="translate(-125.702 -119.547)" fill="#ff5722"/>
    </g>
    <path id="Path_5377" data-name="Path 5377" d="M52.664,279.421a6.607,6.607,0,0,1-3.662-1.1.833.833,0,0,1-.3-1.025l4.559-10.542a.831.831,0,0,1,.957-.48,6.663,6.663,0,0,1-1.55,13.143Zm-2.139-2.146a5,5,0,1,0,4.281-9.036c-.1-.049-.208-.094-.314-.136Z" transform="translate(-37.582 -240.252)"/>
    <path id="Path_5378" data-name="Path 5378" d="M131.426,115.806a7.521,7.521,0,0,1-6.768-4.266.828.828,0,0,1-.081-.358.877.877,0,0,1,.068-.339l3.983-9.217a.834.834,0,0,1,.574-.481,7.5,7.5,0,1,1,2.227,14.66Zm-5.1-4.658a5.858,5.858,0,0,0,5.1,2.991h0a5.782,5.782,0,0,0,4.115-1.712l0,0A5.829,5.829,0,0,0,130,102.65Z" transform="translate(-106.113 -90.964)"/>
    <path id="Path_5379" data-name="Path 5379" d="M50.691,60.769c-5.017-5.017-11.408-7.558-17.2-7.4L31,59.144a6.657,6.657,0,1,1-3.992,9.224L24.2,74.876l-.05.108a5.83,5.83,0,0,1-1.358,11.5,5.764,5.764,0,0,1-3.2-.958l-.483,1.125-3.517,8.142a.838.838,0,0,0,1.1,1.1l15.8-6.825v6.583a1.669,1.669,0,0,0,1.674,1.665,1.69,1.69,0,0,0,.276-.023,1.727,1.727,0,0,0,1.383-1.742V91.526a1.667,1.667,0,0,0,3.333-.042v-5.3l8.333-3.6v5.567a1.669,1.669,0,0,0,1.674,1.665,1.69,1.69,0,0,0,.276-.023,1.727,1.727,0,0,0,1.383-1.742V84.026a1.667,1.667,0,0,0,3.333-.042V79.71L58.1,78C58.258,72.2,55.716,65.794,50.691,60.769ZM39.258,79.919a2.5,2.5,0,1,1,0-3.533A2.5,2.5,0,0,1,39.258,79.919Zm11.3-5.367a3.742,3.742,0,1,1,.008-.008Z" transform="translate(-7.71 -48.15)" fill="#ffeb3a"/>
    <path id="Path_5380" data-name="Path 5380" d="M26.448,90.441a2.5,2.5,0,0,1-2.5-2.5V82.627L9.311,88.949a1.683,1.683,0,0,1-1.315,0,1.671,1.671,0,0,1-.882-2.194l4-9.268a.834.834,0,0,1,1.227-.365,4.911,4.911,0,0,0,2.723.819h.017a5,5,0,0,0,1.164-9.857.833.833,0,0,1-.563-1.16l.05-.108,2.8-6.488a.833.833,0,0,1,.748-.5.842.842,0,0,1,.768.472,5.824,5.824,0,1,0,3.492-8.07A.833.833,0,0,1,22.526,51.1l2.492-5.775a.834.834,0,0,1,.742-.5c6.3-.182,12.782,2.614,17.813,7.643S51.4,64.009,51.225,70.315a.836.836,0,0,1-.5.743l-3.439,1.49v3.728a2.488,2.488,0,0,1-2.438,2.5,2.613,2.613,0,0,1-.9-.141v1.708a2.5,2.5,0,0,1-2.5,2.6,2.505,2.505,0,0,1-2.5-2.5v-4.3l-6.67,2.879v4.753a2.485,2.485,0,0,1-2.437,2.5,2.71,2.71,0,0,1-.9-.141v1.708A2.549,2.549,0,0,1,26.9,90.4C26.73,90.428,26.575,90.429,26.448,90.441ZM24.78,80.526a.833.833,0,0,1,.833.833v6.583a.837.837,0,0,0,.837.832.578.578,0,0,0,.141-.012.887.887,0,0,0,.69-.9V83.818a.834.834,0,0,1,.822-.833.849.849,0,0,1,.843.813.828.828,0,0,0,.26.583.774.774,0,0,0,.594.228.829.829,0,0,0,.813-.833v-5.3a.832.832,0,0,1,.5-.765l8.333-3.6a.832.832,0,0,1,1.163.765v5.567a.836.836,0,0,0,.837.832h0a.768.768,0,0,0,.139-.013.887.887,0,0,0,.689-.9V76.318a.833.833,0,0,1,.822-.833h.011a.834.834,0,0,1,.833.813.82.82,0,0,0,.259.583.745.745,0,0,0,.6.228.83.83,0,0,0,.813-.833V72a.833.833,0,0,1,.5-.765l3.446-1.493c-.013-5.613-2.668-11.592-7.17-16.094a23.182,23.182,0,0,0-16.059-7.163l-1.652,3.829A7.491,7.491,0,1,1,19.439,62.44l-1.866,4.325A6.663,6.663,0,0,1,15.087,79.61h-.023A6.565,6.565,0,0,1,12.284,79L8.646,87.415l15.8-6.821A.842.842,0,0,1,24.78,80.526Zm5-6.752a3.332,3.332,0,1,1,2.356-.976h0A3.311,3.311,0,0,1,29.781,73.774Zm0-5a1.665,1.665,0,1,0,1.178.488A1.655,1.655,0,0,0,29.781,68.778Zm10.417,0a4.58,4.58,0,1,1,3.248-1.35l-.009.008A4.547,4.547,0,0,1,40.2,68.773Zm0-7.493a2.912,2.912,0,0,0-2.062,4.973,2.983,2.983,0,0,0,4.122,0h0c.015-.015.035-.033.052-.047A2.914,2.914,0,0,0,40.2,61.28Z" transform="translate(0 -40.44)"/>
    <path id="Path_5381" data-name="Path 5381" d="M228.316,35.735l-1.725.742-2.475,1.067c.158-5.8-2.383-12.208-7.408-17.233s-11.408-7.558-17.2-7.4l1.075-2.483.733-1.708a24.159,24.159,0,0,1,27,27.017Z" transform="translate(-173.726 -7.691)" fill="#ffb301"/>
    <path id="Path_5382" data-name="Path 5382" d="M226.59,53.317l-2.475,1.067c.158-5.8-2.383-12.208-7.408-17.233s-11.408-7.558-17.2-7.4l1.075-2.483a24.144,24.144,0,0,1,26.008,26.05Z" transform="translate(-173.726 -24.532)" fill="#fec108"/>
    <path id="Path_5383" data-name="Path 5383" d="M216.417,30.686a.834.834,0,0,1-.833-.833V29.83c.157-5.764-2.521-11.978-7.165-16.621C203.712,8.5,197.647,5.9,191.832,6.052a.811.811,0,0,1-.713-.365.833.833,0,0,1-.075-.8L192.852.7a.833.833,0,0,1,.66-.5A24.993,24.993,0,0,1,221.444,28.15a.834.834,0,0,1-.5.66l-4.2,1.808A.846.846,0,0,1,216.417,30.686ZM193.073,4.391A25.036,25.036,0,0,1,209.6,12.03a25.083,25.083,0,0,1,7.648,16.559l2.6-1.12A23.326,23.326,0,0,0,194.192,1.8Z" transform="translate(-166.028 0)"/>
    <g id="Group_1730" data-name="Group 1730" transform="translate(27.283 20.003)">
      <path id="Path_5384" data-name="Path 5384" d="M315.155,211.222a3.748,3.748,0,1,1-5.3-5.3c.092-.092.183-.175.283-.258a3.749,3.749,0,0,1,5.017,5.558Z" transform="translate(-299.591 -204.823)" fill="#c52828"/>
      <path id="Path_5385" data-name="Path 5385" d="M219.154,285.892a2.47,2.47,0,0,1-1.575.725,2.516,2.516,0,0,1-1.958-.725,2.486,2.486,0,0,1-.092-3.425.568.568,0,0,1,.092-.108,2.5,2.5,0,0,1,3.533,3.533Z" transform="translate(-214.89 -274.126)" fill="#c52828"/>
    </g>
    <g id="Group_1731" data-name="Group 1731" transform="translate(27.283 20.844)">
      <path id="Path_5386" data-name="Path 5386" d="M312.632,219.824c-.092.092-.183.175-.283.258a3.686,3.686,0,0,1-2.517-1.092,3.742,3.742,0,0,1-.008-5.292l.008-.008c.092-.092.183-.175.283-.258a3.686,3.686,0,0,1,2.517,1.092,3.742,3.742,0,0,1,.008,5.292Z" transform="translate(-299.568 -213.432)" fill="#f44335"/>
      <path id="Path_5387" data-name="Path 5387" d="M217.579,294.318a2.516,2.516,0,0,1-1.958-.725,2.486,2.486,0,0,1-.092-3.425,2.516,2.516,0,0,1,1.958.725A2.486,2.486,0,0,1,217.579,294.318Z" transform="translate(-214.89 -282.668)" fill="#f44335"/>
    </g>
    <path id="Path_5388" data-name="Path 5388" d="M304.814,205.434a4.581,4.581,0,1,1,3.239-1.339A4.581,4.581,0,0,1,304.814,205.434Zm0-7.5a2.914,2.914,0,0,0-2.061,4.978,2.979,2.979,0,0,0,4.121,0h0a2.916,2.916,0,0,0-2.06-4.978Z" transform="translate(-264.616 -177.103)"/>
    <path id="Path_5389" data-name="Path 5389" d="M166.169,388.259a.833.833,0,0,1-.833-.833h0v-.917a.835.835,0,0,0-.833-.833.833.833,0,1,1,0-1.667,2.5,2.5,0,0,1,2.5,2.5v.917a.834.834,0,0,1-.833.833Z" transform="translate(-141.388 -346.507)"/>
    <path id="SVGCleanerId_0" d="M215.7,429.2a.816.816,0,0,1-.833-.8v-.89a.833.833,0,1,1,1.667,0v.833A.851.851,0,0,1,215.7,429.2Z" transform="translate(-187.586 -385.006)"/>
    <g id="Group_1732" data-name="Group 1732" transform="translate(27.281 41.669)">
      <path id="SVGCleanerId_0_1_" d="M215.7,429.2a.816.816,0,0,1-.833-.8v-.89a.833.833,0,1,1,1.667,0v.833A.851.851,0,0,1,215.7,429.2Z" transform="translate(-214.867 -426.675)"/>
    </g>
    <path id="Path_5390" data-name="Path 5390" d="M319.766,312.478a.833.833,0,0,1-.833-.833h0v-1.933a.835.835,0,0,0-.833-.833.833.833,0,1,1,0-1.667,2.5,2.5,0,0,1,2.5,2.5v1.933a.834.834,0,0,1-.833.833Z" transform="translate(-279.985 -277.209)"/>
    <path id="SVGCleanerId_1" d="M369.3,352.4a.816.816,0,0,1-.833-.8v-.89a.833.833,0,0,1,1.667,0v.833A.852.852,0,0,1,369.3,352.4Z" transform="translate(-326.184 -315.708)"/>
    <g id="Group_1733" data-name="Group 1733" transform="translate(42.281 34.169)">
      <path id="SVGCleanerId_1_1_" d="M369.3,352.4a.816.816,0,0,1-.833-.8v-.89a.833.833,0,0,1,1.667,0v.833A.852.852,0,0,1,369.3,352.4Z" transform="translate(-368.465 -349.877)"/>
    </g>
    <path id="Path_5391" data-name="Path 5391" d="M209.713,279.773a3.33,3.33,0,1,1,2.356-.974A3.33,3.33,0,0,1,209.713,279.773Zm0-5a1.664,1.664,0,1,0,1.178.487A1.665,1.665,0,0,0,209.713,274.777Z" transform="translate(-179.932 -246.44)"/>
    <path id="Path_5392" data-name="Path 5392" d="M403.431,306.83A.833.833,0,0,1,402.6,306h0v-1.025a.833.833,0,0,1,1.667,0V306a.834.834,0,0,1-.833.833Z" transform="translate(-356.983 -274.436)"/>
  </g>
</svg>
